<svg xmlns="http://www.w3.org/2000/svg" xmlns:xlink="http://www.w3.org/1999/xlink" xmlns:lucid="lucid" width="988.7" height="473.59"><g transform="translate(0 0)" lucid:page-tab-id=".Xn3r2l4au98"><path d="M85.97 80h160v120h-160z" stroke="#000" stroke-width="2" fill="#fff"/><use xlink:href="#a" transform="matrix(1,0,0,1,90.96666666666681,85) translate(26.099999999999994 47.8)"/><use xlink:href="#b" transform="matrix(1,0,0,1,90.96666666666681,85) translate(38.074999999999996 69.4)"/><path d="M225.97 364c0 3.3-22.4 6-50 6-27.62 0-50-2.7-50-6v-48c0-3.3 22.38-6 50-6 27.6 0 50 2.7 50 6z" stroke="#000" stroke-width="2" fill="#d1bcd2"/><path d="M225.97 316c0 3.3-22.4 6-50 6-27.62 0-50-2.7-50-6" stroke="#000" stroke-width="2" fill="none"/><use xlink:href="#c" transform="matrix(1,0,0,1,130.9666666666668,327) translate(28 22.6)"/><path d="M226 454c0 3.3-46.56 6-104 6s-104-2.7-104-6v-48c0-3.3 46.56-6 104-6s104 2.7 104 6z" stroke="#000" stroke-width="2" fill="#ffbbb1"/><path d="M226 406c0 3.3-46.56 6-104 6s-104-2.7-104-6" stroke="#000" stroke-width="2" fill="none"/><use xlink:href="#d" transform="matrix(1,0,0,1,23,417) translate(50.025 22.6)"/><path d="M404.97 20h160v80h-160z" stroke="#000" stroke-width="2" fill="#fff"/><use xlink:href="#a" transform="matrix(1,0,0,1,409.9666666666668,25) translate(26.099999999999994 27.799999999999997)"/><use xlink:href="#e" transform="matrix(1,0,0,1,409.9666666666668,25) translate(49.599999999999994 49.4)"/><path d="M404.97 120h160v80h-160z" stroke="#000" stroke-width="2" fill="#fff"/><use xlink:href="#a" transform="matrix(1,0,0,1,409.9666666666668,125) translate(26.099999999999994 27.799999999999997)"/><use xlink:href="#e" transform="matrix(1,0,0,1,409.9666666666668,125) translate(49.599999999999994 49.4)"/><path d="M404.97 220h160v80h-160z" stroke="#000" stroke-width="2" fill="#fff"/><use xlink:href="#a" transform="matrix(1,0,0,1,409.9666666666668,225) translate(26.099999999999994 27.799999999999997)"/><use xlink:href="#e" transform="matrix(1,0,0,1,409.9666666666668,225) translate(49.599999999999994 49.4)"/><path d="M85.97 20h160v60h-160z" stroke="#000" stroke-width="2" fill="#99d5ca"/><use xlink:href="#f" transform="matrix(1,0,0,1,90.96666666666681,25) translate(53.525 17.799999999999997)"/><use xlink:href="#g" transform="matrix(1,0,0,1,90.96666666666681,25) translate(20.099999999999994 39.4)"/><path d="M564.97 20h140v80h-140z" stroke="#000" stroke-width="2" fill="#c1e4f7"/><use xlink:href="#h" transform="matrix(1,0,0,1,569.9666666666668,25) translate(36.55 38.6)"/><path d="M564.97 120h140v80h-140z" stroke="#000" stroke-width="2" fill="#c1e4f7"/><use xlink:href="#h" transform="matrix(1,0,0,1,569.9666666666668,125) translate(36.55 38.6)"/><path d="M564.97 220h140v80h-140z" stroke="#000" stroke-width="2" fill="#c1e4f7"/><use xlink:href="#i" transform="matrix(1,0,0,1,569.9666666666668,225) translate(28.799999999999997 27.799999999999997)"/><use xlink:href="#j" transform="matrix(1,0,0,1,569.9666666666668,225) translate(90.7 27.799999999999997)"/><use xlink:href="#k" transform="matrix(1,0,0,1,569.9666666666668,225) translate(11.599999999999994 49.4)"/><path d="M704.97 20h120v80h-120z" stroke="#000" stroke-width="2" fill="#e5f5ff"/><use xlink:href="#l" transform="matrix(1,0,0,1,709.9666666666668,25) translate(29.049999999999997 38.6)"/><path d="M704.97 120h120v40h-120z" stroke="#000" stroke-width="2" fill="#e5f5ff"/><use xlink:href="#l" transform="matrix(1,0,0,1,709.9666666666668,125) translate(29.049999999999997 18.6)"/><path d="M704.97 260h120v40h-120z" stroke="#000" stroke-width="2" fill="#e5f5ff"/><use xlink:href="#l" transform="matrix(1,0,0,1,709.9666666666668,265) translate(29.049999999999997 18.6)"/><path d="M704.97 220h120v40h-120z" stroke="#000" stroke-width="2" fill="#e5f5ff"/><use xlink:href="#l" transform="matrix(1,0,0,1,709.9666666666668,225.00000000000003) translate(29.049999999999997 18.6)"/><path d="M824.97 220h100v80h-100z" stroke="#000" stroke-width="2" fill="#e5f5ff"/><use xlink:href="#l" transform="matrix(1,0,0,1,829.9666666666668,225) translate(19.049999999999997 38.6)"/><path d="M512.97 303.33l20-30h40l20 30-20 30h-40z" stroke="#000" stroke-width="2" fill="#c7e8ac"/><use xlink:href="#m" transform="matrix(1,0,0,1,517.9666666666668,278.3333333333333) translate(15.524999999999999 28.6)"/><path d="M844.97 40h40v40h-40z" stroke="#000" stroke-opacity="0" stroke-width="2" fill="#fff" fill-opacity="0"/><use xlink:href="#n" transform="matrix(1,0,0,1,849.9666666666668,45) translate(3.8888888888888875 21.333333333333336)"/><path d="M844.97 140h40v40h-40z" stroke="#000" stroke-opacity="0" stroke-width="2" fill="#fff" fill-opacity="0"/><use xlink:href="#n" transform="matrix(1,0,0,1,849.9666666666668,145) translate(3.8888888888888875 21.333333333333336)"/><path d="M942.03 240h40v40h-40z" stroke="#000" stroke-opacity="0" stroke-width="2" fill="#fff" fill-opacity="0"/><use xlink:href="#n" transform="matrix(1,0,0,1,947.0333333333332,245) translate(3.8888888888888875 21.333333333333336)"/><path d="M464.97 320h40v40h-40z" stroke="#000" stroke-opacity="0" stroke-width="2" fill="#fff" fill-opacity="0"/><path d="M504.97 340v40h-40v-40z" stroke="#000" stroke-opacity="0" stroke-width="2" fill="#fff" fill-opacity="0"/><use xlink:href="#n" transform="matrix(6.123233995736766e-17,1,-1,6.123233995736766e-17,154.9666666666668,814.9666666666668) translate(3.8888888888888875 21.333333333333336)"/><path d="M104.02 219.13l-.56 2.65-.85 3.28-.97 3.15-1.1 3.1-1.3 3.08-1.5 3.17-1.8 3.4-2.35 4-4.13 6.3-9.36 13.8-2.37 4-1.8 3.4-1.5 3.17-1.28 3.08-1.12 3.1-.97 3.14-.86 3.28-.56 2.65" stroke="#000" stroke-width="2" fill="none"/><path d="M108.7 218.86l-9.23-.86 5.93-13.78z"/><path d="M109.98 219.98L98 218.88l7.7-17.88zm-9.04-2.85l6.5.6-2.34-10.28zM74.2 292l-5.94 13.78-3.3-14.63z"/><path d="M75.66 291.13L67.96 309l-4.28-18.98zm-7.1 11.42l4.17-9.68-6.5-.6z"/><path d="M139.7 219.13l.53 2.55.85 3.27.97 3.14 1.1 3.06 1.28 3.06 1.5 3.16 1.78 3.38 2.33 3.93 3.9 5.9 10 14.7 2.33 3.94 1.8 3.38 1.47 3.15 1.28 3.07 1.12 3.07.97 3.15.84 3.27.54 2.55" stroke="#000" stroke-width="2" fill="none"/><path d="M144.24 218l-9.23.86 3.3-14.64z"/><path d="M145.7 218.87l-11.97 1.1L138 201zm-9.42-1.14l6.5-.6-4.18-9.68zM175.67 305.78L169.73 292l9.23-.86z"/><path d="M175.97 309l-7.7-17.87 11.97-1.1zm-4.78-16.13l4.17 9.7 2.3-10.3z"/><path d="M120.8 219.24l1.08 161.52" stroke="#000" stroke-width="2" fill="none"/><path d="M125.42 218.47l-9.27.07 4.54-14.3z"/><path d="M126.8 219.46l-12.02.08 5.9-18.54zm-9.28-1.93l6.52-.05-3.33-10zM121.98 395.76l-4.73-14.23 9.27-.06z"/><path d="M122 399l-6.14-18.46 12.03-.08zm-3.37-16.48l3.33 10 3.2-10.04z"/><path d="M265.1 138.4l2.33-.45 3.46-.8 3.34-.94 3.24-1.05 3.18-1.18 3.14-1.32 3.12-1.46 3.13-1.66 3.2-1.84 3.3-2.1 3.47-2.4 3.76-2.87 4.28-3.54 5.34-4.84 29.48-28.75 4.27-3.53 3.76-2.86 3.5-2.4 3.3-2.1 3.18-1.84 3.14-1.65 3.12-1.45 3.13-1.32 3.18-1.18 3.25-1.06 3.34-.94 3.47-.8 2.33-.46" stroke="#000" stroke-width="2" fill="none"/><path d="M264.8 143.08l-14.6-3.36 13.8-5.88z"/><path d="M265.93 144.36L246.97 140l17.9-7.62zm-12.5-4.93l10.26 2.36-.58-6.5zM400.74 60.28l-13.8 5.88-.82-9.24z"/><path d="M403.97 60l-17.9 7.62L385 55.64zm-16.15 4.7l9.7-4.13-10.28-2.36z"/><path d="M265.2 160h120.53" stroke="#000" stroke-width="2" fill="none"/><path d="M264.47 164.64L250.2 160l14.27-4.64z"/><path d="M265.47 166l-18.5-6 18.5-6zm-12.03-6l10.03 3.26v-6.52zM400.73 160l-14.27 4.64v-9.28z"/><path d="M403.97 160l-18.5 6v-12zm-16.5 3.26l10.02-3.26-10.04-3.26z"/><path d="M265.1 180.62l2.1.4 3.45.8 3.32.94 3.22 1.04 3.14 1.18 3.1 1.3 3.1 1.46 3.12 1.63 3.16 1.83 3.27 2.07 3.42 2.38 3.7 2.8 4.16 3.47 5.1 4.6 8.74 8.6 17.22 17.35 5.1 4.6 4.18 3.47 3.7 2.8 3.43 2.4 3.26 2.06 3.17 1.83 3.1 1.63 3.1 1.46 3.12 1.3 3.14 1.18 3.22 1.04 3.32.93 3.44.8 2.1.4" stroke="#000" stroke-width="2" fill="none"/><path d="M264 185.18l-13.8-5.9 14.6-3.34z"/><path d="M264.86 186.64l-17.9-7.64 18.97-4.34zm-11.44-7.06l9.7 4.14.58-6.5zM400.74 259.7l-14.62 3.36.83-9.24z"/><path d="M403.97 260L385 264.34l1.07-11.98zm-16.73 1.77l10.28-2.35-9.7-4.14z"/><path d="M360 445c0 8.28-25.52 15-57 15s-57-6.72-57-15V325c0-8.28 25.52-15 57-15s57 6.72 57 15z" stroke="#000" stroke-width="2" fill="#ffdba9"/><path d="M360 325c0 8.28-25.52 15-57 15s-57-6.72-57-15" stroke="#000" stroke-width="2" fill="none"/><use xlink:href="#o" transform="matrix(1,0,0,1,251,345) translate(19.074999999999996 47.8)"/><use xlink:href="#p" transform="matrix(1,0,0,1,251,345) translate(20.525 69.4)"/><path d="M117.97 364c0 3.3-22.4 6-50 6-27.62 0-50-2.7-50-6v-48c0-3.3 22.38-6 50-6 27.6 0 50 2.7 50 6z" stroke="#000" stroke-width="2" fill="#ffbbb1"/><path d="M117.97 316c0 3.3-22.4 6-50 6-27.62 0-50-2.7-50-6" stroke="#000" stroke-width="2" fill="none"/><use xlink:href="#q" transform="matrix(1,0,0,1,22.96666666666681,327) translate(22.049999999999997 22.6)"/><path d="M221.65 221.06l2.43 5.25 2.48 4.75 2.22 3.82 2.02 3.14 1.9 2.64 1.76 2.26 1.7 1.96 1.64 1.73 1.6 1.54 1.62 1.4 1.64 1.3 1.7 1.24 1.8 1.18 2 1.18 2.34 1.25 3.3 1.53 12.9 5.64 2.54 1.34 2.2 1.3 2 1.33 1.94 1.4 1.88 1.5 1.9 1.64 1.9 1.84 1.98 2.1 2.07 2.4 2.2 2.8 2.38 3.3 2.6 4.04 1.14 1.96" stroke="#000" stroke-width="4" fill="none"/><path d="M225.72 218.73l-8.66 3.3-.75-14.98z"/><path d="M229 219.62l-13.8 5.26L214 201zm-10.08-.44l3.5-1.34-3.8-4.74zM300.1 303.2l-10.5-10.7 8.3-4.13z"/><path d="M303 309l-16.76-17.05 13.22-6.6zm-10.05-15.93l4.27 4.35-.9-6.03z"/><path d="M383.53 273.98l-3.14-1.27-4.47-1.32-4.62-.96-5.3-.66-6.63-.26-8.86.38-7.17.8-2.26.43-2 .7-1.85.88-1.74 1.13-1.7 1.47-1.7 1.88-1.77 2.53-1.87 3.6-2.03 5.57" stroke="#000" stroke-width="4" fill="none"/><path d="M397.76 278.17l-15 .42 2.62-8.9z"/><path d="M403.97 280l-23.9.67 4.17-14.18zm-18.5-3.48l6.08-.17-5.03-3.45zM330.82 290.4l-7.2 13.18-1.9-14.88z"/><path d="M333.9 288.95l-11.46 21-3.07-23.72zm-9.07 8.27l2.92-5.35-3.7-.7z"/><path d="M382.83 183.22l-.9.3-2.26.83-2.2.92-2.12 1-2.1 1.1-2.03 1.17-2 1.28-2 1.38-1.97 1.5-1.95 1.6-1.94 1.76-1.95 1.9-1.94 2.08-1.96 2.27-1.97 2.5-2 2.76-2.03 3.05-2.06 3.42-2.1 3.83-2.16 4.35-2.2 4.98-2.3 5.8-2.38 6.8-2.48 8.26-2.63 10.3-2.9 13.65-2.8 16.7" stroke="#000" stroke-width="4" fill="none"/><path d="M397.57 180.97l-13.4 6.73-1.4-9.16z"/><path d="M403.96 180l-21.36 10.73-2.23-14.6zm-18.24 4.68l5.45-2.73-6-1zM330 290.08l-6.63 13.45-2.55-14.78z"/><path d="M333 288.5l-10.56 21.44-4.06-23.56zm-8.7 8.63l2.7-5.47-3.74-.54z"/><path d="M382.7 82.53l-2.43.67-2.53.83-2.4.9-2.3.95-2.18 1.03-2.1 1.1-2 1.17-1.96 1.24-1.9 1.32-1.82 1.4-1.8 1.47-1.74 1.57-1.72 1.68-1.7 1.8-1.66 1.94-1.65 2.07-1.63 2.25-1.62 2.45-1.62 2.68-1.62 2.94-1.6 3.24-1.62 3.63-1.6 4.08-1.63 4.65-1.6 5.36-1.62 6.3-1.6 7.54-1.58 9.36-1.53 12.22-1.47 17.8-4.42 100.36" stroke="#000" stroke-width="4" fill="none"/><path d="M397.54 80.76l-13.62 6.3-1.1-9.22z"/><path d="M403.96 80l-21.7 10.02-1.75-14.67zm-18.38 4.08l5.53-2.55-5.97-1.2zM328.6 289.6l-5.68 13.88-3.57-14.57z"/><path d="M331.5 287.8l-9.06 22.14-5.7-23.22zm-8.1 9.23l2.3-5.64-3.75-.3z"/><defs><path d="M182-130c37 4 62 22 62 59C244 23 116-4 24 0v-248c84 5 203-23 205 63 0 31-19 50-47 55zM76-148c40-3 101 13 101-30 0-44-60-28-101-31v61zm0 110c48-3 116 14 116-37 0-48-69-32-116-35v72" id="r"/><path d="M133-34C117-15 103 5 69 4 32 3 11-16 11-54c-1-60 55-63 116-61 1-26-3-47-28-47-18 1-26 9-28 27l-52-2c7-38 36-58 82-57s74 22 75 68l1 82c-1 14 12 18 25 15v27c-30 8-71 5-69-32zm-48 3c29 0 43-24 42-57-32 0-66-3-65 30 0 17 8 27 23 27" id="s"/><path d="M190-63c-7 42-38 67-86 67-59 0-84-38-90-98-12-110 154-137 174-36l-49 2c-2-19-15-32-35-32-30 0-35 28-38 64-6 74 65 87 74 30" id="t"/><path d="M147 0L96-86 75-71V0H25v-261h50v150l67-79h53l-66 74L201 0h-54" id="u"/><path d="M185-48c-13 30-37 53-82 52C43 2 14-33 14-96s30-98 90-98c62 0 83 45 84 108H66c0 31 8 55 39 56 18 0 30-7 34-22zm-45-69c5-46-57-63-70-21-2 6-4 13-4 21h74" id="v"/><path d="M135-194c87-1 58 113 63 194h-50c-7-57 23-157-34-157-59 0-34 97-39 157H25l-1-190h47c2 12-1 28 3 38 12-26 28-41 61-42" id="w"/><path d="M88-194c31-1 46 15 58 34l-1-101h50l1 261h-48c-2-10 0-23-3-31C134-8 116 4 84 4 32 4 16-41 15-95c0-56 19-97 73-99zm17 164c33 0 40-30 41-66 1-37-9-64-41-64s-38 30-39 65c0 43 13 65 39 65" id="x"/><path d="M24 0v-54h51V0H24" id="y"/><path d="M199 0l-22-63H83L61 0H9l90-248h61L250 0h-51zm-33-102l-36-108c-10 38-24 72-36 108h72" id="z"/><path d="M24 0v-248h52V0H24" id="A"/><g id="a"><use transform="matrix(0.05,0,0,0.05,0,0)" xlink:href="#r"/><use transform="matrix(0.05,0,0,0.05,12.950000000000001,0)" xlink:href="#s"/><use transform="matrix(0.05,0,0,0.05,22.950000000000003,0)" xlink:href="#t"/><use transform="matrix(0.05,0,0,0.05,32.95,0)" xlink:href="#u"/><use transform="matrix(0.05,0,0,0.05,42.95,0)" xlink:href="#v"/><use transform="matrix(0.05,0,0,0.05,52.95,0)" xlink:href="#w"/><use transform="matrix(0.05,0,0,0.05,63.900000000000006,0)" xlink:href="#x"/><use transform="matrix(0.05,0,0,0.05,74.85000000000001,0)" xlink:href="#y"/><use transform="matrix(0.05,0,0,0.05,79.85000000000001,0)" xlink:href="#z"/><use transform="matrix(0.05,0,0,0.05,92.80000000000001,0)" xlink:href="#A"/></g><path d="M230 0l2-204L168 0h-37L68-204 70 0H24v-248h70l56 185 57-185h69V0h-46" id="B"/><path d="M195-6C206 82 75 100 31 46c-4-6-6-13-8-21l49-6c3 16 16 24 34 25 40 0 42-37 40-79-11 22-30 35-61 35-53 0-70-43-70-97 0-56 18-96 73-97 30 0 46 14 59 34l2-30h47zm-90-29c32 0 41-27 41-63 0-35-9-62-40-62-32 0-39 29-40 63 0 36 9 62 39 62" id="C"/><path d="M135-150c-39-12-60 13-60 57V0H25l-1-190h47c2 13-1 29 3 40 6-28 27-53 61-41v41" id="D"/><g id="b"><use transform="matrix(0.05,0,0,0.05,0,0)" xlink:href="#B"/><use transform="matrix(0.05,0,0,0.05,14.950000000000001,0)" xlink:href="#s"/><use transform="matrix(0.05,0,0,0.05,24.950000000000003,0)" xlink:href="#w"/><use transform="matrix(0.05,0,0,0.05,35.900000000000006,0)" xlink:href="#s"/><use transform="matrix(0.05,0,0,0.05,45.900000000000006,0)" xlink:href="#C"/><use transform="matrix(0.05,0,0,0.05,56.85,0)" xlink:href="#v"/><use transform="matrix(0.05,0,0,0.05,66.85000000000001,0)" xlink:href="#D"/></g><path d="M100-194c63 0 86 42 84 106H49c0 40 14 67 53 68 26 1 43-12 49-29l28 8c-11 28-37 45-77 45C44 4 14-33 15-96c1-61 26-98 85-98zm52 81c6-60-76-77-97-28-3 7-6 17-6 28h103" id="E"/><path d="M59-47c-2 24 18 29 38 22v24C64 9 27 4 27-40v-127H5v-23h24l9-43h21v43h35v23H59v120" id="F"/><path d="M96-169c-40 0-48 33-48 73s9 75 48 75c24 0 41-14 43-38l32 2c-6 37-31 61-74 61-59 0-76-41-82-99-10-93 101-131 147-64 4 7 5 14 7 22l-32 3c-4-21-16-35-41-35" id="G"/><path d="M85-194c31 0 48 13 60 33l-1-100h32l1 261h-30c-2-10 0-23-3-31C134-8 116 4 85 4 32 4 16-35 15-94c0-66 23-100 70-100zm9 24c-40 0-46 34-46 75 0 40 6 74 45 74 42 0 51-32 51-76 0-42-9-74-50-73" id="H"/><g id="c"><use transform="matrix(0.05,0,0,0.05,0,0)" xlink:href="#E"/><use transform="matrix(0.05,0,0,0.05,10,0)" xlink:href="#F"/><use transform="matrix(0.05,0,0,0.05,15,0)" xlink:href="#G"/><use transform="matrix(0.05,0,0,0.05,24,0)" xlink:href="#H"/></g><path d="M30-248c87 1 191-15 191 75 0 78-77 80-158 76V0H30v-248zm33 125c57 0 124 11 124-50 0-59-68-47-124-48v98" id="I"/><path d="M100-194c62-1 85 37 85 99 1 63-27 99-86 99S16-35 15-95c0-66 28-99 85-99zM99-20c44 1 53-31 53-75 0-43-8-75-51-75s-53 32-53 75 10 74 51 75" id="J"/><path d="M135-143c-3-34-86-38-87 0 15 53 115 12 119 90S17 21 10-45l28-5c4 36 97 45 98 0-10-56-113-15-118-90-4-57 82-63 122-42 12 7 21 19 24 35" id="K"/><path d="M177-190C167-65 218 103 67 71c-23-6-38-20-44-43l32-5c15 47 100 32 89-28v-30C133-14 115 1 83 1 29 1 15-40 15-95c0-56 16-97 71-98 29-1 48 16 59 35 1-10 0-23 2-32h30zM94-22c36 0 50-32 50-73 0-42-14-75-50-75-39 0-46 34-46 75s6 73 46 73" id="L"/><path d="M114-163C36-179 61-72 57 0H25l-1-190h30c1 12-1 29 2 39 6-27 23-49 58-41v29" id="M"/><path d="M185-189c-5-48-123-54-124 2 14 75 158 14 163 119 3 78-121 87-175 55-17-10-28-26-33-46l33-7c5 56 141 63 141-1 0-78-155-14-162-118-5-82 145-84 179-34 5 7 8 16 11 25" id="N"/><path d="M140-251c81 0 123 46 123 126C263-53 228-8 163 1c7 30 30 48 69 40v23c-55 16-95-15-103-61C56-3 17-48 17-125c0-80 42-126 123-126zm0 227c63 0 89-41 89-101s-29-99-89-99c-61 0-89 39-89 99S79-25 140-24" id="O"/><path d="M30 0v-248h33v221h125V0H30" id="P"/><g id="d"><use transform="matrix(0.05,0,0,0.05,0,0)" xlink:href="#I"/><use transform="matrix(0.05,0,0,0.05,12,0)" xlink:href="#J"/><use transform="matrix(0.05,0,0,0.05,22,0)" xlink:href="#K"/><use transform="matrix(0.05,0,0,0.05,31,0)" xlink:href="#F"/><use transform="matrix(0.05,0,0,0.05,36,0)" xlink:href="#L"/><use transform="matrix(0.05,0,0,0.05,46,0)" xlink:href="#M"/><use transform="matrix(0.05,0,0,0.05,51.95,0)" xlink:href="#E"/><use transform="matrix(0.05,0,0,0.05,61.95,0)" xlink:href="#N"/><use transform="matrix(0.05,0,0,0.05,73.95,0)" xlink:href="#O"/><use transform="matrix(0.05,0,0,0.05,87.95,0)" xlink:href="#P"/></g><path d="M115-3C79 11 28 4 28-45v-112H4v-33h27l15-45h31v45h36v33H77v99c-1 23 16 31 38 25v30" id="Q"/><g id="e"><use transform="matrix(0.05,0,0,0.05,0,0)" xlink:href="#z"/><use transform="matrix(0.05,0,0,0.05,12.950000000000001,0)" xlink:href="#C"/><use transform="matrix(0.05,0,0,0.05,23.900000000000002,0)" xlink:href="#v"/><use transform="matrix(0.05,0,0,0.05,33.900000000000006,0)" xlink:href="#w"/><use transform="matrix(0.05,0,0,0.05,44.85000000000001,0)" xlink:href="#Q"/></g><path d="M117-194c89-4 53 116 60 194h-32v-121c0-31-8-49-39-48C34-167 62-67 57 0H25l-1-190h30c1 10-1 24 2 32 11-22 29-35 61-36" id="R"/><path d="M24-231v-30h32v30H24zM24 0v-190h32V0H24" id="S"/><path d="M141 0L90-78 38 0H4l68-98-65-92h35l48 74 47-74h35l-64 92 68 98h-35" id="T"/><g id="f"><use transform="matrix(0.05,0,0,0.05,0,0)" xlink:href="#R"/><use transform="matrix(0.05,0,0,0.05,10,0)" xlink:href="#L"/><use transform="matrix(0.05,0,0,0.05,20,0)" xlink:href="#S"/><use transform="matrix(0.05,0,0,0.05,23.95,0)" xlink:href="#R"/><use transform="matrix(0.05,0,0,0.05,33.95,0)" xlink:href="#T"/></g><path d="M108 0H70L1-190h34L89-25l56-165h34" id="U"/><path d="M16-82v-28h88v28H16" id="V"/><path d="M115-194c55 1 70 41 70 98S169 2 115 4C84 4 66-9 55-30l1 105H24l-1-265h31l2 30c10-21 28-34 59-34zm-8 174c40 0 45-34 45-75s-6-73-45-74c-42 0-51 32-51 76 0 43 10 73 51 73" id="W"/><path d="M179-190L93 31C79 59 56 82 12 73V49c39 6 53-20 64-50L1-190h34L92-34l54-156h33" id="X"/><g id="g"><use transform="matrix(0.05,0,0,0.05,0,0)" xlink:href="#M"/><use transform="matrix(0.05,0,0,0.05,5.95,0)" xlink:href="#E"/><use transform="matrix(0.05,0,0,0.05,15.949999999999998,0)" xlink:href="#U"/><use transform="matrix(0.05,0,0,0.05,24.95,0)" xlink:href="#E"/><use transform="matrix(0.05,0,0,0.05,34.95,0)" xlink:href="#M"/><use transform="matrix(0.05,0,0,0.05,40.900000000000006,0)" xlink:href="#K"/><use transform="matrix(0.05,0,0,0.05,49.900000000000006,0)" xlink:href="#E"/><use transform="matrix(0.05,0,0,0.05,59.900000000000006,0)" xlink:href="#V"/><use transform="matrix(0.05,0,0,0.05,65.85000000000001,0)" xlink:href="#W"/><use transform="matrix(0.05,0,0,0.05,75.85000000000001,0)" xlink:href="#M"/><use transform="matrix(0.05,0,0,0.05,81.80000000000001,0)" xlink:href="#J"/><use transform="matrix(0.05,0,0,0.05,91.80000000000001,0)" xlink:href="#T"/><use transform="matrix(0.05,0,0,0.05,100.80000000000001,0)" xlink:href="#X"/></g><path d="M30-248c118-7 216 8 213 122C240-48 200 0 122 0H30v-248zM63-27c89 8 146-16 146-99s-60-101-146-95v194" id="Y"/><path d="M143 0L79-87 56-68V0H24v-261h32v163l83-92h37l-77 82L181 0h-38" id="Z"/><g id="h"><use transform="matrix(0.05,0,0,0.05,0,0)" xlink:href="#Y"/><use transform="matrix(0.05,0,0,0.05,12.950000000000001,0)" xlink:href="#J"/><use transform="matrix(0.05,0,0,0.05,22.950000000000003,0)" xlink:href="#G"/><use transform="matrix(0.05,0,0,0.05,31.950000000000003,0)" xlink:href="#Z"/><use transform="matrix(0.05,0,0,0.05,40.95,0)" xlink:href="#E"/><use transform="matrix(0.05,0,0,0.05,50.95,0)" xlink:href="#M"/></g><g id="i"><use transform="matrix(0.05,0,0,0.05,0,0)" xlink:href="#Y"/><use transform="matrix(0.05,0,0,0.05,12.950000000000001,0)" xlink:href="#J"/><use transform="matrix(0.05,0,0,0.05,22.950000000000003,0)" xlink:href="#G"/><use transform="matrix(0.05,0,0,0.05,31.950000000000003,0)" xlink:href="#Z"/><use transform="matrix(0.05,0,0,0.05,40.95,0)" xlink:href="#E"/><use transform="matrix(0.05,0,0,0.05,50.95,0)" xlink:href="#M"/></g><path d="M118-107v75H92v-75H18v-26h74v-75h26v75h74v26h-74" id="aa"/><use transform="matrix(0.05,0,0,0.05,0,0)" xlink:href="#aa" id="j"/><path d="M141-36C126-15 110 5 73 4 37 3 15-17 15-53c-1-64 63-63 125-63 3-35-9-54-41-54-24 1-41 7-42 31l-33-3c5-37 33-52 76-52 45 0 72 20 72 64v82c-1 20 7 32 28 27v20c-31 9-61-2-59-35zM48-53c0 20 12 33 32 33 41-3 63-29 60-74-43 2-92-5-92 41" id="ab"/><g id="k"><use transform="matrix(0.05,0,0,0.05,0,0)" xlink:href="#R"/><use transform="matrix(0.05,0,0,0.05,10,0)" xlink:href="#U"/><use transform="matrix(0.05,0,0,0.05,19,0)" xlink:href="#S"/><use transform="matrix(0.05,0,0,0.05,22.95,0)" xlink:href="#H"/><use transform="matrix(0.05,0,0,0.05,32.95,0)" xlink:href="#S"/><use transform="matrix(0.05,0,0,0.05,36.900000000000006,0)" xlink:href="#ab"/><use transform="matrix(0.05,0,0,0.05,46.900000000000006,0)" xlink:href="#V"/><use transform="matrix(0.05,0,0,0.05,52.85,0)" xlink:href="#H"/><use transform="matrix(0.05,0,0,0.05,62.85,0)" xlink:href="#J"/><use transform="matrix(0.05,0,0,0.05,72.85000000000001,0)" xlink:href="#G"/><use transform="matrix(0.05,0,0,0.05,81.85000000000001,0)" xlink:href="#Z"/><use transform="matrix(0.05,0,0,0.05,90.85000000000001,0)" xlink:href="#E"/><use transform="matrix(0.05,0,0,0.05,100.85000000000001,0)" xlink:href="#M"/></g><path d="M194 0L95-120 63-95V0H30v-248h33v124l119-124h40L117-140 236 0h-42" id="ac"/><path d="M24 0v-261h32V0H24" id="ad"/><g id="l"><use transform="matrix(0.05,0,0,0.05,0,0)" xlink:href="#ac"/><use transform="matrix(0.05,0,0,0.05,12,0)" xlink:href="#E"/><use transform="matrix(0.05,0,0,0.05,22,0)" xlink:href="#M"/><use transform="matrix(0.05,0,0,0.05,27.950000000000003,0)" xlink:href="#R"/><use transform="matrix(0.05,0,0,0.05,37.95,0)" xlink:href="#E"/><use transform="matrix(0.05,0,0,0.05,47.95,0)" xlink:href="#ad"/></g><path d="M143 4C61 4 22-44 18-125c-5-107 100-154 193-111 17 8 29 25 37 43l-32 9c-13-25-37-40-76-40-61 0-88 39-88 99 0 61 29 100 91 101 35 0 62-11 79-27v-45h-74v-28h105v86C228-13 192 4 143 4" id="ae"/><path d="M232-93c-1 65-40 97-104 97C67 4 28-28 28-90v-158h33c8 89-33 224 67 224 102 0 64-133 71-224h33v155" id="af"/><g id="m"><use transform="matrix(0.05,0,0,0.05,0,0)" xlink:href="#ae"/><use transform="matrix(0.05,0,0,0.05,14,0)" xlink:href="#I"/><use transform="matrix(0.05,0,0,0.05,26,0)" xlink:href="#af"/></g><path d="M25-93v-54h50v54H25" id="ag"/><g id="n"><use transform="matrix(0.07407407407407408,0,0,0.07407407407407408,0,0)" xlink:href="#ag"/><use transform="matrix(0.07407407407407408,0,0,0.07407407407407408,7.407407407407408,0)" xlink:href="#ag"/><use transform="matrix(0.07407407407407408,0,0,0.07407407407407408,14.814814814814817,0)" xlink:href="#ag"/></g><path d="M190 0L58-211 59 0H30v-248h39L202-35l-2-213h31V0h-41" id="ah"/><path d="M206 0h-36l-40-164L89 0H53L-1-190h32L70-26l43-164h34l41 164 42-164h31" id="ai"/><g id="o"><use transform="matrix(0.05,0,0,0.05,0,0)" xlink:href="#ah"/><use transform="matrix(0.05,0,0,0.05,12.950000000000001,0)" xlink:href="#E"/><use transform="matrix(0.05,0,0,0.05,22.950000000000003,0)" xlink:href="#F"/><use transform="matrix(0.05,0,0,0.05,27.950000000000003,0)" xlink:href="#ai"/><use transform="matrix(0.05,0,0,0.05,40.900000000000006,0)" xlink:href="#J"/><use transform="matrix(0.05,0,0,0.05,50.900000000000006,0)" xlink:href="#M"/><use transform="matrix(0.05,0,0,0.05,56.85,0)" xlink:href="#Z"/></g><g id="p"><use transform="matrix(0.05,0,0,0.05,0,0)" xlink:href="#N"/><use transform="matrix(0.05,0,0,0.05,12,0)" xlink:href="#F"/><use transform="matrix(0.05,0,0,0.05,17,0)" xlink:href="#J"/><use transform="matrix(0.05,0,0,0.05,27,0)" xlink:href="#M"/><use transform="matrix(0.05,0,0,0.05,32.95,0)" xlink:href="#ab"/><use transform="matrix(0.05,0,0,0.05,42.95,0)" xlink:href="#L"/><use transform="matrix(0.05,0,0,0.05,52.95,0)" xlink:href="#E"/></g><path d="M233-177c-1 41-23 64-60 70L243 0h-38l-65-103H63V0H30v-248c88 3 205-21 203 71zM63-129c60-2 137 13 137-47 0-61-80-42-137-45v92" id="aj"/><g id="q"><use transform="matrix(0.05,0,0,0.05,0,0)" xlink:href="#aj"/><use transform="matrix(0.05,0,0,0.05,12.950000000000001,0)" xlink:href="#E"/><use transform="matrix(0.05,0,0,0.05,22.950000000000003,0)" xlink:href="#H"/><use transform="matrix(0.05,0,0,0.05,32.95,0)" xlink:href="#S"/><use transform="matrix(0.05,0,0,0.05,36.900000000000006,0)" xlink:href="#K"/></g></defs></g></svg>