<svg xmlns="http://www.w3.org/2000/svg" xmlns:xlink="http://www.w3.org/1999/xlink" xmlns:lucid="lucid" width="1123.02" height="653.25"><g transform="translate(0 0)" lucid:page-tab-id=".Xn3r2l4au98"><path d="M289.65 223.6h160v160h-160z" stroke="#000" stroke-width="2" fill="#fff"/><use xlink:href="#a" transform="matrix(1,0,0,1,294.64876508985014,228.59376190902708) translate(26.099999999999994 32.4)"/><use xlink:href="#b" transform="matrix(1,0,0,1,294.64876508985014,228.59376190902708) translate(38.074999999999996 54)"/><path d="M429.65 547.6c0 3.3-22.4 6-50 6s-50-2.7-50-6v-48c0-3.32 22.4-6 50-6s50 2.68 50 6z" stroke="#000" stroke-width="2" fill="#d1bcd2"/><path d="M429.65 499.6c0 3.3-22.4 6-50 6s-50-2.7-50-6" stroke="#000" stroke-width="2" fill="none"/><use xlink:href="#c" transform="matrix(1,0,0,1,334.64876508985014,510.5937619090271) translate(28 22.6)"/><path d="M429.68 637.6c0 3.3-46.56 6-104 6s-104-2.7-104-6v-48c0-3.32 46.56-6 104-6s104 2.68 104 6z" stroke="#000" stroke-width="2" fill="#ffbbb1"/><path d="M429.68 589.6c0 3.3-46.56 6-104 6s-104-2.7-104-6" stroke="#000" stroke-width="2" fill="none"/><use xlink:href="#d" transform="matrix(1,0,0,1,226.68209842318333,600.5937619090271) translate(50.025 22.6)"/><path d="M608.65 203.6h160v80h-160z" stroke="#000" stroke-width="2" fill="#fff"/><use xlink:href="#e" transform="matrix(1,0,0,1,613.6487650898501,208.59376190902708) translate(26.099999999999994 27.799999999999997)"/><use xlink:href="#f" transform="matrix(1,0,0,1,613.6487650898501,208.59376190902708) translate(49.599999999999994 49.4)"/><path d="M608.65 303.6h160v80h-160z" stroke="#000" stroke-width="2" fill="#fff"/><use xlink:href="#e" transform="matrix(1,0,0,1,613.6487650898501,308.593761909027) translate(26.099999999999994 27.799999999999997)"/><use xlink:href="#f" transform="matrix(1,0,0,1,613.6487650898501,308.593761909027) translate(49.599999999999994 49.4)"/><path d="M608.65 443.6h160v80h-160z" stroke="#000" stroke-width="2" fill="#fff"/><use xlink:href="#e" transform="matrix(1,0,0,1,613.6487650898501,448.593761909027) translate(26.099999999999994 27.799999999999997)"/><use xlink:href="#f" transform="matrix(1,0,0,1,613.6487650898501,448.593761909027) translate(49.599999999999994 49.4)"/><path d="M21.65 8h220v60h-220z" stroke="#000" stroke-width="2" fill="#99d5ca"/><use xlink:href="#g" transform="matrix(1,0,0,1,26.64876508985006,12.999999999999993) translate(40.099999999999994 18.299999999999997)"/><use xlink:href="#h" transform="matrix(1,0,0,1,26.64876508985006,12.999999999999993) translate(112 18.299999999999997)"/><use xlink:href="#i" transform="matrix(1,0,0,1,26.64876508985006,12.999999999999993) translate(6.775000000000006 39.9)"/><use xlink:href="#j" transform="matrix(1,0,0,1,26.64876508985006,12.999999999999993) translate(65.67500000000001 39.9)"/><use xlink:href="#k" transform="matrix(1,0,0,1,26.64876508985006,12.999999999999993) translate(138.275 39.9)"/><use xlink:href="#l" transform="matrix(1,0,0,1,26.64876508985006,12.999999999999993) translate(182.275 39.9)"/><path d="M796.65 203.6h140v80h-140z" stroke="#000" stroke-width="2" fill="#c1e4f7"/><use xlink:href="#m" transform="matrix(1,0,0,1,801.6487650898501,208.59376190902708) translate(19.025 38.6)"/><path d="M768.65 303.6h140.63v80H768.65z" stroke="#000" stroke-width="2" fill="#c1e4f7"/><use xlink:href="#n" transform="matrix(1,0,0,1,773.6487650898501,308.593761909027) translate(29.299999999999997 17)"/><use xlink:href="#o" transform="matrix(1,0,0,1,773.6487650898501,308.593761909027) translate(91.2 17)"/><use xlink:href="#p" transform="matrix(1,0,0,1,773.6487650898501,308.593761909027) translate(13.125 38.6)"/><use xlink:href="#q" transform="matrix(1,0,0,1,773.6487650898501,308.593761909027) translate(56.025000000000006 38.6)"/><use xlink:href="#r" transform="matrix(1,0,0,1,773.6487650898501,308.593761909027) translate(105.875 38.6)"/><use xlink:href="#s" transform="matrix(1,0,0,1,773.6487650898501,308.593761909027) translate(35.575 60.2)"/><path d="M768.65 443.6h140v80h-140z" stroke="#000" stroke-width="2" fill="#c1e4f7"/><use xlink:href="#n" transform="matrix(1,0,0,1,773.64876508985,448.593761909027) translate(28.799999999999997 17)"/><use xlink:href="#t" transform="matrix(1,0,0,1,773.64876508985,448.593761909027) translate(90.7 17)"/><use xlink:href="#u" transform="matrix(1,0,0,1,773.64876508985,448.593761909027) translate(3.0999999999999943 38.6)"/><use xlink:href="#r" transform="matrix(1,0,0,1,773.64876508985,448.593761909027) translate(114.9 38.6)"/><use xlink:href="#v" transform="matrix(1,0,0,1,773.64876508985,448.593761909027) translate(39.575 60.2)"/><path d="M936.65 203.6h135.63v40H936.65z" stroke="#000" stroke-width="2" fill="#e5f5ff"/><use xlink:href="#w" transform="matrix(1,0,0,1,941.6487650898504,208.59376190902708) translate(12.599999999999994 18.6)"/><use xlink:href="#x" transform="matrix(1,0,0,1,941.6487650898504,208.59376190902708) translate(69.5 18.6)"/><path d="M909.36 303.6h173.02v40H909.36z" stroke="#000" stroke-width="2" fill="#e5f5ff"/><use xlink:href="#w" transform="matrix(1,0,0,1,914.3586432260513,308.5937619090271) translate(10.649999999999991 19.1)"/><use xlink:href="#y" transform="matrix(1,0,0,1,914.3586432260513,308.5937619090271) translate(67.55 19.1)"/><path d="M716.65 533.6l20-30h40l20 30-20 30h-40z" stroke="#000" stroke-width="2" fill="#c7e8ac"/><use xlink:href="#z" transform="matrix(1,0,0,1,721.64876508985,508.5937619090271) translate(15.524999999999999 28.6)"/><path d="M1072.28 223.6h40v40h-40z" stroke="#000" stroke-opacity="0" stroke-width="2" fill="#fff" fill-opacity="0"/><use xlink:href="#A" transform="matrix(1,0,0,1,1077.2820984231835,228.59376190902708) translate(3.8888888888888875 21.333333333333336)"/><path d="M1083.02 323.6h40v40h-40z" stroke="#000" stroke-opacity="0" stroke-width="2" fill="#fff" fill-opacity="0"/><use xlink:href="#A" transform="matrix(1,0,0,1,1088.0154317565166,328.593761909027) translate(3.8888888888888875 21.333333333333336)"/><path d="M668.65 543.6h40v40h-40z" stroke="#000" stroke-opacity="0" stroke-width="2" fill="#fff" fill-opacity="0"/><path d="M683.02 548.6v40h-40v-40z" stroke="#000" stroke-opacity="0" stroke-width="2" fill="#fff" fill-opacity="0"/><use xlink:href="#A" transform="matrix(6.123233995736766e-17,1,-1,6.123233995736766e-17,678.0154317565168,553.5937619090271) translate(3.8888888888888875 21.333333333333336)"/><path d="M307.9 402.98l-.5 2.3-.85 3.26-.97 3.14-1.1 3.06-1.28 3.07-1.5 3.16-1.78 3.38-2.32 3.93-3.87 5.9-10.06 14.75-2.32 3.93-1.78 3.38-1.5 3.15-1.26 3.06-1.1 3.07-.98 3.15-.85 3.27-.48 2.28" stroke="#000" stroke-width="2" stroke-linejoin="round" fill="none"/><path d="M309.32 387.82l3.27 14.64-9.24-.88zM271.95 489.37l-3.26-14.64 9.2.88z" stroke="#000" stroke-width="2"/><path d="M343.53 402.98l.5 2.34.85 3.28.98 3.14 1.1 3.08 1.3 3.07 1.47 3.16 1.8 3.4 2.34 3.96 4 6.08 9.7 14.27 2.34 3.96 1.8 3.4 1.5 3.16 1.28 3.07 1.1 3.07 1 3.15.84 3.26.5 2.34" stroke="#000" stroke-width="2" stroke-linejoin="round" fill="none"/><path d="M342.1 387.82l5.96 13.76-9.23.88zM379.35 489.37l-5.96-13.76 9.22-.87z" stroke="#000" stroke-width="2"/><path d="M324.64 403.1l.94 161" stroke="#000" stroke-width="2" stroke-linejoin="round" fill="none"/><path d="M324.55 387.83l4.72 14.24-9.27.06zM325.66 579.36l-4.72-14.24 9.28-.05z" stroke="#000" stroke-width="2"/><path d="M469.1 302.34l3.05-.45 4.42-.85 4.2-1 4-1.1 3.9-1.27 3.8-1.4 3.78-1.6 3.84-1.8 3.96-2.1 4.28-2.46 4.88-3.1 6.48-4.53 25.38-18.73 4.88-3.1 4.27-2.47 3.98-2.08 3.85-1.8 3.78-1.6 3.8-1.4 3.9-1.28 4-1.12 4.2-.98 4.42-.84 3.06-.45" stroke="#000" stroke-width="2" stroke-linejoin="round" fill="none"/><path d="M453.88 303.37l13.92-5.6.63 9.26zM604.42 243.8l-13.92 5.6-.63-9.24z" stroke="#000" stroke-width="2"/><path d="M469.15 330.62l5.02.1 16.87 1.05 14.44 1.5 20.97 3.2 26.37 4.1 14.44 1.52 16.87 1.03 5.02.1" stroke="#000" stroke-width="2" stroke-linejoin="round" fill="none"/><path d="M453.9 330.32l14.34-4.35-.18 9.27zM604.4 343.53l-14.34 4.36.18-9.28z" stroke="#000" stroke-width="2"/><path d="M468.9 358.17l.25.07 2.37.77 2.34.88 2.33.98 2.32 1.1 2.33 1.2 2.35 1.37 2.4 1.52 2.43 1.7 2.5 1.9 2.6 2.15 2.74 2.46 2.9 2.84 3.12 3.33 3.44 4 3.95 5 4.83 6.67 7.28 11.02 22.77 35.96 4.84 6.7 3.96 4.98 3.45 4 3.13 3.33 2.9 2.82 2.73 2.46 2.6 2.16 2.5 1.9 2.45 1.7 2.4 1.52 2.35 1.35 2.33 1.23 2.33 1.1 2.33.98 2.35.88 2.37.77.24.07" stroke="#000" stroke-width="2" stroke-linejoin="round" fill="none"/><path d="M453.86 356.05l14.77-2.6-1.3 9.18zM604.44 483.14l-14.77 2.6 1.3-9.18z" stroke="#000" stroke-width="2"/><path d="M563.68 628.6c0 8.28-25.52 15-57 15s-57-6.72-57-15v-120c0-8.3 25.52-15 57-15s57 6.7 57 15z" stroke="#000" stroke-width="2" fill="#ffdba9"/><path d="M563.68 508.6c0 8.28-25.52 15-57 15s-57-6.72-57-15" stroke="#000" stroke-width="2" fill="none"/><use xlink:href="#B" transform="matrix(1,0,0,1,454.68209842318333,528.5937619090271) translate(19.074999999999996 47.8)"/><use xlink:href="#C" transform="matrix(1,0,0,1,454.68209842318333,528.5937619090271) translate(20.525 69.4)"/><path d="M321.65 547.6c0 3.3-22.4 6-50 6s-50-2.7-50-6v-48c0-3.32 22.38-6 50-6 27.6 0 50 2.68 50 6z" stroke="#000" stroke-width="2" fill="#ffbbb1"/><path d="M321.65 499.6c0 3.3-22.4 6-50 6s-50-2.7-50-6" stroke="#000" stroke-width="2" fill="none"/><use xlink:href="#D" transform="matrix(1,0,0,1,226.64876508985014,510.5937619090271) translate(22.049999999999997 22.6)"/><path d="M425.67 405.8l1.87 4.04 2.47 4.74 2.24 3.82 2.03 3.14 1.88 2.64 1.78 2.26 1.7 1.96 1.64 1.74 1.62 1.55 1.6 1.4 1.64 1.3 1.7 1.24 1.8 1.18 2 1.18 2.35 1.24 3.24 1.53 13.15 5.73 2.53 1.34 2.2 1.3 2.02 1.32 1.92 1.4 1.9 1.5 1.88 1.65 1.9 1.85 2 2.1 2.06 2.38 2.2 2.8 2.4 3.33 2.6 4.02.46.82" stroke="#000" stroke-width="4" stroke-linejoin="round" fill="none"/><path d="M419.82 390.63l9.46 11.64-8.65 3.34zM503.77 486.8l-10.56-10.64 8.3-4.17z" stroke="#000" stroke-width="4"/><path d="M586.35 458.76l-5.5-2.56-4-1.2-4.36-.9-5.04-.62-6.18-.25-8 .35-6.26.68-2.27.45-2 .68-1.85.9-1.74 1.13-1.7 1.46-1.7 1.88-1.77 2.53-1.88 3.6-1.6 4.38" stroke="#000" stroke-width="4" stroke-linejoin="round" fill="none"/><path d="M601.53 464l-15-.27 3.02-8.77zM527.37 487.18l-1.78-14.9 9.08 1.8z" stroke="#000" stroke-width="4"/><path d="M585.3 367.2l-1.95.74-2.2.92-2.12 1-2.1 1.1-2.03 1.18-2 1.28-2 1.38-1.96 1.5-1.96 1.6-1.94 1.76-1.95 1.9-1.96 2.08-1.95 2.27-2 2.5-2 2.75-2 3.05-2.08 3.4-2.1 3.84-2.16 4.35-2.2 4.97-2.3 5.8-2.37 6.82-2.5 8.23-2.63 10.3-2.9 13.66-2.57 15.43" stroke="#000" stroke-width="4" stroke-linejoin="round" fill="none"/><path d="M601.26 364.63l-13.34 6.86-1.5-9.16zM527.06 487.13l-2.53-14.8 9.17 1.35z" stroke="#000" stroke-width="4"/><path d="M585.16 266.46l-1.2.34-2.54.82-2.4.9-2.3.96-2.18 1.02-2.1 1.1-2 1.16-1.96 1.24-1.9 1.3-1.82 1.4-1.8 1.5-1.74 1.56-1.72 1.7-1.7 1.8-1.66 1.92-1.65 2.08-1.65 2.26-1.62 2.44-1.62 2.68-1.6 2.94-1.62 3.25-1.6 3.63-1.63 4.1-1.62 4.63-1.6 5.36-1.62 6.3-1.6 7.54-1.57 9.35-1.53 12.23-1.46 17.8-4.38 99.1" stroke="#000" stroke-width="4" stroke-linejoin="round" fill="none"/><path d="M601.23 264.4l-13.57 6.42-1.17-9.2zM526.6 487.08L523 472.5l9.25.68z" stroke="#000" stroke-width="4"/><path d="M81.65 323.6h160v60h-160z" stroke="#000" stroke-width="2" fill="#fff"/><use xlink:href="#E" transform="matrix(1,0,0,1,86.64876508985006,328.5937619090271) translate(26.099999999999994 17.799999999999997)"/><use xlink:href="#F" transform="matrix(1,0,0,1,86.64876508985006,328.5937619090271) translate(29.225 39.4)"/><path d="M81.65 243.6h160v60h-160z" stroke="#000" stroke-width="2" fill="#fff"/><use xlink:href="#a" transform="matrix(1,0,0,1,86.64876508985006,248.59376190902708) translate(26.099999999999994 17.799999999999997)"/><use xlink:href="#G" transform="matrix(1,0,0,1,86.64876508985006,248.59376190902708) translate(26.599999999999994 39.4)"/><use xlink:href="#H" transform="matrix(1,0,0,1,86.64876508985006,248.59376190902708) translate(66.44999999999999 39.4)"/><path d="M81.65 403.6h160v60h-160z" stroke="#000" stroke-width="2" fill="#fff"/><use xlink:href="#a" transform="matrix(1,0,0,1,86.64876508985006,408.5937619090271) translate(26.099999999999994 17.799999999999997)"/><use xlink:href="#I" transform="matrix(1,0,0,1,86.64876508985006,408.5937619090271) translate(14.100000000000001 39.4)"/><use xlink:href="#J" transform="matrix(1,0,0,1,86.64876508985006,408.5937619090271) translate(85.94999999999999 39.4)"/><path d="M443 23.6h160v60H443z" stroke="#000" stroke-width="2" fill="#fff"/><use xlink:href="#a" transform="matrix(1,0,0,1,448.0154317565167,28.59376190902708) translate(26.099999999999994 17.799999999999997)"/><use xlink:href="#K" transform="matrix(1,0,0,1,448.0154317565167,28.59376190902708) translate(41.099999999999994 39.4)"/><path d="M81.65 163.6h160v60h-160z" stroke="#000" stroke-width="2" fill="#fff"/><use xlink:href="#a" transform="matrix(1,0,0,1,86.64876508985006,168.59376190902705) translate(26.099999999999994 17.799999999999997)"/><use xlink:href="#L" transform="matrix(1,0,0,1,86.64876508985006,168.59376190902705) translate(29.574999999999996 39.4)"/><path d="M463 111.6h120v60H463z" stroke="#000" stroke-width="2" fill="#fff"/><use xlink:href="#M" transform="matrix(1,0,0,1,468.0154317565167,116.59376190902708) translate(16.074999999999996 17.799999999999997)"/><use xlink:href="#N" transform="matrix(1,0,0,1,468.0154317565167,116.59376190902708) translate(22.074999999999996 39.4)"/><path d="M716.65 393.6l20-30h40l20 30-20 30h-40z" stroke="#000" stroke-width="2" fill="#c7e8ac"/><use xlink:href="#O" transform="matrix(1,0,0,1,721.64876508985,368.5937619090271) translate(16.049999999999997 28.6)"/><path d="M936.65 243.6h135.63v40H936.65z" stroke="#000" stroke-width="2" fill="#e5f5ff"/><use xlink:href="#w" transform="matrix(1,0,0,1,941.6487650898504,248.59376190902708) translate(12.599999999999994 18.6)"/><use xlink:href="#x" transform="matrix(1,0,0,1,941.6487650898504,248.59376190902708) translate(69.5 18.6)"/><path d="M909.36 343.6h173.02v40H909.36z" stroke="#000" stroke-width="2" fill="#e5f5ff"/><use xlink:href="#w" transform="matrix(1,0,0,1,914.3586432260513,348.5937619090271) translate(10.649999999999991 19.1)"/><use xlink:href="#y" transform="matrix(1,0,0,1,914.3586432260513,348.5937619090271) translate(67.55 19.1)"/><path d="M908.65 443.6h173.02v40H908.65z" stroke="#000" stroke-width="2" fill="#e5f5ff"/><use xlink:href="#w" transform="matrix(1,0,0,1,913.64876508985,448.5937619090271) translate(10.649999999999991 19.1)"/><use xlink:href="#y" transform="matrix(1,0,0,1,913.64876508985,448.5937619090271) translate(67.55 19.1)"/><path d="M1082.38 463.6h40v40h-40z" stroke="#000" stroke-opacity="0" stroke-width="2" fill="#fff" fill-opacity="0"/><use xlink:href="#P" transform="matrix(1,0,0,1,1087.382098423183,468.593761909027) translate(3.8888888888888875 21.333333333333336)"/><path d="M908.65 483.6h173.02v40H908.65z" stroke="#000" stroke-width="2" fill="#e5f5ff"/><use xlink:href="#w" transform="matrix(1,0,0,1,913.64876508985,488.5937619090271) translate(10.649999999999991 19.1)"/><use xlink:href="#y" transform="matrix(1,0,0,1,913.64876508985,488.5937619090271) translate(67.55 19.1)"/><path d="M303 323.6h65v24h-65z" stroke="#000" stroke-width="2" fill="#e5f5ff"/><use xlink:href="#Q" transform="matrix(1,0,0,1,303.0154317565167,323.593761909027) translate(8.420061728395062 14.711111111111112)"/><path d="M303 347.6h65v24h-65z" stroke="#000" stroke-width="2" fill="#e5f5ff"/><use xlink:href="#Q" transform="matrix(1,0,0,1,303.0154317565167,347.59376190902714) translate(8.420061728395062 14.711111111111112)"/><path d="M368 323.6h65v24h-65z" stroke="#000" stroke-width="2" fill="#e5f5ff"/><use xlink:href="#Q" transform="matrix(1,0,0,1,368.0154317565167,323.593761909027) translate(8.420061728395062 14.711111111111112)"/><path d="M368 347.6h65v24h-65z" stroke="#000" stroke-width="2" fill="#e5f5ff"/><use xlink:href="#Q" transform="matrix(1,0,0,1,368.0154317565167,347.59376190902714) translate(8.420061728395062 14.711111111111112)"/><path d="M770.65 243.6h6.5" stroke="#000" stroke-width="2" fill="none"/><path d="M770.67 244.6h-1.02v-2h1.02z" stroke="#000" stroke-width=".05"/><path d="M792.4 243.6l-14.25 4.63v-9.27z" stroke="#000" stroke-width="2"/><path d="M243.65 353.54l2.2-.12 2.76-.45 2.5-.7 2.32-.92 2.33-1.24 2.5-1.7 3.24-2.8 10.3-10.1" stroke="#000" stroke-width="2" stroke-linejoin="round" fill="none"/><path d="M243.73 354.54l-1.08.06v-2l.97-.06z" stroke="#000" stroke-width=".05"/><path d="M285.62 330.25l-11.68 9.4-3.3-8.66z" stroke="#000" stroke-width="2"/><path d="M243.65 273.65l3.83.2 3.82.62 3.3.92 3.2 1.26 3.75 2.02 9.46 5.8" stroke="#000" stroke-width="2" stroke-linejoin="round" fill="none"/><path d="M243.73 272.65l-.1 2-.98-.05v-2z" stroke="#000" stroke-width=".05"/><path d="M285.52 288.28l-14.98.88 2.34-8.97z" stroke="#000" stroke-width="2"/><path d="M243.65 193.65l.78.04 1.66.26 1.56.44 1.55.62 1.56.83 1.63 1.1 1.76 1.52 2 2.15 2.53 3.37 4.2 7.2 9.7 18 .9 1.18" stroke="#000" stroke-width="2" stroke-linejoin="round" fill="none"/><path d="M243.73 192.65l-.1 2-.98-.06v-2z" stroke="#000" stroke-width=".05"/><path d="M285.88 237.9l-14.6-3.44 4.82-7.92z" stroke="#000" stroke-width="2"/><path d="M523 85.6v6.5" stroke="#000" stroke-width="2" stroke-linejoin="round" fill="none"/><path d="M524 85.62h-2V84.6h2z" stroke="#000" stroke-width=".05"/><path d="M523 107.36L518.4 93.1h9.27z" stroke="#000" stroke-width="2"/><path d="M451.65 240.06l4.43-.17 5.26-.6 5.08-.94 4.9-1.3 4.7-1.63 4.54-1.96 4.34-2.26 4.13-2.56 3.9-2.85 3.7-3.13 3.42-3.38 3.18-3.64 2.9-3.87 2.63-4.1 2.32-4.28 2.02-4.5 1.7-4.68.95-3.36" stroke="#000" stroke-width="2" stroke-linejoin="round" fill="none"/><path d="M451.7 241.06l-1.05.03v-2l1-.04z" stroke="#000" stroke-width=".05"/><path d="M517.73 175.8l2.74 14.75-9.2-1.2z" stroke="#000" stroke-width="2"/><path d="M636.47 201.6l-.2-4.42-.75-5.17-1.2-4.94-1.64-4.72-2.04-4.48-2.44-4.22-2.8-3.94-3.17-3.64-3.5-3.33-3.78-2.98-4.1-2.63-4.34-2.24-4.32-1.73" stroke="#000" stroke-width="2" stroke-linejoin="round" fill="none"/><path d="M637.52 202.6h-2l-.05-.98 2-.1z" stroke="#000" stroke-width=".05"/><path d="M587.2 150.63l14.84-2.2-1.54 9.14z" stroke="#000" stroke-width="2"/><path d="M54.13 70l-.16 6.9-.82 12.66-4.7 51.65-.17 7.67.12 5.63.27 4.42.38 3.62.45 3.03.5 2.6.52 2.26.55 2 .58 1.75.6 1.6.6 1.42.6 1.3.63 1.2.63 1.1.66 1.02.65.95.7.88.67.83.7.78.72.73.72.68.76.66.78.62.82.6.84.55.2.13" stroke="#000" stroke-width="2" stroke-linejoin="round" fill="none"/><path d="M55.13 70.05l-2-.05.02-1h2z" stroke="#000" stroke-width=".05"/><path d="M77.5 192.82l-14.95 1.1 2.2-9z" stroke="#000" stroke-width="2"/><path d="M54.13 70l-.17 7.5-.7 10.8-1.6 15.03-4.3 28.4-9.65 59.04-1.4 13.13-.58 9.15-.15 7 .12 5.62.27 4.66.42 3.95.5 3.42.56 2.98.62 2.65.66 2.36.7 2.12.7 1.94.75 1.77.76 1.63.78 1.5.8 1.4.84 1.3.85 1.23.88 1.14.9 1.1.93 1.02.96.98.98.93 1.03.9 1.08.83 1.1.8 1.18.8 1.22.73 1.3.7 1.35.68 1.45.66 1.54.6 1.58.56" stroke="#000" stroke-width="2" stroke-linejoin="round" fill="none"/><path d="M55.13 70.05l-2-.04.02-1h2z" stroke="#000" stroke-width=".05"/><path d="M77.44 273.14l-14.77 2.6 1.3-9.18z" stroke="#000" stroke-width="2"/><path d="M54.13 70l-.2 9.25-.8 12.53-1.7 16.1-3.44 23-23.9 126.5-1.38 13.07-.63 9.8-.18 7.8.13 6.42.34 5.4.47 4.65.6 4.05.68 3.57.75 3.18.8 2.87.84 2.6.88 2.36.92 2.18.94 2.02.98 1.87 1 1.74 1.05 1.64 1.08 1.55 1.1 1.45 1.14 1.38 1.17 1.3 1.2 1.25 1.28 1.2 1.3 1.12 1.4 1.1 1.43 1.04 1.52 1 1.6.95 1.67.93 1.77.88 1.9.85 2.03.8 2.18.77 2.36.7 2.56.67 1.27.26" stroke="#000" stroke-width="2" stroke-linejoin="round" fill="none"/><path d="M55.13 70.05l-2-.04.02-1h2z" stroke="#000" stroke-width=".05"/><path d="M77.43 353.28l-14.65 3.23.9-9.2z" stroke="#000" stroke-width="2"/><path d="M244.65 433.55l20.9-.48 97-4.92 14.1.28 10.67.66 8.62.9 7.23 1.06 6.2 1.18 5.44 1.27 4.83 1.35 4.33 1.4 3.9 1.46 3.6 1.5 3.3 1.56 3.03 1.6 2.83 1.63 2.66 1.68 2.48 1.73 2.36 1.8 2.23 1.85 2.12 1.9 2 1.98 1.94 2.06 1.86 2.14 1.77 2.24 1.7 2.35 1.66 2.48 1.58 2.62 1.53 2.77 1.04 2.08" stroke="#000" stroke-width="4" stroke-linejoin="round" fill="none"/><path d="M244.75 435.55l-2.1.04v-4l2-.05z" stroke="#000" stroke-width=".05"/><path d="M472.74 489.05L463.8 477l8.78-2.95z" stroke="#000" stroke-width="4"/><path d="M54.13 70l-.24 11.2-.95 14.7L51 114.24l-3.67 24.65-7.85 40.6-26.1 121.6-2.97 20.03-1.5 14.25-.7 11-.2 8.87.15 7.38.4 6.27.56 5.43.7 4.75.8 4.2.9 3.78.94 3.4 1 3.1 1.06 2.83 1.1 2.6 1.13 2.42 1.18 2.25 1.23 2.1 1.25 2 1.3 1.85 1.33 1.76 1.4 1.68 1.43 1.6 1.5 1.5 1.54 1.46 1.6 1.4 1.7 1.33 1.76 1.28 1.86 1.24 1.95 1.2 2.08 1.13 2.2 1.1 2.36 1.04 2.52 1 2.72.95 2.95.88 3.2.82 3.5.74 2.92.5" stroke="#000" stroke-width="2" stroke-linejoin="round" fill="none"/><path d="M55.13 70.05l-2-.04.02-1h2z" stroke="#000" stroke-width=".05"/><path d="M77.42 433.36l-14.57 3.57.68-9.25z" stroke="#000" stroke-width="2"/><path d="M81.65 83.6h160v60h-160z" stroke="#000" stroke-width="2" fill="#fff"/><g><use xlink:href="#a" transform="matrix(1,0,0,1,86.64876508985006,88.59376190902708) translate(26.099999999999994 17.799999999999997)"/><use xlink:href="#R" transform="matrix(1,0,0,1,86.64876508985006,88.59376190902708) translate(13.149999999999999 39.4)"/><use xlink:href="#S" transform="matrix(1,0,0,1,86.64876508985006,88.59376190902708) translate(81.9 39.4)"/></g><path d="M243.65 113.62l2.34.05 3.18.22 3.04.34 2.93.47 2.8.6 2.74.7 2.63.82 2.57.92 2.5 1.03 2.47 1.15 2.42 1.26 2.37 1.38 2.34 1.52 2.33 1.65 2.3 1.8 2.3 1.98 2.26 2.15 2.25 2.35 2.26 2.56 2.25 2.8 2.24 3.06 2.22 3.37 2.2 3.68 2.18 4.06 2.14 4.47 2.08 4.92 2 5.4 1.9 5.92 1.74 6.47 1.55 7.04 1.32 7.56 1 8.05.08.77" stroke="#000" stroke-width="2" stroke-linejoin="round" fill="none"/><path d="M243.7 112.62l-.05 2-1-.03v-2z" stroke="#000" stroke-width=".05"/><path d="M317.35 219.36L312 205.34l9.27-.46z" stroke="#000" stroke-width="2"/><path d="M287.65 368.15l-.8.04-1.64.26-1.56.44-1.55.62-1.57.83-1.62 1.1-1.76 1.52-2.02 2.15-2.52 3.37-4.2 7.2-9.7 18-.9 1.18" stroke="#000" stroke-width="2" stroke-linejoin="round" fill="none"/><path d="M288.65 369.1l-.97.05-.1-2 1.07-.06z" stroke="#000" stroke-width=".05"/><path d="M245.4 412.4l9.8-11.36 4.8 7.92z" stroke="#000" stroke-width="2"/><defs><path d="M182-130c37 4 62 22 62 59C244 23 116-4 24 0v-248c84 5 203-23 205 63 0 31-19 50-47 55zM76-148c40-3 101 13 101-30 0-44-60-28-101-31v61zm0 110c48-3 116 14 116-37 0-48-69-32-116-35v72" id="T"/><path d="M133-34C117-15 103 5 69 4 32 3 11-16 11-54c-1-60 55-63 116-61 1-26-3-47-28-47-18 1-26 9-28 27l-52-2c7-38 36-58 82-57s74 22 75 68l1 82c-1 14 12 18 25 15v27c-30 8-71 5-69-32zm-48 3c29 0 43-24 42-57-32 0-66-3-65 30 0 17 8 27 23 27" id="U"/><path d="M190-63c-7 42-38 67-86 67-59 0-84-38-90-98-12-110 154-137 174-36l-49 2c-2-19-15-32-35-32-30 0-35 28-38 64-6 74 65 87 74 30" id="V"/><path d="M147 0L96-86 75-71V0H25v-261h50v150l67-79h53l-66 74L201 0h-54" id="W"/><path d="M185-48c-13 30-37 53-82 52C43 2 14-33 14-96s30-98 90-98c62 0 83 45 84 108H66c0 31 8 55 39 56 18 0 30-7 34-22zm-45-69c5-46-57-63-70-21-2 6-4 13-4 21h74" id="X"/><path d="M135-194c87-1 58 113 63 194h-50c-7-57 23-157-34-157-59 0-34 97-39 157H25l-1-190h47c2 12-1 28 3 38 12-26 28-41 61-42" id="Y"/><path d="M88-194c31-1 46 15 58 34l-1-101h50l1 261h-48c-2-10 0-23-3-31C134-8 116 4 84 4 32 4 16-41 15-95c0-56 19-97 73-99zm17 164c33 0 40-30 41-66 1-37-9-64-41-64s-38 30-39 65c0 43 13 65 39 65" id="Z"/><path d="M24 0v-54h51V0H24" id="aa"/><path d="M199 0l-22-63H83L61 0H9l90-248h61L250 0h-51zm-33-102l-36-108c-10 38-24 72-36 108h72" id="ab"/><path d="M24 0v-248h52V0H24" id="ac"/><g id="a"><use transform="matrix(0.05,0,0,0.05,0,0)" xlink:href="#T"/><use transform="matrix(0.05,0,0,0.05,12.950000000000001,0)" xlink:href="#U"/><use transform="matrix(0.05,0,0,0.05,22.950000000000003,0)" xlink:href="#V"/><use transform="matrix(0.05,0,0,0.05,32.95,0)" xlink:href="#W"/><use transform="matrix(0.05,0,0,0.05,42.95,0)" xlink:href="#X"/><use transform="matrix(0.05,0,0,0.05,52.95,0)" xlink:href="#Y"/><use transform="matrix(0.05,0,0,0.05,63.900000000000006,0)" xlink:href="#Z"/><use transform="matrix(0.05,0,0,0.05,74.85000000000001,0)" xlink:href="#aa"/><use transform="matrix(0.05,0,0,0.05,79.85000000000001,0)" xlink:href="#ab"/><use transform="matrix(0.05,0,0,0.05,92.80000000000001,0)" xlink:href="#ac"/></g><path d="M230 0l2-204L168 0h-37L68-204 70 0H24v-248h70l56 185 57-185h69V0h-46" id="ad"/><path d="M195-6C206 82 75 100 31 46c-4-6-6-13-8-21l49-6c3 16 16 24 34 25 40 0 42-37 40-79-11 22-30 35-61 35-53 0-70-43-70-97 0-56 18-96 73-97 30 0 46 14 59 34l2-30h47zm-90-29c32 0 41-27 41-63 0-35-9-62-40-62-32 0-39 29-40 63 0 36 9 62 39 62" id="ae"/><path d="M135-150c-39-12-60 13-60 57V0H25l-1-190h47c2 13-1 29 3 40 6-28 27-53 61-41v41" id="af"/><g id="b"><use transform="matrix(0.05,0,0,0.05,0,0)" xlink:href="#ad"/><use transform="matrix(0.05,0,0,0.05,14.950000000000001,0)" xlink:href="#U"/><use transform="matrix(0.05,0,0,0.05,24.950000000000003,0)" xlink:href="#Y"/><use transform="matrix(0.05,0,0,0.05,35.900000000000006,0)" xlink:href="#U"/><use transform="matrix(0.05,0,0,0.05,45.900000000000006,0)" xlink:href="#ae"/><use transform="matrix(0.05,0,0,0.05,56.85,0)" xlink:href="#X"/><use transform="matrix(0.05,0,0,0.05,66.85000000000001,0)" xlink:href="#af"/></g><path d="M100-194c63 0 86 42 84 106H49c0 40 14 67 53 68 26 1 43-12 49-29l28 8c-11 28-37 45-77 45C44 4 14-33 15-96c1-61 26-98 85-98zm52 81c6-60-76-77-97-28-3 7-6 17-6 28h103" id="ag"/><path d="M59-47c-2 24 18 29 38 22v24C64 9 27 4 27-40v-127H5v-23h24l9-43h21v43h35v23H59v120" id="ah"/><path d="M96-169c-40 0-48 33-48 73s9 75 48 75c24 0 41-14 43-38l32 2c-6 37-31 61-74 61-59 0-76-41-82-99-10-93 101-131 147-64 4 7 5 14 7 22l-32 3c-4-21-16-35-41-35" id="ai"/><path d="M85-194c31 0 48 13 60 33l-1-100h32l1 261h-30c-2-10 0-23-3-31C134-8 116 4 85 4 32 4 16-35 15-94c0-66 23-100 70-100zm9 24c-40 0-46 34-46 75 0 40 6 74 45 74 42 0 51-32 51-76 0-42-9-74-50-73" id="aj"/><g id="c"><use transform="matrix(0.05,0,0,0.05,0,0)" xlink:href="#ag"/><use transform="matrix(0.05,0,0,0.05,10,0)" xlink:href="#ah"/><use transform="matrix(0.05,0,0,0.05,15,0)" xlink:href="#ai"/><use transform="matrix(0.05,0,0,0.05,24,0)" xlink:href="#aj"/></g><path d="M30-248c87 1 191-15 191 75 0 78-77 80-158 76V0H30v-248zm33 125c57 0 124 11 124-50 0-59-68-47-124-48v98" id="ak"/><path d="M100-194c62-1 85 37 85 99 1 63-27 99-86 99S16-35 15-95c0-66 28-99 85-99zM99-20c44 1 53-31 53-75 0-43-8-75-51-75s-53 32-53 75 10 74 51 75" id="al"/><path d="M135-143c-3-34-86-38-87 0 15 53 115 12 119 90S17 21 10-45l28-5c4 36 97 45 98 0-10-56-113-15-118-90-4-57 82-63 122-42 12 7 21 19 24 35" id="am"/><path d="M177-190C167-65 218 103 67 71c-23-6-38-20-44-43l32-5c15 47 100 32 89-28v-30C133-14 115 1 83 1 29 1 15-40 15-95c0-56 16-97 71-98 29-1 48 16 59 35 1-10 0-23 2-32h30zM94-22c36 0 50-32 50-73 0-42-14-75-50-75-39 0-46 34-46 75s6 73 46 73" id="an"/><path d="M114-163C36-179 61-72 57 0H25l-1-190h30c1 12-1 29 2 39 6-27 23-49 58-41v29" id="ao"/><path d="M185-189c-5-48-123-54-124 2 14 75 158 14 163 119 3 78-121 87-175 55-17-10-28-26-33-46l33-7c5 56 141 63 141-1 0-78-155-14-162-118-5-82 145-84 179-34 5 7 8 16 11 25" id="ap"/><path d="M140-251c81 0 123 46 123 126C263-53 228-8 163 1c7 30 30 48 69 40v23c-55 16-95-15-103-61C56-3 17-48 17-125c0-80 42-126 123-126zm0 227c63 0 89-41 89-101s-29-99-89-99c-61 0-89 39-89 99S79-25 140-24" id="aq"/><path d="M30 0v-248h33v221h125V0H30" id="ar"/><g id="d"><use transform="matrix(0.05,0,0,0.05,0,0)" xlink:href="#ak"/><use transform="matrix(0.05,0,0,0.05,12,0)" xlink:href="#al"/><use transform="matrix(0.05,0,0,0.05,22,0)" xlink:href="#am"/><use transform="matrix(0.05,0,0,0.05,31,0)" xlink:href="#ah"/><use transform="matrix(0.05,0,0,0.05,36,0)" xlink:href="#an"/><use transform="matrix(0.05,0,0,0.05,46,0)" xlink:href="#ao"/><use transform="matrix(0.05,0,0,0.05,51.95,0)" xlink:href="#ag"/><use transform="matrix(0.05,0,0,0.05,61.95,0)" xlink:href="#ap"/><use transform="matrix(0.05,0,0,0.05,73.95,0)" xlink:href="#aq"/><use transform="matrix(0.05,0,0,0.05,87.95,0)" xlink:href="#ar"/></g><g id="e"><use transform="matrix(0.05,0,0,0.05,0,0)" xlink:href="#T"/><use transform="matrix(0.05,0,0,0.05,12.950000000000001,0)" xlink:href="#U"/><use transform="matrix(0.05,0,0,0.05,22.950000000000003,0)" xlink:href="#V"/><use transform="matrix(0.05,0,0,0.05,32.95,0)" xlink:href="#W"/><use transform="matrix(0.05,0,0,0.05,42.95,0)" xlink:href="#X"/><use transform="matrix(0.05,0,0,0.05,52.95,0)" xlink:href="#Y"/><use transform="matrix(0.05,0,0,0.05,63.900000000000006,0)" xlink:href="#Z"/><use transform="matrix(0.05,0,0,0.05,74.85000000000001,0)" xlink:href="#aa"/><use transform="matrix(0.05,0,0,0.05,79.85000000000001,0)" xlink:href="#ab"/><use transform="matrix(0.05,0,0,0.05,92.80000000000001,0)" xlink:href="#ac"/></g><path d="M115-3C79 11 28 4 28-45v-112H4v-33h27l15-45h31v45h36v33H77v99c-1 23 16 31 38 25v30" id="as"/><g id="f"><use transform="matrix(0.05,0,0,0.05,0,0)" xlink:href="#ab"/><use transform="matrix(0.05,0,0,0.05,12.950000000000001,0)" xlink:href="#ae"/><use transform="matrix(0.05,0,0,0.05,23.900000000000002,0)" xlink:href="#X"/><use transform="matrix(0.05,0,0,0.05,33.900000000000006,0)" xlink:href="#Y"/><use transform="matrix(0.05,0,0,0.05,44.85000000000001,0)" xlink:href="#as"/></g><path d="M233-177c-1 41-23 64-60 70L243 0h-38l-65-103H63V0H30v-248c88 3 205-21 203 71zM63-129c60-2 137 13 137-47 0-61-80-42-137-45v92" id="at"/><path d="M108 0H70L1-190h34L89-25l56-165h34" id="au"/><g id="g"><use transform="matrix(0.05,0,0,0.05,0,0)" xlink:href="#at"/><use transform="matrix(0.05,0,0,0.05,12.950000000000001,0)" xlink:href="#ag"/><use transform="matrix(0.05,0,0,0.05,22.950000000000003,0)" xlink:href="#au"/><use transform="matrix(0.05,0,0,0.05,31.950000000000003,0)" xlink:href="#ag"/><use transform="matrix(0.05,0,0,0.05,41.95,0)" xlink:href="#ao"/><use transform="matrix(0.05,0,0,0.05,47.900000000000006,0)" xlink:href="#am"/><use transform="matrix(0.05,0,0,0.05,56.900000000000006,0)" xlink:href="#ag"/></g><path d="M115-194c55 1 70 41 70 98S169 2 115 4C84 4 66-9 55-30l1 105H24l-1-265h31l2 30c10-21 28-34 59-34zm-8 174c40 0 45-34 45-75s-6-73-45-74c-42 0-51 32-51 76 0 43 10 73 51 73" id="av"/><path d="M141 0L90-78 38 0H4l68-98-65-92h35l48 74 47-74h35l-64 92 68 98h-35" id="aw"/><path d="M24-231v-30h32v30H24zM24 0v-190h32V0H24" id="ax"/><g id="h"><use transform="matrix(0.05,0,0,0.05,0,0)" xlink:href="#av"/><use transform="matrix(0.05,0,0,0.05,10,0)" xlink:href="#ao"/><use transform="matrix(0.05,0,0,0.05,15.949999999999998,0)" xlink:href="#al"/><use transform="matrix(0.05,0,0,0.05,25.950000000000003,0)" xlink:href="#aw"/><use transform="matrix(0.05,0,0,0.05,34.95,0)" xlink:href="#ax"/><use transform="matrix(0.05,0,0,0.05,38.900000000000006,0)" xlink:href="#ag"/><use transform="matrix(0.05,0,0,0.05,48.900000000000006,0)" xlink:href="#am"/></g><path d="M87 75C49 33 22-17 22-94c0-76 28-126 65-167h31c-38 41-64 92-64 168S80 34 118 75H87" id="ay"/><path d="M117-194c89-4 53 116 60 194h-32v-121c0-31-8-49-39-48C34-167 62-67 57 0H25l-1-190h30c1 10-1 24 2 32 11-22 29-35 61-36" id="az"/><path d="M68-38c1 34 0 65-14 84H32c9-13 17-26 17-46H33v-38h35" id="aA"/><g id="i"><use transform="matrix(0.05,0,0,0.05,0,0)" xlink:href="#ay"/><use transform="matrix(0.05,0,0,0.05,5.95,0)" xlink:href="#az"/><use transform="matrix(0.05,0,0,0.05,15.949999999999998,0)" xlink:href="#an"/><use transform="matrix(0.05,0,0,0.05,25.950000000000003,0)" xlink:href="#ax"/><use transform="matrix(0.05,0,0,0.05,29.899999999999995,0)" xlink:href="#az"/><use transform="matrix(0.05,0,0,0.05,39.9,0)" xlink:href="#aw"/><use transform="matrix(0.05,0,0,0.05,48.9,0)" xlink:href="#aA"/></g><path d="M106-169C34-169 62-67 57 0H25v-261h32l-1 103c12-21 28-36 61-36 89 0 53 116 60 194h-32v-121c2-32-8-49-39-48" id="aB"/><path d="M141-36C126-15 110 5 73 4 37 3 15-17 15-53c-1-64 63-63 125-63 3-35-9-54-41-54-24 1-41 7-42 31l-33-3c5-37 33-52 76-52 45 0 72 20 72 64v82c-1 20 7 32 28 27v20c-31 9-61-2-59-35zM48-53c0 20 12 33 32 33 41-3 63-29 60-74-43 2-92-5-92 41" id="aC"/><path d="M179-190L93 31C79 59 56 82 12 73V49c39 6 53-20 64-50L1-190h34L92-34l54-156h33" id="aD"/><g id="j"><use transform="matrix(0.05,0,0,0.05,0,0)" xlink:href="#aB"/><use transform="matrix(0.05,0,0,0.05,10,0)" xlink:href="#aC"/><use transform="matrix(0.05,0,0,0.05,20,0)" xlink:href="#av"/><use transform="matrix(0.05,0,0,0.05,30,0)" xlink:href="#ao"/><use transform="matrix(0.05,0,0,0.05,35.95,0)" xlink:href="#al"/><use transform="matrix(0.05,0,0,0.05,45.95,0)" xlink:href="#aw"/><use transform="matrix(0.05,0,0,0.05,54.95,0)" xlink:href="#aD"/><use transform="matrix(0.05,0,0,0.05,62.6,0)" xlink:href="#aA"/></g><path d="M205 0l-28-72H64L36 0H1l101-248h38L239 0h-34zm-38-99l-47-123c-12 45-31 82-46 123h93" id="aE"/><path d="M160-131c35 5 61 23 61 61C221 17 115-2 30 0v-248c76 3 177-17 177 60 0 33-19 50-47 57zm-97-11c50-1 110 9 110-42 0-47-63-36-110-37v79zm0 115c55-2 124 14 124-45 0-56-70-42-124-44v89" id="aF"/><g id="k"><use transform="matrix(0.05,0,0,0.05,0,0)" xlink:href="#aE"/><use transform="matrix(0.05,0,0,0.05,12,0)" xlink:href="#ar"/><use transform="matrix(0.05,0,0,0.05,22,0)" xlink:href="#aF"/><use transform="matrix(0.05,0,0,0.05,34,0)" xlink:href="#aA"/></g><path d="M33 0v-38h34V0H33" id="aG"/><path d="M33-261c38 41 65 92 65 168S71 34 33 75H2C39 34 66-17 66-93S39-220 2-261h31" id="aH"/><g id="l"><use transform="matrix(0.05,0,0,0.05,0,0)" xlink:href="#aG"/><use transform="matrix(0.05,0,0,0.05,5,0)" xlink:href="#aG"/><use transform="matrix(0.05,0,0,0.05,10,0)" xlink:href="#aG"/><use transform="matrix(0.05,0,0,0.05,15,0)" xlink:href="#aH"/></g><path d="M194 0L95-120 63-95V0H30v-248h33v124l119-124h40L117-140 236 0h-42" id="aI"/><path d="M84 4C-5 8 30-112 23-190h32v120c0 31 7 50 39 49 72-2 45-101 50-169h31l1 190h-30c-1-10 1-25-2-33-11 22-28 36-60 37" id="aJ"/><path d="M115-194c53 0 69 39 70 98 0 66-23 100-70 100C84 3 66-7 56-30L54 0H23l1-261h32v101c10-23 28-34 59-34zm-8 174c40 0 45-34 45-75 0-40-5-75-45-74-42 0-51 32-51 76 0 43 10 73 51 73" id="aK"/><g id="m"><use transform="matrix(0.05,0,0,0.05,0,0)" xlink:href="#aI"/><use transform="matrix(0.05,0,0,0.05,12,0)" xlink:href="#aJ"/><use transform="matrix(0.05,0,0,0.05,22,0)" xlink:href="#aK"/><use transform="matrix(0.05,0,0,0.05,32,0)" xlink:href="#ag"/><use transform="matrix(0.05,0,0,0.05,42,0)" xlink:href="#ao"/><use transform="matrix(0.05,0,0,0.05,47.95,0)" xlink:href="#az"/><use transform="matrix(0.05,0,0,0.05,57.95,0)" xlink:href="#ag"/><use transform="matrix(0.05,0,0,0.05,67.95,0)" xlink:href="#ah"/><use transform="matrix(0.05,0,0,0.05,72.95,0)" xlink:href="#ag"/><use transform="matrix(0.05,0,0,0.05,82.95,0)" xlink:href="#am"/></g><path d="M30-248c118-7 216 8 213 122C240-48 200 0 122 0H30v-248zM63-27c89 8 146-16 146-99s-60-101-146-95v194" id="aL"/><path d="M143 0L79-87 56-68V0H24v-261h32v163l83-92h37l-77 82L181 0h-38" id="aM"/><g id="n"><use transform="matrix(0.05,0,0,0.05,0,0)" xlink:href="#aL"/><use transform="matrix(0.05,0,0,0.05,12.950000000000001,0)" xlink:href="#al"/><use transform="matrix(0.05,0,0,0.05,22.950000000000003,0)" xlink:href="#ai"/><use transform="matrix(0.05,0,0,0.05,31.950000000000003,0)" xlink:href="#aM"/><use transform="matrix(0.05,0,0,0.05,40.95,0)" xlink:href="#ag"/><use transform="matrix(0.05,0,0,0.05,50.95,0)" xlink:href="#ao"/></g><path d="M118-107v75H92v-75H18v-26h74v-75h26v75h74v26h-74" id="aN"/><use transform="matrix(0.05,0,0,0.05,0,0)" xlink:href="#aN" id="o"/><path d="M190 0L58-211 59 0H30v-248h39L202-35l-2-213h31V0h-41" id="aO"/><path d="M232-93c-1 65-40 97-104 97C67 4 28-28 28-90v-158h33c8 89-33 224 67 224 102 0 64-133 71-224h33v155" id="aP"/><g id="p"><use transform="matrix(0.05,0,0,0.05,0,0)" xlink:href="#aO"/><use transform="matrix(0.05,0,0,0.05,12.950000000000001,0)" xlink:href="#ak"/><use transform="matrix(0.05,0,0,0.05,24.950000000000003,0)" xlink:href="#aP"/></g><g id="q"><use transform="matrix(0.05,0,0,0.05,0,0)" xlink:href="#aj"/><use transform="matrix(0.05,0,0,0.05,10,0)" xlink:href="#ao"/><use transform="matrix(0.05,0,0,0.05,15.949999999999998,0)" xlink:href="#ax"/><use transform="matrix(0.05,0,0,0.05,19.9,0)" xlink:href="#au"/><use transform="matrix(0.05,0,0,0.05,28.899999999999995,0)" xlink:href="#ag"/><use transform="matrix(0.05,0,0,0.05,38.9,0)" xlink:href="#ao"/></g><path d="M234-2c-28 10-62 0-77-18C117 19 8 12 13-65c3-43 29-61 60-76-25-40-17-114 47-108 35 3 59 15 59 50 0 44-40 53-71 69 14 26 32 50 51 72 14-21 24-43 30-72l26 8c-9 33-21 57-38 82 13 13 33 22 57 15v23zM97-151c25-10 52-18 56-48-1-18-13-29-33-29-42 0-39 50-23 77zM42-66c-3 51 71 58 98 28-20-24-41-51-56-80-23 10-40 24-42 52" id="aQ"/><use transform="matrix(0.05,0,0,0.05,0,0)" xlink:href="#aQ" id="r"/><path d="M210-169c-67 3-38 105-44 169h-31v-121c0-29-5-50-35-48C34-165 62-65 56 0H25l-1-190h30c1 10-1 24 2 32 10-44 99-50 107 0 11-21 27-35 58-36 85-2 47 119 55 194h-31v-121c0-29-5-49-35-48" id="aR"/><g id="s"><use transform="matrix(0.05,0,0,0.05,0,0)" xlink:href="#ao"/><use transform="matrix(0.05,0,0,0.05,5.95,0)" xlink:href="#aJ"/><use transform="matrix(0.05,0,0,0.05,15.949999999999998,0)" xlink:href="#az"/><use transform="matrix(0.05,0,0,0.05,25.950000000000003,0)" xlink:href="#ah"/><use transform="matrix(0.05,0,0,0.05,30.950000000000003,0)" xlink:href="#ax"/><use transform="matrix(0.05,0,0,0.05,34.9,0)" xlink:href="#aR"/><use transform="matrix(0.05,0,0,0.05,49.85,0)" xlink:href="#ag"/></g><use transform="matrix(0.05,0,0,0.05,0,0)" xlink:href="#aN" id="t"/><path d="M16-82v-28h88v28H16" id="aS"/><g id="u"><use transform="matrix(0.05,0,0,0.05,0,0)" xlink:href="#az"/><use transform="matrix(0.05,0,0,0.05,10,0)" xlink:href="#au"/><use transform="matrix(0.05,0,0,0.05,19,0)" xlink:href="#ax"/><use transform="matrix(0.05,0,0,0.05,22.95,0)" xlink:href="#aj"/><use transform="matrix(0.05,0,0,0.05,32.95,0)" xlink:href="#ax"/><use transform="matrix(0.05,0,0,0.05,36.900000000000006,0)" xlink:href="#aC"/><use transform="matrix(0.05,0,0,0.05,46.900000000000006,0)" xlink:href="#aS"/><use transform="matrix(0.05,0,0,0.05,52.85,0)" xlink:href="#aj"/><use transform="matrix(0.05,0,0,0.05,62.85,0)" xlink:href="#al"/><use transform="matrix(0.05,0,0,0.05,72.85000000000001,0)" xlink:href="#ai"/><use transform="matrix(0.05,0,0,0.05,81.85000000000001,0)" xlink:href="#aM"/><use transform="matrix(0.05,0,0,0.05,90.85000000000001,0)" xlink:href="#ag"/><use transform="matrix(0.05,0,0,0.05,100.85000000000001,0)" xlink:href="#ao"/></g><path d="M212-179c-10-28-35-45-73-45-59 0-87 40-87 99 0 60 29 101 89 101 43 0 62-24 78-52l27 14C228-24 195 4 139 4 59 4 22-46 18-125c-6-104 99-153 187-111 19 9 31 26 39 46" id="aT"/><g id="v"><use transform="matrix(0.05,0,0,0.05,0,0)" xlink:href="#aT"/><use transform="matrix(0.05,0,0,0.05,12.950000000000001,0)" xlink:href="#aP"/><use transform="matrix(0.05,0,0,0.05,25.900000000000002,0)" xlink:href="#aL"/><use transform="matrix(0.05,0,0,0.05,38.85,0)" xlink:href="#aE"/></g><path d="M24 0v-261h32V0H24" id="aU"/><g id="w"><use transform="matrix(0.05,0,0,0.05,0,0)" xlink:href="#aI"/><use transform="matrix(0.05,0,0,0.05,12,0)" xlink:href="#ag"/><use transform="matrix(0.05,0,0,0.05,22,0)" xlink:href="#ao"/><use transform="matrix(0.05,0,0,0.05,27.950000000000003,0)" xlink:href="#az"/><use transform="matrix(0.05,0,0,0.05,37.95,0)" xlink:href="#ag"/><use transform="matrix(0.05,0,0,0.05,47.95,0)" xlink:href="#aU"/></g><g id="x"><use transform="matrix(0.05,0,0,0.05,0,0)" xlink:href="#ay"/><use transform="matrix(0.05,0,0,0.05,5.95,0)" xlink:href="#ak"/><use transform="matrix(0.05,0,0,0.05,17.95,0)" xlink:href="#al"/><use transform="matrix(0.05,0,0,0.05,27.950000000000003,0)" xlink:href="#aj"/><use transform="matrix(0.05,0,0,0.05,37.95,0)" xlink:href="#aH"/></g><g id="y"><use transform="matrix(0.05,0,0,0.05,0,0)" xlink:href="#ay"/><use transform="matrix(0.05,0,0,0.05,5.95,0)" xlink:href="#ai"/><use transform="matrix(0.05,0,0,0.05,14.949999999999998,0)" xlink:href="#al"/><use transform="matrix(0.05,0,0,0.05,24.95,0)" xlink:href="#az"/><use transform="matrix(0.05,0,0,0.05,34.95,0)" xlink:href="#ah"/><use transform="matrix(0.05,0,0,0.05,39.95,0)" xlink:href="#aC"/><use transform="matrix(0.05,0,0,0.05,49.95,0)" xlink:href="#ax"/><use transform="matrix(0.05,0,0,0.05,53.900000000000006,0)" xlink:href="#az"/><use transform="matrix(0.05,0,0,0.05,63.900000000000006,0)" xlink:href="#ag"/><use transform="matrix(0.05,0,0,0.05,73.9,0)" xlink:href="#ao"/><use transform="matrix(0.05,0,0,0.05,79.85000000000001,0)" xlink:href="#aH"/></g><path d="M143 4C61 4 22-44 18-125c-5-107 100-154 193-111 17 8 29 25 37 43l-32 9c-13-25-37-40-76-40-61 0-88 39-88 99 0 61 29 100 91 101 35 0 62-11 79-27v-45h-74v-28h105v86C228-13 192 4 143 4" id="aV"/><g id="z"><use transform="matrix(0.05,0,0,0.05,0,0)" xlink:href="#aV"/><use transform="matrix(0.05,0,0,0.05,14,0)" xlink:href="#ak"/><use transform="matrix(0.05,0,0,0.05,26,0)" xlink:href="#aP"/></g><path d="M25-93v-54h50v54H25" id="aW"/><g id="A"><use transform="matrix(0.07407407407407408,0,0,0.07407407407407408,0,0)" xlink:href="#aW"/><use transform="matrix(0.07407407407407408,0,0,0.07407407407407408,7.407407407407408,0)" xlink:href="#aW"/><use transform="matrix(0.07407407407407408,0,0,0.07407407407407408,14.814814814814817,0)" xlink:href="#aW"/></g><path d="M206 0h-36l-40-164L89 0H53L-1-190h32L70-26l43-164h34l41 164 42-164h31" id="aX"/><g id="B"><use transform="matrix(0.05,0,0,0.05,0,0)" xlink:href="#aO"/><use transform="matrix(0.05,0,0,0.05,12.950000000000001,0)" xlink:href="#ag"/><use transform="matrix(0.05,0,0,0.05,22.950000000000003,0)" xlink:href="#ah"/><use transform="matrix(0.05,0,0,0.05,27.950000000000003,0)" xlink:href="#aX"/><use transform="matrix(0.05,0,0,0.05,40.900000000000006,0)" xlink:href="#al"/><use transform="matrix(0.05,0,0,0.05,50.900000000000006,0)" xlink:href="#ao"/><use transform="matrix(0.05,0,0,0.05,56.85,0)" xlink:href="#aM"/></g><g id="C"><use transform="matrix(0.05,0,0,0.05,0,0)" xlink:href="#ap"/><use transform="matrix(0.05,0,0,0.05,12,0)" xlink:href="#ah"/><use transform="matrix(0.05,0,0,0.05,17,0)" xlink:href="#al"/><use transform="matrix(0.05,0,0,0.05,27,0)" xlink:href="#ao"/><use transform="matrix(0.05,0,0,0.05,32.95,0)" xlink:href="#aC"/><use transform="matrix(0.05,0,0,0.05,42.95,0)" xlink:href="#an"/><use transform="matrix(0.05,0,0,0.05,52.95,0)" xlink:href="#ag"/></g><g id="D"><use transform="matrix(0.05,0,0,0.05,0,0)" xlink:href="#at"/><use transform="matrix(0.05,0,0,0.05,12.950000000000001,0)" xlink:href="#ag"/><use transform="matrix(0.05,0,0,0.05,22.950000000000003,0)" xlink:href="#aj"/><use transform="matrix(0.05,0,0,0.05,32.95,0)" xlink:href="#ax"/><use transform="matrix(0.05,0,0,0.05,36.900000000000006,0)" xlink:href="#am"/></g><g id="E"><use transform="matrix(0.05,0,0,0.05,0,0)" xlink:href="#T"/><use transform="matrix(0.05,0,0,0.05,12.950000000000001,0)" xlink:href="#U"/><use transform="matrix(0.05,0,0,0.05,22.950000000000003,0)" xlink:href="#V"/><use transform="matrix(0.05,0,0,0.05,32.95,0)" xlink:href="#W"/><use transform="matrix(0.05,0,0,0.05,42.95,0)" xlink:href="#X"/><use transform="matrix(0.05,0,0,0.05,52.95,0)" xlink:href="#Y"/><use transform="matrix(0.05,0,0,0.05,63.900000000000006,0)" xlink:href="#Z"/><use transform="matrix(0.05,0,0,0.05,74.85000000000001,0)" xlink:href="#aa"/><use transform="matrix(0.05,0,0,0.05,79.85000000000001,0)" xlink:href="#ab"/><use transform="matrix(0.05,0,0,0.05,92.80000000000001,0)" xlink:href="#ac"/></g><path d="M275 0h-61l-44-196L126 0H64L0-248h53L97-49l45-199h58l43 199 44-199h52" id="aY"/><path d="M135-194c52 0 70 43 70 98 0 56-19 99-73 100-30 1-46-15-58-35L72 0H24l1-261h50v104c11-23 29-37 60-37zM114-30c31 0 40-27 40-66 0-37-7-63-39-63s-41 28-41 65c0 36 8 64 40 64" id="aZ"/><path d="M137-138c1-29-70-34-71-4 15 46 118 7 119 86 1 83-164 76-172 9l43-7c4 19 20 25 44 25 33 8 57-30 24-41C81-84 22-81 20-136c-2-80 154-74 161-7" id="ba"/><path d="M128 0H69L1-190h53L99-40l48-150h52" id="bb"/><g id="F"><use transform="matrix(0.05,0,0,0.05,0,0)" xlink:href="#aY"/><use transform="matrix(0.05,0,0,0.05,16.599999999999998,0)" xlink:href="#X"/><use transform="matrix(0.05,0,0,0.05,26.599999999999994,0)" xlink:href="#aZ"/><use transform="matrix(0.05,0,0,0.05,37.55,0)" xlink:href="#ba"/><use transform="matrix(0.05,0,0,0.05,47.55,0)" xlink:href="#X"/><use transform="matrix(0.05,0,0,0.05,57.54999999999999,0)" xlink:href="#af"/><use transform="matrix(0.05,0,0,0.05,64.55,0)" xlink:href="#bb"/><use transform="matrix(0.05,0,0,0.05,74.55,0)" xlink:href="#X"/><use transform="matrix(0.05,0,0,0.05,84.55,0)" xlink:href="#af"/></g><path d="M135-194c53 0 70 44 70 98 0 56-19 98-73 100-31 1-45-17-59-34 3 33 2 69 2 105H25l-1-265h48c2 10 0 23 3 31 11-24 29-35 60-35zM114-30c33 0 39-31 40-66 0-38-9-64-40-64-56 0-55 130 0 130" id="bc"/><g id="G"><use transform="matrix(0.05,0,0,0.05,0,0)" xlink:href="#ab"/><use transform="matrix(0.05,0,0,0.05,12.950000000000001,0)" xlink:href="#bc"/><use transform="matrix(0.05,0,0,0.05,23.900000000000002,0)" xlink:href="#bc"/></g><path d="M24-248c93 1 206-16 204 79-1 75-69 88-152 82V0H24v-248zm52 121c47 0 100 7 100-41 0-47-54-39-100-39v80" id="bd"/><path d="M110-194c64 0 96 36 96 99 0 64-35 99-97 99-61 0-95-36-95-99 0-62 34-99 96-99zm-1 164c35 0 45-28 45-65 0-40-10-65-43-65-34 0-45 26-45 65 0 36 10 65 43 65" id="be"/><path d="M144 0l-44-69L55 0H2l70-98-66-92h53l41 62 40-62h54l-67 91 71 99h-54" id="bf"/><path d="M123 10C108 53 80 86 19 72V37c35 8 53-11 59-39L3-190h52l48 148c12-52 28-100 44-148h51" id="bg"/><path d="M86-200l42-18 12 35-44 11 32 37-32 21-26-44-26 44-32-21 33-37-44-11 12-35 42 18-3-48h38" id="bh"/><g id="H"><use transform="matrix(0.05,0,0,0.05,0,0)" xlink:href="#bd"/><use transform="matrix(0.05,0,0,0.05,12,0)" xlink:href="#af"/><use transform="matrix(0.05,0,0,0.05,19,0)" xlink:href="#be"/><use transform="matrix(0.05,0,0,0.05,29.950000000000003,0)" xlink:href="#bf"/><use transform="matrix(0.05,0,0,0.05,39.95,0)" xlink:href="#bg"/><use transform="matrix(0.05,0,0,0.05,49.95,0)" xlink:href="#bh"/></g><path d="M169-182c-1-43-94-46-97-3 18 66 151 10 154 114 3 95-165 93-204 36-6-8-10-19-12-30l50-8c3 46 112 56 116 5-17-69-150-10-154-114-4-87 153-88 188-35 5 8 8 18 10 28" id="bi"/><g id="I"><use transform="matrix(0.05,0,0,0.05,0,0)" xlink:href="#bi"/><use transform="matrix(0.05,0,0,0.05,12,0)" xlink:href="#as"/><use transform="matrix(0.05,0,0,0.05,17.95,0)" xlink:href="#be"/><use transform="matrix(0.05,0,0,0.05,28.899999999999995,0)" xlink:href="#af"/><use transform="matrix(0.05,0,0,0.05,35.9,0)" xlink:href="#U"/><use transform="matrix(0.05,0,0,0.05,45.9,0)" xlink:href="#ae"/><use transform="matrix(0.05,0,0,0.05,56.85,0)" xlink:href="#X"/></g><g id="J"><use transform="matrix(0.05,0,0,0.05,0,0)" xlink:href="#bd"/><use transform="matrix(0.05,0,0,0.05,12,0)" xlink:href="#af"/><use transform="matrix(0.05,0,0,0.05,19,0)" xlink:href="#be"/><use transform="matrix(0.05,0,0,0.05,29.950000000000003,0)" xlink:href="#bf"/><use transform="matrix(0.05,0,0,0.05,39.95,0)" xlink:href="#bg"/></g><path d="M76-208v77h127v40H76V0H24v-248h183v40H76" id="bj"/><path d="M25 0v-261h50V0H25" id="bk"/><path d="M25-224v-37h50v37H25zM25 0v-190h50V0H25" id="bl"/><path d="M121-226c-27-7-43 5-38 36h38v33H83V0H34v-157H6v-33h28c-9-59 32-81 87-68v32" id="bm"/><g id="K"><use transform="matrix(0.05,0,0,0.05,0,0)" xlink:href="#bj"/><use transform="matrix(0.05,0,0,0.05,10.950000000000001,0)" xlink:href="#be"/><use transform="matrix(0.05,0,0,0.05,21.900000000000002,0)" xlink:href="#af"/><use transform="matrix(0.05,0,0,0.05,28.900000000000002,0)" xlink:href="#W"/><use transform="matrix(0.05,0,0,0.05,38.900000000000006,0)" xlink:href="#bk"/><use transform="matrix(0.05,0,0,0.05,43.900000000000006,0)" xlink:href="#bl"/><use transform="matrix(0.05,0,0,0.05,48.900000000000006,0)" xlink:href="#bm"/><use transform="matrix(0.05,0,0,0.05,54.85,0)" xlink:href="#as"/><use transform="matrix(0.05,0,0,0.05,60.80000000000001,0)" xlink:href="#bh"/></g><path d="M136-208V0H84v-208H4v-40h212v40h-80" id="bn"/><g id="L"><use transform="matrix(0.05,0,0,0.05,0,0)" xlink:href="#bj"/><use transform="matrix(0.05,0,0,0.05,10.950000000000001,0)" xlink:href="#U"/><use transform="matrix(0.05,0,0,0.05,20.950000000000003,0)" xlink:href="#ba"/><use transform="matrix(0.05,0,0,0.05,30.950000000000003,0)" xlink:href="#as"/><use transform="matrix(0.05,0,0,0.05,36.900000000000006,0)" xlink:href="#bn"/><use transform="matrix(0.05,0,0,0.05,46.85000000000001,0)" xlink:href="#af"/><use transform="matrix(0.05,0,0,0.05,53.85,0)" xlink:href="#U"/><use transform="matrix(0.05,0,0,0.05,63.85,0)" xlink:href="#V"/><use transform="matrix(0.05,0,0,0.05,73.85000000000001,0)" xlink:href="#W"/><use transform="matrix(0.05,0,0,0.05,83.85000000000001,0)" xlink:href="#bh"/></g><g id="M"><use transform="matrix(0.05,0,0,0.05,0,0)" xlink:href="#aT"/><use transform="matrix(0.05,0,0,0.05,12.950000000000001,0)" xlink:href="#al"/><use transform="matrix(0.05,0,0,0.05,22.950000000000003,0)" xlink:href="#az"/><use transform="matrix(0.05,0,0,0.05,32.95,0)" xlink:href="#ah"/><use transform="matrix(0.05,0,0,0.05,37.95,0)" xlink:href="#aC"/><use transform="matrix(0.05,0,0,0.05,47.95,0)" xlink:href="#ax"/><use transform="matrix(0.05,0,0,0.05,51.900000000000006,0)" xlink:href="#az"/><use transform="matrix(0.05,0,0,0.05,61.900000000000006,0)" xlink:href="#ag"/><use transform="matrix(0.05,0,0,0.05,71.9,0)" xlink:href="#ao"/></g><g id="N"><use transform="matrix(0.05,0,0,0.05,0,0)" xlink:href="#at"/><use transform="matrix(0.05,0,0,0.05,12.950000000000001,0)" xlink:href="#ag"/><use transform="matrix(0.05,0,0,0.05,22.950000000000003,0)" xlink:href="#an"/><use transform="matrix(0.05,0,0,0.05,32.95,0)" xlink:href="#ax"/><use transform="matrix(0.05,0,0,0.05,36.900000000000006,0)" xlink:href="#am"/><use transform="matrix(0.05,0,0,0.05,45.900000000000006,0)" xlink:href="#ah"/><use transform="matrix(0.05,0,0,0.05,50.900000000000006,0)" xlink:href="#ao"/><use transform="matrix(0.05,0,0,0.05,56.85,0)" xlink:href="#aD"/></g><g id="O"><use transform="matrix(0.05,0,0,0.05,0,0)" xlink:href="#aO"/><use transform="matrix(0.05,0,0,0.05,12.950000000000001,0)" xlink:href="#ak"/><use transform="matrix(0.05,0,0,0.05,24.950000000000003,0)" xlink:href="#aP"/></g><g id="P"><use transform="matrix(0.07407407407407408,0,0,0.07407407407407408,0,0)" xlink:href="#aW"/><use transform="matrix(0.07407407407407408,0,0,0.07407407407407408,7.407407407407408,0)" xlink:href="#aW"/><use transform="matrix(0.07407407407407408,0,0,0.07407407407407408,14.814814814814817,0)" xlink:href="#aW"/></g><g id="Q"><use transform="matrix(0.03765432098765432,0,0,0.03765432098765432,0,0)" xlink:href="#ap"/><use transform="matrix(0.03765432098765432,0,0,0.03765432098765432,9.037037037037036,0)" xlink:href="#ag"/><use transform="matrix(0.03765432098765432,0,0,0.03765432098765432,16.5679012345679,0)" xlink:href="#am"/><use transform="matrix(0.03765432098765432,0,0,0.03765432098765432,23.345679012345677,0)" xlink:href="#am"/><use transform="matrix(0.03765432098765432,0,0,0.03765432098765432,30.123456790123456,0)" xlink:href="#ax"/><use transform="matrix(0.03765432098765432,0,0,0.03765432098765432,33.09814814814815,0)" xlink:href="#al"/><use transform="matrix(0.03765432098765432,0,0,0.03765432098765432,40.629012345679016,0)" xlink:href="#az"/></g><path d="M67-125c0 53 21 87 73 88 37 1 54-22 65-47l45 17C233-25 199 4 140 4 58 4 20-42 15-125 8-235 124-281 211-232c18 10 29 29 36 50l-46 12c-8-25-30-41-62-41-52 0-71 34-72 86" id="bo"/><g id="R"><use transform="matrix(0.05,0,0,0.05,0,0)" xlink:href="#bo"/><use transform="matrix(0.05,0,0,0.05,12.950000000000001,0)" xlink:href="#be"/><use transform="matrix(0.05,0,0,0.05,23.900000000000002,0)" xlink:href="#Y"/><use transform="matrix(0.05,0,0,0.05,34.85,0)" xlink:href="#as"/><use transform="matrix(0.05,0,0,0.05,40.800000000000004,0)" xlink:href="#af"/><use transform="matrix(0.05,0,0,0.05,47.800000000000004,0)" xlink:href="#be"/><use transform="matrix(0.05,0,0,0.05,58.75,0)" xlink:href="#bk"/></g><g id="S"><use transform="matrix(0.05,0,0,0.05,0,0)" xlink:href="#bd"/><use transform="matrix(0.05,0,0,0.05,12,0)" xlink:href="#U"/><use transform="matrix(0.05,0,0,0.05,22,0)" xlink:href="#Y"/><use transform="matrix(0.05,0,0,0.05,32.95,0)" xlink:href="#X"/><use transform="matrix(0.05,0,0,0.05,42.95,0)" xlink:href="#bk"/><use transform="matrix(0.05,0,0,0.05,47.95,0)" xlink:href="#bh"/></g></defs></g></svg>