<svg xmlns="http://www.w3.org/2000/svg" xmlns:xlink="http://www.w3.org/1999/xlink" xmlns:lucid="lucid" width="802.4" height="492.67"><g transform="translate(0 0)" lucid:page-tab-id="Sr7-x30.RJs7"><path d="M5 5h292.9v250.34H5z" stroke="#000" stroke-width="2" fill="#fff"/><use xlink:href="#a" transform="matrix(1,0,0,1,10,9.999999999999986) translate(82.19999999999999 14.4)"/><use xlink:href="#b" transform="matrix(1,0,0,1,10,9.999999999999986) translate(138 14.4)"/><use xlink:href="#c" transform="matrix(1,0,0,1,10,9.999999999999986) translate(187.85 14.4)"/><path d="M797 407.66c0 11.7-89.54 21.2-200 21.2s-200-9.5-200-21.2v-169.6c0-11.7 89.54-21.2 200-21.2s200 9.5 200 21.2z" stroke="#000" stroke-width="2" fill="#ffdba9"/><path d="M797 238.06c0 11.7-89.54 21.2-200 21.2s-200-9.5-200-21.2" stroke="#000" stroke-width="2" fill="none"/><use xlink:href="#d" transform="matrix(1,0,0,1,402,264.2641732283463) translate(135.27499999999998 14.4)"/><use xlink:href="#e" transform="matrix(1,0,0,1,402,264.2641732283463) translate(176.17499999999998 14.4)"/><use xlink:href="#f" transform="matrix(1,0,0,1,402,264.2641732283463) translate(244.725 14.4)"/><path d="M797 222.13c0 10-89.54 18.1-200 18.1s-200-8.1-200-18.1V77.43c0-10 89.54-18.1 200-18.1s200 8.1 200 18.1z" stroke="#000" stroke-width="2" fill="#ffdba9"/><path d="M797 77.42c0 10-89.54 18.1-200 18.1s-200-8.1-200-18.1" stroke="#000" stroke-width="2" fill="none"/><use xlink:href="#d" transform="matrix(1,0,0,1,402,100.51181102362202) translate(135.27499999999998 14.4)"/><use xlink:href="#e" transform="matrix(1,0,0,1,402,100.51181102362202) translate(176.17499999999998 14.4)"/><use xlink:href="#g" transform="matrix(1,0,0,1,402,100.51181102362202) translate(244.725 14.4)"/><path d="M5 275.33h292.9v212H5z" stroke="#000" stroke-width="2" fill="#fff"/><use xlink:href="#a" transform="matrix(1,0,0,1,10,280.3346456692913) translate(82.19999999999999 14.4)"/><use xlink:href="#b" transform="matrix(1,0,0,1,10,280.3346456692913) translate(138 14.4)"/><use xlink:href="#h" transform="matrix(1,0,0,1,10,280.3346456692913) translate(187.85 14.4)"/><path d="M589.92 296.58h180v31.5h-180z" stroke="#000" fill="#ffc374"/><use xlink:href="#i" transform="matrix(1,0,0,1,594.9212948904501,301.58070866141725) translate(0 15.7900390625)"/><path d="M589.92 372.17h180v31.5h-180z" stroke="#000" fill="#ffc374"/><use xlink:href="#j" transform="matrix(1,0,0,1,594.9212948904501,377.1712598425196) translate(0 15.7900390625)"/><path d="M589.92 130.12h180v31.5h-180z" stroke="#000" fill="#ffc374"/><use xlink:href="#k" transform="matrix(1,0,0,1,594.9212948904501,135.12204724409446) translate(0 15.7900390625)"/><path d="M13.1 108.7H289v134.63H13.1z" stroke="#000" stroke-width="2" fill="#e5f5ff"/><use xlink:href="#l" transform="matrix(1,0,0,1,18.086544077367535,113.70078740157473) translate(53.025000000000006 14.4)"/><use xlink:href="#m" transform="matrix(1,0,0,1,18.086544077367535,113.70078740157473) translate(97.97500000000001 14.4)"/><use xlink:href="#n" transform="matrix(1,0,0,1,18.086544077367535,113.70078740157473) translate(129.22500000000002 14.4)"/><path d="M13.1 379.04H289v100.3H13.1z" stroke="#000" stroke-width="2" fill="#e5f5ff"/><use xlink:href="#l" transform="matrix(1,0,0,1,18.086544077367535,384.035433070866) translate(53.025000000000006 14.4)"/><use xlink:href="#o" transform="matrix(1,0,0,1,18.086544077367535,384.035433070866) translate(97.97500000000001 14.4)"/><use xlink:href="#p" transform="matrix(1,0,0,1,18.086544077367535,384.035433070866) translate(129.22500000000002 14.4)"/><path d="M24.75 143.58h253.73v30.08H24.75z" stroke="#000" fill="#ffc374"/><use xlink:href="#q" transform="matrix(1,0,0,1,29.753236787944317,148.5826771653543) translate(0 15.2900390625)"/><path d="M24.75 173.66h253.73v30.08H24.75z" stroke="#000" fill="#ffc374"/><use xlink:href="#r" transform="matrix(1,0,0,1,29.753236787944317,178.66141732283467) translate(0 15.2900390625)"/><path d="M24.75 441.26h253.73v30.08H24.75z" stroke="#000" fill="#ffc374"/><use xlink:href="#r" transform="matrix(1,0,0,1,29.75323678794433,446.2598425196849) translate(0 15.2900390625)"/><path d="M49.16 37.9h203.76V68H49.16z" stroke="#000" fill="#ffdba9"/><use xlink:href="#s" transform="matrix(1,0,0,1,54.16248105279149,42.91338582677163) translate(48.39208984375 15.2900390625)"/><path d="M49.06 68h203.76v30.07H49.06z" stroke="#000" fill="#ffdba9"/><use xlink:href="#t" transform="matrix(1,0,0,1,54.061422180004854,72.99212598425193) translate(48.39208984375 15.2900390625)"/><path d="M49.26 308.25h203.66v30.08H49.26z" stroke="#000" fill="#ffdba9"/><use xlink:href="#s" transform="matrix(1,0,0,1,54.26346478017703,313.24803149606294) translate(48.39208984375 15.2900390625)"/><path d="M49.16 338.33h203.66v30.08H49.16z" stroke="#000" fill="#ffdba9"/><use xlink:href="#t" transform="matrix(1,0,0,1,54.16245600432447,343.32677165354323) translate(48.39208984375 15.2900390625)"/><path d="M151.04 377.04v-3.57H151v-3.56" stroke="#000" stroke-width="2" fill="none"/><path d="M152.04 378.04h-2V377h2zM152 369.93h-2v-1.02h2z" stroke="#000" stroke-width=".05"/><path d="M151.04 106.7v-3.56h-.1v-3.57" stroke="#000" stroke-width="2" fill="none"/><path d="M152.04 107.7h-2v-1.03h2zM151.94 99.6h-2v-1.03h2z" stroke="#000" stroke-width=".05"/><path d="M428.78 130.12h161.14v31.5H428.78z" stroke="#000" fill="#ffc374"/><use xlink:href="#u" transform="matrix(1,0,0,1,433.77952755905517,135.12204724409446) translate(0 15.7900390625)"/><path d="M428.78 296.58h161.14v31.5H428.78z" stroke="#000" fill="#ffc374"/><use xlink:href="#u" transform="matrix(1,0,0,1,433.77952755905517,301.58070866141725) translate(0 15.7900390625)"/><path d="M428.78 372.17h161.14v31.5H428.78z" stroke="#000" fill="#ffc374"/><use xlink:href="#v" transform="matrix(1,0,0,1,433.77952755905517,377.1712598425196) translate(0 15.7900390625)"/><path d="M428.78 176.2h161.14v31.48H428.78z" stroke="#000" fill="#ffc374"/><use xlink:href="#w" transform="matrix(1,0,0,1,433.77952755905517,181.1850393700787) translate(0 15.7900390625)"/><path d="M589.92 328.08h180v31.5h-180z" stroke="#000" fill="#ffc374"/><use xlink:href="#x" transform="matrix(1,0,0,1,594.9212948904501,333.07677165354323) translate(0 15.7900390625)"/><path d="M589.92 176.2h180v31.48h-180z" stroke="#000" fill="#ffc374"/><use xlink:href="#y" transform="matrix(1,0,0,1,594.9212948904501,181.1850393700787) translate(0 15.7900390625)"/><path d="M24.75 411.33h253.73v30.08H24.75z" stroke="#000" fill="#ffc374"/><use xlink:href="#q" transform="matrix(1,0,0,1,29.753236787944317,416.3346456692913) translate(0 15.2900390625)"/><path d="M279.98 158.64h.5l1.48.1 1.45.16 1.43.2 1.4.28 1.4.32 1.4.4 1.38.44 1.4.52 1.4.6 1.43.66 1.44.75 1.47.85 1.5.96 1.55 1.07 1.58 1.22 1.66 1.37 1.73 1.56 1.82 1.78 1.9 2.04 2.04 2.36 2.18 2.76 2.36 3.25 2.58 3.88 2.86 4.72 3.23 5.9 3.74 7.54 4.53 10.24 6.06 15.37 35.53 102 4.54 10.25 3.74 7.56 3.24 5.88 2.86 4.72 2.58 3.9 2.36 3.24 2.18 2.76 2.04 2.36 1.9 2.04 1.83 1.78 1.72 1.56 1.66 1.38 1.6 1.2 1.54 1.08 1.5.96.9.52" stroke="#000" stroke-width="2" stroke-linejoin="round" fill="none"/><path d="M280.03 157.64l-.04 2-1.02-.02v-2z" stroke="#000" stroke-width=".05"/><path d="M425.16 387.07l-15 .75 2.44-8.95z" stroke="#000" stroke-width="2"/><path d="M279.98 426.35l7.44-.15 7.32-.46 6.5-.68 5.87-.86 5.42-1.03 5.1-1.2 4.92-1.37 4.9-1.6 5.06-1.88 5.66-2.38 7.8-3.7 23.14-11.5 5.66-2.37 5.07-1.9 4.9-1.57 4.9-1.38 5.1-1.2 5.42-1.02 5.87-.87 3.8-.4" stroke="#000" stroke-width="2" stroke-linejoin="round" fill="none"/><path d="M280.03 427.35l-1.05.02v-2l1-.02z" stroke="#000" stroke-width=".05"/><path d="M425.05 388.08l-14.02 5.33-.46-9.25z" stroke="#000" stroke-width="2"/><path d="M279.98 188.68l6.63-.14 6.73-.4 6-.64 5.48-.8 5.07-.98 4.77-1.1 4.57-1.3 4.48-1.44 4.5-1.68 4.73-2 5.32-2.5 7.17-3.75 23.64-13.1 5.3-2.5 4.73-1.98 4.5-1.68 4.48-1.46 4.57-1.28 4.76-1.1 5.07-.98 5.47-.8 1.9-.2" stroke="#000" stroke-width="2" stroke-linejoin="round" fill="none"/><path d="M280.03 189.68l-1.05.02v-2l1-.02z" stroke="#000" stroke-width=".05"/><path d="M425.05 146.05l-14 5.4-.5-9.25z" stroke="#000" stroke-width="2"/><path d="M279.98 456.28h.3l1.3-.1 1.26-.12 1.25-.2 1.23-.22 1.23-.3 1.23-.33 1.22-.4 1.25-.46 1.25-.53 1.27-.6 1.3-.66 1.3-.77 1.37-.86 1.4-.96 1.45-1.1 1.5-1.25 1.58-1.43 1.66-1.63 1.75-1.87 1.88-2.16 2-2.5 2.16-3 2.35-3.54 2.6-4.3 2.9-5.3 3.3-6.7 3.9-8.75 4.8-12.1 6.48-18.77 36.8-121.2 4.78-12.1 3.9-8.77 3.3-6.7 2.9-5.3 2.6-4.3 2.36-3.54 2.16-2.97 2-2.53 1.87-2.16 1.75-1.87 1.66-1.63 1.57-1.43 1.5-1.24 1.46-1.1 1.4-.98.35-.22" stroke="#000" stroke-width="2" stroke-linejoin="round" fill="none"/><path d="M280.03 457.28l-1.05.02v-2l1-.02z" stroke="#000" stroke-width=".05"/><path d="M425.2 192.88l-12.3 8.63-2.7-8.85z" stroke="#000" stroke-width="2"/><path d="M24.75 203.74h253.73v30.08H24.75z" stroke="#000" fill="#ffc374"/><use xlink:href="#z" transform="matrix(1,0,0,1,29.75323678794433,208.74015748031496) translate(0 15.2900390625)"/><path d="M279.98 218.8l2.63.05 3.42.22 3.23.34 3.1.46 2.94.57 2.85.67 2.77.77 2.7.88 2.65.98 2.62 1.1 2.6 1.23 2.6 1.37 2.65 1.52 2.68 1.7 2.76 1.93 2.87 2.18 3.05 2.53 3.3 2.97 3.72 3.64 4.47 4.77 6.47 7.53 21.58 26.24 4.47 4.76 3.7 3.64 3.32 2.98 3.05 2.53 2.87 2.18 2.76 1.92 2.68 1.7 2.65 1.53 2.6 1.36 2.62 1.23 2.62 1.1 2.64 1 2.7.87 2.77.77.84.2" stroke="#000" stroke-width="2" stroke-linejoin="round" fill="none"/><path d="M280.03 217.8l-.04 2-1.02-.02v-2z" stroke="#000" stroke-width=".05"/><path d="M425.06 311.96l-14.7 2.96 1.07-9.2z" stroke="#000" stroke-width="2"/><path d="M428.78 130.12h341.14v31.5H428.78zM428.78 176.9h341.14v31.5H428.78zM428.78 296.58h341.14v31.5H428.78zM428.78 372.17h341.14v31.5H428.78z" stroke="#000" stroke-width="2" fill-opacity="0"/><path d="M401 451.33h196v28H401z" stroke="#000" stroke-opacity="0" stroke-width="2" fill="#fff" fill-opacity="0"/><g><use xlink:href="#A" transform="matrix(1,0,0,1,401,451.3346456692913) translate(15.674999999999983 17.6)"/><use xlink:href="#B" transform="matrix(1,0,0,1,401,451.3346456692913) translate(135.325 17.6)"/></g><path d="M499.03 450.83l.1-1.45.34-1.83.58-1.8.9-1.93 1.44-2.25 2.92-3.52 10.1-11.03 2.15-3.37 1.5-3.18 1.05-3.28.68-3.62.16-1.75" stroke="#82755b" stroke-linejoin="round" fill="none"/><path d="M499.53 450.85l-.03.48h-1l.03-.54z" stroke="#82755b" stroke-width=".05" fill="#82755b"/><path d="M520.95 411.85l.05-.52" stroke="#82755b" fill="none"/><defs><path d="M199 0l-22-63H83L61 0H9l90-248h61L250 0h-51zm-33-102l-36-108c-10 38-24 72-36 108h72" id="C"/><path d="M195-6C206 82 75 100 31 46c-4-6-6-13-8-21l49-6c3 16 16 24 34 25 40 0 42-37 40-79-11 22-30 35-61 35-53 0-70-43-70-97 0-56 18-96 73-97 30 0 46 14 59 34l2-30h47zm-90-29c32 0 41-27 41-63 0-35-9-62-40-62-32 0-39 29-40 63 0 36 9 62 39 62" id="D"/><path d="M185-48c-13 30-37 53-82 52C43 2 14-33 14-96s30-98 90-98c62 0 83 45 84 108H66c0 31 8 55 39 56 18 0 30-7 34-22zm-45-69c5-46-57-63-70-21-2 6-4 13-4 21h74" id="E"/><path d="M135-194c87-1 58 113 63 194h-50c-7-57 23-157-34-157-59 0-34 97-39 157H25l-1-190h47c2 12-1 28 3 38 12-26 28-41 61-42" id="F"/><path d="M115-3C79 11 28 4 28-45v-112H4v-33h27l15-45h31v45h36v33H77v99c-1 23 16 31 38 25v30" id="G"/><g id="a"><use transform="matrix(0.05,0,0,0.05,0,0)" xlink:href="#C"/><use transform="matrix(0.05,0,0,0.05,12.950000000000001,0)" xlink:href="#D"/><use transform="matrix(0.05,0,0,0.05,23.900000000000002,0)" xlink:href="#E"/><use transform="matrix(0.05,0,0,0.05,33.900000000000006,0)" xlink:href="#F"/><use transform="matrix(0.05,0,0,0.05,44.85000000000001,0)" xlink:href="#G"/></g><path d="M175 0L67-191c6 58 2 128 3 191H24v-248h59L193-55c-6-58-2-129-3-193h46V0h-61" id="H"/><path d="M110-194c64 0 96 36 96 99 0 64-35 99-97 99-61 0-95-36-95-99 0-62 34-99 96-99zm-1 164c35 0 45-28 45-65 0-40-10-65-43-65-34 0-45 26-45 65 0 36 10 65 43 65" id="I"/><path d="M88-194c31-1 46 15 58 34l-1-101h50l1 261h-48c-2-10 0-23-3-31C134-8 116 4 84 4 32 4 16-41 15-95c0-56 19-97 73-99zm17 164c33 0 40-30 41-66 1-37-9-64-41-64s-38 30-39 65c0 43 13 65 39 65" id="J"/><g id="b"><use transform="matrix(0.05,0,0,0.05,0,0)" xlink:href="#H"/><use transform="matrix(0.05,0,0,0.05,12.950000000000001,0)" xlink:href="#I"/><use transform="matrix(0.05,0,0,0.05,23.900000000000002,0)" xlink:href="#J"/><use transform="matrix(0.05,0,0,0.05,34.85,0)" xlink:href="#E"/></g><use transform="matrix(0.05,0,0,0.05,0,0)" xlink:href="#C" id="c"/><path d="M76-208v77h127v40H76V0H24v-248h183v40H76" id="K"/><path d="M169-182c-1-43-94-46-97-3 18 66 151 10 154 114 3 95-165 93-204 36-6-8-10-19-12-30l50-8c3 46 112 56 116 5-17-69-150-10-154-114-4-87 153-88 188-35 5 8 8 18 10 28" id="L"/><g id="d"><use transform="matrix(0.05,0,0,0.05,0,0)" xlink:href="#H"/><use transform="matrix(0.05,0,0,0.05,12.950000000000001,0)" xlink:href="#K"/><use transform="matrix(0.05,0,0,0.05,23.900000000000002,0)" xlink:href="#L"/></g><path d="M147 0H94L2-248h55l64 206c17-72 42-137 63-206h54" id="M"/><path d="M25 0v-261h50V0H25" id="N"/><path d="M85 4C-2 5 27-109 22-190h50c7 57-23 150 33 157 60-5 35-97 40-157h50l1 190h-47c-2-12 1-28-3-38-12 25-28 42-61 42" id="O"/><path d="M220-157c-53 9-28 100-34 157h-49v-107c1-27-5-49-29-50C55-147 81-57 75 0H25l-1-190h47c2 12-1 28 3 38 10-53 101-56 108 0 13-22 24-43 59-42 82 1 51 116 57 194h-49v-107c-1-25-5-48-29-50" id="P"/><g id="e"><use transform="matrix(0.05,0,0,0.05,0,0)" xlink:href="#M"/><use transform="matrix(0.05,0,0,0.05,10.65,0)" xlink:href="#I"/><use transform="matrix(0.05,0,0,0.05,21.6,0)" xlink:href="#N"/><use transform="matrix(0.05,0,0,0.05,26.6,0)" xlink:href="#O"/><use transform="matrix(0.05,0,0,0.05,37.550000000000004,0)" xlink:href="#P"/><use transform="matrix(0.05,0,0,0.05,53.550000000000004,0)" xlink:href="#E"/></g><path d="M182-182c0 78-84 86-111 141h115V0H12c-6-101 99-100 120-180 1-22-12-31-33-32-23 0-32 14-35 34l-49-3c5-45 32-70 84-70 51 0 83 22 83 69" id="Q"/><use transform="matrix(0.05,0,0,0.05,0,0)" xlink:href="#Q" id="f"/><path d="M23 0v-37h61v-169l-59 37v-38l62-41h46v211h57V0H23" id="R"/><use transform="matrix(0.05,0,0,0.05,0,0)" xlink:href="#R" id="g"/><path d="M182-130c37 4 62 22 62 59C244 23 116-4 24 0v-248c84 5 203-23 205 63 0 31-19 50-47 55zM76-148c40-3 101 13 101-30 0-44-60-28-101-31v61zm0 110c48-3 116 14 116-37 0-48-69-32-116-35v72" id="S"/><use transform="matrix(0.05,0,0,0.05,0,0)" xlink:href="#S" id="h"/><path d="M114 20l821-1504h178L296 20H114" id="T"/><path d="M1000-272c3 95 12 159 101 161 21 0 41-3 59-7V-6c-44 10-86 16-139 16-141 2-191-84-197-217h-6C748-76 648 20 446 20c-207 0-318-120-318-322 0-266 194-348 454-354l236-4c12-191-40-305-222-305-140 0-220 47-232 172l-188-17c33-204 181-292 423-292 255 0 401 118 401 364v466zm-683-27c0 109 63 184 175 182 166-3 259-96 306-217 24-65 20-120 20-200-232 7-501-28-501 235" id="U"/><path d="M631 20c-350 0-501-215-501-562 0-355 162-560 502-560 250 0 399 118 446 323l-192 14c-23-124-109-196-262-196-242 0-305 171-305 415 1 245 61 427 304 427 151 0 248-77 267-215l190 12C1039-107 883 20 631 20" id="V"/><path d="M611-1370c266 0 451 106 451 368 0 147-77 243-154 327-132 144-316 255-451 395-42 44-75 87-96 134h723V0H144v-117c124-264 387-411 582-603 73-72 151-147 151-271 0-161-104-231-266-231-163 0-249 90-268 238l-184-17c35-233 185-369 452-369" id="W"/><path d="M353-779c69-51 166-92 291-90 218 3 357 100 423 255 21 52 32 109 32 170 0 305-189 464-500 464-268 0-424-116-471-335l182-21c35 130 124 212 293 209 198-4 309-114 309-313 0-182-118-282-305-282-120 0-198 45-262 101H169l47-728h801v145H382" id="X"/><path d="M141-911c0-296 172-459 469-459 157 0 276 55 356 166s121 278 121 501c-1 324-87 567-297 677-134 70-367 56-475-22-71-52-117-126-145-226l172-27c34 111 103 176 238 176 187 0 261-138 304-298 16-65 24-141 25-227-59 121-177 199-350 199-275 0-418-184-418-460zm461 318c168 0 289-96 289-269 0-158-59-275-163-332-36-20-77-30-124-30-187 0-280 125-280 313s90 318 278 318" id="Y"/><path d="M365-904c58-129 161-200 334-200 130 0 228 46 293 138s98 233 98 420c0 189-34 331-102 425S824 20 698 20c-170 0-275-64-336-184 0 55-3 116-9 164H179c5-68 6-147 6-223v-1261h180c-2 193 4 394-4 580h4zm283 791c221 0 256-197 256-427 0-229-34-425-254-425-236 0-285 195-285 441 0 237 53 411 283 411" id="Z"/><path d="M1065-1013c47 164 49 500-1 665C999-130 875 20 611 20c-377 0-484-300-487-695-2-245 41-425 141-551 77-98 191-144 352-144 261 0 386 140 448 357zM741-155c199-92 203-504 159-785-26-168-96-284-283-284-281 0-308 256-311 549-2 181 18 324 80 428 46 77 115 118 227 120 47 0 90-10 128-28" id="aa"/><path d="M839-1335c-182-6-269 67-259 253h491v142H580V0H400v-940H138v-142h262c-15-293 132-408 418-402 94 2 200 7 281 21v145c-75-10-177-14-260-17" id="ab"/><path d="M937-319V0H757v-319H103v-140l635-890h199v888h188v142H937zm-180-835L257-461h500v-693" id="ac"/><path d="M809-709c168 33 285 134 285 331 0 277-191 398-480 398-287 0-481-120-481-396 0-192 118-296 281-331v-4c-145-39-248-139-248-313 0-238 192-346 444-346 211 0 357 75 422 217 19 41 27 86 27 131 0 172-101 274-250 309v4zm-197-70c168 0 260-73 260-233 0-158-100-224-262-224-160 0-260 68-260 224 0 155 97 232 262 233zm4 664c194 1 291-91 291-280 0-172-115-249-297-249-178 0-291 85-291 253 0 186 106 275 297 276" id="ad"/><path d="M496 0v-299h235V0H496" id="ae"/><g id="i"><use transform="matrix(0.0087890625,0,0,0.0087890625,0,0)" xlink:href="#T"/><use transform="matrix(0.0087890625,0,0,0.0087890625,10.8017578125,0)" xlink:href="#U"/><use transform="matrix(0.0087890625,0,0,0.0087890625,21.603515625,0)" xlink:href="#V"/><use transform="matrix(0.0087890625,0,0,0.0087890625,32.4052734375,0)" xlink:href="#T"/><use transform="matrix(0.0087890625,0,0,0.0087890625,43.20703125,0)" xlink:href="#W"/><use transform="matrix(0.0087890625,0,0,0.0087890625,54.0087890625,0)" xlink:href="#X"/><use transform="matrix(0.0087890625,0,0,0.0087890625,64.810546875,0)" xlink:href="#T"/><use transform="matrix(0.0087890625,0,0,0.0087890625,75.6123046875,0)" xlink:href="#Y"/><use transform="matrix(0.0087890625,0,0,0.0087890625,86.4140625,0)" xlink:href="#Z"/><use transform="matrix(0.0087890625,0,0,0.0087890625,97.2158203125,0)" xlink:href="#aa"/><use transform="matrix(0.0087890625,0,0,0.0087890625,108.017578125,0)" xlink:href="#ab"/><use transform="matrix(0.0087890625,0,0,0.0087890625,118.8193359375,0)" xlink:href="#ac"/><use transform="matrix(0.0087890625,0,0,0.0087890625,129.62109375,0)" xlink:href="#ad"/><use transform="matrix(0.0087890625,0,0,0.0087890625,140.4228515625,0)" xlink:href="#ae"/><use transform="matrix(0.0087890625,0,0,0.0087890625,151.224609375,0)" xlink:href="#ae"/><use transform="matrix(0.0087890625,0,0,0.0087890625,162.0263671875,0)" xlink:href="#ae"/></g><path d="M1069-1210C890-948 720-664 634-316c-25 105-38 210-38 316H408c9-385 153-667 302-925 57-98 120-190 185-279H158v-145h911v139" id="af"/><path d="M865-914c-3-187-2-380-2-570h180v1261c0 76 1 155 6 223H877c-8-49-9-116-10-174h-5C801-44 708 26 530 26c-135 0-234-46-297-139s-95-232-95-419c0-377 131-566 392-566 176 0 271 63 335 184zm-286-51c-222 0-255 197-255 427 0 229 31 425 253 425 237 0 286-195 286-441 0-238-52-411-284-411" id="ag"/><g id="j"><use transform="matrix(0.0087890625,0,0,0.0087890625,0,0)" xlink:href="#T"/><use transform="matrix(0.0087890625,0,0,0.0087890625,10.8017578125,0)" xlink:href="#af"/><use transform="matrix(0.0087890625,0,0,0.0087890625,21.603515625,0)" xlink:href="#Z"/><use transform="matrix(0.0087890625,0,0,0.0087890625,32.4052734375,0)" xlink:href="#T"/><use transform="matrix(0.0087890625,0,0,0.0087890625,43.20703125,0)" xlink:href="#ac"/><use transform="matrix(0.0087890625,0,0,0.0087890625,54.0087890625,0)" xlink:href="#ac"/><use transform="matrix(0.0087890625,0,0,0.0087890625,64.810546875,0)" xlink:href="#T"/><use transform="matrix(0.0087890625,0,0,0.0087890625,75.6123046875,0)" xlink:href="#af"/><use transform="matrix(0.0087890625,0,0,0.0087890625,86.4140625,0)" xlink:href="#ag"/><use transform="matrix(0.0087890625,0,0,0.0087890625,97.2158203125,0)" xlink:href="#ad"/><use transform="matrix(0.0087890625,0,0,0.0087890625,108.017578125,0)" xlink:href="#Z"/><use transform="matrix(0.0087890625,0,0,0.0087890625,118.8193359375,0)" xlink:href="#W"/><use transform="matrix(0.0087890625,0,0,0.0087890625,129.62109375,0)" xlink:href="#X"/><use transform="matrix(0.0087890625,0,0,0.0087890625,140.4228515625,0)" xlink:href="#ae"/><use transform="matrix(0.0087890625,0,0,0.0087890625,151.224609375,0)" xlink:href="#ae"/><use transform="matrix(0.0087890625,0,0,0.0087890625,162.0263671875,0)" xlink:href="#ae"/></g><path d="M1060-1016c0 191-128 285-295 323v4c154 18 262 91 313 209 14 35 21 72 21 110 0 277-194 390-478 390-292 0-457-129-493-382l186-17c24 161 121 250 307 250 172 1 298-80 291-247-8-208-220-239-446-233v-156c217 9 409-34 409-232 0-152-102-225-264-225-159 0-264 88-278 233l-181-14c33-239 196-367 461-367 264 0 447 102 447 354" id="ah"/><path d="M148-1120c216-7 379-89 463-229h166v1204h353V0H157v-145h439v-1021c-79 124-254 184-448 194v-148" id="ai"/><g id="k"><use transform="matrix(0.0087890625,0,0,0.0087890625,0,0)" xlink:href="#T"/><use transform="matrix(0.0087890625,0,0,0.0087890625,10.8017578125,0)" xlink:href="#X"/><use transform="matrix(0.0087890625,0,0,0.0087890625,21.603515625,0)" xlink:href="#ab"/><use transform="matrix(0.0087890625,0,0,0.0087890625,32.4052734375,0)" xlink:href="#T"/><use transform="matrix(0.0087890625,0,0,0.0087890625,43.20703125,0)" xlink:href="#ah"/><use transform="matrix(0.0087890625,0,0,0.0087890625,54.0087890625,0)" xlink:href="#ad"/><use transform="matrix(0.0087890625,0,0,0.0087890625,64.810546875,0)" xlink:href="#T"/><use transform="matrix(0.0087890625,0,0,0.0087890625,75.6123046875,0)" xlink:href="#ad"/><use transform="matrix(0.0087890625,0,0,0.0087890625,86.4140625,0)" xlink:href="#ai"/><use transform="matrix(0.0087890625,0,0,0.0087890625,97.2158203125,0)" xlink:href="#ai"/><use transform="matrix(0.0087890625,0,0,0.0087890625,108.017578125,0)" xlink:href="#X"/><use transform="matrix(0.0087890625,0,0,0.0087890625,118.8193359375,0)" xlink:href="#ai"/><use transform="matrix(0.0087890625,0,0,0.0087890625,129.62109375,0)" xlink:href="#ag"/><use transform="matrix(0.0087890625,0,0,0.0087890625,140.4228515625,0)" xlink:href="#ae"/><use transform="matrix(0.0087890625,0,0,0.0087890625,151.224609375,0)" xlink:href="#ae"/><use transform="matrix(0.0087890625,0,0,0.0087890625,162.0263671875,0)" xlink:href="#ae"/></g><path d="M238-95c0 69-44 99-111 99C63 4 22-25 22-93v-155h51v151c-1 38 19 59 55 60 90 1 49-130 58-211h52v153" id="aj"/><path d="M137-138c1-29-70-34-71-4 15 46 118 7 119 86 1 83-164 76-172 9l43-7c4 19 20 25 44 25 33 8 57-30 24-41C81-84 22-81 20-136c-2-80 154-74 161-7" id="ak"/><path d="M135-150c-39-12-60 13-60 57V0H25l-1-190h47c2 13-1 29 3 40 6-28 27-53 61-41v41" id="al"/><g id="l"><use transform="matrix(0.05,0,0,0.05,0,0)" xlink:href="#aj"/><use transform="matrix(0.05,0,0,0.05,12.950000000000001,0)" xlink:href="#ak"/><use transform="matrix(0.05,0,0,0.05,22.950000000000003,0)" xlink:href="#E"/><use transform="matrix(0.05,0,0,0.05,32.95,0)" xlink:href="#al"/></g><path d="M182 0l-62-99L58 0H3l86-130-79-118h55l55 88 55-88h55l-75 118L237 0h-55" id="am"/><path d="M62-158H24l-5-90h48" id="an"/><g id="m"><use transform="matrix(0.05,0,0,0.05,0,0)" xlink:href="#am"/><use transform="matrix(0.05,0,0,0.05,12,0)" xlink:href="#an"/><use transform="matrix(0.05,0,0,0.05,16.25,0)" xlink:href="#ak"/></g><path d="M67-125c0 53 21 87 73 88 37 1 54-22 65-47l45 17C233-25 199 4 140 4 58 4 20-42 15-125 8-235 124-281 211-232c18 10 29 29 36 50l-46 12c-8-25-30-41-62-41-52 0-71 34-72 86" id="ao"/><path d="M133-34C117-15 103 5 69 4 32 3 11-16 11-54c-1-60 55-63 116-61 1-26-3-47-28-47-18 1-26 9-28 27l-52-2c7-38 36-58 82-57s74 22 75 68l1 82c-1 14 12 18 25 15v27c-30 8-71 5-69-32zm-48 3c29 0 43-24 42-57-32 0-66-3-65 30 0 17 8 27 23 27" id="ap"/><path d="M25-224v-37h50v37H25zM25 0v-190h50V0H25" id="aq"/><g id="n"><use transform="matrix(0.05,0,0,0.05,0,0)" xlink:href="#ao"/><use transform="matrix(0.05,0,0,0.05,12.950000000000001,0)" xlink:href="#I"/><use transform="matrix(0.05,0,0,0.05,23.900000000000002,0)" xlink:href="#F"/><use transform="matrix(0.05,0,0,0.05,34.85,0)" xlink:href="#G"/><use transform="matrix(0.05,0,0,0.05,40.800000000000004,0)" xlink:href="#ap"/><use transform="matrix(0.05,0,0,0.05,50.800000000000004,0)" xlink:href="#aq"/><use transform="matrix(0.05,0,0,0.05,55.800000000000004,0)" xlink:href="#F"/><use transform="matrix(0.05,0,0,0.05,66.75,0)" xlink:href="#E"/><use transform="matrix(0.05,0,0,0.05,76.75,0)" xlink:href="#al"/></g><path d="M146-102V0H94v-102L6-248h54l60 105 60-105h54" id="ar"/><g id="o"><use transform="matrix(0.05,0,0,0.05,0,0)" xlink:href="#ar"/><use transform="matrix(0.05,0,0,0.05,12,0)" xlink:href="#an"/><use transform="matrix(0.05,0,0,0.05,16.25,0)" xlink:href="#ak"/></g><g id="p"><use transform="matrix(0.05,0,0,0.05,0,0)" xlink:href="#ao"/><use transform="matrix(0.05,0,0,0.05,12.950000000000001,0)" xlink:href="#I"/><use transform="matrix(0.05,0,0,0.05,23.900000000000002,0)" xlink:href="#F"/><use transform="matrix(0.05,0,0,0.05,34.85,0)" xlink:href="#G"/><use transform="matrix(0.05,0,0,0.05,40.800000000000004,0)" xlink:href="#ap"/><use transform="matrix(0.05,0,0,0.05,50.800000000000004,0)" xlink:href="#aq"/><use transform="matrix(0.05,0,0,0.05,55.800000000000004,0)" xlink:href="#F"/><use transform="matrix(0.05,0,0,0.05,66.75,0)" xlink:href="#E"/><use transform="matrix(0.05,0,0,0.05,76.75,0)" xlink:href="#al"/></g><path d="M648-963c-190 6-283 138-283 336V0H185v-1484h181c-2 197 6 404-9 587h3c62-120 159-205 339-205 242 0 351 135 350 381V0H868v-695c1-168-57-273-220-268" id="as"/><path d="M615-1102c343 0 484 203 482 560-1 347-147 562-488 562-336 0-475-219-479-562-4-349 156-560 485-560zm-8 989c240 0 301-180 301-429 0-245-55-427-290-427-236 0-299 181-299 427 0 243 61 429 288 429" id="at"/><path d="M904-1102c199 0 220 177 220 381V0H956v-686c-3-114 0-215-60-264-70-33-125-4-158 71-26 56-39 140-39 252V0H531v-686c-3-114-1-215-61-264-78-41-136 24-157 84-24 69-39 159-39 259V0H105c-3-360 6-732-6-1082h149c6 50 3 123 8 175 36-100 83-195 216-195 135 0 166 79 196 196 42-105 93-196 236-196" id="au"/><path d="M617-1102c355 0 481 238 477 599H322c5 222 84 388 301 388 144 0 244-59 284-166l158 45C1002-72 854 20 623 20c-342 0-490-220-490-568 0-346 151-554 484-554zm291 461c-18-192-90-328-289-328-194 0-287 128-295 328h584" id="av"/><path d="M1018 0H814c-67-224-138-444-200-673C552-442 476-224 407 0H204L21-1082h178c43 310 105 601 126 933 54-225 128-425 193-638h193c63 212 134 415 185 638 22-336 90-622 136-933h176" id="aw"/><path d="M839-1102c70 0 148 7 206 17v167c-112-18-268-36-363 15-129 69-208 203-208 395V0H294c-10-367 32-789-52-1082h171c21 75 41 161 48 250h5c67-152 152-270 373-270" id="ax"/><path d="M914 0L548-499l-132 98V0H236v-1484h180v927l475-525h211L663-617 1125 0H914" id="ay"/><path d="M873-819c-18-114-119-146-250-146-163 0-245 50-245 151 0 151 170 148 294 185 182 54 388 94 388 320 0 240-189 325-439 329-245 4-410-69-454-268l159-31c24 133 136 168 295 165 144-2 270-31 270-171 0-164-195-160-331-202-167-52-350-87-350-299 0-218 173-315 413-313 220 2 373 77 412 260" id="az"/><path d="M334-464v-160h560v160H334" id="aA"/><path d="M682 16c-209 0-323-80-324-285v-671H190v-142h170l58-282h120v282h432v142H538v652c2 114 60 155 182 155 106 0 209-16 297-34v137C921-4 806 16 682 16" id="aB"/><g id="q"><use transform="matrix(0.0087890625,0,0,0.0087890625,0,0)" xlink:href="#T"/><use transform="matrix(0.0087890625,0,0,0.0087890625,10.8017578125,0)" xlink:href="#as"/><use transform="matrix(0.0087890625,0,0,0.0087890625,21.603515625,0)" xlink:href="#at"/><use transform="matrix(0.0087890625,0,0,0.0087890625,32.4052734375,0)" xlink:href="#au"/><use transform="matrix(0.0087890625,0,0,0.0087890625,43.20703125,0)" xlink:href="#av"/><use transform="matrix(0.0087890625,0,0,0.0087890625,54.0087890625,0)" xlink:href="#T"/><use transform="matrix(0.0087890625,0,0,0.0087890625,64.810546875,0)" xlink:href="#aw"/><use transform="matrix(0.0087890625,0,0,0.0087890625,75.6123046875,0)" xlink:href="#at"/><use transform="matrix(0.0087890625,0,0,0.0087890625,86.4140625,0)" xlink:href="#ax"/><use transform="matrix(0.0087890625,0,0,0.0087890625,97.2158203125,0)" xlink:href="#ay"/><use transform="matrix(0.0087890625,0,0,0.0087890625,108.017578125,0)" xlink:href="#T"/><use transform="matrix(0.0087890625,0,0,0.0087890625,118.8193359375,0)" xlink:href="#az"/><use transform="matrix(0.0087890625,0,0,0.0087890625,129.62109375,0)" xlink:href="#as"/><use transform="matrix(0.0087890625,0,0,0.0087890625,140.4228515625,0)" xlink:href="#U"/><use transform="matrix(0.0087890625,0,0,0.0087890625,151.224609375,0)" xlink:href="#ax"/><use transform="matrix(0.0087890625,0,0,0.0087890625,162.0263671875,0)" xlink:href="#av"/><use transform="matrix(0.0087890625,0,0,0.0087890625,172.828125,0)" xlink:href="#ag"/><use transform="matrix(0.0087890625,0,0,0.0087890625,183.6298828125,0)" xlink:href="#aA"/><use transform="matrix(0.0087890625,0,0,0.0087890625,194.431640625,0)" xlink:href="#ag"/><use transform="matrix(0.0087890625,0,0,0.0087890625,205.2333984375,0)" xlink:href="#U"/><use transform="matrix(0.0087890625,0,0,0.0087890625,216.03515625,0)" xlink:href="#aB"/><use transform="matrix(0.0087890625,0,0,0.0087890625,226.8369140625,0)" xlink:href="#U"/></g><path d="M168 279c222 39 310-114 368-290L66-1082h192c120 299 249 590 362 896 115-301 235-597 351-896h190L705 0c-65 164-130 320-275 396-67 36-177 35-262 18V279" id="aC"/><g id="r"><use transform="matrix(0.0087890625,0,0,0.0087890625,0,0)" xlink:href="#T"/><use transform="matrix(0.0087890625,0,0,0.0087890625,10.8017578125,0)" xlink:href="#as"/><use transform="matrix(0.0087890625,0,0,0.0087890625,21.603515625,0)" xlink:href="#at"/><use transform="matrix(0.0087890625,0,0,0.0087890625,32.4052734375,0)" xlink:href="#au"/><use transform="matrix(0.0087890625,0,0,0.0087890625,43.20703125,0)" xlink:href="#av"/><use transform="matrix(0.0087890625,0,0,0.0087890625,54.0087890625,0)" xlink:href="#T"/><use transform="matrix(0.0087890625,0,0,0.0087890625,64.810546875,0)" xlink:href="#aw"/><use transform="matrix(0.0087890625,0,0,0.0087890625,75.6123046875,0)" xlink:href="#at"/><use transform="matrix(0.0087890625,0,0,0.0087890625,86.4140625,0)" xlink:href="#ax"/><use transform="matrix(0.0087890625,0,0,0.0087890625,97.2158203125,0)" xlink:href="#ay"/><use transform="matrix(0.0087890625,0,0,0.0087890625,108.017578125,0)" xlink:href="#T"/><use transform="matrix(0.0087890625,0,0,0.0087890625,118.8193359375,0)" xlink:href="#au"/><use transform="matrix(0.0087890625,0,0,0.0087890625,129.62109375,0)" xlink:href="#aC"/><use transform="matrix(0.0087890625,0,0,0.0087890625,140.4228515625,0)" xlink:href="#V"/><use transform="matrix(0.0087890625,0,0,0.0087890625,151.224609375,0)" xlink:href="#at"/><use transform="matrix(0.0087890625,0,0,0.0087890625,162.0263671875,0)" xlink:href="#ag"/><use transform="matrix(0.0087890625,0,0,0.0087890625,172.828125,0)" xlink:href="#av"/></g><path d="M706-1102c241 0 344 136 343 381V0H868v-695c1-168-57-273-220-268-190 6-283 138-283 336V0H185c-3-360 6-732-6-1082h170c4 54 7 126 8 185h3c63-121 164-204 346-205" id="aD"/><g id="s"><use transform="matrix(0.0087890625,0,0,0.0087890625,0,0)" xlink:href="#T"/><use transform="matrix(0.0087890625,0,0,0.0087890625,10.8017578125,0)" xlink:href="#au"/><use transform="matrix(0.0087890625,0,0,0.0087890625,21.603515625,0)" xlink:href="#aD"/><use transform="matrix(0.0087890625,0,0,0.0087890625,32.4052734375,0)" xlink:href="#aB"/><use transform="matrix(0.0087890625,0,0,0.0087890625,43.20703125,0)" xlink:href="#T"/><use transform="matrix(0.0087890625,0,0,0.0087890625,54.0087890625,0)" xlink:href="#aD"/><use transform="matrix(0.0087890625,0,0,0.0087890625,64.810546875,0)" xlink:href="#ab"/><use transform="matrix(0.0087890625,0,0,0.0087890625,75.6123046875,0)" xlink:href="#az"/><use transform="matrix(0.0087890625,0,0,0.0087890625,86.4140625,0)" xlink:href="#ai"/></g><g id="t"><use transform="matrix(0.0087890625,0,0,0.0087890625,0,0)" xlink:href="#T"/><use transform="matrix(0.0087890625,0,0,0.0087890625,10.8017578125,0)" xlink:href="#au"/><use transform="matrix(0.0087890625,0,0,0.0087890625,21.603515625,0)" xlink:href="#aD"/><use transform="matrix(0.0087890625,0,0,0.0087890625,32.4052734375,0)" xlink:href="#aB"/><use transform="matrix(0.0087890625,0,0,0.0087890625,43.20703125,0)" xlink:href="#T"/><use transform="matrix(0.0087890625,0,0,0.0087890625,54.0087890625,0)" xlink:href="#aD"/><use transform="matrix(0.0087890625,0,0,0.0087890625,64.810546875,0)" xlink:href="#ab"/><use transform="matrix(0.0087890625,0,0,0.0087890625,75.6123046875,0)" xlink:href="#az"/><use transform="matrix(0.0087890625,0,0,0.0087890625,86.4140625,0)" xlink:href="#W"/></g><path d="M528 20c-247 0-343-132-343-381v-721h180v686c-4 177 45 284 224 277 194-8 279-136 279-336v-627h181c3 360-6 732 6 1082H885c-4-54-7-126-8-185h-3C809-64 714 20 528 20" id="aE"/><path d="M496 0v-299h235V0H496zm0-783v-299h235v299H496" id="aF"/><g id="u"><use transform="matrix(0.0087890625,0,0,0.0087890625,0,0)" xlink:href="#T"/><use transform="matrix(0.0087890625,0,0,0.0087890625,10.8017578125,0)" xlink:href="#aE"/><use transform="matrix(0.0087890625,0,0,0.0087890625,21.603515625,0)" xlink:href="#az"/><use transform="matrix(0.0087890625,0,0,0.0087890625,32.4052734375,0)" xlink:href="#av"/><use transform="matrix(0.0087890625,0,0,0.0087890625,43.20703125,0)" xlink:href="#ax"/><use transform="matrix(0.0087890625,0,0,0.0087890625,54.0087890625,0)" xlink:href="#aF"/><use transform="matrix(0.0087890625,0,0,0.0087890625,64.810546875,0)" xlink:href="#ai"/><use transform="matrix(0.0087890625,0,0,0.0087890625,75.6123046875,0)" xlink:href="#W"/><use transform="matrix(0.0087890625,0,0,0.0087890625,86.4140625,0)" xlink:href="#U"/><use transform="matrix(0.0087890625,0,0,0.0087890625,97.2158203125,0)" xlink:href="#ai"/></g><path d="M698-1104c312 3 392 244 392 558 0 315-82 566-392 566-169 0-277-65-331-184h-5c8 188 2 394 4 589H185V-858c0-76-1-156-6-224h175c6 52 9 120 10 178h4c58-122 150-202 330-200zm-49 991c225 0 255-203 255-433 0-225-32-419-253-419-236 0-285 192-285 441 0 237 53 411 283 411" id="aG"/><path d="M390 276c167 0 266-82 266-251v-965H249v-142h587V28c-4 270-165 397-431 397-107 0-208-16-288-43V242c80 18 173 34 273 34zm246-1568v-192h200v192H636" id="aH"/><g id="v"><use transform="matrix(0.0087890625,0,0,0.0087890625,0,0)" xlink:href="#T"/><use transform="matrix(0.0087890625,0,0,0.0087890625,10.8017578125,0)" xlink:href="#aG"/><use transform="matrix(0.0087890625,0,0,0.0087890625,21.603515625,0)" xlink:href="#ax"/><use transform="matrix(0.0087890625,0,0,0.0087890625,32.4052734375,0)" xlink:href="#at"/><use transform="matrix(0.0087890625,0,0,0.0087890625,43.20703125,0)" xlink:href="#aH"/><use transform="matrix(0.0087890625,0,0,0.0087890625,54.0087890625,0)" xlink:href="#av"/><use transform="matrix(0.0087890625,0,0,0.0087890625,64.810546875,0)" xlink:href="#V"/><use transform="matrix(0.0087890625,0,0,0.0087890625,75.6123046875,0)" xlink:href="#aB"/><use transform="matrix(0.0087890625,0,0,0.0087890625,86.4140625,0)" xlink:href="#aF"/><use transform="matrix(0.0087890625,0,0,0.0087890625,97.2158203125,0)" xlink:href="#ab"/><use transform="matrix(0.0087890625,0,0,0.0087890625,108.017578125,0)" xlink:href="#ad"/><use transform="matrix(0.0087890625,0,0,0.0087890625,118.8193359375,0)" xlink:href="#ai"/><use transform="matrix(0.0087890625,0,0,0.0087890625,129.62109375,0)" xlink:href="#ag"/></g><path d="M672-881c271 0 424 163 424 435 0 291-160 466-455 466-367 0-490-287-490-662 0-324 85-568 293-680 129-70 351-59 460 16 73 50 125 123 153 223l-172 31c-31-108-107-172-232-172-259 0-316 252-323 529 59-113 178-186 342-186zm-37 756c186 0 278-124 278-313s-96-304-284-304c-163 0-281 93-281 261 0 157 65 270 168 327 35 19 75 29 119 29" id="aI"/><g id="w"><use transform="matrix(0.0087890625,0,0,0.0087890625,0,0)" xlink:href="#T"/><use transform="matrix(0.0087890625,0,0,0.0087890625,10.8017578125,0)" xlink:href="#aE"/><use transform="matrix(0.0087890625,0,0,0.0087890625,21.603515625,0)" xlink:href="#az"/><use transform="matrix(0.0087890625,0,0,0.0087890625,32.4052734375,0)" xlink:href="#av"/><use transform="matrix(0.0087890625,0,0,0.0087890625,43.20703125,0)" xlink:href="#ax"/><use transform="matrix(0.0087890625,0,0,0.0087890625,54.0087890625,0)" xlink:href="#aF"/><use transform="matrix(0.0087890625,0,0,0.0087890625,64.810546875,0)" xlink:href="#ad"/><use transform="matrix(0.0087890625,0,0,0.0087890625,75.6123046875,0)" xlink:href="#ab"/><use transform="matrix(0.0087890625,0,0,0.0087890625,86.4140625,0)" xlink:href="#aI"/><use transform="matrix(0.0087890625,0,0,0.0087890625,97.2158203125,0)" xlink:href="#ag"/></g><g id="x"><use transform="matrix(0.0087890625,0,0,0.0087890625,0,0)" xlink:href="#T"/><use transform="matrix(0.0087890625,0,0,0.0087890625,10.8017578125,0)" xlink:href="#W"/><use transform="matrix(0.0087890625,0,0,0.0087890625,21.603515625,0)" xlink:href="#af"/><use transform="matrix(0.0087890625,0,0,0.0087890625,32.4052734375,0)" xlink:href="#T"/><use transform="matrix(0.0087890625,0,0,0.0087890625,43.20703125,0)" xlink:href="#Y"/><use transform="matrix(0.0087890625,0,0,0.0087890625,54.0087890625,0)" xlink:href="#ac"/><use transform="matrix(0.0087890625,0,0,0.0087890625,64.810546875,0)" xlink:href="#T"/><use transform="matrix(0.0087890625,0,0,0.0087890625,75.6123046875,0)" xlink:href="#aa"/><use transform="matrix(0.0087890625,0,0,0.0087890625,86.4140625,0)" xlink:href="#Z"/><use transform="matrix(0.0087890625,0,0,0.0087890625,97.2158203125,0)" xlink:href="#ad"/><use transform="matrix(0.0087890625,0,0,0.0087890625,108.017578125,0)" xlink:href="#W"/><use transform="matrix(0.0087890625,0,0,0.0087890625,118.8193359375,0)" xlink:href="#ag"/><use transform="matrix(0.0087890625,0,0,0.0087890625,129.62109375,0)" xlink:href="#ab"/><use transform="matrix(0.0087890625,0,0,0.0087890625,140.4228515625,0)" xlink:href="#ae"/><use transform="matrix(0.0087890625,0,0,0.0087890625,151.224609375,0)" xlink:href="#ae"/><use transform="matrix(0.0087890625,0,0,0.0087890625,162.0263671875,0)" xlink:href="#ae"/></g><g id="y"><use transform="matrix(0.0087890625,0,0,0.0087890625,0,0)" xlink:href="#T"/><use transform="matrix(0.0087890625,0,0,0.0087890625,10.8017578125,0)" xlink:href="#V"/><use transform="matrix(0.0087890625,0,0,0.0087890625,21.603515625,0)" xlink:href="#W"/><use transform="matrix(0.0087890625,0,0,0.0087890625,32.4052734375,0)" xlink:href="#T"/><use transform="matrix(0.0087890625,0,0,0.0087890625,43.20703125,0)" xlink:href="#ac"/><use transform="matrix(0.0087890625,0,0,0.0087890625,54.0087890625,0)" xlink:href="#ad"/><use transform="matrix(0.0087890625,0,0,0.0087890625,64.810546875,0)" xlink:href="#T"/><use transform="matrix(0.0087890625,0,0,0.0087890625,75.6123046875,0)" xlink:href="#ac"/><use transform="matrix(0.0087890625,0,0,0.0087890625,86.4140625,0)" xlink:href="#ai"/><use transform="matrix(0.0087890625,0,0,0.0087890625,97.2158203125,0)" xlink:href="#Y"/><use transform="matrix(0.0087890625,0,0,0.0087890625,108.017578125,0)" xlink:href="#ag"/><use transform="matrix(0.0087890625,0,0,0.0087890625,118.8193359375,0)" xlink:href="#aI"/><use transform="matrix(0.0087890625,0,0,0.0087890625,129.62109375,0)" xlink:href="#Y"/><use transform="matrix(0.0087890625,0,0,0.0087890625,140.4228515625,0)" xlink:href="#ae"/><use transform="matrix(0.0087890625,0,0,0.0087890625,151.224609375,0)" xlink:href="#ae"/><use transform="matrix(0.0087890625,0,0,0.0087890625,162.0263671875,0)" xlink:href="#ae"/></g><path d="M745-142h380V0H143v-142h422v-798H246v-142h499v940zM545-1292v-192h200v192H545" id="aJ"/><path d="M715 0H502L69-1082h202c94 253 197 500 285 758 19 57 36 126 52 183 96-335 234-626 350-941h201" id="aK"/><g id="z"><use transform="matrix(0.0087890625,0,0,0.0087890625,0,0)" xlink:href="#T"/><use transform="matrix(0.0087890625,0,0,0.0087890625,10.8017578125,0)" xlink:href="#as"/><use transform="matrix(0.0087890625,0,0,0.0087890625,21.603515625,0)" xlink:href="#at"/><use transform="matrix(0.0087890625,0,0,0.0087890625,32.4052734375,0)" xlink:href="#au"/><use transform="matrix(0.0087890625,0,0,0.0087890625,43.20703125,0)" xlink:href="#av"/><use transform="matrix(0.0087890625,0,0,0.0087890625,54.0087890625,0)" xlink:href="#T"/><use transform="matrix(0.0087890625,0,0,0.0087890625,64.810546875,0)" xlink:href="#aw"/><use transform="matrix(0.0087890625,0,0,0.0087890625,75.6123046875,0)" xlink:href="#at"/><use transform="matrix(0.0087890625,0,0,0.0087890625,86.4140625,0)" xlink:href="#ax"/><use transform="matrix(0.0087890625,0,0,0.0087890625,97.2158203125,0)" xlink:href="#ay"/><use transform="matrix(0.0087890625,0,0,0.0087890625,108.017578125,0)" xlink:href="#T"/><use transform="matrix(0.0087890625,0,0,0.0087890625,118.8193359375,0)" xlink:href="#aG"/><use transform="matrix(0.0087890625,0,0,0.0087890625,129.62109375,0)" xlink:href="#ax"/><use transform="matrix(0.0087890625,0,0,0.0087890625,140.4228515625,0)" xlink:href="#aJ"/><use transform="matrix(0.0087890625,0,0,0.0087890625,151.224609375,0)" xlink:href="#aK"/><use transform="matrix(0.0087890625,0,0,0.0087890625,162.0263671875,0)" xlink:href="#aA"/><use transform="matrix(0.0087890625,0,0,0.0087890625,172.828125,0)" xlink:href="#ag"/><use transform="matrix(0.0087890625,0,0,0.0087890625,183.6298828125,0)" xlink:href="#U"/><use transform="matrix(0.0087890625,0,0,0.0087890625,194.431640625,0)" xlink:href="#aB"/><use transform="matrix(0.0087890625,0,0,0.0087890625,205.2333984375,0)" xlink:href="#U"/></g><path fill="#82755b" d="M248-139C247-14 144 9 11 0l48-248c105-6 190 8 189 109zm-34 0c1-70-52-87-126-82L50-27c98 7 163-21 164-112" id="aL"/><path fill="#82755b" d="M50-231l6-30h32l-6 30H50zM6 0l37-190h31L37 0H6" id="aM"/><path fill="#82755b" d="M66-151c12-25 30-51 66-40l-6 26C45-176 58-65 38 0H6l36-190h30" id="aN"/><path fill="#82755b" d="M111-194c62-3 86 47 72 106H45c-7 38 6 69 45 68 27-1 43-14 53-32l24 11C152-15 129 4 87 4 38 3 12-23 12-71c0-70 32-119 99-123zm44 81c14-66-71-72-95-28-4 8-8 17-11 28h106" id="aO"/><path fill="#82755b" d="M44-68c0 29 11 47 38 47 30 0 42-19 51-41l28 9C148-21 126 4 82 4 31 4 10-29 12-85c3-77 74-140 146-93 12 8 15 23 18 40l-31 5c-1-22-13-36-36-36-52 0-65 49-65 101" id="aP"/><path fill="#82755b" d="M51-54c-9 22 5 41 31 30L79-1C43 14 10-4 19-52l22-115H19l5-23h22l19-43h21l-9 43h35l-4 23H73" id="aQ"/><path fill="#82755b" d="M30-147c31-64 166-65 159 27C183-49 158 1 86 4 9 8 1-88 30-147zM88-20c53 0 68-48 68-100 0-31-11-51-44-50-52 1-68 46-68 97 0 32 13 53 44 53" id="aR"/><path fill="#82755b" d="M198-190L69 30C53 58 25 83-20 72c4-11-1-27 19-22 33-1 43-29 59-52L20-190h32L79-34l84-156h35" id="aS"/><path fill="#82755b" d="M18-82l6-28h88l-6 28H18" id="aT"/><path fill="#82755b" d="M6 0l50-261h32L37 0H6" id="aU"/><path fill="#82755b" d="M89 0H52L20-190h33L74-25l89-165h34" id="aV"/><g id="A"><use transform="matrix(0.05,0,0,0.05,0,0)" xlink:href="#aL"/><use transform="matrix(0.05,0,0,0.05,12.950000000000001,0)" xlink:href="#aM"/><use transform="matrix(0.05,0,0,0.05,16.900000000000002,0)" xlink:href="#aN"/><use transform="matrix(0.05,0,0,0.05,22.85,0)" xlink:href="#aO"/><use transform="matrix(0.05,0,0,0.05,32.85,0)" xlink:href="#aP"/><use transform="matrix(0.05,0,0,0.05,41.85,0)" xlink:href="#aQ"/><use transform="matrix(0.05,0,0,0.05,46.85,0)" xlink:href="#aR"/><use transform="matrix(0.05,0,0,0.05,56.85,0)" xlink:href="#aN"/><use transform="matrix(0.05,0,0,0.05,62.800000000000004,0)" xlink:href="#aS"/><use transform="matrix(0.05,0,0,0.05,71.80000000000001,0)" xlink:href="#aT"/><use transform="matrix(0.05,0,0,0.05,77.75000000000001,0)" xlink:href="#aU"/><use transform="matrix(0.05,0,0,0.05,81.70000000000002,0)" xlink:href="#aO"/><use transform="matrix(0.05,0,0,0.05,91.70000000000002,0)" xlink:href="#aV"/><use transform="matrix(0.05,0,0,0.05,100.70000000000002,0)" xlink:href="#aO"/><use transform="matrix(0.05,0,0,0.05,110.7,0)" xlink:href="#aU"/></g><path fill="#82755b" d="M133-28C103 26-5 8 13-77c13-62 24-115 90-117 29-1 46 15 56 35 2-12 6-24 8-34h31L144 75h-31zM45-64c-2 27 10 43 35 43 54-1 69-50 69-103 0-29-15-46-42-46-53-1-58 58-62 106" id="aW"/><path fill="#82755b" d="M67 3c-93-2-31-127-26-193h32L48-50c-3 39 53 32 70 12 30-34 30-101 43-152h32L157 0h-30c1-10 6-24 4-33-14 20-29 37-64 36" id="aX"/><path fill="#82755b" d="M165-48c-4 18 1 34 23 27l-3 20c-29 8-62 0-52-35h-2C116-14 99 4 63 4 30 4 8-16 8-49c0-68 71-67 138-67 10-26 0-56-31-54-26 1-42 9-47 31l-32-5c8-67 160-71 144 15-5 28-9 54-15 81zM42-50c3 52 80 24 89-6 7-12 7-24 11-38-47 1-103-4-100 44" id="aY"/><g id="B"><use transform="matrix(0.05,0,0,0.05,0,0)" xlink:href="#aW"/><use transform="matrix(0.05,0,0,0.05,10,0)" xlink:href="#aX"/><use transform="matrix(0.05,0,0,0.05,20,0)" xlink:href="#aR"/><use transform="matrix(0.05,0,0,0.05,30,0)" xlink:href="#aQ"/><use transform="matrix(0.05,0,0,0.05,35,0)" xlink:href="#aY"/></g></defs></g></svg>