<svg xmlns="http://www.w3.org/2000/svg" xmlns:xlink="http://www.w3.org/1999/xlink" xmlns:lucid="lucid" width="721.84" height="556.88"><g transform="translate(0 0)" lucid:page-tab-id="MAhkv0uKBEbn"><path d="M716.6 458.2c0 6.6-63.48 11.94-141.8 11.94-78.3 0-141.8-5.34-141.8-11.93v-95.44c0-6.6 63.5-11.93 141.8-11.93 78.33 0 141.8 5.34 141.8 11.93z" stroke="#000" stroke-width="2" fill="#ffdba9"/><path d="M716.6 362.76c0 6.6-63.48 11.94-141.8 11.94-78.3 0-141.8-5.35-141.8-11.94" stroke="#000" stroke-width="2" fill="none"/><use xlink:href="#a" transform="matrix(1,0,0,1,438.0000000000001,379.6948818897637) translate(4.014453124999989 14.9853515625)"/><use xlink:href="#b" transform="matrix(1,0,0,1,438.0000000000001,379.6948818897637) translate(44.914453124999994 14.9853515625)"/><use xlink:href="#c" transform="matrix(1,0,0,1,438.0000000000001,379.6948818897637) translate(113.464453125 14.9853515625)"/><use xlink:href="#d" transform="matrix(1,0,0,1,438.0000000000001,379.6948818897637) translate(128.464453125 14.9853515625)"/><path d="M5 5h295.56v280H5z" stroke="#000" stroke-width="2" fill="#fff"/><use xlink:href="#e" transform="matrix(1,0,0,1,10,10) translate(83.69999999999999 14.4)"/><use xlink:href="#f" transform="matrix(1,0,0,1,10,10) translate(139.5 14.4)"/><use xlink:href="#g" transform="matrix(1,0,0,1,10,10) translate(189.35 14.4)"/><path d="M716.6 350.5c0 7.14-63.48 12.93-141.8 12.93-78.3 0-141.8-5.8-141.8-12.94V246.93c0-7.15 63.5-12.95 141.8-12.95 78.33 0 141.8 5.8 141.8 12.94z" stroke="#000" stroke-width="2" fill="#ffdba9"/><path d="M716.6 246.94c0 7.15-63.48 12.94-141.8 12.94-78.3 0-141.8-5.8-141.8-12.94" stroke="#000" stroke-width="2" fill="none"/><use xlink:href="#a" transform="matrix(1,0,0,1,438.0000000000001,264.87992125984255) translate(20.21708984374999 14.9853515625)"/><use xlink:href="#b" transform="matrix(1,0,0,1,438.0000000000001,264.87992125984255) translate(61.117089843749994 14.9853515625)"/><use xlink:href="#h" transform="matrix(1,0,0,1,438.0000000000001,264.87992125984255) translate(129.66708984375 14.9853515625)"/><use xlink:href="#i" transform="matrix(1,0,0,1,438.0000000000001,264.87992125984255) translate(144.66708984375 14.9853515625)"/><path d="M716.6 233.88c0 10-63.48 18.1-141.8 18.1-78.3 0-141.8-8.1-141.8-18.1V89.18c0-10 63.5-18.1 141.8-18.1 78.33 0 141.8 8.1 141.8 18.1z" stroke="#000" stroke-width="2" fill="#ffdba9"/><path d="M716.6 89.17c0 10-63.48 18.1-141.8 18.1-78.3 0-141.8-8.1-141.8-18.1" stroke="#000" stroke-width="2" fill="none"/><use xlink:href="#a" transform="matrix(1,0,0,1,438.00000000000006,112.255905511811) translate(20.21708984374999 14.9853515625)"/><use xlink:href="#b" transform="matrix(1,0,0,1,438.00000000000006,112.255905511811) translate(61.117089843749994 14.9853515625)"/><use xlink:href="#j" transform="matrix(1,0,0,1,438.00000000000006,112.255905511811) translate(129.66708984375 14.9853515625)"/><use xlink:href="#k" transform="matrix(1,0,0,1,438.00000000000006,112.255905511811) translate(144.66708984375 14.9853515625)"/><path d="M5 297h295.56v255.14H5z" stroke="#000" stroke-width="2" fill="#fff"/><use xlink:href="#e" transform="matrix(1,0,0,1,10,302) translate(83.69999999999999 14.4)"/><use xlink:href="#f" transform="matrix(1,0,0,1,10,302) translate(139.5 14.4)"/><use xlink:href="#l" transform="matrix(1,0,0,1,10,302) translate(189.35 14.4)"/><path d="M489.84 413.82h180v31.5h-180z" stroke="#000" stroke-width="2" fill="#ffc374"/><use xlink:href="#m" transform="matrix(1,0,0,1,494.8424846371091,418.8248031496062) translate(0 15.7900390625)"/><path d="M15.1 146.37h274.86V277H15.1z" stroke="#000" stroke-width="2" fill="#e5f5ff"/><use xlink:href="#n" transform="matrix(1,0,0,1,20.086544077367535,151.3661417322834) translate(52.525000000000006 14.4)"/><use xlink:href="#o" transform="matrix(1,0,0,1,20.086544077367535,151.3661417322834) translate(97.47500000000001 14.4)"/><use xlink:href="#p" transform="matrix(1,0,0,1,20.086544077367535,151.3661417322834) translate(128.72500000000002 14.4)"/><path d="M15.4 438.37h274.87v104.17H15.4z" stroke="#000" stroke-width="2" fill="#e5f5ff"/><use xlink:href="#n" transform="matrix(1,0,0,1,20.393014073502286,443.36614173228344) translate(52.525000000000006 14.4)"/><use xlink:href="#q" transform="matrix(1,0,0,1,20.393014073502286,443.36614173228344) translate(97.47500000000001 14.4)"/><use xlink:href="#r" transform="matrix(1,0,0,1,20.393014073502286,443.36614173228344) translate(128.72500000000002 14.4)"/><path d="M24.75 177.25h253.73v30.08H24.75z" stroke="#000" fill="#ffc374"/><use xlink:href="#s" transform="matrix(1,0,0,1,29.753236787944317,182.248031496063) translate(0 15.2900390625)"/><path d="M24.75 207.33h253.73v30.08H24.75z" stroke="#000" fill="#ffc374"/><use xlink:href="#t" transform="matrix(1,0,0,1,29.753236787944317,212.32677165354332) translate(0 15.2900390625)"/><path d="M25.97 502.42h252.5v30.08H25.98z" stroke="#000" fill="#ffc374"/><use xlink:href="#t" transform="matrix(1,0,0,1,30.966292324522925,507.4173228346456) translate(0 15.2900390625)"/><path d="M50.7 41h203.75v30.08H50.7z" stroke="#000" fill="#ffdba9"/><use xlink:href="#u" transform="matrix(1,0,0,1,55.69330040134767,46) translate(4 15.2900390625)"/><path d="M50.6 71.08h203.75v30.08H50.6z" stroke="#000" fill="#ffdba9"/><use xlink:href="#v" transform="matrix(1,0,0,1,55.592241528561004,76.0787401574803) translate(4 15.2900390625)"/><path d="M152.52 144.37v-5.82h-.05v-5.8" stroke="#000" stroke-width="2" fill="none"/><path d="M153.52 145.37h-2v-1.03h2zM153.47 132.76h-2v-1.02h2z" stroke="#000" stroke-width=".05"/><path d="M489.84 306.74h180v31.5h-180z" stroke="#000" stroke-width="2" fill="#ffc374"/><use xlink:href="#w" transform="matrix(1,0,0,1,494.8424846371091,311.7381889763778) translate(0 15.7900390625)"/><path d="M50.6 101.16h203.75v30.08H50.6z" stroke="#000" fill="#ffdba9"/><use xlink:href="#x" transform="matrix(1,0,0,1,55.592241528561004,106.1574803149606) translate(4 15.2900390625)"/><path d="M50.95 332.34H254.7v30.08H50.96z" stroke="#000" fill="#ffdba9"/><use xlink:href="#u" transform="matrix(1,0,0,1,55.94924096108909,337.33858267716533) translate(4 15.2900390625)"/><path d="M50.85 362.42H254.6v30.08H50.86z" stroke="#000" fill="#ffdba9"/><use xlink:href="#v" transform="matrix(1,0,0,1,55.84818208830245,367.41732283464574) translate(4 15.2900390625)"/><path d="M152.83 436.37v-6.15h-.1v-6.15" stroke="#000" stroke-width="2" fill="none"/><path d="M153.83 437.37h-2v-1.03h2zM153.73 424.1h-2v-1.03h2z" stroke="#000" stroke-width=".05"/><path d="M50.85 392.5H254.6v30.07H50.86z" stroke="#000" fill="#ffdba9"/><use xlink:href="#x" transform="matrix(1,0,0,1,55.84818208830245,397.496062992126) translate(4 15.2900390625)"/><path d="M489.84 204.86h180v31.5h-180z" stroke="#000" fill="#ffc374"/><use xlink:href="#y" transform="matrix(1,0,0,1,494.8424846371091,209.8582677165354) translate(0 15.7900390625)"/><path d="M25.97 472.34h252.5v30.08H25.98z" stroke="#000" fill="#ffc374"/><use xlink:href="#s" transform="matrix(1,0,0,1,30.96629232452291,477.3385826771653) translate(0 15.2900390625)"/><path d="M279.98 517.44l2.48-.06 3.33-.2 3.2-.34 3.13-.46 3.04-.58 2.98-.7 2.92-.82 2.9-.94 2.85-1.06 2.86-1.2 2.85-1.34 2.87-1.5 2.9-1.68 2.94-1.87 3-2.1 3.1-2.34 3.2-2.65 3.32-3 3.5-3.43 3.75-4 4.05-4.67 4.45-5.62 5.06-6.98 6.07-9.16 8.27-13.7 38.1-67.84 6.06-9.16 5.06-6.98 4.45-5.62 4.04-4.68 3.75-3.98 3.5-3.44 3.34-3 3.2-2.65 3.08-2.36 3-2.1 2.95-1.86 2.9-1.67 2.87-1.5 2.85-1.34 2.85-1.2 2.86-1.06 2.9-.94 2.9-.8.85-.2" stroke="#000" stroke-width="2" stroke-linejoin="round" fill="none"/><path d="M280.03 518.43l-1.05.03v-2l1-.02z" stroke="#000" stroke-width=".05"/><path d="M485.63 322.87L472 329.13l-1.08-9.2z" stroke="#000" stroke-width="2"/><path d="M279.98 487.36l10.14-.2 9.76-.62 8.7-.9 7.9-1.18 7.3-1.4 6.88-1.6 6.6-1.84 6.48-2.1 6.6-2.46 7.04-2.96 8.27-3.9 15.75-8.34 20.77-11.1 8.28-3.9 7.03-2.97 6.6-2.46 6.5-2.1 6.6-1.85 6.86-1.62 7.3-1.4 7.9-1.16 8.7-.9 2.42-.16" stroke="#000" stroke-width="2" stroke-linejoin="round" fill="none"/><path d="M280.03 488.36l-1.05.02v-2l1-.02z" stroke="#000" stroke-width=".05"/><path d="M485.6 429.7l-14.08 5.16-.34-9.27z" stroke="#000" stroke-width="2"/><path d="M279.98 192.3l1.87.05 2.77.17 2.7.28 2.63.4 2.58.5 2.54.58 2.5.7 2.5.8 2.48.93 2.48 1.06 2.5 1.17 2.5 1.32 2.57 1.47 2.6 1.65 2.65 1.85 2.74 2.08 2.82 2.34 2.94 2.66 3.1 3.02 3.25 3.48 3.5 4.03 3.75 4.74 4.1 5.68 4.62 6.94L354 249l6.55 11.95 9.36 18.97 37.38 81 6.54 11.93 5.33 8.82 4.6 6.94 4.13 5.7 3.75 4.73 3.48 4.03 3.27 3.48 3.1 3.02 2.94 2.66 2.84 2.34 2.73 2.08 2.66 1.85 2.6 1.64 2.55 1.47 2.52 1.33 2.5 1.17 2.48 1.05 2.48.92 2.5.8.33.1" stroke="#000" stroke-width="2" stroke-linejoin="round" fill="none"/><path d="M280.03 191.3l-.04 2h-1.02v-2z" stroke="#000" stroke-width=".05"/><path d="M485.64 429.12l-14.78 2.57 1.3-9.18z" stroke="#000" stroke-width="2"/><path d="M279.98 222.35l9.02-.2 8.9-.55 8-.84 7.33-1.07 6.8-1.3 6.4-1.5 6.13-1.72 5.96-1.94 5.95-2.2 6.08-2.57 6.52-3.07 7.57-3.97 11.63-6.75 26.9-16.13 7.58-3.97 6.52-3.07 6.1-2.55 5.93-2.2 5.96-1.95 6.13-1.7 6.4-1.5 6.8-1.3 7.32-1.1 8-.82.44-.03" stroke="#000" stroke-width="2" stroke-linejoin="round" fill="none"/><path d="M280.03 223.34l-1.05.03v-2l1-.03z" stroke="#000" stroke-width=".05"/><path d="M485.6 157.74l-14.06 5.2-.37-9.26z" stroke="#000" stroke-width="2"/><path d="M24.75 237.4h253.73v30.08H24.75z" stroke="#000" fill="#ffc374"/><g><use xlink:href="#z" transform="matrix(1,0,0,1,29.753236787944303,242.40551181102364) translate(0 15.2900390625)"/></g><path d="M279.98 252.42l9.23-.18 9.06-.57 8.15-.85 7.45-1.1 6.9-1.3 6.48-1.54 6.2-1.73 6.08-1.97 6.06-2.25 6.24-2.63 6.75-3.18 8.1-4.24 42.62-24.45 6.76-3.18 6.24-2.62 6.05-2.25 6.06-1.97 6.2-1.73 6.5-1.52 6.9-1.3 7.44-1.1 8.14-.86.8-.06" stroke="#000" stroke-width="2" stroke-linejoin="round" fill="none"/><path d="M280.03 253.42l-1.05.03v-2l1-.03z" stroke="#000" stroke-width=".05"/><path d="M485.6 189.24l-14.06 5.2-.37-9.28z" stroke="#000" stroke-width="2"/><path d="M489.84 141.87h180v31.5h-180z" stroke="#000" stroke-width="2" fill="#ffc374"/><g><use xlink:href="#A" transform="matrix(1,0,0,1,494.8424846371091,146.8661417322834) translate(0 15.7900390625)"/></g><path d="M489.84 173.36h180v31.5h-180z" stroke="#000" stroke-width="2" fill="#ffc374"/><g><use xlink:href="#B" transform="matrix(1,0,0,1,494.8424846371091,178.3622047244094) translate(0 15.7900390625)"/></g><path d="M401 504.5h196v28H401z" stroke="#000" stroke-opacity="0" stroke-width="2" fill="#fff" fill-opacity="0"/><g><use xlink:href="#C" transform="matrix(1,0,0,1,401,504.49606299212587) translate(21.44999999999999 17.6)"/><use xlink:href="#D" transform="matrix(1,0,0,1,401,504.49606299212587) translate(129.55 17.6)"/></g><path d="M499.04 504l.14-1.6.43-1.56.64-1.28.85-1.15 1.23-1.14 2.08-1.32 14.83-6.64 1.94-1.8 1.46-1.98 1.16-2.38.85-3.14.3-2.5" stroke="#82755b" stroke-linejoin="round" fill="none"/><path d="M499.54 504.03l-.04.47h-1l.05-.56z" stroke="#82755b" stroke-width=".05" fill="#82755b"/><path d="M524.94 477.5l.06-.5" stroke="#82755b" fill="none"/><defs><path d="M175 0L67-191c6 58 2 128 3 191H24v-248h59L193-55c-6-58-2-129-3-193h46V0h-61" id="E"/><path d="M76-208v77h127v40H76V0H24v-248h183v40H76" id="F"/><path d="M169-182c-1-43-94-46-97-3 18 66 151 10 154 114 3 95-165 93-204 36-6-8-10-19-12-30l50-8c3 46 112 56 116 5-17-69-150-10-154-114-4-87 153-88 188-35 5 8 8 18 10 28" id="G"/><g id="a"><use transform="matrix(0.05,0,0,0.05,0,0)" xlink:href="#E"/><use transform="matrix(0.05,0,0,0.05,12.950000000000001,0)" xlink:href="#F"/><use transform="matrix(0.05,0,0,0.05,23.900000000000002,0)" xlink:href="#G"/></g><path d="M147 0H94L2-248h55l64 206c17-72 42-137 63-206h54" id="H"/><path d="M110-194c64 0 96 36 96 99 0 64-35 99-97 99-61 0-95-36-95-99 0-62 34-99 96-99zm-1 164c35 0 45-28 45-65 0-40-10-65-43-65-34 0-45 26-45 65 0 36 10 65 43 65" id="I"/><path d="M25 0v-261h50V0H25" id="J"/><path d="M85 4C-2 5 27-109 22-190h50c7 57-23 150 33 157 60-5 35-97 40-157h50l1 190h-47c-2-12 1-28-3-38-12 25-28 42-61 42" id="K"/><path d="M220-157c-53 9-28 100-34 157h-49v-107c1-27-5-49-29-50C55-147 81-57 75 0H25l-1-190h47c2 12-1 28 3 38 10-53 101-56 108 0 13-22 24-43 59-42 82 1 51 116 57 194h-49v-107c-1-25-5-48-29-50" id="L"/><path d="M185-48c-13 30-37 53-82 52C43 2 14-33 14-96s30-98 90-98c62 0 83 45 84 108H66c0 31 8 55 39 56 18 0 30-7 34-22zm-45-69c5-46-57-63-70-21-2 6-4 13-4 21h74" id="M"/><g id="b"><use transform="matrix(0.05,0,0,0.05,0,0)" xlink:href="#H"/><use transform="matrix(0.05,0,0,0.05,10.65,0)" xlink:href="#I"/><use transform="matrix(0.05,0,0,0.05,21.6,0)" xlink:href="#J"/><use transform="matrix(0.05,0,0,0.05,26.6,0)" xlink:href="#K"/><use transform="matrix(0.05,0,0,0.05,37.550000000000004,0)" xlink:href="#L"/><use transform="matrix(0.05,0,0,0.05,53.550000000000004,0)" xlink:href="#M"/></g><path d="M128-127c34 4 56 21 59 58 7 91-148 94-172 28-4-9-6-17-7-26l51-5c1 24 16 35 40 36 23 0 39-12 38-36-1-31-31-36-65-34v-40c32 2 59-3 59-33 0-20-13-33-34-33s-33 13-35 32l-50-3c6-44 37-68 86-68 50 0 83 20 83 66 0 35-22 52-53 58" id="N"/><use transform="matrix(0.05,0,0,0.05,0,0)" xlink:href="#N" id="c"/><path d="M67-93c0 74 22 123 53 168H70C40 30 18-18 18-93s22-123 52-168h50c-32 44-53 94-53 168" id="O"/><path d="M427-171c3 195 2 397 2 596H148V-846c1-83-4-168-8-236h272c10 49 14 118 15 176h4c59-114 151-197 316-197 291 0 385 259 385 560 0 243-65 433-220 521-50 28-109 42-176 42-162-2-253-78-309-191zm69-661c-91 113-92 463-1 586 46 62 145 101 225 54 96-57 118-191 119-351 0-123-18-215-53-276-46-82-128-115-220-74-25 12-48 33-70 61" id="P"/><path d="M875-1102c70 0 148 7 206 17v237c-110-17-267-37-359 15-123 69-192 207-192 395V0H250c-10-367 32-789-52-1082h271c19 69 36 149 46 228h4c52-151 151-250 356-248" id="Q"/><path d="M616-1102c361 0 521 202 521 560 0 354-171 562-527 562C259 20 92-192 92-542c0-351 169-560 524-560zm-9 930c200-2 236-165 236-370 0-199-27-367-223-367-195 0-233 146-233 367 0 129 18 223 55 282s92 88 165 88" id="R"/><path d="M380 206c143 0 202-71 202-216v-882H228v-190h636V13c-6 279-184 412-459 412-107 0-208-16-288-43V172c69 16 169 34 263 34zm203-1483v-207h281v207H583" id="S"/><path d="M1113-274C1038-96 884 20 626 20c-352 0-526-209-526-566 0-358 185-556 530-556 358 0 496 251 499 615H395c5 180 68 319 245 319 102 0 186-45 208-129zM857-663c-6-177-128-307-315-247-94 30-141 121-145 247h460" id="T"/><path d="M1109-360C1066-122 902 20 624 20c-347 0-514-209-514-555 0-353 168-567 518-567 270 0 425 136 473 361l-283 14c-16-106-75-183-196-182-75 0-130 31-165 93s-52 152-52 270c0 249 74 374 221 374 120 0 188-82 201-201" id="U"/><path d="M711 13c-250 0-386-99-385-349l2-556H161v-190h181l88-282h176v282h385v190H606v530c-10 130 45 186 174 184 91-2 176-11 255-27v186C933-1 833 13 711 13" id="V"/><path d="M470 0v-305h289V0H470zm0-780v-305h289v305H470" id="W"/><path d="M844-1321c-130 0-195 53-191 182v57h443v190H653V0H373v-892H117v-190h256v-83c5-247 162-348 422-349 120-1 232 13 327 28v184c-84-10-183-19-278-19" id="X"/><path d="M829-709c170 32 291 130 291 327 0 285-207 402-505 402-296 0-506-116-506-400 0-194 122-293 287-327v-4c-145-37-254-130-254-301 0-257 201-358 469-358 275 0 474 97 474 360 0 168-110 262-256 297v4zm-216-99c126 0 184-66 183-187-1-119-62-179-185-178-121 0-182 60-182 178 0 119 60 187 184 187zm4 630c149 0 213-80 212-227-2-138-77-206-220-206-139 1-209 76-211 210-2 147 70 223 219 223" id="Y"/><path d="M138-1120c207-4 339-93 415-229h266v1140h323V0H149v-209h389v-891c-70 121-216 187-400 194v-214" id="Z"/><path d="M802-909c-3-189-2-383-2-575h281v1248c-1 83 4 168 8 236H817c-9-50-14-117-15-176h-4C735-49 651 20 482 20 191 20 97-238 97-539c0-243 66-432 221-519 50-28 108-42 175-42 162 2 253 78 309 191zm-70 658c91-113 93-462 2-584-46-61-145-100-224-53-96 56-119 190-120 349 0 123 17 214 52 275 46 82 130 115 222 74 25-12 46-33 68-61" id="aa"/><path d="M102-93c0 74-22 123-52 168H0C30 29 54-18 53-93c0-74-22-123-53-168h50c30 45 52 94 52 168" id="ab"/><g id="d"><use transform="matrix(0.05,0,0,0.05,0,0)" xlink:href="#O"/><use transform="matrix(0.0087890625,0,0,0.0087890625,5.95,0)" xlink:href="#P"/><use transform="matrix(0.0087890625,0,0,0.0087890625,16.7517578125,0)" xlink:href="#Q"/><use transform="matrix(0.0087890625,0,0,0.0087890625,27.553515625,0)" xlink:href="#R"/><use transform="matrix(0.0087890625,0,0,0.0087890625,38.3552734375,0)" xlink:href="#S"/><use transform="matrix(0.0087890625,0,0,0.0087890625,49.15703125,0)" xlink:href="#T"/><use transform="matrix(0.0087890625,0,0,0.0087890625,59.9587890625,0)" xlink:href="#U"/><use transform="matrix(0.0087890625,0,0,0.0087890625,70.760546875,0)" xlink:href="#V"/><use transform="matrix(0.0087890625,0,0,0.0087890625,81.5623046875,0)" xlink:href="#W"/><use transform="matrix(0.0087890625,0,0,0.0087890625,92.3640625,0)" xlink:href="#X"/><use transform="matrix(0.0087890625,0,0,0.0087890625,103.1658203125,0)" xlink:href="#Y"/><use transform="matrix(0.0087890625,0,0,0.0087890625,113.967578125,0)" xlink:href="#Z"/><use transform="matrix(0.0087890625,0,0,0.0087890625,124.7693359375,0)" xlink:href="#aa"/><use transform="matrix(0.05,0,0,0.05,135.57109375,0)" xlink:href="#ab"/></g><path d="M199 0l-22-63H83L61 0H9l90-248h61L250 0h-51zm-33-102l-36-108c-10 38-24 72-36 108h72" id="ac"/><path d="M195-6C206 82 75 100 31 46c-4-6-6-13-8-21l49-6c3 16 16 24 34 25 40 0 42-37 40-79-11 22-30 35-61 35-53 0-70-43-70-97 0-56 18-96 73-97 30 0 46 14 59 34l2-30h47zm-90-29c32 0 41-27 41-63 0-35-9-62-40-62-32 0-39 29-40 63 0 36 9 62 39 62" id="ad"/><path d="M135-194c87-1 58 113 63 194h-50c-7-57 23-157-34-157-59 0-34 97-39 157H25l-1-190h47c2 12-1 28 3 38 12-26 28-41 61-42" id="ae"/><path d="M115-3C79 11 28 4 28-45v-112H4v-33h27l15-45h31v45h36v33H77v99c-1 23 16 31 38 25v30" id="af"/><g id="e"><use transform="matrix(0.05,0,0,0.05,0,0)" xlink:href="#ac"/><use transform="matrix(0.05,0,0,0.05,12.950000000000001,0)" xlink:href="#ad"/><use transform="matrix(0.05,0,0,0.05,23.900000000000002,0)" xlink:href="#M"/><use transform="matrix(0.05,0,0,0.05,33.900000000000006,0)" xlink:href="#ae"/><use transform="matrix(0.05,0,0,0.05,44.85000000000001,0)" xlink:href="#af"/></g><path d="M88-194c31-1 46 15 58 34l-1-101h50l1 261h-48c-2-10 0-23-3-31C134-8 116 4 84 4 32 4 16-41 15-95c0-56 19-97 73-99zm17 164c33 0 40-30 41-66 1-37-9-64-41-64s-38 30-39 65c0 43 13 65 39 65" id="ag"/><g id="f"><use transform="matrix(0.05,0,0,0.05,0,0)" xlink:href="#E"/><use transform="matrix(0.05,0,0,0.05,12.950000000000001,0)" xlink:href="#I"/><use transform="matrix(0.05,0,0,0.05,23.900000000000002,0)" xlink:href="#ag"/><use transform="matrix(0.05,0,0,0.05,34.85,0)" xlink:href="#M"/></g><use transform="matrix(0.05,0,0,0.05,0,0)" xlink:href="#ac" id="g"/><path d="M182-182c0 78-84 86-111 141h115V0H12c-6-101 99-100 120-180 1-22-12-31-33-32-23 0-32 14-35 34l-49-3c5-45 32-70 84-70 51 0 83 22 83 69" id="ah"/><use transform="matrix(0.05,0,0,0.05,0,0)" xlink:href="#ah" id="h"/><path d="M471 20c-247 0-336-169-336-415v-687h281v607c4 148 31 285 172 285 152 0 207-150 207-312v-580h281c4 359-9 736 8 1082H816c-7-63-11-146-12-215h-5C736-76 644 20 471 20" id="ai"/><path d="M622-916c-112 2-200 14-200 111 0 90 89 101 168 121 234 58 514 77 514 368C1104-4 751 54 434 5 267-21 161-112 121-270l247-37c24 111 113 145 252 141 114-3 226-12 226-124 0-101-103-113-192-134-225-54-490-76-490-351 0-247 201-328 458-328 245 0 413 88 457 292l-249 26c-16-98-92-133-208-131" id="aj"/><path d="M706-877c265 0 409 163 409 431 0 299-171 466-474 466-381 0-516-302-516-692 0-236 47-410 135-526 112-147 319-207 541-154 154 36 236 149 276 306l-265 37c-22-86-75-139-170-139-76 0-135 36-178 108s-64 179-64 318c54-94 164-155 306-155zm-74 678c138 0 201-98 201-239s-67-232-208-232c-125 0-205 73-205 202 0 149 67 269 212 269" id="ak"/><g id="i"><use transform="matrix(0.05,0,0,0.05,0,0)" xlink:href="#O"/><use transform="matrix(0.0087890625,0,0,0.0087890625,5.95,0)" xlink:href="#ai"/><use transform="matrix(0.0087890625,0,0,0.0087890625,16.7517578125,0)" xlink:href="#aj"/><use transform="matrix(0.0087890625,0,0,0.0087890625,27.553515625,0)" xlink:href="#T"/><use transform="matrix(0.0087890625,0,0,0.0087890625,38.3552734375,0)" xlink:href="#Q"/><use transform="matrix(0.0087890625,0,0,0.0087890625,49.15703125,0)" xlink:href="#W"/><use transform="matrix(0.0087890625,0,0,0.0087890625,59.9587890625,0)" xlink:href="#Y"/><use transform="matrix(0.0087890625,0,0,0.0087890625,70.760546875,0)" xlink:href="#X"/><use transform="matrix(0.0087890625,0,0,0.0087890625,81.5623046875,0)" xlink:href="#ak"/><use transform="matrix(0.0087890625,0,0,0.0087890625,92.3640625,0)" xlink:href="#aa"/><use transform="matrix(0.05,0,0,0.05,103.1658203125,0)" xlink:href="#ab"/></g><path d="M23 0v-37h61v-169l-59 37v-38l62-41h46v211h57V0H23" id="al"/><use transform="matrix(0.05,0,0,0.05,0,0)" xlink:href="#al" id="j"/><path d="M135-968c34-256 187-402 480-402 217 0 371 75 441 220 45 93 40 219-8 308-114 212-348 323-508 488-38 39-66 80-85 123h654V0H123v-195c112-245 321-399 515-560 57-48 107-96 142-157 14-26 22-53 22-80-1-104-73-156-185-154-131 2-181 74-199 194" id="am"/><path d="M775-193C708-75 621 20 439 20 226 20 106-93 106-306c0-251 170-341 417-346l223-4c4-143-12-264-148-264-103 0-141 58-150 153l-293-14c37-219 194-321 455-321 263 0 418 130 417 390v392c1 84 5 161 89 160 21 0 42-2 62-6v152c-57 15-108 27-180 26-145 0-202-73-217-205h-6zm-256 17c168 0 234-139 227-325-166 4-347-25-347 173 0 94 33 152 120 152" id="an"/><g id="k"><use transform="matrix(0.05,0,0,0.05,0,0)" xlink:href="#O"/><use transform="matrix(0.0087890625,0,0,0.0087890625,5.95,0)" xlink:href="#ai"/><use transform="matrix(0.0087890625,0,0,0.0087890625,16.7517578125,0)" xlink:href="#aj"/><use transform="matrix(0.0087890625,0,0,0.0087890625,27.553515625,0)" xlink:href="#T"/><use transform="matrix(0.0087890625,0,0,0.0087890625,38.3552734375,0)" xlink:href="#Q"/><use transform="matrix(0.0087890625,0,0,0.0087890625,49.15703125,0)" xlink:href="#W"/><use transform="matrix(0.0087890625,0,0,0.0087890625,59.9587890625,0)" xlink:href="#Z"/><use transform="matrix(0.0087890625,0,0,0.0087890625,70.760546875,0)" xlink:href="#am"/><use transform="matrix(0.0087890625,0,0,0.0087890625,81.5623046875,0)" xlink:href="#an"/><use transform="matrix(0.0087890625,0,0,0.0087890625,92.3640625,0)" xlink:href="#Z"/><use transform="matrix(0.05,0,0,0.05,103.1658203125,0)" xlink:href="#ab"/></g><path d="M182-130c37 4 62 22 62 59C244 23 116-4 24 0v-248c84 5 203-23 205 63 0 31-19 50-47 55zM76-148c40-3 101 13 101-30 0-44-60-28-101-31v61zm0 110c48-3 116 14 116-37 0-48-69-32-116-35v72" id="ao"/><use transform="matrix(0.05,0,0,0.05,0,0)" xlink:href="#ao" id="l"/><path d="M114 20l821-1504h178L296 20H114" id="ap"/><path d="M1069-1210C890-948 720-664 634-316c-25 105-38 210-38 316H408c9-385 153-667 302-925 57-98 120-190 185-279H158v-145h911v139" id="aq"/><path d="M365-904c58-129 161-200 334-200 130 0 228 46 293 138s98 233 98 420c0 189-34 331-102 425S824 20 698 20c-170 0-275-64-336-184 0 55-3 116-9 164H179c5-68 6-147 6-223v-1261h180c-2 193 4 394-4 580h4zm283 791c221 0 256-197 256-427 0-229-34-425-254-425-236 0-285 195-285 441 0 237 53 411 283 411" id="ar"/><path d="M937-319V0H757v-319H103v-140l635-890h199v888h188v142H937zm-180-835L257-461h500v-693" id="as"/><path d="M865-914c-3-187-2-380-2-570h180v1261c0 76 1 155 6 223H877c-8-49-9-116-10-174h-5C801-44 708 26 530 26c-135 0-234-46-297-139s-95-232-95-419c0-377 131-566 392-566 176 0 271 63 335 184zm-286-51c-222 0-255 197-255 427 0 229 31 425 253 425 237 0 286-195 286-441 0-238-52-411-284-411" id="at"/><path d="M809-709c168 33 285 134 285 331 0 277-191 398-480 398-287 0-481-120-481-396 0-192 118-296 281-331v-4c-145-39-248-139-248-313 0-238 192-346 444-346 211 0 357 75 422 217 19 41 27 86 27 131 0 172-101 274-250 309v4zm-197-70c168 0 260-73 260-233 0-158-100-224-262-224-160 0-260 68-260 224 0 155 97 232 262 233zm4 664c194 1 291-91 291-280 0-172-115-249-297-249-178 0-291 85-291 253 0 186 106 275 297 276" id="au"/><path d="M611-1370c266 0 451 106 451 368 0 147-77 243-154 327-132 144-316 255-451 395-42 44-75 87-96 134h723V0H144v-117c124-264 387-411 582-603 73-72 151-147 151-271 0-161-104-231-266-231-163 0-249 90-268 238l-184-17c35-233 185-369 452-369" id="av"/><path d="M353-779c69-51 166-92 291-90 218 3 357 100 423 255 21 52 32 109 32 170 0 305-189 464-500 464-268 0-424-116-471-335l182-21c35 130 124 212 293 209 198-4 309-114 309-313 0-182-118-282-305-282-120 0-198 45-262 101H169l47-728h801v145H382" id="aw"/><path d="M496 0v-299h235V0H496" id="ax"/><g id="m"><use transform="matrix(0.0087890625,0,0,0.0087890625,0,0)" xlink:href="#ap"/><use transform="matrix(0.0087890625,0,0,0.0087890625,10.8017578125,0)" xlink:href="#aq"/><use transform="matrix(0.0087890625,0,0,0.0087890625,21.603515625,0)" xlink:href="#ar"/><use transform="matrix(0.0087890625,0,0,0.0087890625,32.4052734375,0)" xlink:href="#ap"/><use transform="matrix(0.0087890625,0,0,0.0087890625,43.20703125,0)" xlink:href="#as"/><use transform="matrix(0.0087890625,0,0,0.0087890625,54.0087890625,0)" xlink:href="#as"/><use transform="matrix(0.0087890625,0,0,0.0087890625,64.810546875,0)" xlink:href="#ap"/><use transform="matrix(0.0087890625,0,0,0.0087890625,75.6123046875,0)" xlink:href="#aq"/><use transform="matrix(0.0087890625,0,0,0.0087890625,86.4140625,0)" xlink:href="#at"/><use transform="matrix(0.0087890625,0,0,0.0087890625,97.2158203125,0)" xlink:href="#au"/><use transform="matrix(0.0087890625,0,0,0.0087890625,108.017578125,0)" xlink:href="#ar"/><use transform="matrix(0.0087890625,0,0,0.0087890625,118.8193359375,0)" xlink:href="#av"/><use transform="matrix(0.0087890625,0,0,0.0087890625,129.62109375,0)" xlink:href="#aw"/><use transform="matrix(0.0087890625,0,0,0.0087890625,140.4228515625,0)" xlink:href="#ax"/><use transform="matrix(0.0087890625,0,0,0.0087890625,151.224609375,0)" xlink:href="#ax"/><use transform="matrix(0.0087890625,0,0,0.0087890625,162.0263671875,0)" xlink:href="#ax"/></g><path d="M238-95c0 69-44 99-111 99C63 4 22-25 22-93v-155h51v151c-1 38 19 59 55 60 90 1 49-130 58-211h52v153" id="ay"/><path d="M137-138c1-29-70-34-71-4 15 46 118 7 119 86 1 83-164 76-172 9l43-7c4 19 20 25 44 25 33 8 57-30 24-41C81-84 22-81 20-136c-2-80 154-74 161-7" id="az"/><path d="M135-150c-39-12-60 13-60 57V0H25l-1-190h47c2 13-1 29 3 40 6-28 27-53 61-41v41" id="aA"/><g id="n"><use transform="matrix(0.05,0,0,0.05,0,0)" xlink:href="#ay"/><use transform="matrix(0.05,0,0,0.05,12.950000000000001,0)" xlink:href="#az"/><use transform="matrix(0.05,0,0,0.05,22.950000000000003,0)" xlink:href="#M"/><use transform="matrix(0.05,0,0,0.05,32.95,0)" xlink:href="#aA"/></g><path d="M182 0l-62-99L58 0H3l86-130-79-118h55l55 88 55-88h55l-75 118L237 0h-55" id="aB"/><path d="M62-158H24l-5-90h48" id="aC"/><g id="o"><use transform="matrix(0.05,0,0,0.05,0,0)" xlink:href="#aB"/><use transform="matrix(0.05,0,0,0.05,12,0)" xlink:href="#aC"/><use transform="matrix(0.05,0,0,0.05,16.25,0)" xlink:href="#az"/></g><path d="M67-125c0 53 21 87 73 88 37 1 54-22 65-47l45 17C233-25 199 4 140 4 58 4 20-42 15-125 8-235 124-281 211-232c18 10 29 29 36 50l-46 12c-8-25-30-41-62-41-52 0-71 34-72 86" id="aD"/><path d="M133-34C117-15 103 5 69 4 32 3 11-16 11-54c-1-60 55-63 116-61 1-26-3-47-28-47-18 1-26 9-28 27l-52-2c7-38 36-58 82-57s74 22 75 68l1 82c-1 14 12 18 25 15v27c-30 8-71 5-69-32zm-48 3c29 0 43-24 42-57-32 0-66-3-65 30 0 17 8 27 23 27" id="aE"/><path d="M25-224v-37h50v37H25zM25 0v-190h50V0H25" id="aF"/><g id="p"><use transform="matrix(0.05,0,0,0.05,0,0)" xlink:href="#aD"/><use transform="matrix(0.05,0,0,0.05,12.950000000000001,0)" xlink:href="#I"/><use transform="matrix(0.05,0,0,0.05,23.900000000000002,0)" xlink:href="#ae"/><use transform="matrix(0.05,0,0,0.05,34.85,0)" xlink:href="#af"/><use transform="matrix(0.05,0,0,0.05,40.800000000000004,0)" xlink:href="#aE"/><use transform="matrix(0.05,0,0,0.05,50.800000000000004,0)" xlink:href="#aF"/><use transform="matrix(0.05,0,0,0.05,55.800000000000004,0)" xlink:href="#ae"/><use transform="matrix(0.05,0,0,0.05,66.75,0)" xlink:href="#M"/><use transform="matrix(0.05,0,0,0.05,76.75,0)" xlink:href="#aA"/></g><path d="M146-102V0H94v-102L6-248h54l60 105 60-105h54" id="aG"/><g id="q"><use transform="matrix(0.05,0,0,0.05,0,0)" xlink:href="#aG"/><use transform="matrix(0.05,0,0,0.05,12,0)" xlink:href="#aC"/><use transform="matrix(0.05,0,0,0.05,16.25,0)" xlink:href="#az"/></g><g id="r"><use transform="matrix(0.05,0,0,0.05,0,0)" xlink:href="#aD"/><use transform="matrix(0.05,0,0,0.05,12.950000000000001,0)" xlink:href="#I"/><use transform="matrix(0.05,0,0,0.05,23.900000000000002,0)" xlink:href="#ae"/><use transform="matrix(0.05,0,0,0.05,34.85,0)" xlink:href="#af"/><use transform="matrix(0.05,0,0,0.05,40.800000000000004,0)" xlink:href="#aE"/><use transform="matrix(0.05,0,0,0.05,50.800000000000004,0)" xlink:href="#aF"/><use transform="matrix(0.05,0,0,0.05,55.800000000000004,0)" xlink:href="#ae"/><use transform="matrix(0.05,0,0,0.05,66.75,0)" xlink:href="#M"/><use transform="matrix(0.05,0,0,0.05,76.75,0)" xlink:href="#aA"/></g><path d="M648-963c-190 6-283 138-283 336V0H185v-1484h181c-2 197 6 404-9 587h3c62-120 159-205 339-205 242 0 351 135 350 381V0H868v-695c1-168-57-273-220-268" id="aH"/><path d="M615-1102c343 0 484 203 482 560-1 347-147 562-488 562-336 0-475-219-479-562-4-349 156-560 485-560zm-8 989c240 0 301-180 301-429 0-245-55-427-290-427-236 0-299 181-299 427 0 243 61 429 288 429" id="aI"/><path d="M904-1102c199 0 220 177 220 381V0H956v-686c-3-114 0-215-60-264-70-33-125-4-158 71-26 56-39 140-39 252V0H531v-686c-3-114-1-215-61-264-78-41-136 24-157 84-24 69-39 159-39 259V0H105c-3-360 6-732-6-1082h149c6 50 3 123 8 175 36-100 83-195 216-195 135 0 166 79 196 196 42-105 93-196 236-196" id="aJ"/><path d="M617-1102c355 0 481 238 477 599H322c5 222 84 388 301 388 144 0 244-59 284-166l158 45C1002-72 854 20 623 20c-342 0-490-220-490-568 0-346 151-554 484-554zm291 461c-18-192-90-328-289-328-194 0-287 128-295 328h584" id="aK"/><path d="M1018 0H814c-67-224-138-444-200-673C552-442 476-224 407 0H204L21-1082h178c43 310 105 601 126 933 54-225 128-425 193-638h193c63 212 134 415 185 638 22-336 90-622 136-933h176" id="aL"/><path d="M839-1102c70 0 148 7 206 17v167c-112-18-268-36-363 15-129 69-208 203-208 395V0H294c-10-367 32-789-52-1082h171c21 75 41 161 48 250h5c67-152 152-270 373-270" id="aM"/><path d="M914 0L548-499l-132 98V0H236v-1484h180v927l475-525h211L663-617 1125 0H914" id="aN"/><path d="M873-819c-18-114-119-146-250-146-163 0-245 50-245 151 0 151 170 148 294 185 182 54 388 94 388 320 0 240-189 325-439 329-245 4-410-69-454-268l159-31c24 133 136 168 295 165 144-2 270-31 270-171 0-164-195-160-331-202-167-52-350-87-350-299 0-218 173-315 413-313 220 2 373 77 412 260" id="aO"/><path d="M1000-272c3 95 12 159 101 161 21 0 41-3 59-7V-6c-44 10-86 16-139 16-141 2-191-84-197-217h-6C748-76 648 20 446 20c-207 0-318-120-318-322 0-266 194-348 454-354l236-4c12-191-40-305-222-305-140 0-220 47-232 172l-188-17c33-204 181-292 423-292 255 0 401 118 401 364v466zm-683-27c0 109 63 184 175 182 166-3 259-96 306-217 24-65 20-120 20-200-232 7-501-28-501 235" id="aP"/><path d="M334-464v-160h560v160H334" id="aQ"/><path d="M682 16c-209 0-323-80-324-285v-671H190v-142h170l58-282h120v282h432v142H538v652c2 114 60 155 182 155 106 0 209-16 297-34v137C921-4 806 16 682 16" id="aR"/><g id="s"><use transform="matrix(0.0087890625,0,0,0.0087890625,0,0)" xlink:href="#ap"/><use transform="matrix(0.0087890625,0,0,0.0087890625,10.8017578125,0)" xlink:href="#aH"/><use transform="matrix(0.0087890625,0,0,0.0087890625,21.603515625,0)" xlink:href="#aI"/><use transform="matrix(0.0087890625,0,0,0.0087890625,32.4052734375,0)" xlink:href="#aJ"/><use transform="matrix(0.0087890625,0,0,0.0087890625,43.20703125,0)" xlink:href="#aK"/><use transform="matrix(0.0087890625,0,0,0.0087890625,54.0087890625,0)" xlink:href="#ap"/><use transform="matrix(0.0087890625,0,0,0.0087890625,64.810546875,0)" xlink:href="#aL"/><use transform="matrix(0.0087890625,0,0,0.0087890625,75.6123046875,0)" xlink:href="#aI"/><use transform="matrix(0.0087890625,0,0,0.0087890625,86.4140625,0)" xlink:href="#aM"/><use transform="matrix(0.0087890625,0,0,0.0087890625,97.2158203125,0)" xlink:href="#aN"/><use transform="matrix(0.0087890625,0,0,0.0087890625,108.017578125,0)" xlink:href="#ap"/><use transform="matrix(0.0087890625,0,0,0.0087890625,118.8193359375,0)" xlink:href="#aO"/><use transform="matrix(0.0087890625,0,0,0.0087890625,129.62109375,0)" xlink:href="#aH"/><use transform="matrix(0.0087890625,0,0,0.0087890625,140.4228515625,0)" xlink:href="#aP"/><use transform="matrix(0.0087890625,0,0,0.0087890625,151.224609375,0)" xlink:href="#aM"/><use transform="matrix(0.0087890625,0,0,0.0087890625,162.0263671875,0)" xlink:href="#aK"/><use transform="matrix(0.0087890625,0,0,0.0087890625,172.828125,0)" xlink:href="#at"/><use transform="matrix(0.0087890625,0,0,0.0087890625,183.6298828125,0)" xlink:href="#aQ"/><use transform="matrix(0.0087890625,0,0,0.0087890625,194.431640625,0)" xlink:href="#at"/><use transform="matrix(0.0087890625,0,0,0.0087890625,205.2333984375,0)" xlink:href="#aP"/><use transform="matrix(0.0087890625,0,0,0.0087890625,216.03515625,0)" xlink:href="#aR"/><use transform="matrix(0.0087890625,0,0,0.0087890625,226.8369140625,0)" xlink:href="#aP"/></g><path d="M168 279c222 39 310-114 368-290L66-1082h192c120 299 249 590 362 896 115-301 235-597 351-896h190L705 0c-65 164-130 320-275 396-67 36-177 35-262 18V279" id="aS"/><path d="M631 20c-350 0-501-215-501-562 0-355 162-560 502-560 250 0 399 118 446 323l-192 14c-23-124-109-196-262-196-242 0-305 171-305 415 1 245 61 427 304 427 151 0 248-77 267-215l190 12C1039-107 883 20 631 20" id="aT"/><g id="t"><use transform="matrix(0.0087890625,0,0,0.0087890625,0,0)" xlink:href="#ap"/><use transform="matrix(0.0087890625,0,0,0.0087890625,10.8017578125,0)" xlink:href="#aH"/><use transform="matrix(0.0087890625,0,0,0.0087890625,21.603515625,0)" xlink:href="#aI"/><use transform="matrix(0.0087890625,0,0,0.0087890625,32.4052734375,0)" xlink:href="#aJ"/><use transform="matrix(0.0087890625,0,0,0.0087890625,43.20703125,0)" xlink:href="#aK"/><use transform="matrix(0.0087890625,0,0,0.0087890625,54.0087890625,0)" xlink:href="#ap"/><use transform="matrix(0.0087890625,0,0,0.0087890625,64.810546875,0)" xlink:href="#aL"/><use transform="matrix(0.0087890625,0,0,0.0087890625,75.6123046875,0)" xlink:href="#aI"/><use transform="matrix(0.0087890625,0,0,0.0087890625,86.4140625,0)" xlink:href="#aM"/><use transform="matrix(0.0087890625,0,0,0.0087890625,97.2158203125,0)" xlink:href="#aN"/><use transform="matrix(0.0087890625,0,0,0.0087890625,108.017578125,0)" xlink:href="#ap"/><use transform="matrix(0.0087890625,0,0,0.0087890625,118.8193359375,0)" xlink:href="#aJ"/><use transform="matrix(0.0087890625,0,0,0.0087890625,129.62109375,0)" xlink:href="#aS"/><use transform="matrix(0.0087890625,0,0,0.0087890625,140.4228515625,0)" xlink:href="#aT"/><use transform="matrix(0.0087890625,0,0,0.0087890625,151.224609375,0)" xlink:href="#aI"/><use transform="matrix(0.0087890625,0,0,0.0087890625,162.0263671875,0)" xlink:href="#at"/><use transform="matrix(0.0087890625,0,0,0.0087890625,172.828125,0)" xlink:href="#aK"/></g><path d="M706-1102c241 0 344 136 343 381V0H868v-695c1-168-57-273-220-268-190 6-283 138-283 336V0H185c-3-360 6-732-6-1082h170c4 54 7 126 8 185h3c63-121 164-204 346-205" id="aU"/><path d="M528 20c-247 0-343-132-343-381v-721h180v686c-4 177 45 284 224 277 194-8 279-136 279-336v-627h181c3 360-6 732 6 1082H885c-4-54-7-126-8-185h-3C809-64 714 20 528 20" id="aV"/><path d="M496 0v-299h235V0H496zm0-783v-299h235v299H496" id="aW"/><path d="M148-1120c216-7 379-89 463-229h166v1204h353V0H157v-145h439v-1021c-79 124-254 184-448 194v-148" id="aX"/><g id="u"><use transform="matrix(0.0087890625,0,0,0.0087890625,0,0)" xlink:href="#ap"/><use transform="matrix(0.0087890625,0,0,0.0087890625,10.8017578125,0)" xlink:href="#aJ"/><use transform="matrix(0.0087890625,0,0,0.0087890625,21.603515625,0)" xlink:href="#aU"/><use transform="matrix(0.0087890625,0,0,0.0087890625,32.4052734375,0)" xlink:href="#aR"/><use transform="matrix(0.0087890625,0,0,0.0087890625,43.20703125,0)" xlink:href="#ap"/><use transform="matrix(0.0087890625,0,0,0.0087890625,54.0087890625,0)" xlink:href="#aV"/><use transform="matrix(0.0087890625,0,0,0.0087890625,64.810546875,0)" xlink:href="#aO"/><use transform="matrix(0.0087890625,0,0,0.0087890625,75.6123046875,0)" xlink:href="#aK"/><use transform="matrix(0.0087890625,0,0,0.0087890625,86.4140625,0)" xlink:href="#aM"/><use transform="matrix(0.0087890625,0,0,0.0087890625,97.2158203125,0)" xlink:href="#aW"/><use transform="matrix(0.0087890625,0,0,0.0087890625,108.017578125,0)" xlink:href="#aX"/><use transform="matrix(0.0087890625,0,0,0.0087890625,118.8193359375,0)" xlink:href="#av"/><use transform="matrix(0.0087890625,0,0,0.0087890625,129.62109375,0)" xlink:href="#aP"/><use transform="matrix(0.0087890625,0,0,0.0087890625,140.4228515625,0)" xlink:href="#aX"/></g><path d="M839-1335c-182-6-269 67-259 253h491v142H580V0H400v-940H138v-142h262c-15-293 132-408 418-402 94 2 200 7 281 21v145c-75-10-177-14-260-17" id="aY"/><path d="M672-881c271 0 424 163 424 435 0 291-160 466-455 466-367 0-490-287-490-662 0-324 85-568 293-680 129-70 351-59 460 16 73 50 125 123 153 223l-172 31c-31-108-107-172-232-172-259 0-316 252-323 529 59-113 178-186 342-186zm-37 756c186 0 278-124 278-313s-96-304-284-304c-163 0-281 93-281 261 0 157 65 270 168 327 35 19 75 29 119 29" id="aZ"/><g id="v"><use transform="matrix(0.0087890625,0,0,0.0087890625,0,0)" xlink:href="#ap"/><use transform="matrix(0.0087890625,0,0,0.0087890625,10.8017578125,0)" xlink:href="#aJ"/><use transform="matrix(0.0087890625,0,0,0.0087890625,21.603515625,0)" xlink:href="#aU"/><use transform="matrix(0.0087890625,0,0,0.0087890625,32.4052734375,0)" xlink:href="#aR"/><use transform="matrix(0.0087890625,0,0,0.0087890625,43.20703125,0)" xlink:href="#ap"/><use transform="matrix(0.0087890625,0,0,0.0087890625,54.0087890625,0)" xlink:href="#aV"/><use transform="matrix(0.0087890625,0,0,0.0087890625,64.810546875,0)" xlink:href="#aO"/><use transform="matrix(0.0087890625,0,0,0.0087890625,75.6123046875,0)" xlink:href="#aK"/><use transform="matrix(0.0087890625,0,0,0.0087890625,86.4140625,0)" xlink:href="#aM"/><use transform="matrix(0.0087890625,0,0,0.0087890625,97.2158203125,0)" xlink:href="#aW"/><use transform="matrix(0.0087890625,0,0,0.0087890625,108.017578125,0)" xlink:href="#au"/><use transform="matrix(0.0087890625,0,0,0.0087890625,118.8193359375,0)" xlink:href="#aY"/><use transform="matrix(0.0087890625,0,0,0.0087890625,129.62109375,0)" xlink:href="#aZ"/><use transform="matrix(0.0087890625,0,0,0.0087890625,140.4228515625,0)" xlink:href="#at"/></g><path d="M141-911c0-296 172-459 469-459 157 0 276 55 356 166s121 278 121 501c-1 324-87 567-297 677-134 70-367 56-475-22-71-52-117-126-145-226l172-27c34 111 103 176 238 176 187 0 261-138 304-298 16-65 24-141 25-227-59 121-177 199-350 199-275 0-418-184-418-460zm461 318c168 0 289-96 289-269 0-158-59-275-163-332-36-20-77-30-124-30-187 0-280 125-280 313s90 318 278 318" id="ba"/><g id="w"><use transform="matrix(0.0087890625,0,0,0.0087890625,0,0)" xlink:href="#ap"/><use transform="matrix(0.0087890625,0,0,0.0087890625,10.8017578125,0)" xlink:href="#aT"/><use transform="matrix(0.0087890625,0,0,0.0087890625,21.603515625,0)" xlink:href="#av"/><use transform="matrix(0.0087890625,0,0,0.0087890625,32.4052734375,0)" xlink:href="#ap"/><use transform="matrix(0.0087890625,0,0,0.0087890625,43.20703125,0)" xlink:href="#as"/><use transform="matrix(0.0087890625,0,0,0.0087890625,54.0087890625,0)" xlink:href="#au"/><use transform="matrix(0.0087890625,0,0,0.0087890625,64.810546875,0)" xlink:href="#ap"/><use transform="matrix(0.0087890625,0,0,0.0087890625,75.6123046875,0)" xlink:href="#as"/><use transform="matrix(0.0087890625,0,0,0.0087890625,86.4140625,0)" xlink:href="#aX"/><use transform="matrix(0.0087890625,0,0,0.0087890625,97.2158203125,0)" xlink:href="#ba"/><use transform="matrix(0.0087890625,0,0,0.0087890625,108.017578125,0)" xlink:href="#at"/><use transform="matrix(0.0087890625,0,0,0.0087890625,118.8193359375,0)" xlink:href="#aZ"/><use transform="matrix(0.0087890625,0,0,0.0087890625,129.62109375,0)" xlink:href="#ba"/><use transform="matrix(0.0087890625,0,0,0.0087890625,140.4228515625,0)" xlink:href="#ax"/><use transform="matrix(0.0087890625,0,0,0.0087890625,151.224609375,0)" xlink:href="#ax"/><use transform="matrix(0.0087890625,0,0,0.0087890625,162.0263671875,0)" xlink:href="#ax"/></g><path d="M698-1104c312 3 392 244 392 558 0 315-82 566-392 566-169 0-277-65-331-184h-5c8 188 2 394 4 589H185V-858c0-76-1-156-6-224h175c6 52 9 120 10 178h4c58-122 150-202 330-200zm-49 991c225 0 255-203 255-433 0-225-32-419-253-419-236 0-285 192-285 441 0 237 53 411 283 411" id="bb"/><path d="M390 276c167 0 266-82 266-251v-965H249v-142h587V28c-4 270-165 397-431 397-107 0-208-16-288-43V242c80 18 173 34 273 34zm246-1568v-192h200v192H636" id="bc"/><g id="x"><use transform="matrix(0.0087890625,0,0,0.0087890625,0,0)" xlink:href="#ap"/><use transform="matrix(0.0087890625,0,0,0.0087890625,10.8017578125,0)" xlink:href="#aJ"/><use transform="matrix(0.0087890625,0,0,0.0087890625,21.603515625,0)" xlink:href="#aU"/><use transform="matrix(0.0087890625,0,0,0.0087890625,32.4052734375,0)" xlink:href="#aR"/><use transform="matrix(0.0087890625,0,0,0.0087890625,43.20703125,0)" xlink:href="#ap"/><use transform="matrix(0.0087890625,0,0,0.0087890625,54.0087890625,0)" xlink:href="#bb"/><use transform="matrix(0.0087890625,0,0,0.0087890625,64.810546875,0)" xlink:href="#aM"/><use transform="matrix(0.0087890625,0,0,0.0087890625,75.6123046875,0)" xlink:href="#aI"/><use transform="matrix(0.0087890625,0,0,0.0087890625,86.4140625,0)" xlink:href="#bc"/><use transform="matrix(0.0087890625,0,0,0.0087890625,97.2158203125,0)" xlink:href="#aK"/><use transform="matrix(0.0087890625,0,0,0.0087890625,108.017578125,0)" xlink:href="#aT"/><use transform="matrix(0.0087890625,0,0,0.0087890625,118.8193359375,0)" xlink:href="#aR"/><use transform="matrix(0.0087890625,0,0,0.0087890625,129.62109375,0)" xlink:href="#aW"/><use transform="matrix(0.0087890625,0,0,0.0087890625,140.4228515625,0)" xlink:href="#aY"/><use transform="matrix(0.0087890625,0,0,0.0087890625,151.224609375,0)" xlink:href="#au"/><use transform="matrix(0.0087890625,0,0,0.0087890625,162.0263671875,0)" xlink:href="#aX"/><use transform="matrix(0.0087890625,0,0,0.0087890625,172.828125,0)" xlink:href="#at"/></g><path d="M1065-1013c47 164 49 500-1 665C999-130 875 20 611 20c-377 0-484-300-487-695-2-245 41-425 141-551 77-98 191-144 352-144 261 0 386 140 448 357zM741-155c199-92 203-504 159-785-26-168-96-284-283-284-281 0-308 256-311 549-2 181 18 324 80 428 46 77 115 118 227 120 47 0 90-10 128-28" id="bd"/><g id="y"><use transform="matrix(0.0087890625,0,0,0.0087890625,0,0)" xlink:href="#ap"/><use transform="matrix(0.0087890625,0,0,0.0087890625,10.8017578125,0)" xlink:href="#av"/><use transform="matrix(0.0087890625,0,0,0.0087890625,21.603515625,0)" xlink:href="#aq"/><use transform="matrix(0.0087890625,0,0,0.0087890625,32.4052734375,0)" xlink:href="#ap"/><use transform="matrix(0.0087890625,0,0,0.0087890625,43.20703125,0)" xlink:href="#ba"/><use transform="matrix(0.0087890625,0,0,0.0087890625,54.0087890625,0)" xlink:href="#as"/><use transform="matrix(0.0087890625,0,0,0.0087890625,64.810546875,0)" xlink:href="#ap"/><use transform="matrix(0.0087890625,0,0,0.0087890625,75.6123046875,0)" xlink:href="#bd"/><use transform="matrix(0.0087890625,0,0,0.0087890625,86.4140625,0)" xlink:href="#ar"/><use transform="matrix(0.0087890625,0,0,0.0087890625,97.2158203125,0)" xlink:href="#au"/><use transform="matrix(0.0087890625,0,0,0.0087890625,108.017578125,0)" xlink:href="#av"/><use transform="matrix(0.0087890625,0,0,0.0087890625,118.8193359375,0)" xlink:href="#at"/><use transform="matrix(0.0087890625,0,0,0.0087890625,129.62109375,0)" xlink:href="#aY"/><use transform="matrix(0.0087890625,0,0,0.0087890625,140.4228515625,0)" xlink:href="#ax"/><use transform="matrix(0.0087890625,0,0,0.0087890625,151.224609375,0)" xlink:href="#ax"/><use transform="matrix(0.0087890625,0,0,0.0087890625,162.0263671875,0)" xlink:href="#ax"/></g><path d="M745-142h380V0H143v-142h422v-798H246v-142h499v940zM545-1292v-192h200v192H545" id="be"/><path d="M715 0H502L69-1082h202c94 253 197 500 285 758 19 57 36 126 52 183 96-335 234-626 350-941h201" id="bf"/><g id="z"><use transform="matrix(0.0087890625,0,0,0.0087890625,0,0)" xlink:href="#ap"/><use transform="matrix(0.0087890625,0,0,0.0087890625,10.8017578125,0)" xlink:href="#aH"/><use transform="matrix(0.0087890625,0,0,0.0087890625,21.603515625,0)" xlink:href="#aI"/><use transform="matrix(0.0087890625,0,0,0.0087890625,32.4052734375,0)" xlink:href="#aJ"/><use transform="matrix(0.0087890625,0,0,0.0087890625,43.20703125,0)" xlink:href="#aK"/><use transform="matrix(0.0087890625,0,0,0.0087890625,54.0087890625,0)" xlink:href="#ap"/><use transform="matrix(0.0087890625,0,0,0.0087890625,64.810546875,0)" xlink:href="#aL"/><use transform="matrix(0.0087890625,0,0,0.0087890625,75.6123046875,0)" xlink:href="#aI"/><use transform="matrix(0.0087890625,0,0,0.0087890625,86.4140625,0)" xlink:href="#aM"/><use transform="matrix(0.0087890625,0,0,0.0087890625,97.2158203125,0)" xlink:href="#aN"/><use transform="matrix(0.0087890625,0,0,0.0087890625,108.017578125,0)" xlink:href="#ap"/><use transform="matrix(0.0087890625,0,0,0.0087890625,118.8193359375,0)" xlink:href="#bb"/><use transform="matrix(0.0087890625,0,0,0.0087890625,129.62109375,0)" xlink:href="#aM"/><use transform="matrix(0.0087890625,0,0,0.0087890625,140.4228515625,0)" xlink:href="#be"/><use transform="matrix(0.0087890625,0,0,0.0087890625,151.224609375,0)" xlink:href="#bf"/><use transform="matrix(0.0087890625,0,0,0.0087890625,162.0263671875,0)" xlink:href="#aQ"/><use transform="matrix(0.0087890625,0,0,0.0087890625,172.828125,0)" xlink:href="#at"/><use transform="matrix(0.0087890625,0,0,0.0087890625,183.6298828125,0)" xlink:href="#aP"/><use transform="matrix(0.0087890625,0,0,0.0087890625,194.431640625,0)" xlink:href="#aR"/><use transform="matrix(0.0087890625,0,0,0.0087890625,205.2333984375,0)" xlink:href="#aP"/></g><path d="M1060-1016c0 191-128 285-295 323v4c154 18 262 91 313 209 14 35 21 72 21 110 0 277-194 390-478 390-292 0-457-129-493-382l186-17c24 161 121 250 307 250 172 1 298-80 291-247-8-208-220-239-446-233v-156c217 9 409-34 409-232 0-152-102-225-264-225-159 0-264 88-278 233l-181-14c33-239 196-367 461-367 264 0 447 102 447 354" id="bg"/><g id="A"><use transform="matrix(0.0087890625,0,0,0.0087890625,0,0)" xlink:href="#ap"/><use transform="matrix(0.0087890625,0,0,0.0087890625,10.8017578125,0)" xlink:href="#aw"/><use transform="matrix(0.0087890625,0,0,0.0087890625,21.603515625,0)" xlink:href="#aY"/><use transform="matrix(0.0087890625,0,0,0.0087890625,32.4052734375,0)" xlink:href="#ap"/><use transform="matrix(0.0087890625,0,0,0.0087890625,43.20703125,0)" xlink:href="#bg"/><use transform="matrix(0.0087890625,0,0,0.0087890625,54.0087890625,0)" xlink:href="#au"/><use transform="matrix(0.0087890625,0,0,0.0087890625,64.810546875,0)" xlink:href="#ap"/><use transform="matrix(0.0087890625,0,0,0.0087890625,75.6123046875,0)" xlink:href="#au"/><use transform="matrix(0.0087890625,0,0,0.0087890625,86.4140625,0)" xlink:href="#aX"/><use transform="matrix(0.0087890625,0,0,0.0087890625,97.2158203125,0)" xlink:href="#aX"/><use transform="matrix(0.0087890625,0,0,0.0087890625,108.017578125,0)" xlink:href="#aw"/><use transform="matrix(0.0087890625,0,0,0.0087890625,118.8193359375,0)" xlink:href="#aX"/><use transform="matrix(0.0087890625,0,0,0.0087890625,129.62109375,0)" xlink:href="#at"/><use transform="matrix(0.0087890625,0,0,0.0087890625,140.4228515625,0)" xlink:href="#ax"/><use transform="matrix(0.0087890625,0,0,0.0087890625,151.224609375,0)" xlink:href="#ax"/><use transform="matrix(0.0087890625,0,0,0.0087890625,162.0263671875,0)" xlink:href="#ax"/></g><g id="B"><use transform="matrix(0.0087890625,0,0,0.0087890625,0,0)" xlink:href="#ap"/><use transform="matrix(0.0087890625,0,0,0.0087890625,10.8017578125,0)" xlink:href="#aP"/><use transform="matrix(0.0087890625,0,0,0.0087890625,21.603515625,0)" xlink:href="#aT"/><use transform="matrix(0.0087890625,0,0,0.0087890625,32.4052734375,0)" xlink:href="#ap"/><use transform="matrix(0.0087890625,0,0,0.0087890625,43.20703125,0)" xlink:href="#av"/><use transform="matrix(0.0087890625,0,0,0.0087890625,54.0087890625,0)" xlink:href="#aw"/><use transform="matrix(0.0087890625,0,0,0.0087890625,64.810546875,0)" xlink:href="#ap"/><use transform="matrix(0.0087890625,0,0,0.0087890625,75.6123046875,0)" xlink:href="#ba"/><use transform="matrix(0.0087890625,0,0,0.0087890625,86.4140625,0)" xlink:href="#ar"/><use transform="matrix(0.0087890625,0,0,0.0087890625,97.2158203125,0)" xlink:href="#bd"/><use transform="matrix(0.0087890625,0,0,0.0087890625,108.017578125,0)" xlink:href="#aY"/><use transform="matrix(0.0087890625,0,0,0.0087890625,118.8193359375,0)" xlink:href="#as"/><use transform="matrix(0.0087890625,0,0,0.0087890625,129.62109375,0)" xlink:href="#au"/><use transform="matrix(0.0087890625,0,0,0.0087890625,140.4228515625,0)" xlink:href="#ax"/><use transform="matrix(0.0087890625,0,0,0.0087890625,151.224609375,0)" xlink:href="#ax"/><use transform="matrix(0.0087890625,0,0,0.0087890625,162.0263671875,0)" xlink:href="#ax"/></g><path fill="#82755b" d="M119 0H84L31-248h34l41 218 126-218h36" id="bh"/><path fill="#82755b" d="M30-147c31-64 166-65 159 27C183-49 158 1 86 4 9 8 1-88 30-147zM88-20c53 0 68-48 68-100 0-31-11-51-44-50-52 1-68 46-68 97 0 32 13 53 44 53" id="bi"/><path fill="#82755b" d="M6 0l50-261h32L37 0H6" id="bj"/><path fill="#82755b" d="M67 3c-93-2-31-127-26-193h32L48-50c-3 39 53 32 70 12 30-34 30-101 43-152h32L157 0h-30c1-10 6-24 4-33-14 20-29 37-64 36" id="bk"/><path fill="#82755b" d="M248-111c6-24 9-61-24-58-72 9-57 108-77 169h-31l26-142c3-37-50-30-64-10C52-115 50-51 37 0H6l36-190h30c-1 10-6 24-4 32 13-43 101-52 105 5 13-22 29-41 61-41 90 0 28 129 23 194h-31" id="bl"/><path fill="#82755b" d="M111-194c62-3 86 47 72 106H45c-7 38 6 69 45 68 27-1 43-14 53-32l24 11C152-15 129 4 87 4 38 3 12-23 12-71c0-70 32-119 99-123zm44 81c14-66-71-72-95-28-4 8-8 17-11 28h106" id="bm"/><path fill="#82755b" d="M18-82l6-28h88l-6 28H18" id="bn"/><path fill="#82755b" d="M89 0H52L20-190h33L74-25l89-165h34" id="bo"/><g id="C"><use transform="matrix(0.05,0,0,0.05,0,0)" xlink:href="#bh"/><use transform="matrix(0.05,0,0,0.05,11.35,0)" xlink:href="#bi"/><use transform="matrix(0.05,0,0,0.05,21.35,0)" xlink:href="#bj"/><use transform="matrix(0.05,0,0,0.05,25.3,0)" xlink:href="#bk"/><use transform="matrix(0.05,0,0,0.05,35.3,0)" xlink:href="#bl"/><use transform="matrix(0.05,0,0,0.05,50.25,0)" xlink:href="#bm"/><use transform="matrix(0.05,0,0,0.05,60.25,0)" xlink:href="#bn"/><use transform="matrix(0.05,0,0,0.05,66.2,0)" xlink:href="#bj"/><use transform="matrix(0.05,0,0,0.05,70.15,0)" xlink:href="#bm"/><use transform="matrix(0.05,0,0,0.05,80.15,0)" xlink:href="#bo"/><use transform="matrix(0.05,0,0,0.05,89.15,0)" xlink:href="#bm"/><use transform="matrix(0.05,0,0,0.05,99.15,0)" xlink:href="#bj"/></g><path fill="#82755b" d="M133-28C103 26-5 8 13-77c13-62 24-115 90-117 29-1 46 15 56 35 2-12 6-24 8-34h31L144 75h-31zM45-64c-2 27 10 43 35 43 54-1 69-50 69-103 0-29-15-46-42-46-53-1-58 58-62 106" id="bp"/><path fill="#82755b" d="M51-54c-9 22 5 41 31 30L79-1C43 14 10-4 19-52l22-115H19l5-23h22l19-43h21l-9 43h35l-4 23H73" id="bq"/><path fill="#82755b" d="M165-48c-4 18 1 34 23 27l-3 20c-29 8-62 0-52-35h-2C116-14 99 4 63 4 30 4 8-16 8-49c0-68 71-67 138-67 10-26 0-56-31-54-26 1-42 9-47 31l-32-5c8-67 160-71 144 15-5 28-9 54-15 81zM42-50c3 52 80 24 89-6 7-12 7-24 11-38-47 1-103-4-100 44" id="br"/><g id="D"><use transform="matrix(0.05,0,0,0.05,0,0)" xlink:href="#bp"/><use transform="matrix(0.05,0,0,0.05,10,0)" xlink:href="#bk"/><use transform="matrix(0.05,0,0,0.05,20,0)" xlink:href="#bi"/><use transform="matrix(0.05,0,0,0.05,30,0)" xlink:href="#bq"/><use transform="matrix(0.05,0,0,0.05,35,0)" xlink:href="#br"/></g></defs></g></svg>