<?xml version="1.0" encoding="UTF-8" standalone="no"?><!DOCTYPE svg PUBLIC "-//W3C//DTD SVG 1.1//EN" "http://www.w3.org/Graphics/SVG/1.1/DTD/svg11.dtd"><svg width="100%" height="100%" viewBox="0 0 2280 1600" version="1.1" xmlns="http://www.w3.org/2000/svg" xmlns:xlink="http://www.w3.org/1999/xlink" xml:space="preserve" xmlns:serif="http://www.serif.com/" style="fill-rule:evenodd;clip-rule:evenodd;stroke-linejoin:round;stroke-miterlimit:1.41421;"><g id="Layer-1" serif:id="Layer 1"><path d="M1540.12,309.07l618.132,0l0,-309.066l-618.132,0l0,309.066Zm80,-229.067l458.132,0l0,149.067l-458.132,0l0,-149.067Z" style="fill:#36b077;fill-rule:nonzero;"/><path d="M1540.12,1236.27l618.132,0l0,-309.067l-618.132,0l0,309.067Zm80,-229.067l458.132,0l0,149.068l-458.132,0l0,-149.068Z" style="fill:#36b077;fill-rule:nonzero;"/><path d="M966.486,576.928l0,82.418l-223.44,0c-18.169,0 -32.899,-18.449 -32.899,-41.209c0,-22.759 14.73,-41.209 32.899,-41.209l223.44,0Zm232.792,0l525.789,0c18.168,0 32.899,18.45 32.899,41.209c0,22.76 -14.731,41.208 -32.899,41.209l-525.789,0l0,-82.418Z" style="fill:#b0d8a5;fill-rule:nonzero;"/><path d="M2003.72,618.137c0,85.347 -69.188,154.533 -154.533,154.533c-85.347,0 -154.533,-69.186 -154.533,-154.533c0,-85.346 69.186,-154.533 154.533,-154.533c85.345,0 154.533,69.187 154.533,154.533Zm-154.533,77.468c42.779,0 77.469,-34.69 77.469,-77.468c0,-42.779 -34.69,-77.468 -77.469,-77.468c-42.777,0 -77.467,34.689 -77.467,77.468c0,42.778 34.69,77.468 77.467,77.468Z" style="fill:#b1d9a5;fill-rule:nonzero;"/><path d="M772.176,618.137c0,85.347 -69.188,154.533 -154.533,154.533c-85.347,0 -154.533,-69.186 -154.533,-154.533c0,-85.346 69.186,-154.533 154.533,-154.533c85.345,0 154.533,69.187 154.533,154.533Zm-154.533,77.468c42.779,0 77.469,-34.69 77.469,-77.468c0,-42.779 -34.69,-77.468 -77.469,-77.468c-42.777,0 -77.467,34.689 -77.467,77.468c0,42.778 34.69,77.468 77.467,77.468Z" style="fill:#b1d9a5;fill-rule:nonzero;"/><path d="M928.17,0.004l-618.134,0c-170.692,0 -309.066,138.374 -309.066,309.066l0,927.201l309.066,0l0,-824.178c0,-56.898 46.125,-103.023 103.023,-103.023l412.089,0c56.897,0 103.022,46.125 103.022,103.023l0,824.178l309.066,0l0,-927.201c0,-170.692 -138.373,-309.066 -309.066,-309.066m0,80c61.186,0 118.71,23.827 161.975,67.092c43.264,43.264 67.091,100.788 67.091,161.974l0,847.201l-149.066,0l0,-744.178c0,-24.673 -4.85,-48.65 -14.416,-71.265c-9.222,-21.804 -22.407,-41.369 -39.19,-58.152c-16.783,-16.782 -36.348,-29.968 -58.151,-39.19c-22.616,-9.566 -46.593,-14.416 -71.265,-14.416l-412.089,0c-24.673,0 -48.65,4.85 -71.265,14.416c-21.804,9.222 -41.369,22.408 -58.151,39.19c-16.783,16.783 -29.969,36.348 -39.191,58.151c-9.566,22.616 -14.416,46.593 -14.416,71.266l0,744.178l-149.066,0l0,-847.201c0,-61.186 23.827,-118.71 67.092,-161.974c43.265,-43.265 100.788,-67.092 161.974,-67.092l618.134,0" style="fill:#36b077;fill-rule:nonzero;"/></g><g id="Layer-11" serif:id="Layer 1"><path d="M739.986,1267.57l59.921,0c66.187,0 119.843,59.471 119.843,132.832l-59.921,0c0,-36.681 -26.828,-66.416 -59.922,-66.416l-59.921,0c-33.093,0 -59.921,29.735 -59.921,66.416l0,66.415c0,36.681 26.828,66.416 59.921,66.416l59.921,0c33.094,0 59.922,-29.735 59.922,-66.416l59.921,0c0,73.361 -53.656,132.832 -119.843,132.832l-59.921,0c-66.186,0 -119.842,-59.471 -119.842,-132.832l0,-66.415c0,-73.361 53.656,-132.832 119.842,-132.832" style="fill:#34505c;fill-rule:nonzero;"/><path d="M929.736,1267.57l59.921,0l0,171.751l155.006,-171.751l84.678,0l-149.802,166.039l149.802,166.04l-84.596,0l-107.497,-119.151l-47.591,52.735l0,66.416l-59.921,0l0,-332.079Z" style="fill:#34505c;fill-rule:nonzero;"/><path d="M1239.33,1267.57l299.605,0.07l0,66.346l-239.684,0l0,199.247l239.684,0l0,66.416l-299.605,0l0,-332.079Z" style="fill:#34505c;fill-rule:nonzero;"/><path d="M2098.2,1533.23l-179.764,0l0.001,-199.247l119.859,0.035c33.087,0.01 59.904,29.742 59.904,66.416l0,132.796Zm-59.896,-265.621l-179.788,-0.042l0,332.079l299.605,0l0,-199.205c0,-73.35 -53.639,-132.816 -119.817,-132.832" style="fill:#34505c;fill-rule:nonzero;"/><path d="M425.32,1444.68l-249.76,0c-4.597,0 -8.325,-4.955 -8.325,-11.069c0,-6.114 3.728,-11.069 8.325,-11.069l249.76,0c4.597,0 8.325,4.955 8.325,11.069c0,6.114 -3.728,11.069 -8.325,11.069" style="fill:#36b076;fill-rule:nonzero;"/><path d="M180.618,1433.61c0,18.34 -13.414,33.208 -29.96,33.208c-16.546,0 -29.961,-14.868 -29.961,-33.208c0,-18.34 13.415,-33.207 29.961,-33.207c16.546,0 29.96,14.867 29.96,33.207Z" style="fill:#36b076;fill-rule:nonzero;"/><path d="M480.354,1433.61c0,18.34 -13.414,33.208 -29.96,33.208c-16.547,0 -29.961,-14.868 -29.961,-33.208c0,-18.34 13.414,-33.207 29.961,-33.207c16.546,0 29.96,14.867 29.96,33.207Z" style="fill:#36b076;fill-rule:nonzero;"/><path d="M1448.77,1433.61c0,18.34 -13.415,33.208 -29.961,33.208c-16.546,0 -29.961,-14.868 -29.961,-33.208c0,-18.34 13.415,-33.207 29.961,-33.207c16.546,0 29.961,14.867 29.961,33.207Z" style="fill:#36b076;fill-rule:nonzero;"/><path d="M1728.8,1433.61c0,18.34 -13.415,33.208 -29.961,33.208c-16.546,0 -29.96,-14.868 -29.96,-33.208c0,-18.34 13.414,-33.207 29.96,-33.207c16.546,0 29.961,14.867 29.961,33.207Z" style="fill:#36b076;fill-rule:nonzero;"/><path d="M310.552,1599.65l0,-199.247c0,-73.361 53.655,-132.832 119.842,-132.832l59.921,0c66.187,0 119.842,59.471 119.842,132.832l0,199.247l-59.921,0l0,-199.247c0,-36.681 -26.827,-66.416 -59.921,-66.416l-59.921,0c-33.093,0 -59.921,29.735 -59.921,66.416l0,199.247l-59.921,0Z" style="fill:#34505c;fill-rule:nonzero;"/><path d="M240.644,1533.23l-179.764,0l0.001,-199.247l119.858,0.035c33.088,0.01 59.905,29.742 59.905,66.416l0,132.796Zm-59.896,-265.621l-179.788,-0.042l0,332.079l299.605,0l0,-199.205c0,-73.35 -53.639,-132.816 -119.817,-132.832" style="fill:#34505c;fill-rule:nonzero;"/><path d="M1671.9,1444.68l-226.047,0c-4.458,0 -8.073,-4.955 -8.073,-11.069c0,-6.114 3.615,-11.069 8.073,-11.069l226.047,0c4.458,0 8.074,4.955 8.074,11.069c0,6.114 -3.616,11.069 -8.074,11.069" style="fill:#36b076;fill-rule:nonzero;"/><path d="M1608.84,1267.57l47.59,61.084l-47.59,47.949l0,223.046l-59.921,0l0,-332.079l59.921,0Z" style="fill:#34505c;fill-rule:nonzero;"/><path d="M1788.6,1599.65l-47.589,-61.084l47.589,-47.949l0,-223.046l59.921,0l0,332.079l-59.921,0Z" style="fill:#34505c;fill-rule:nonzero;"/><rect x="2218.04" y="1533.23" width="59.921" height="66.416" style="fill:#34505c;"/></g></svg>