<svg xmlns="http://www.w3.org/2000/svg" viewBox="0 0 80 80"><circle cx="30.87" cy="54.2" r="5.95" style="fill:#292c31"/><rect x="24.15" y="20.97" width="13.65" height="14.89" style="fill:#292c31"/><path d="M80,39.85,72.42,16.63a.45.45,0,0,0-.18-.25L52.49,2A.48.48,0,0,0,52.2,2H27.79a.47.47,0,0,0-.28.09L7.75,16.38a.45.45,0,0,0-.18.25L0,39.85a.51.51,0,0,0,0,.3L7.57,63.37a.45.45,0,0,0,.18.25L27.51,78a.52.52,0,0,0,.29.09H52.22a.5.5,0,0,0,.29-.09L72.26,63.61a.45.45,0,0,0,.18-.25L80,40.14A.57.57,0,0,0,80,39.85ZM30.87,64.74A10.42,10.42,0,1,1,41.3,54.32h0A10.42,10.42,0,0,1,30.87,64.74ZM42.35,35.35a.08.08,0,0,1-.07.1H37.8V39.9a.1.1,0,0,1-.08.1H24.25a.09.09,0,0,1-.1-.07V35.86H19.7a.08.08,0,0,1-.1-.07V21.07a.09.09,0,0,1,.07-.1h4.48V16.53a.09.09,0,0,1,.07-.11H37.7a.1.1,0,0,1,.1.08V21h4.45a.1.1,0,0,1,.1.07V35.35Zm24.4,14-4.32,3a.32.32,0,0,1-.14,0h-8a.28.28,0,0,1-.13,0L48.05,48s-.1-.07-.1-.1l-2.29-7.12V41L48,33.61s.06-.07.1-.1l6.11-4.64a.23.23,0,0,1,.14,0h7.59a.23.23,0,0,1,.14,0l4.53,3.44s.07.1,0,.14L63.7,35.67a.11.11,0,0,1-.13,0l-3-2.25a.22.22,0,0,0-.13,0l-4.74-.07a.23.23,0,0,0-.14,0l-3.81,2.92s-.1.07-.1.1L50.21,41v.15l1.47,4.29s.07.07.1.1l3.82,2.69a.17.17,0,0,0,.14,0l5,.07a.22.22,0,0,0,.13,0L64,46.09s.1-.06.13,0l2.72,3.14a.1.1,0,0,1,0,.13Z" style="fill:#292c31"/></svg>