<?xml version="1.0" encoding="utf-8"?>
<!-- Generator: Adobe Illustrator 27.0.0, SVG Export Plug-In . SVG Version: 6.00 Build 0)  -->
<svg version="1.1" id="Layer_1" xmlns="http://www.w3.org/2000/svg" xmlns:xlink="http://www.w3.org/1999/xlink" x="0px" y="0px"
	 viewBox="0 0 56.69 56.69" style="enable-background:new 0 0 56.69 56.69;" xml:space="preserve">
<style type="text/css">
	.st0{fill:#FFFFFF;}
</style>
<rect class="st0" width="56.69" height="56.69"/>
<path d="M31.73,9.05c-10.12,0-18.27,7.9-18.58,18c-0.01,0.03-0.01,0.07-0.01,0.1v0.49v6.76v12.68c0,0.31,0.25,0.56,0.56,0.56h6.42
	c0.31,0,0.56-0.25,0.56-0.56V31.36c0-0.02,0-0.03,0-0.05v-3.67c0-6.09,4.96-11.05,11.05-11.05c2.33,0,4.55,0.71,6.43,2.07
	c0.1,0.07,0.21,0.1,0.33,0.1c0.15,0,0.29-0.06,0.4-0.17l4.51-4.63c0.11-0.11,0.17-0.27,0.16-0.43c-0.01-0.16-0.08-0.3-0.21-0.4
	C40.07,10.5,35.94,9.05,31.73,9.05"/>
<g>
	<path d="M43.79,56.69H12.9C5.79,56.69,0,50.9,0,43.79V12.9C0,5.79,5.79,0,12.9,0h30.89c7.11,0,12.9,5.79,12.9,12.9v30.89
		C56.69,50.9,50.9,56.69,43.79,56.69z M12.9,2.39C7.11,2.39,2.39,7.11,2.39,12.9v30.89c0,5.79,4.71,10.51,10.51,10.51h30.89
		c5.79,0,10.51-4.71,10.51-10.51V12.9c0-5.79-4.71-10.51-10.51-10.51H12.9z"/>
</g>
</svg>
