<svg xmlns="http://www.w3.org/2000/svg" viewBox="0 0 128 128">
    <defs>
        <style type="text/css">.cls-1{fill:#4285f4;}.cls-2{opacity:0.07;}.cls-3{fill:#fff;}</style>
    </defs>
    <title>128px_TPU</title>
    <g id="Guides">
        <path class="cls-1"
              d="M27.74,115.21,1.51,69.78a11.49,11.49,0,0,1,0-11.49L27.74,12.85a11.49,11.49,0,0,1,10-5.75H90.15a11.49,11.49,0,0,1,10,5.75l26.23,45.43a11.49,11.49,0,0,1,0,11.49L100.1,115.21a11.49,11.49,0,0,1-10,5.75H37.69A11.49,11.49,0,0,1,27.74,115.21Z"/>
        <path class="cls-2"
              d="M81.47,45.36,63,44l-5.76,3.21-8.74.12-2.37,34L58.74,94.08,84.6,119.85l1.11,1.07c8.83.81,12.24-2.25,14.45-5.82l18.76-32.62Z"/>
        <path class="cls-3"
              d="M77.25,49.49l.15,0a1.46,1.46,0,0,1,1.14,1.14l0,.15V76.93l0,.15a1.46,1.46,0,0,1-1.14,1.14l-.15,0H51.12l-.15,0a1.46,1.46,0,0,1-1.14-1.14l0-.15V50.8l0-.15A1.46,1.46,0,0,1,51,49.52l.15,0H77.25m1.21-11.82H72.78V44H67.64V37.67H62V44H55.59V37.67H49.91v6.45a7,7,0,0,0-5.47,5.47h-7v5.68h6.86v6.38H37.44v5.68h6.86v5.14H37.44v5.68h7a7,7,0,0,0,5.47,5.47v7.05h5.68V83.74H62v6.92h5.68V83.74h5.14v6.92h5.68V83.61a7,7,0,0,0,5.47-5.47h6.51V72.46H84.06V67.32h6.37V61.64H84.06V55.27h6.37V49.59H83.93a7,7,0,0,0-5.47-5.47V37.67Z"/>
        <path class="cls-3" d="M49.11,58.14a1,1,0,0,1-.13-2l6.14-.83a1,1,0,0,1,.27,2l-6.14.83Z"/>
        <rect class="cls-3" x="61.49" y="52.25" width="2" height="11.64"
              transform="translate(-12.09 99.49) rotate(-71.95)"/>
        <path class="cls-3"
              d="M56.33,56.9a1,1,0,0,1-1-1.28L57.61,48a1,1,0,1,1,1.92.57l-2.24,7.59A1,1,0,0,1,56.33,56.9Z"/>
        <path class="cls-3" d="M70,60.63a1,1,0,0,1-.93-1.37l4.48-11.32a1,1,0,1,1,1.86.74L70.94,60A1,1,0,0,1,70,60.63Z"/>
        <rect class="cls-3" x="46.11" y="72.36" width="13.43" height="2"
              transform="translate(-34.23 49) rotate(-38.61)"/>
        <rect class="cls-3" x="73.74" y="56.95" width="2" height="10.58"
              transform="translate(-12.18 105.88) rotate(-66.45)"/>
        <rect class="cls-3" x="73.16" y="68.8" width="2" height="11.85"
              transform="translate(-31.08 77.45) rotate(-46.7)"/>
        <rect class="cls-3" x="56.32" y="56.45" width="2" height="10.83"
              transform="translate(-11.17 12.65) rotate(-11.48)"/>
        <rect class="cls-3" x="57.25" y="63.69" width="14.57" height="2"
              transform="translate(-26.64 58.7) rotate(-41.31)"/>
        <rect class="cls-3" x="64.53" y="64.19" width="10.64" height="2"
              transform="translate(0.43 130.83) rotate(-86.42)"/>
        <circle class="cls-3" cx="58.55" cy="69.33" r="3.64"/>
        <circle class="cls-3" cx="70.17" cy="60.11" r="4.31"/>
        <circle class="cls-3" cx="70.13" cy="71.26" r="2.26"/>
        <circle class="cls-3" cx="55.96" cy="55.59" r="2.65"/>
    </g>
</svg>
