<?xml version="1.0" encoding="UTF-8" standalone="no"?>
<!DOCTYPE svg PUBLIC "-//W3C//DTD SVG 1.1//EN" "http://www.w3.org/Graphics/SVG/1.1/DTD/svg11.dtd">
<svg width="100%" height="100%" viewBox="0 0 1920 1080" version="1.1" xmlns="http://www.w3.org/2000/svg" xmlns:xlink="http://www.w3.org/1999/xlink" xml:space="preserve" xmlns:serif="http://www.serif.com/" style="fill-rule:evenodd;clip-rule:evenodd;stroke-linejoin:round;stroke-miterlimit:2;">
    <g id="레이어-1" serif:id="레이어 1">
        <g transform="matrix(1,0,0,1,1624.14,447.545)">
            <path d="M0,33.583L25.602,33.583L12.646,0L0,33.583Z" style="fill:rgb(255,157,0);fill-rule:nonzero;"/>
        </g>
        <g transform="matrix(1,0,0,1,0,-125.727)">
            <path d="M1698.66,635.462L1685.6,635.462L1685.6,562.388L1698.66,562.388L1698.66,635.462ZM1660.32,635.462L1653.58,617.324L1620.41,617.324L1613.67,635.462L1599.78,635.462L1629.12,562.389L1645.18,562.389L1674.93,635.462L1660.32,635.462ZM1687.58,536.023L1620.98,536.023C1585.07,536.023 1555.69,565.399 1555.69,601.304L1555.69,604.424C1555.69,640.328 1585.07,669.704 1620.98,669.704L1687.58,669.704C1723.49,669.704 1752.87,640.328 1752.87,604.424L1752.87,601.304C1752.87,565.399 1723.49,536.023 1687.58,536.023" style="fill:rgb(255,157,0);fill-rule:nonzero;"/>
        </g>
        <g transform="matrix(1,0,0,1,255.758,472.175)">
            <path d="M0,162.579C29.021,162.579 47.432,148.537 47.432,116.083C47.432,83.63 29.021,69.587 0,69.587C-28.709,69.587 -48.368,83.63 -48.368,116.083C-48.368,148.537 -28.709,162.579 0,162.579M-88.623,194.408L-88.623,-34.95L-48.368,-34.95L-48.368,52.737L-55.545,76.765L-45.248,76.765C-37.758,54.297 -20.284,34.638 17.163,34.638C62.41,34.638 87.686,70.836 87.686,116.083C87.686,161.33 62.41,197.529 17.163,197.529C-20.284,197.529 -37.758,177.869 -45.248,155.714L-55.545,155.714L-48.368,179.43L-48.368,194.408L-88.623,194.408Z" style="fill-rule:nonzero;"/>
        </g>
        <g transform="matrix(1,0,0,1,454.224,634.754)">
            <path d="M0,-92.991C-29.021,-92.991 -49.616,-80.197 -49.616,-46.495C-49.616,-12.794 -29.021,0.001 0,0.001C28.708,0.001 50.553,-12.794 50.553,-46.495C50.553,-80.197 28.708,-92.991 0,-92.991M90.495,31.83L50.553,31.83L50.553,16.851L57.729,-6.864L47.432,-6.864C39.943,15.291 20.596,34.95 -14.979,34.95C-62.41,34.95 -89.871,-1.248 -89.871,-46.495C-89.871,-91.743 -62.41,-127.941 -14.979,-127.941C20.596,-127.941 39.943,-108.281 47.432,-85.814L57.729,-85.814L50.553,-109.842L50.553,-124.82L90.495,-124.82L90.495,31.83Z" style="fill-rule:nonzero;"/>
        </g>
        <g transform="matrix(1,0,0,1,648.011,669.704)">
            <path d="M0,-162.891C38.07,-162.891 76.765,-141.984 79.885,-97.048L39.631,-97.048C36.51,-117.331 21.219,-127.941 0,-127.941C-28.709,-127.941 -43.063,-108.594 -43.063,-81.445C-43.063,-53.985 -28.709,-34.95 0,-34.95C21.219,-34.95 36.51,-45.559 39.631,-65.843L79.885,-65.843C76.765,-20.907 38.07,0 0,0C-50.24,0 -83.318,-31.829 -83.318,-81.445C-83.318,-130.749 -50.24,-162.891 0,-162.891" style="fill-rule:nonzero;"/>
        </g>
        <g transform="matrix(1,0,0,1,1056.18,604.485)">
            <path d="M0,-32.454C0,-49.616 -11.858,-64.595 -40.879,-64.595C-69.588,-64.595 -82.693,-49.616 -82.693,-32.454L0,-32.454ZM-40.879,-97.673C5.929,-97.673 38.071,-68.964 38.071,-21.22L38.071,-8.114L-82.693,-8.114C-82.07,14.666 -68.651,32.453 -36.198,32.453C-15.29,32.453 -0.624,23.716 3.433,7.177L43.687,7.177C39.319,30.269 16.227,65.219 -36.198,65.219C-94.552,65.219 -120.764,26.524 -120.764,-18.099C-120.764,-68.027 -87.686,-97.673 -40.879,-97.673" style="fill-rule:nonzero;"/>
        </g>
        <g transform="matrix(1,0,0,1,1167.27,569.223)">
            <path d="M0,34.95L0,97.36L-40.254,97.36L-40.254,-59.29L0,-59.29L0,-37.134L-7.176,-13.106L3.121,-13.106C9.362,-41.19 29.021,-62.41 62.723,-62.41C100.793,-62.41 124.51,-38.07 124.51,8.426L124.51,97.36L84.567,97.36L84.567,14.354C84.567,-15.914 74.269,-27.46 49.305,-27.46C19.971,-27.46 0,-8.425 0,34.95" style="fill-rule:nonzero;"/>
        </g>
        <g transform="matrix(1,0,0,1,1404.75,565.166)">
            <path d="M0,-23.403C-29.021,-23.403 -47.431,-9.361 -47.431,23.093C-47.431,55.546 -29.021,69.589 0,69.589C29.021,69.589 48.369,55.546 48.369,23.093C48.369,-9.361 29.021,-23.403 0,-23.403M88.622,101.418L48.369,101.418L48.369,86.439L55.857,62.724L45.248,62.724C37.758,84.879 20.595,104.538 -17.163,104.538C-62.41,104.538 -87.686,68.34 -87.686,23.093C-87.686,-22.155 -62.41,-58.353 -17.163,-58.353C20.595,-58.353 37.758,-38.693 45.248,-16.226L55.857,-16.226L48.369,-40.254L48.369,-127.941L88.622,-127.941L88.622,101.418Z" style="fill-rule:nonzero;"/>
        </g>
        <g transform="matrix(1,0,0,1,867.074,662.882)">
            <path d="M0,-152.949L-73.02,-90.851L-73.02,-156.65L-113.275,-156.65L-113.275,3.701L-73.02,3.701L-73.02,-42.171L-43.999,-66.511L10.61,3.701L58.978,3.701L-15.29,-90.539L58.978,-152.949L0,-152.949Z" style="fill-rule:nonzero;"/>
        </g>
    </g>
</svg>
