<svg xmlns="http://www.w3.org/2000/svg" xmlns:xlink="http://www.w3.org/1999/xlink" xmlns:lucid="lucid" width="914.4" height="369.67"><g transform="translate(0 0)" lucid:page-tab-id="Sr7-x30.RJs7"><path d="M51.85 69.67h253.73v220.47H51.85z" stroke="#000" stroke-width="2" fill="#fff"/><use xlink:href="#a" transform="matrix(1,0,0,1,56.85429566073097,74.66535433070867) translate(62.699999999999996 14.4)"/><use xlink:href="#b" transform="matrix(1,0,0,1,56.85429566073097,74.66535433070867) translate(118.5 14.4)"/><use xlink:href="#c" transform="matrix(1,0,0,1,56.85429566073097,74.66535433070867) translate(168.35 14.4)"/><path d="M899.36 338.38c0 9.94-44.77 18-100 18s-100-8.06-100-18v-144c0-9.94 44.77-18 100-18s100 8.06 100 18z" stroke="#000" stroke-width="2" fill="#ffdba9"/><path d="M899.36 194.38c0 9.94-44.77 18-100 18s-100-8.06-100-18" stroke="#000" stroke-width="2" fill="none"/><use xlink:href="#d" transform="matrix(1,0,0,1,704.362169676479,217.37795275590543) translate(35.27499999999999 14.4)"/><use xlink:href="#e" transform="matrix(1,0,0,1,704.362169676479,217.37795275590543) translate(76.175 14.4)"/><use xlink:href="#f" transform="matrix(1,0,0,1,704.362169676479,217.37795275590543) translate(144.72500000000002 14.4)"/><path d="M899.36 174.6c0 9.94-44.77 18-100 18s-100-8.06-100-18v-144c0-9.94 44.77-18 100-18s100 8.06 100 18z" stroke="#000" stroke-width="2" fill="#ffdba9"/><path d="M899.36 30.6c0 9.94-44.77 18-100 18s-100-8.06-100-18" stroke="#000" stroke-width="2" fill="none"/><use xlink:href="#d" transform="matrix(1,0,0,1,704.362169676479,53.5984251968504) translate(35.27499999999999 14.4)"/><use xlink:href="#e" transform="matrix(1,0,0,1,704.362169676479,53.5984251968504) translate(76.175 14.4)"/><use xlink:href="#g" transform="matrix(1,0,0,1,704.362169676479,53.5984251968504) translate(144.72500000000002 14.4)"/><path d="M341.3 69.67h253.73v220.47H341.3z" stroke="#000" stroke-width="2" fill="#fff"/><use xlink:href="#a" transform="matrix(1,0,0,1,346.30311455836863,74.66535433070867) translate(62.699999999999996 14.4)"/><use xlink:href="#b" transform="matrix(1,0,0,1,346.30311455836863,74.66535433070867) translate(118.5 14.4)"/><use xlink:href="#h" transform="matrix(1,0,0,1,346.30311455836863,74.66535433070867) translate(168.35 14.4)"/><path d="M709.36 256.38h180v31.5h-180z" stroke="#000" fill="#ffc374"/><use xlink:href="#i" transform="matrix(1,0,0,1,714.362169676479,261.3779527559055) translate(9.3876953125 16.396484375)"/><path d="M709.36 287.87h180v31.5h-180z" stroke="#000" fill="#ffc374"/><use xlink:href="#j" transform="matrix(1,0,0,1,714.362169676479,292.87401574803147) translate(9.3876953125 16.396484375)"/><path d="M709.36 101.1h180v31.5h-180z" stroke="#000" fill="#ffc374"/><use xlink:href="#k" transform="matrix(1,0,0,1,714.362169676479,106.10236220472441) translate(9.3876953125 16.396484375)"/><path d="M64.14 173.37H290.9v104.17H64.15z" stroke="#000" stroke-width="2" fill="#e5f5ff"/><use xlink:href="#l" transform="matrix(1,0,0,1,69.13776022766012,178.3661417322834) translate(28.525000000000006 14.4)"/><use xlink:href="#m" transform="matrix(1,0,0,1,69.13776022766012,178.3661417322834) translate(73.47500000000001 14.4)"/><use xlink:href="#n" transform="matrix(1,0,0,1,69.13776022766012,178.3661417322834) translate(104.72500000000001 14.4)"/><path d="M355.66 173.37h226.77v104.17H355.66z" stroke="#000" stroke-width="2" fill="#e5f5ff"/><use xlink:href="#l" transform="matrix(1,0,0,1,360.66056516006233,178.36614173228344) translate(28.525000000000006 14.4)"/><use xlink:href="#o" transform="matrix(1,0,0,1,360.66056516006233,178.36614173228344) translate(73.47500000000001 14.4)"/><use xlink:href="#p" transform="matrix(1,0,0,1,360.66056516006233,178.36614173228344) translate(104.72500000000001 14.4)"/><path d="M76.74 208.25H280.5v30.08H76.74z" stroke="#000" fill="#ffc374"/><use xlink:href="#q" transform="matrix(1,0,0,1,81.73618542451052,213.248031496063) translate(5.18505859375 15.896484375)"/><path d="M76.74 238.33H280.5v30.08H76.74z" stroke="#000" fill="#ffc374"/><use xlink:href="#r" transform="matrix(1,0,0,1,81.73618542451052,243.32677165354332) translate(5.18505859375 15.896484375)"/><path d="M368.17 220.85h200v30.08h-200z" stroke="#000" fill="#ffc374"/><use xlink:href="#s" transform="matrix(1,0,0,1,373.1668792292942,225.84645669291336) translate(8.5859375 15.896484375)"/><path d="M707.95 272.55l-22.34 10.32-21.2 8.74-20.03 7.3-19.5 6.18-19.6 5.32-20.35 4.6-21.93 4.02-24.85 3.47-30.3 2.92-42.5 2.3-110.65.8-128.2-.8-43.68-.85-32.48-2.02-24.6-2.56-19-2.8-14.87-2.82-11.83-2.77-9.52-2.64-7.75-2.5-6.4-2.38-5.3-2.23-4.45-2.1-3.76-1.96-3.2-1.86-2.75-1.74-2.36-1.64-2.06-1.56-1.78-1.48-1.57-1.4-1.37-1.35-1.2-1.28-1.08-1.25-.94-1.2-.84-1.14-.74-1.1-.65-1.1-.57-1.04-.5-1.03-.46-1-.4-1-.33-.98-.3-.96-.24-.97-.2-.95-.16-.94-.12-.95-.08-.95-.04-.95v-.96l.04-.96.08-.98.12-.98.17-1 .23-1.03.27-1.06.33-1.07.38-1.1.46-1.14.52-1.16.6-1.2.7-1.27.78-1.3.9-1.35 1.02-1.4 1.17-1.48 1.32-1.54 1.5-1.6 1.72-1.68 1.94-1.74 2.2-1.8 2.5-1.9 2.8-1.96 3.17-2 3.56-2.05 3.95-2.08 4.4-2.06 3.02-1.27" stroke="#000" stroke-width="2" fill="none"/><path d="M708.86 273.23l-.5.24-.85-1.82 1.36-.63z"/><path d="M73.17 224.32l-12.04 8.95-2.96-8.8z" stroke="#000" stroke-width="2"/><path d="M707.87 117l-2.52.36-3.17.6-2.88.66-2.64.73-2.43.8-2.26.82-2.1.88-1.97.92-1.85.96-1.76 1-1.68 1.06-1.6 1.1-1.5 1.15-1.48 1.2-1.4 1.27-1.38 1.33-1.33 1.4-1.3 1.5-1.26 1.6-1.24 1.7-1.22 1.83-1.2 2-1.2 2.15-1.18 2.38-1.2 2.66-1.18 2.98-1.2 3.4-1.2 4-1.25 4.83-1.33 6.17-1.5 8.87-6.83 50.67-1.5 7.05-1.47 5.65-1.45 4.78-1.45 4.15-1.47 3.7-1.5 3.32-1.5 3.03-1.55 2.8-1.58 2.6-1.6 2.4-1.67 2.3-1.05 1.32-1.57 1.88-1.7 1.85-1.83 1.85-1.98 1.83-2.17 1.84-2.36 1.85-2.6 1.85-2.86 1.88-3.2 1.9-3.57 1.93-4.03 1.97-4.62 2.02-5.33 2.06-6.25 2.13-7.45 2.2-9.06 2.24-11.34 2.32-14.75 2.38-20.34 2.4-31.06 2.33-61.98 1.96H258.5l-78.14-1.46-44.12-2.7-27.07-2.8-17.7-2.6-12.13-2.3-8.67-2-6.4-1.8-4.82-1.56-3.75-1.38-2.96-1.24-2.37-1.1-1.93-1.02-1.6-.92-1.33-.84-1.1-.78-.96-.72-.8-.67-.7-.63-.6-.6-.54-.55-.46-.54-.4-.5-.35-.48-.33-.47-.27-.45-.24-.44-.2-.42-.2-.42-.16-.4-.14-.4-.12-.4-.1-.4-.08-.38-.07-.4-.05-.38-.04-.38V280l.05-.4.05-.42.07-.42.1-.43.1-.45.15-.46.16-.48.2-.5.23-.5.28-.56.32-.57.36-.6.43-.64.5-.68.57-.74.68-.8.8-.84.95-.93 1.12-1 1.33-1.1 1.58-1.2 1.88-1.3 2.25-1.42 2.65-1.53 3.1-1.62 1.4-.66" stroke="#000" stroke-width="2" fill="none"/><path d="M708.86 117.86l-.87.13-.3-2 1.16-.16z"/><path d="M73.2 254.48l-11.8 9.28-3.2-8.7z" stroke="#000" stroke-width="2"/><path d="M707.87 303.84l-78.16 17.32-57.18 10.18-42.6 5.74-32.57 3-25.42 1.28-20.23.17-16.36-.55-13.43-1.02-11.14-1.32-9.38-1.5-7.95-1.63-6.82-1.7-5.88-1.7-5.12-1.75-4.5-1.74-3.95-1.72-3.5-1.7-3.13-1.7-2.8-1.65-2.5-1.65-2.28-1.62-2.05-1.6-1.87-1.58-1.7-1.56-1.53-1.55-1.4-1.54-1.3-1.53-1.17-1.53-1.08-1.52-.98-1.53-.9-1.52-.8-1.53-.75-1.54-.67-1.55-.6-1.57-.52-1.57-.46-1.6-.4-1.64-.32-1.67-.27-1.68-.2-1.73-.1-1.76-.06-1.8.02-1.84.1-1.9.2-1.93.27-2 .4-2.02.46-2.08.57-2.13.7-2.16.8-2.2.9-2.2 1.03-2.23 1.14-2.22 1.24-2.18 1.33-2.14 1.4-2.06 1.47-1.96 1.5-1.83 1.5-1.7 1.5-1.56 1.15-1.07" stroke="#000" stroke-width="2" fill="none"/><path d="M708.86 304.65l-.8.17-.43-1.95 1.23-.27z"/><path d="M364.78 237.34l-10.66 10.55-4.17-8.3z" stroke="#000" stroke-width="2"/><path d="M75.7 102.58h203.75v30.08H75.7z" stroke="#000" fill="#ffdba9"/><use xlink:href="#t" transform="matrix(1,0,0,1,80.6933004013477,107.5787401574803) translate(48.39208984375 15.896484375)"/><path d="M75.6 132.66h203.75v30.08H75.6z" stroke="#000" fill="#ffdba9"/><g><use xlink:href="#u" transform="matrix(1,0,0,1,80.59224152856103,137.6574803149606) translate(48.39208984375 15.896484375)"/></g><path d="M368.27 102.58h203.76v30.08H368.27z" stroke="#000" fill="#ffdba9"/><g><use xlink:href="#t" transform="matrix(1,0,0,1,373.26793810208085,107.5787401574803) translate(48.39208984375 15.896484375)"/></g><path d="M368.17 132.66h203.76v30.08H368.17z" stroke="#000" fill="#ffdba9"/><g><use xlink:href="#u" transform="matrix(1,0,0,1,373.1668792292943,137.6574803149606) translate(48.39208984375 15.896484375)"/></g><path d="M469.05 171.37v-7.13" stroke="#000" stroke-width="2" fill="none"/><path d="M470.05 172.37h-2v-1.03h2zM470.05 164.26h-2v-1.02h2z"/><path d="M177.52 171.37v-3.57h-.05v-3.56" stroke="#000" stroke-width="2" fill="none"/><path d="M178.52 172.37h-2v-1.03h2zM178.47 164.26h-2v-1.02h2z"/><defs><path d="M199 0l-22-63H83L61 0H9l90-248h61L250 0h-51zm-33-102l-36-108c-10 38-24 72-36 108h72" id="v"/><path d="M195-6C206 82 75 100 31 46c-4-6-6-13-8-21l49-6c3 16 16 24 34 25 40 0 42-37 40-79-11 22-30 35-61 35-53 0-70-43-70-97 0-56 18-96 73-97 30 0 46 14 59 34l2-30h47zm-90-29c32 0 41-27 41-63 0-35-9-62-40-62-32 0-39 29-40 63 0 36 9 62 39 62" id="w"/><path d="M185-48c-13 30-37 53-82 52C43 2 14-33 14-96s30-98 90-98c62 0 83 45 84 108H66c0 31 8 55 39 56 18 0 30-7 34-22zm-45-69c5-46-57-63-70-21-2 6-4 13-4 21h74" id="x"/><path d="M135-194c87-1 58 113 63 194h-50c-7-57 23-157-34-157-59 0-34 97-39 157H25l-1-190h47c2 12-1 28 3 38 12-26 28-41 61-42" id="y"/><path d="M115-3C79 11 28 4 28-45v-112H4v-33h27l15-45h31v45h36v33H77v99c-1 23 16 31 38 25v30" id="z"/><g id="a"><use transform="matrix(0.05,0,0,0.05,0,0)" xlink:href="#v"/><use transform="matrix(0.05,0,0,0.05,12.950000000000001,0)" xlink:href="#w"/><use transform="matrix(0.05,0,0,0.05,23.900000000000002,0)" xlink:href="#x"/><use transform="matrix(0.05,0,0,0.05,33.900000000000006,0)" xlink:href="#y"/><use transform="matrix(0.05,0,0,0.05,44.85000000000001,0)" xlink:href="#z"/></g><path d="M175 0L67-191c6 58 2 128 3 191H24v-248h59L193-55c-6-58-2-129-3-193h46V0h-61" id="A"/><path d="M110-194c64 0 96 36 96 99 0 64-35 99-97 99-61 0-95-36-95-99 0-62 34-99 96-99zm-1 164c35 0 45-28 45-65 0-40-10-65-43-65-34 0-45 26-45 65 0 36 10 65 43 65" id="B"/><path d="M88-194c31-1 46 15 58 34l-1-101h50l1 261h-48c-2-10 0-23-3-31C134-8 116 4 84 4 32 4 16-41 15-95c0-56 19-97 73-99zm17 164c33 0 40-30 41-66 1-37-9-64-41-64s-38 30-39 65c0 43 13 65 39 65" id="C"/><g id="b"><use transform="matrix(0.05,0,0,0.05,0,0)" xlink:href="#A"/><use transform="matrix(0.05,0,0,0.05,12.950000000000001,0)" xlink:href="#B"/><use transform="matrix(0.05,0,0,0.05,23.900000000000002,0)" xlink:href="#C"/><use transform="matrix(0.05,0,0,0.05,34.85,0)" xlink:href="#x"/></g><use transform="matrix(0.05,0,0,0.05,0,0)" xlink:href="#v" id="c"/><path d="M76-208v77h127v40H76V0H24v-248h183v40H76" id="D"/><path d="M169-182c-1-43-94-46-97-3 18 66 151 10 154 114 3 95-165 93-204 36-6-8-10-19-12-30l50-8c3 46 112 56 116 5-17-69-150-10-154-114-4-87 153-88 188-35 5 8 8 18 10 28" id="E"/><g id="d"><use transform="matrix(0.05,0,0,0.05,0,0)" xlink:href="#A"/><use transform="matrix(0.05,0,0,0.05,12.950000000000001,0)" xlink:href="#D"/><use transform="matrix(0.05,0,0,0.05,23.900000000000002,0)" xlink:href="#E"/></g><path d="M147 0H94L2-248h55l64 206c17-72 42-137 63-206h54" id="F"/><path d="M25 0v-261h50V0H25" id="G"/><path d="M85 4C-2 5 27-109 22-190h50c7 57-23 150 33 157 60-5 35-97 40-157h50l1 190h-47c-2-12 1-28-3-38-12 25-28 42-61 42" id="H"/><path d="M220-157c-53 9-28 100-34 157h-49v-107c1-27-5-49-29-50C55-147 81-57 75 0H25l-1-190h47c2 12-1 28 3 38 10-53 101-56 108 0 13-22 24-43 59-42 82 1 51 116 57 194h-49v-107c-1-25-5-48-29-50" id="I"/><g id="e"><use transform="matrix(0.05,0,0,0.05,0,0)" xlink:href="#F"/><use transform="matrix(0.05,0,0,0.05,10.65,0)" xlink:href="#B"/><use transform="matrix(0.05,0,0,0.05,21.6,0)" xlink:href="#G"/><use transform="matrix(0.05,0,0,0.05,26.6,0)" xlink:href="#H"/><use transform="matrix(0.05,0,0,0.05,37.550000000000004,0)" xlink:href="#I"/><use transform="matrix(0.05,0,0,0.05,53.550000000000004,0)" xlink:href="#x"/></g><path d="M182-182c0 78-84 86-111 141h115V0H12c-6-101 99-100 120-180 1-22-12-31-33-32-23 0-32 14-35 34l-49-3c5-45 32-70 84-70 51 0 83 22 83 69" id="J"/><use transform="matrix(0.05,0,0,0.05,0,0)" xlink:href="#J" id="f"/><path d="M23 0v-37h61v-169l-59 37v-38l62-41h46v211h57V0H23" id="K"/><use transform="matrix(0.05,0,0,0.05,0,0)" xlink:href="#K" id="g"/><path d="M182-130c37 4 62 22 62 59C244 23 116-4 24 0v-248c84 5 203-23 205 63 0 31-19 50-47 55zM76-148c40-3 101 13 101-30 0-44-60-28-101-31v61zm0 110c48-3 116 14 116-37 0-48-69-32-116-35v72" id="L"/><use transform="matrix(0.05,0,0,0.05,0,0)" xlink:href="#L" id="h"/><path d="M114 20l821-1504h178L296 20H114" id="M"/><path d="M1000-272c3 95 12 159 101 161 21 0 41-3 59-7V-6c-44 10-86 16-139 16-141 2-191-84-197-217h-6C748-76 648 20 446 20c-207 0-318-120-318-322 0-266 194-348 454-354l236-4c12-191-40-305-222-305-140 0-220 47-232 172l-188-17c33-204 181-292 423-292 255 0 401 118 401 364v466zm-683-27c0 109 63 184 175 182 166-3 259-96 306-217 24-65 20-120 20-200-232 7-501-28-501 235" id="N"/><path d="M631 20c-350 0-501-215-501-562 0-355 162-560 502-560 250 0 399 118 446 323l-192 14c-23-124-109-196-262-196-242 0-305 171-305 415 1 245 61 427 304 427 151 0 248-77 267-215l190 12C1039-107 883 20 631 20" id="O"/><path d="M611-1370c266 0 451 106 451 368 0 147-77 243-154 327-132 144-316 255-451 395-42 44-75 87-96 134h723V0H144v-117c124-264 387-411 582-603 73-72 151-147 151-271 0-161-104-231-266-231-163 0-249 90-268 238l-184-17c35-233 185-369 452-369" id="P"/><path d="M353-779c69-51 166-92 291-90 218 3 357 100 423 255 21 52 32 109 32 170 0 305-189 464-500 464-268 0-424-116-471-335l182-21c35 130 124 212 293 209 198-4 309-114 309-313 0-182-118-282-305-282-120 0-198 45-262 101H169l47-728h801v145H382" id="Q"/><path d="M141-911c0-296 172-459 469-459 157 0 276 55 356 166s121 278 121 501c-1 324-87 567-297 677-134 70-367 56-475-22-71-52-117-126-145-226l172-27c34 111 103 176 238 176 187 0 261-138 304-298 16-65 24-141 25-227-59 121-177 199-350 199-275 0-418-184-418-460zm461 318c168 0 289-96 289-269 0-158-59-275-163-332-36-20-77-30-124-30-187 0-280 125-280 313s90 318 278 318" id="R"/><path d="M365-904c58-129 161-200 334-200 130 0 228 46 293 138s98 233 98 420c0 189-34 331-102 425S824 20 698 20c-170 0-275-64-336-184 0 55-3 116-9 164H179c5-68 6-147 6-223v-1261h180c-2 193 4 394-4 580h4zm283 791c221 0 256-197 256-427 0-229-34-425-254-425-236 0-285 195-285 441 0 237 53 411 283 411" id="S"/><path d="M1065-1013c47 164 49 500-1 665C999-130 875 20 611 20c-377 0-484-300-487-695-2-245 41-425 141-551 77-98 191-144 352-144 261 0 386 140 448 357zM741-155c199-92 203-504 159-785-26-168-96-284-283-284-281 0-308 256-311 549-2 181 18 324 80 428 46 77 115 118 227 120 47 0 90-10 128-28" id="T"/><path d="M839-1335c-182-6-269 67-259 253h491v142H580V0H400v-940H138v-142h262c-15-293 132-408 418-402 94 2 200 7 281 21v145c-75-10-177-14-260-17" id="U"/><path d="M937-319V0H757v-319H103v-140l635-890h199v888h188v142H937zm-180-835L257-461h500v-693" id="V"/><path d="M809-709c168 33 285 134 285 331 0 277-191 398-480 398-287 0-481-120-481-396 0-192 118-296 281-331v-4c-145-39-248-139-248-313 0-238 192-346 444-346 211 0 357 75 422 217 19 41 27 86 27 131 0 172-101 274-250 309v4zm-197-70c168 0 260-73 260-233 0-158-100-224-262-224-160 0-260 68-260 224 0 155 97 232 262 233zm4 664c194 1 291-91 291-280 0-172-115-249-297-249-178 0-291 85-291 253 0 186 106 275 297 276" id="W"/><path d="M496 0v-299h235V0H496" id="X"/><g id="i"><use transform="matrix(0.0087890625,0,0,0.0087890625,0,0)" xlink:href="#M"/><use transform="matrix(0.0087890625,0,0,0.0087890625,10.8017578125,0)" xlink:href="#N"/><use transform="matrix(0.0087890625,0,0,0.0087890625,21.603515625,0)" xlink:href="#O"/><use transform="matrix(0.0087890625,0,0,0.0087890625,32.4052734375,0)" xlink:href="#P"/><use transform="matrix(0.0087890625,0,0,0.0087890625,43.20703125,0)" xlink:href="#Q"/><use transform="matrix(0.0087890625,0,0,0.0087890625,54.0087890625,0)" xlink:href="#R"/><use transform="matrix(0.0087890625,0,0,0.0087890625,64.810546875,0)" xlink:href="#S"/><use transform="matrix(0.0087890625,0,0,0.0087890625,75.6123046875,0)" xlink:href="#T"/><use transform="matrix(0.0087890625,0,0,0.0087890625,86.4140625,0)" xlink:href="#U"/><use transform="matrix(0.0087890625,0,0,0.0087890625,97.2158203125,0)" xlink:href="#V"/><use transform="matrix(0.0087890625,0,0,0.0087890625,108.017578125,0)" xlink:href="#W"/><use transform="matrix(0.0087890625,0,0,0.0087890625,118.8193359375,0)" xlink:href="#X"/><use transform="matrix(0.0087890625,0,0,0.0087890625,129.62109375,0)" xlink:href="#X"/><use transform="matrix(0.0087890625,0,0,0.0087890625,140.4228515625,0)" xlink:href="#X"/></g><path d="M1069-1210C890-948 720-664 634-316c-25 105-38 210-38 316H408c9-385 153-667 302-925 57-98 120-190 185-279H158v-145h911v139" id="Y"/><path d="M865-914c-3-187-2-380-2-570h180v1261c0 76 1 155 6 223H877c-8-49-9-116-10-174h-5C801-44 708 26 530 26c-135 0-234-46-297-139s-95-232-95-419c0-377 131-566 392-566 176 0 271 63 335 184zm-286-51c-222 0-255 197-255 427 0 229 31 425 253 425 237 0 286-195 286-441 0-238-52-411-284-411" id="Z"/><g id="j"><use transform="matrix(0.0087890625,0,0,0.0087890625,0,0)" xlink:href="#M"/><use transform="matrix(0.0087890625,0,0,0.0087890625,10.8017578125,0)" xlink:href="#Y"/><use transform="matrix(0.0087890625,0,0,0.0087890625,21.603515625,0)" xlink:href="#S"/><use transform="matrix(0.0087890625,0,0,0.0087890625,32.4052734375,0)" xlink:href="#V"/><use transform="matrix(0.0087890625,0,0,0.0087890625,43.20703125,0)" xlink:href="#V"/><use transform="matrix(0.0087890625,0,0,0.0087890625,54.0087890625,0)" xlink:href="#Y"/><use transform="matrix(0.0087890625,0,0,0.0087890625,64.810546875,0)" xlink:href="#Z"/><use transform="matrix(0.0087890625,0,0,0.0087890625,75.6123046875,0)" xlink:href="#W"/><use transform="matrix(0.0087890625,0,0,0.0087890625,86.4140625,0)" xlink:href="#S"/><use transform="matrix(0.0087890625,0,0,0.0087890625,97.2158203125,0)" xlink:href="#P"/><use transform="matrix(0.0087890625,0,0,0.0087890625,108.017578125,0)" xlink:href="#Q"/><use transform="matrix(0.0087890625,0,0,0.0087890625,118.8193359375,0)" xlink:href="#X"/><use transform="matrix(0.0087890625,0,0,0.0087890625,129.62109375,0)" xlink:href="#X"/><use transform="matrix(0.0087890625,0,0,0.0087890625,140.4228515625,0)" xlink:href="#X"/></g><path d="M1060-1016c0 191-128 285-295 323v4c154 18 262 91 313 209 14 35 21 72 21 110 0 277-194 390-478 390-292 0-457-129-493-382l186-17c24 161 121 250 307 250 172 1 298-80 291-247-8-208-220-239-446-233v-156c217 9 409-34 409-232 0-152-102-225-264-225-159 0-264 88-278 233l-181-14c33-239 196-367 461-367 264 0 447 102 447 354" id="aa"/><path d="M148-1120c216-7 379-89 463-229h166v1204h353V0H157v-145h439v-1021c-79 124-254 184-448 194v-148" id="ab"/><g id="k"><use transform="matrix(0.0087890625,0,0,0.0087890625,0,0)" xlink:href="#M"/><use transform="matrix(0.0087890625,0,0,0.0087890625,10.8017578125,0)" xlink:href="#Q"/><use transform="matrix(0.0087890625,0,0,0.0087890625,21.603515625,0)" xlink:href="#U"/><use transform="matrix(0.0087890625,0,0,0.0087890625,32.4052734375,0)" xlink:href="#aa"/><use transform="matrix(0.0087890625,0,0,0.0087890625,43.20703125,0)" xlink:href="#W"/><use transform="matrix(0.0087890625,0,0,0.0087890625,54.0087890625,0)" xlink:href="#W"/><use transform="matrix(0.0087890625,0,0,0.0087890625,64.810546875,0)" xlink:href="#ab"/><use transform="matrix(0.0087890625,0,0,0.0087890625,75.6123046875,0)" xlink:href="#ab"/><use transform="matrix(0.0087890625,0,0,0.0087890625,86.4140625,0)" xlink:href="#Q"/><use transform="matrix(0.0087890625,0,0,0.0087890625,97.2158203125,0)" xlink:href="#ab"/><use transform="matrix(0.0087890625,0,0,0.0087890625,108.017578125,0)" xlink:href="#Z"/><use transform="matrix(0.0087890625,0,0,0.0087890625,118.8193359375,0)" xlink:href="#X"/><use transform="matrix(0.0087890625,0,0,0.0087890625,129.62109375,0)" xlink:href="#X"/><use transform="matrix(0.0087890625,0,0,0.0087890625,140.4228515625,0)" xlink:href="#X"/></g><path d="M238-95c0 69-44 99-111 99C63 4 22-25 22-93v-155h51v151c-1 38 19 59 55 60 90 1 49-130 58-211h52v153" id="ac"/><path d="M137-138c1-29-70-34-71-4 15 46 118 7 119 86 1 83-164 76-172 9l43-7c4 19 20 25 44 25 33 8 57-30 24-41C81-84 22-81 20-136c-2-80 154-74 161-7" id="ad"/><path d="M135-150c-39-12-60 13-60 57V0H25l-1-190h47c2 13-1 29 3 40 6-28 27-53 61-41v41" id="ae"/><g id="l"><use transform="matrix(0.05,0,0,0.05,0,0)" xlink:href="#ac"/><use transform="matrix(0.05,0,0,0.05,12.950000000000001,0)" xlink:href="#ad"/><use transform="matrix(0.05,0,0,0.05,22.950000000000003,0)" xlink:href="#x"/><use transform="matrix(0.05,0,0,0.05,32.95,0)" xlink:href="#ae"/></g><path d="M182 0l-62-99L58 0H3l86-130-79-118h55l55 88 55-88h55l-75 118L237 0h-55" id="af"/><path d="M62-158H24l-5-90h48" id="ag"/><g id="m"><use transform="matrix(0.05,0,0,0.05,0,0)" xlink:href="#af"/><use transform="matrix(0.05,0,0,0.05,12,0)" xlink:href="#ag"/><use transform="matrix(0.05,0,0,0.05,16.25,0)" xlink:href="#ad"/></g><path d="M67-125c0 53 21 87 73 88 37 1 54-22 65-47l45 17C233-25 199 4 140 4 58 4 20-42 15-125 8-235 124-281 211-232c18 10 29 29 36 50l-46 12c-8-25-30-41-62-41-52 0-71 34-72 86" id="ah"/><path d="M133-34C117-15 103 5 69 4 32 3 11-16 11-54c-1-60 55-63 116-61 1-26-3-47-28-47-18 1-26 9-28 27l-52-2c7-38 36-58 82-57s74 22 75 68l1 82c-1 14 12 18 25 15v27c-30 8-71 5-69-32zm-48 3c29 0 43-24 42-57-32 0-66-3-65 30 0 17 8 27 23 27" id="ai"/><path d="M25-224v-37h50v37H25zM25 0v-190h50V0H25" id="aj"/><g id="n"><use transform="matrix(0.05,0,0,0.05,0,0)" xlink:href="#ah"/><use transform="matrix(0.05,0,0,0.05,12.950000000000001,0)" xlink:href="#B"/><use transform="matrix(0.05,0,0,0.05,23.900000000000002,0)" xlink:href="#y"/><use transform="matrix(0.05,0,0,0.05,34.85,0)" xlink:href="#z"/><use transform="matrix(0.05,0,0,0.05,40.800000000000004,0)" xlink:href="#ai"/><use transform="matrix(0.05,0,0,0.05,50.800000000000004,0)" xlink:href="#aj"/><use transform="matrix(0.05,0,0,0.05,55.800000000000004,0)" xlink:href="#y"/><use transform="matrix(0.05,0,0,0.05,66.75,0)" xlink:href="#x"/><use transform="matrix(0.05,0,0,0.05,76.75,0)" xlink:href="#ae"/></g><path d="M146-102V0H94v-102L6-248h54l60 105 60-105h54" id="ak"/><g id="o"><use transform="matrix(0.05,0,0,0.05,0,0)" xlink:href="#ak"/><use transform="matrix(0.05,0,0,0.05,12,0)" xlink:href="#ag"/><use transform="matrix(0.05,0,0,0.05,16.25,0)" xlink:href="#ad"/></g><g id="p"><use transform="matrix(0.05,0,0,0.05,0,0)" xlink:href="#ah"/><use transform="matrix(0.05,0,0,0.05,12.950000000000001,0)" xlink:href="#B"/><use transform="matrix(0.05,0,0,0.05,23.900000000000002,0)" xlink:href="#y"/><use transform="matrix(0.05,0,0,0.05,34.85,0)" xlink:href="#z"/><use transform="matrix(0.05,0,0,0.05,40.800000000000004,0)" xlink:href="#ai"/><use transform="matrix(0.05,0,0,0.05,50.800000000000004,0)" xlink:href="#aj"/><use transform="matrix(0.05,0,0,0.05,55.800000000000004,0)" xlink:href="#y"/><use transform="matrix(0.05,0,0,0.05,66.75,0)" xlink:href="#x"/><use transform="matrix(0.05,0,0,0.05,76.75,0)" xlink:href="#ae"/></g><path d="M648-963c-190 6-283 138-283 336V0H185v-1484h181c-2 197 6 404-9 587h3c62-120 159-205 339-205 242 0 351 135 350 381V0H868v-695c1-168-57-273-220-268" id="al"/><path d="M615-1102c343 0 484 203 482 560-1 347-147 562-488 562-336 0-475-219-479-562-4-349 156-560 485-560zm-8 989c240 0 301-180 301-429 0-245-55-427-290-427-236 0-299 181-299 427 0 243 61 429 288 429" id="am"/><path d="M904-1102c199 0 220 177 220 381V0H956v-686c-3-114 0-215-60-264-70-33-125-4-158 71-26 56-39 140-39 252V0H531v-686c-3-114-1-215-61-264-78-41-136 24-157 84-24 69-39 159-39 259V0H105c-3-360 6-732-6-1082h149c6 50 3 123 8 175 36-100 83-195 216-195 135 0 166 79 196 196 42-105 93-196 236-196" id="an"/><path d="M617-1102c355 0 481 238 477 599H322c5 222 84 388 301 388 144 0 244-59 284-166l158 45C1002-72 854 20 623 20c-342 0-490-220-490-568 0-346 151-554 484-554zm291 461c-18-192-90-328-289-328-194 0-287 128-295 328h584" id="ao"/><path d="M1018 0H814c-67-224-138-444-200-673C552-442 476-224 407 0H204L21-1082h178c43 310 105 601 126 933 54-225 128-425 193-638h193c63 212 134 415 185 638 22-336 90-622 136-933h176" id="ap"/><path d="M839-1102c70 0 148 7 206 17v167c-112-18-268-36-363 15-129 69-208 203-208 395V0H294c-10-367 32-789-52-1082h171c21 75 41 161 48 250h5c67-152 152-270 373-270" id="aq"/><path d="M914 0L548-499l-132 98V0H236v-1484h180v927l475-525h211L663-617 1125 0H914" id="ar"/><path d="M168 279c222 39 310-114 368-290L66-1082h192c120 299 249 590 362 896 115-301 235-597 351-896h190L705 0c-65 164-130 320-275 396-67 36-177 35-262 18V279" id="as"/><path d="M682 16c-209 0-323-80-324-285v-671H190v-142h170l58-282h120v282h432v142H538v652c2 114 60 155 182 155 106 0 209-16 297-34v137C921-4 806 16 682 16" id="at"/><g id="q"><use transform="matrix(0.0087890625,0,0,0.0087890625,0,0)" xlink:href="#M"/><use transform="matrix(0.0087890625,0,0,0.0087890625,10.8017578125,0)" xlink:href="#al"/><use transform="matrix(0.0087890625,0,0,0.0087890625,21.603515625,0)" xlink:href="#am"/><use transform="matrix(0.0087890625,0,0,0.0087890625,32.4052734375,0)" xlink:href="#an"/><use transform="matrix(0.0087890625,0,0,0.0087890625,43.20703125,0)" xlink:href="#ao"/><use transform="matrix(0.0087890625,0,0,0.0087890625,54.0087890625,0)" xlink:href="#M"/><use transform="matrix(0.0087890625,0,0,0.0087890625,64.810546875,0)" xlink:href="#ap"/><use transform="matrix(0.0087890625,0,0,0.0087890625,75.6123046875,0)" xlink:href="#am"/><use transform="matrix(0.0087890625,0,0,0.0087890625,86.4140625,0)" xlink:href="#aq"/><use transform="matrix(0.0087890625,0,0,0.0087890625,97.2158203125,0)" xlink:href="#ar"/><use transform="matrix(0.0087890625,0,0,0.0087890625,108.017578125,0)" xlink:href="#M"/><use transform="matrix(0.0087890625,0,0,0.0087890625,118.8193359375,0)" xlink:href="#an"/><use transform="matrix(0.0087890625,0,0,0.0087890625,129.62109375,0)" xlink:href="#as"/><use transform="matrix(0.0087890625,0,0,0.0087890625,140.4228515625,0)" xlink:href="#Z"/><use transform="matrix(0.0087890625,0,0,0.0087890625,151.224609375,0)" xlink:href="#N"/><use transform="matrix(0.0087890625,0,0,0.0087890625,162.0263671875,0)" xlink:href="#at"/><use transform="matrix(0.0087890625,0,0,0.0087890625,172.828125,0)" xlink:href="#N"/></g><g id="r"><use transform="matrix(0.0087890625,0,0,0.0087890625,0,0)" xlink:href="#M"/><use transform="matrix(0.0087890625,0,0,0.0087890625,10.8017578125,0)" xlink:href="#al"/><use transform="matrix(0.0087890625,0,0,0.0087890625,21.603515625,0)" xlink:href="#am"/><use transform="matrix(0.0087890625,0,0,0.0087890625,32.4052734375,0)" xlink:href="#an"/><use transform="matrix(0.0087890625,0,0,0.0087890625,43.20703125,0)" xlink:href="#ao"/><use transform="matrix(0.0087890625,0,0,0.0087890625,54.0087890625,0)" xlink:href="#M"/><use transform="matrix(0.0087890625,0,0,0.0087890625,64.810546875,0)" xlink:href="#ap"/><use transform="matrix(0.0087890625,0,0,0.0087890625,75.6123046875,0)" xlink:href="#am"/><use transform="matrix(0.0087890625,0,0,0.0087890625,86.4140625,0)" xlink:href="#aq"/><use transform="matrix(0.0087890625,0,0,0.0087890625,97.2158203125,0)" xlink:href="#ar"/><use transform="matrix(0.0087890625,0,0,0.0087890625,108.017578125,0)" xlink:href="#M"/><use transform="matrix(0.0087890625,0,0,0.0087890625,118.8193359375,0)" xlink:href="#an"/><use transform="matrix(0.0087890625,0,0,0.0087890625,129.62109375,0)" xlink:href="#as"/><use transform="matrix(0.0087890625,0,0,0.0087890625,140.4228515625,0)" xlink:href="#O"/><use transform="matrix(0.0087890625,0,0,0.0087890625,151.224609375,0)" xlink:href="#am"/><use transform="matrix(0.0087890625,0,0,0.0087890625,162.0263671875,0)" xlink:href="#Z"/><use transform="matrix(0.0087890625,0,0,0.0087890625,172.828125,0)" xlink:href="#ao"/></g><path d="M736-142h380V0H134v-142h422v-1200H267v-142h469v1342" id="au"/><path d="M745-142h380V0H143v-142h422v-798H246v-142h499v940zM545-1292v-192h200v192H545" id="av"/><g id="s"><use transform="matrix(0.0087890625,0,0,0.0087890625,0,0)" xlink:href="#M"/><use transform="matrix(0.0087890625,0,0,0.0087890625,10.8017578125,0)" xlink:href="#al"/><use transform="matrix(0.0087890625,0,0,0.0087890625,21.603515625,0)" xlink:href="#am"/><use transform="matrix(0.0087890625,0,0,0.0087890625,32.4052734375,0)" xlink:href="#an"/><use transform="matrix(0.0087890625,0,0,0.0087890625,43.20703125,0)" xlink:href="#ao"/><use transform="matrix(0.0087890625,0,0,0.0087890625,54.0087890625,0)" xlink:href="#M"/><use transform="matrix(0.0087890625,0,0,0.0087890625,64.810546875,0)" xlink:href="#ap"/><use transform="matrix(0.0087890625,0,0,0.0087890625,75.6123046875,0)" xlink:href="#am"/><use transform="matrix(0.0087890625,0,0,0.0087890625,86.4140625,0)" xlink:href="#aq"/><use transform="matrix(0.0087890625,0,0,0.0087890625,97.2158203125,0)" xlink:href="#ar"/><use transform="matrix(0.0087890625,0,0,0.0087890625,108.017578125,0)" xlink:href="#M"/><use transform="matrix(0.0087890625,0,0,0.0087890625,118.8193359375,0)" xlink:href="#an"/><use transform="matrix(0.0087890625,0,0,0.0087890625,129.62109375,0)" xlink:href="#as"/><use transform="matrix(0.0087890625,0,0,0.0087890625,140.4228515625,0)" xlink:href="#au"/><use transform="matrix(0.0087890625,0,0,0.0087890625,151.224609375,0)" xlink:href="#av"/><use transform="matrix(0.0087890625,0,0,0.0087890625,162.0263671875,0)" xlink:href="#S"/></g><path d="M706-1102c241 0 344 136 343 381V0H868v-695c1-168-57-273-220-268-190 6-283 138-283 336V0H185c-3-360 6-732-6-1082h170c4 54 7 126 8 185h3c63-121 164-204 346-205" id="aw"/><path d="M873-819c-18-114-119-146-250-146-163 0-245 50-245 151 0 151 170 148 294 185 182 54 388 94 388 320 0 240-189 325-439 329-245 4-410-69-454-268l159-31c24 133 136 168 295 165 144-2 270-31 270-171 0-164-195-160-331-202-167-52-350-87-350-299 0-218 173-315 413-313 220 2 373 77 412 260" id="ax"/><g id="t"><use transform="matrix(0.0087890625,0,0,0.0087890625,0,0)" xlink:href="#M"/><use transform="matrix(0.0087890625,0,0,0.0087890625,10.8017578125,0)" xlink:href="#an"/><use transform="matrix(0.0087890625,0,0,0.0087890625,21.603515625,0)" xlink:href="#aw"/><use transform="matrix(0.0087890625,0,0,0.0087890625,32.4052734375,0)" xlink:href="#at"/><use transform="matrix(0.0087890625,0,0,0.0087890625,43.20703125,0)" xlink:href="#M"/><use transform="matrix(0.0087890625,0,0,0.0087890625,54.0087890625,0)" xlink:href="#aw"/><use transform="matrix(0.0087890625,0,0,0.0087890625,64.810546875,0)" xlink:href="#U"/><use transform="matrix(0.0087890625,0,0,0.0087890625,75.6123046875,0)" xlink:href="#ax"/><use transform="matrix(0.0087890625,0,0,0.0087890625,86.4140625,0)" xlink:href="#ab"/></g><g id="u"><use transform="matrix(0.0087890625,0,0,0.0087890625,0,0)" xlink:href="#M"/><use transform="matrix(0.0087890625,0,0,0.0087890625,10.8017578125,0)" xlink:href="#an"/><use transform="matrix(0.0087890625,0,0,0.0087890625,21.603515625,0)" xlink:href="#aw"/><use transform="matrix(0.0087890625,0,0,0.0087890625,32.4052734375,0)" xlink:href="#at"/><use transform="matrix(0.0087890625,0,0,0.0087890625,43.20703125,0)" xlink:href="#M"/><use transform="matrix(0.0087890625,0,0,0.0087890625,54.0087890625,0)" xlink:href="#aw"/><use transform="matrix(0.0087890625,0,0,0.0087890625,64.810546875,0)" xlink:href="#U"/><use transform="matrix(0.0087890625,0,0,0.0087890625,75.6123046875,0)" xlink:href="#ax"/><use transform="matrix(0.0087890625,0,0,0.0087890625,86.4140625,0)" xlink:href="#P"/></g></defs></g></svg>