<?xml version="1.0" encoding="UTF-8" standalone="no"?>
<svg
   xmlns:dc="http://purl.org/dc/elements/1.1/"
   xmlns:cc="http://creativecommons.org/ns#"
   xmlns:rdf="http://www.w3.org/1999/02/22-rdf-syntax-ns#"
   xmlns:svg="http://www.w3.org/2000/svg"
   xmlns="http://www.w3.org/2000/svg"
   width="192.82613mm"
   height="163.74611mm"
   viewBox="0 0 192.82613 163.74611"
   version="1.1"
   id="svg8">
  <defs
     id="defs2" />
  <metadata
     id="metadata5">
    <rdf:RDF>
      <cc:Work
         rdf:about="">
        <dc:format>image/svg+xml</dc:format>
        <dc:type
           rdf:resource="http://purl.org/dc/dcmitype/StillImage" />
        <dc:title></dc:title>
      </cc:Work>
    </rdf:RDF>
  </metadata>
  <g
     id="layer1">
    <g
       id="g72"
       transform="matrix(0.03527778,0,0,-0.03527778,-5.5436638,296.08136)">
      <g
         id="g7854"
         transform="matrix(0.70726595,0,0,0.70726595,744.15716,1753.9436)">
        <g
           id="g8005"
           transform="matrix(0.98192435,0,0,0.98192435,-299.92177,2020.4799)">
          <path
             d="m 5841.8958,6556.8471 h -85.45 v 85.45 h 85.45 v -85.45"
             style="fill:#a6a6a6;fill-opacity:1;fill-rule:nonzero;stroke:none"
             id="path74" />
          <path
             d="m 5764.0558,6564.4471 h 70.23 v 70.24 h -70.23 z m 85.44,-15.21 h -100.66 v 100.67 h 100.66 v -100.67"
             style="fill:#a6a6a6;fill-opacity:1;fill-rule:nonzero;stroke:none"
             id="path76" />
          <path
             d="m 5841.8958,6406.0471 h -85.45 v 85.45 h 85.45 v -85.45"
             style="fill:#a6a6a6;fill-opacity:1;fill-rule:nonzero;stroke:none"
             id="path78" />
          <path
             d="m 5764.0558,6413.6571 h 70.23 v 70.24 h -70.23 z m 85.44,-15.22 h -100.66 v 100.67 h 100.66 v -100.67"
             style="fill:#a6a6a6;fill-opacity:1;fill-rule:nonzero;stroke:none"
             id="path80" />
          <path
             d="m 5841.8958,6255.2471 h -85.45 v 85.45 h 85.45 v -85.45"
             style="fill:#a6a6a6;fill-opacity:1;fill-rule:nonzero;stroke:none"
             id="path82" />
          <path
             d="m 5764.0558,6262.8571 h 70.23 v 70.24 h -70.23 z m 85.44,-15.21 h -100.66 v 100.66 h 100.66 v -100.66"
             style="fill:#a6a6a6;fill-opacity:1;fill-rule:nonzero;stroke:none"
             id="path84" />
          <path
             d="m 5807.5258,6570.3971 -41.38,41.39 10.76,10.75 28.97,-28.98 70.15,93.51 12.17,-9.12 -80.67,-107.55"
             style="fill:#b2e1a6;fill-opacity:1;fill-rule:nonzero;stroke:none"
             id="path86" />
          <path
             d="m 6208.8358,6586.7371 h -296.57 v 15.21 h 296.57 v -15.21"
             style="fill:#a6a6a6;fill-opacity:1;fill-rule:nonzero;stroke:none"
             id="path88" />
          <path
             d="m 6208.8358,6435.9371 h -296.57 v 15.22 h 296.57 v -15.22"
             style="fill:#a6a6a6;fill-opacity:1;fill-rule:nonzero;stroke:none"
             id="path90" />
          <path
             d="m 6208.8358,6285.1371 h -296.57 v 15.22 h 296.57 v -15.22"
             style="fill:#a6a6a6;fill-opacity:1;fill-rule:nonzero;stroke:none"
             id="path92" />
          <path
             d="m 3410.9558,1448.5271 c -989.7,0 -1792.01,237.52 -1792.01,530.52 0,293 802.31,530.53 1792.01,530.53 989.71,0 1792.01,-237.53 1792.01,-530.53 0,-293 -802.3,-530.52 -1792.01,-530.52"
             style="fill:#a6a6a6;fill-opacity:1;fill-rule:nonzero;stroke:none"
             id="path106" />
          <path
             d="m 3049.9558,2758.6971 c 0,0 14.31,-223.53 -33.77,-377.61 -79.03,-253.3 -300.32,-279.91 -300.32,-414.45 0,-2.53 1390.19,-3.08 1390.19,0 0,128.4 -209.63,169.22 -282.44,405.24 -54.56,176.83 -23.02,386.82 -23.02,386.82 h -750.64"
             style="fill:#f1f0f4;fill-opacity:1;fill-rule:nonzero;stroke:none"
             id="path108" />
          <path
             d="m 4106.0558,1907.5371 h -1389.96 v 61.39 h 1389.96 v -61.39"
             style="fill:#dcdae4;fill-opacity:1;fill-rule:nonzero;stroke:none"
             id="path110" />
          <path
             d="m 5864.1658,2781.4271 c 0,-82.51 -67.5,-150.01 -150,-150.01 h -4599.76 c -82.5,0 -149.99999,67.5 -149.99999,150.01 v 3052.47 c 0,82.5 67.49999,149.99 149.99999,149.99 h 4599.76 c 82.5,0 150,-67.49 150,-149.99 v -3052.47"
             style="fill:#ffffff;fill-opacity:1;fill-rule:nonzero;stroke:none"
             id="path112" />
          <path
             d="m 5649.0158,3145.5271 h -4476.11 v 2615.66 h 4476.11 v -2615.66"
             style="fill:#dddddd;fill-opacity:1;fill-rule:nonzero;stroke:none"
             id="path114" />
          <path
             d="m 3410.9558,2777.1271 c -61.04,0 -110.52,49.48 -110.52,110.51 0,61.04 49.48,110.52 110.52,110.52 61.04,0 110.53,-49.48 110.53,-110.52 0,-61.03 -49.49,-110.51 -110.53,-110.51"
             style="fill:#ccd4ef;fill-opacity:1;fill-rule:nonzero;stroke:none"
             id="path116" />
          <path
             d="m 5534.2858,3142.8571 h -4240 v 2340 c 0,69.04 55.96,125 125,125 h 3987.5 c 70.42,0 127.5,-57.08 127.5,-127.5 v -2337.5"
             style="fill:#7e7e7e;fill-opacity:1;fill-rule:nonzero;stroke:none"
             id="path118" />
          <path
             d="m 5534.2858,5392.8571 h -4240 v 90 c 0,69.04 55.96,125 125,125 h 3987.5 c 70.42,0 127.5,-57.08 127.5,-127.5 v -87.5"
             style="fill:#424242;fill-opacity:1;fill-rule:nonzero;stroke:none"
             id="path120" />
          <path
             d="m 1464.2858,5505.3571 c 0,-17.95 -14.55,-32.5 -32.5,-32.5 -17.95,0 -32.5,14.55 -32.5,32.5 0,17.95 14.55,32.5 32.5,32.5 17.95,0 32.5,-14.55 32.5,-32.5"
             style="fill:#ff0000;fill-opacity:1;fill-rule:nonzero;stroke:none"
             id="path122" />
          <path
             d="m 1564.2858,5505.3571 c 0,-17.95 -14.55,-32.5 -32.5,-32.5 -17.95,0 -32.5,14.55 -32.5,32.5 0,17.95 14.55,32.5 32.5,32.5 17.95,0 32.5,-14.55 32.5,-32.5"
             style="fill:#ffd000;fill-opacity:1;fill-rule:nonzero;stroke:none"
             id="path124" />
          <path
             d="m 1664.2858,5505.3571 c 0,-17.95 -14.55,-32.5 -32.5,-32.5 -17.95,0 -32.5,14.55 -32.5,32.5 0,17.95 14.55,32.5 32.5,32.5 17.95,0 32.5,-14.55 32.5,-32.5"
             style="fill:#00d378;fill-opacity:1;fill-rule:nonzero;stroke:none"
             id="path126" />
          <path
             d="m 54.285814,2022.1171 c -281.660004,0 -510.000004,97.22 -510.000004,217.14 0,119.92 228.34,217.12 510.000004,217.12 281.669996,0 510.009996,-97.2 510.009996,-217.12 0,-119.92 -228.34,-217.14 -510.009996,-217.14"
             style="fill:#a6a6a6;fill-opacity:1;fill-rule:nonzero;stroke:none"
             id="path128" />
          <path
             d="m 514.94581,3176.8671 c 0,-77.38 -211.3,-140.11 -471.949996,-140.11 -260.660004,0 -486.710004,55.36 -486.710004,132.74 0,77.37 226.05,147.48 486.710004,147.48 260.649996,0 471.949996,-62.72 471.949996,-140.11"
             style="fill:#dddddd;fill-opacity:1;fill-rule:nonzero;stroke:none"
             id="path130" />
          <path
             d="m -30.754186,2904.0171 c 88.49,294.97 -35.39,724.78 -80.680004,861.52 -58.85,177.7 -49.95,370 -80.76,554.63 -35.94,215.3 -125.33,417.46 -213.91,616.96 -63.25,-331.87 15.4,-672.24 87.24,-1002.36 71.85,-330.1 52.13,-647.29 155.38,-1001.25"
             style="fill:#37b276;fill-opacity:1;fill-rule:nonzero;stroke:none"
             id="path132" />
          <path
             d="m 173.14581,2987.9571 c 111.24,115.01 134.67,288.89 127.89,448.75 -6.79,159.86 -37.75,320.76 -12,478.68 19.31,118.48 69.74,229.41 100.98,345.32 49.14,182.36 50.07,373.75 50.67,562.61 -75.69,-125.22 -140.53,-257 -193.57,-393.37 -53.94,-138.68 -95.58,-281.77 -137.15,-424.65 -27.599996,-94.87 -55.359996,-190.61 -62.409996,-289.17 -9.58,-133.95 19.43,-267.32 29.3,-401.25 9.87,-133.92 -2.52,-277.78 -83.0199998,-385.27"
             style="fill:#37b276;fill-opacity:1;fill-rule:nonzero;stroke:none"
             id="path134" />
          <path
             d="m 57.735814,4069.1571 c 0,457.2 -147.48,988.15 -297.200004,1241.32 -37.45,-233.02 120.22,-666.13 114.87,-1200.55 -4.44,-442.71 136.290004,-900.79 132.6400042,-1255.76 139.8199958,389.17 49.6899998,800.98 49.6899998,1214.99"
             style="fill:#37b276;fill-opacity:1;fill-rule:nonzero;stroke:none"
             id="path136" />
          <path
             d="m 441.19581,4806.5771 c -44.02,-141 -83.74,-283.17 -121.22,-425.95 l -111.51,-428.78 c -9.86,-35.74 -19.85,-70.91 -26.99,-106.89 -7.31,-35.93 -12.66,-72.28 -16.45,-108.81 -7.73,-73.09 -8.62,-146.82 -8.86,-220.55 -0.13,-73.75 1.69,-147.69 -1.47,-221.67 -3.66,-73.71 -12.11,-148.37 -37.96,-217.84 22.64,70.48 29.51,144.55 30.75,218.09 1.68,73.67 -1.4,147.42 -2.65,221.33 -1.54,73.88 -0.28,148.09 6.84,221.98 3.61,36.93 8.8,73.76 15.99,110.23 7.02,36.52 17,72.5 26.57,107.98 39.08,142.31 74.92,285.63 114.82,427.89 39.8,142.27 82.32,283.91 132.14,422.99"
             style="fill:#ffffff;fill-opacity:0.133333;fill-rule:nonzero;stroke:none"
             id="path138" />
          <path
             d="m -406.84419,4917.1971 c 9.21,-77.09 21.77,-153.66 36.16,-229.88 14.05,-76.28 29.44,-152.31 45.32,-228.25 31.7,-151.91 63.74,-303.85 90.88,-456.88 13.45,-76.53 23.71,-153.72 34.72,-230.38 11.05,-76.77 23.66,-153.32 35.64,-229.98 23.63,-153.31 52.48,-306.13 67.000004,-460.83 -9.790004,77.01 -23.560004,153.37 -37.390004,229.72 l -40.98,229.21 c -13.65,76.43 -25.85,153.12 -37.64,229.88 -11.42,76.93 -22.34,153.52 -35.78,229.89 -25.84,152.88 -58.22,304.68 -87.4,457.17 -28.9,152.46 -57.82,305.46 -70.53,460.33"
             style="fill:#ffffff;fill-opacity:0.133333;fill-rule:nonzero;stroke:none"
             id="path140" />
          <path
             d="m -233.54419,5296.9671 c 43.64,-182.97 88.12,-365.39 128.78,-549.29 18.960004,-92.32 32.310004,-185.57 44.000004,-278.95 11.51,-93.42 20.68,-187.13 26.8,-281.11 5.36,-93.9 7.8,-188.63 1.8,-282.55 -2.09,-46.57 -0.25,-93.47 2.55,-140.24 2.65,-46.79 6.89,-93.57 11,-140.34 8.6200002,-93.51 19.50000017,-186.9 29.03,-280.45 8.95,-93.56 17.98,-187.4 17.83,-281.47 -2.26,94.02 -13.67,187.41 -24.9999998,280.68 -11.01,93.33 -23.1300002,186.55 -33.1400002,280.12 -4.9,46.78 -9.71,93.62 -12.45,140.67 -3.03,47.01 -5.12,94.2 -3.23,141.57 5.54,93.82 2.62,187.39 -3.1,281.1 -5.65,93.66 -14.35,187.18 -25.39,280.4 -11,93.24 -24.66,186.17 -41.800004,278.38 l -117.68,551.48"
             style="fill:#ffffff;fill-opacity:0.133333;fill-rule:nonzero;stroke:none"
             id="path142" />
          <path
             d="m 461.32581,4154.7671 c -53.31,-268.13 -154,-452.92 -219.61,-682.99 -35.2,-123.45 -66.88,-280.43 -30.96,-403.68 l 73.31,20.01 c 8.84,142.72 93.35,267.71 147.78,399.94 86.4,209.88 97.02,450.03 29.48,666.72"
             style="fill:#37b276;fill-opacity:1;fill-rule:nonzero;stroke:none"
             id="path144" />
          <path
             d="m -258.65419,3502.8171 c -70.35,146.89 -141.33,307.3 -109.49,467.02 -57.46,-79.52 -74.68,-182.8 -65.26,-280.46 9.43,-97.65 43.38,-191.17 80.55,-281.96 50.18,-122.61 107.89,-255.65 70.85,-382.84 l 140.38,12.23 c 26.77,160.65 -46.68,319.13 -117.03,466.01"
             style="fill:#37b276;fill-opacity:1;fill-rule:nonzero;stroke:none"
             id="path146" />
          <path
             d="m 461.47581,4146.5871 c 12.39,-48.09 15.84,-98.37 13.32,-148.13 -3.3,-49.8 -12.49,-99.07 -25.08,-147.28 -25.78,-96.45 -65.85,-188.08 -105.5,-278.79 -20.11,-45.26 -39.74,-90.62 -56.39,-137.02 -16.69,-46.38 -29.56,-93.95 -37.95,-142.42 -8.31,-48.5 -11.83,-97.88 -10.34,-147.21 0.72,-49.38 7.39,-98.58 17.52,-147.12 -26.81,95.56 -32.91,197.23 -18.41,296.1 13.97,99.44 52.66,192.89 92.1,283.59 40.86,90.35 80.25,181.16 108.13,275.88 27.44,94.31 41.71,194.51 22.6,292.4"
             style="fill:#ffffff;fill-opacity:0.133333;fill-rule:nonzero;stroke:none"
             id="path148" />
          <path
             d="m -373.65419,3965.9171 c -31,-77.79 -30.66,-163.3 -15.6,-243.93 7.86,-40.46 17.3,-80.77 30.52,-119.8 12.99,-39.16 28.77,-77.46 44.96,-115.65 31.35,-76.61 66.47,-153.28 83.55,-235.69 8.63,-41 13.7,-82.6 16.12,-124.24 1.78,-41.7 1.54,-83.36 -1,-124.88 -1.25,83.06 -6.59,166.35 -26.26,246.59 -18.94,80.38 -53.41,156.02 -86,232.53 -15.88,38.47 -31.39,77.26 -44.18,117.16 -12.77,39.91 -22.78,80.66 -29.06,122.08 -6.29,41.4 -8.81,83.55 -5.43,125.38 2.13,20.87 5.71,41.54 10.85,61.8 5.39,20.22 12.67,39.83 21.53,58.65"
             style="fill:#ffffff;fill-opacity:0.133333;fill-rule:nonzero;stroke:none"
             id="path150" />
          <path
             d="m 396.95581,2240.3371 c 0,0 -110.61,-110.61 -361.339996,-110.61 -250.720004,0 -331.840004,110.61 -331.840004,110.61 l -147.49,943.91 c 0,0 147.49,-117.99 501.450004,-117.99 280.219996,0 457.209996,117.99 457.209996,117.99 l -117.99,-943.91"
             style="fill:#ffffff;fill-opacity:1;fill-rule:nonzero;stroke:none"
             id="path152" />
          <path
             d="m 6717.5258,2053.1671 c -213.68,0 -386.9,62.92 -386.9,140.55 0,77.62 173.22,140.54 386.9,140.54 213.67,0 386.9,-62.92 386.9,-140.54 0,-77.63 -173.23,-140.55 -386.9,-140.55"
             style="fill:#a6a6a6;fill-opacity:1;fill-rule:nonzero;stroke:none"
             id="path154" />
          <path
             d="m 6705.1058,2925.6071 c -13.47,0 -26.75,0.22 -39.88,0.57 -4.37,0.11 -8.63,0.31 -12.95,0.46 -8.71,0.31 -17.37,0.65 -25.91,1.11 -5.04,0.28 -10,0.59 -14.98,0.91 -7.6,0.49 -15.1,1.03 -22.53,1.62 -5.28,0.43 -10.51,0.87 -15.69,1.36 -6.86,0.63 -13.58,1.34 -20.27,2.07 -5.31,0.59 -10.63,1.14 -15.84,1.79 -6.27,0.77 -12.34,1.63 -18.44,2.49 -5.3,0.73 -10.68,1.42 -15.84,2.21 -3.06,0.48 -5.93,1.04 -8.95,1.53 -14.12,2.32 -27.66,4.86 -40.66,7.6 -2.87,0.62 -5.83,1.19 -8.65,1.82 -6.75,1.5 -13.2,3.1 -19.6,4.72 -2.44,0.61 -4.9,1.22 -7.28,1.84 -6.57,1.74 -12.9,3.55 -19.06,5.4 -1.68,0.51 -3.33,1.02 -4.98,1.54 -6.61,2.06 -13,4.16 -19.09,6.35 l -1.09,0.4 c -34.49,12.51 -60.02,27.02 -74.27,42.81 0,-398.78 141.76,-803.23 148.87,-806.78 251.5,-125.75 519.77,-16.77 519.77,-16.77 0,0 150.9,430.35 143.48,823.77 -45.59,-50.99 -209.88,-88.82 -406.16,-88.82"
             style="fill:#ffffff;fill-opacity:1;fill-rule:nonzero;stroke:none"
             id="path156" />
          <path
             d="m 7114.2858,3037.8571 c 0,-64.82 -177.68,-112.25 -409.18,-112.25 -231.5,0 -405.82,34.93 -405.82,99.75 0,64.82 174.32,134.99 405.82,134.99 231.5,0 409.18,-57.67 409.18,-122.49"
             style="fill:#3377bb;fill-opacity:0.133333;fill-rule:nonzero;stroke:none"
             id="path158" />
          <path
             d="m 7011.4858,2381.4871 c -37.85,0 -68.98,7.16 -84.21,11.47 l 16.74,59.31 c 27.94,-7.8 124.4,-28.36 193.19,38.54 71.5,69.64 84.42,204.6 66.17,300.56 -11.35,59.72 -31.09,85.77 -38.87,89.02 -0.5,0.3 -38.23,9.67 -149.62,-168.15 l -52.27,32.7 c 99.8,159.36 167.39,216.62 225.71,192.35 47.33,-19.84 67.71,-92.73 75.63,-134.39 21.95,-115.37 4.55,-270.27 -83.76,-356.29 -53.25,-51.85 -117.23,-65.12 -168.71,-65.12"
             style="fill:#ffffff;fill-opacity:1;fill-rule:nonzero;stroke:none"
             id="path160" />
          <path
             d="m 613.67581,1331.3971 194.63,385.71 h 744.37999 l -194.63,-385.71 z m 1137.06999,778.2 -167.78,-332.49 H 838.58581 l 167.77999,332.49 z m 189.66,375.85 -159.39,-315.85 h -744.38 l 159.39,315.85 z m 300.58,595.66 -270.3,-535.66 h -744.39 l 256.67,508.63 -53.57,27.03 -1090.97999,-2162.00797 53.57,-27.031 191.42,379.32897 h 744.37999 l -177.78,-352.29797 53.56,-27.031 1090.98,2162.00897 -53.56,27.03"
             style="fill:#314f5b;fill-opacity:1;fill-rule:nonzero;stroke:none"
             id="path164" />
          <path
             d="m 5080.6158,5892.0771 c 0,0 21.52,12.8 32,12.22 15.27,-0.85 43.28,-21.41 55.34,-27.35 27.79,-13.67 84.12,-26.33 111.73,-40.34 38.98,-19.79 44.16,-68.47 44.16,-68.47 l -91.94,45.97 -116.38,54.69 -34.91,23.28"
             style="fill:#21242f;fill-opacity:1;fill-rule:nonzero;stroke:none"
             id="path166" />
          <path
             d="m 4997.8458,5832.7471 c 0.55,-4.18 3.73,-14.65 15.76,-26.93 16.74,-17.11 43.11,-16.85 49.83,-21.08 21.95,-13.82 69.9,-46.15 176.43,-75.38 11.78,-3.23 68.38,-8.74 82.95,35.67 14.04,42.77 -31.22,71.03 -81.98,87.43 -48.67,15.73 -60.97,14.77 -93.31,31.69 -14.53,7.61 -33.16,28.69 -41.89,29.1 -7.99,0.36 -37.15,2.42 -41.9,-6.99"
             style="fill:#222d58;fill-opacity:1;fill-rule:nonzero;stroke:none"
             id="path168" />
          <path
             d="m 5046.8158,5853.3171 c 62.48,-12.75 123.62,-32.02 182.12,-57.38 16.15,-7.02 34.88,-19.12 32.7,-36.6 -1.44,-11.62 -12.62,-20.14 -24.15,-22.23 -11.53,-2.1 -23.33,0.83 -34.6,4.03 -61.01,17.32 -119.26,43.01 -177.29,68.61"
             style="fill:#283e91;fill-opacity:1;fill-rule:nonzero;stroke:none"
             id="path170" />
          <path
             d="m 5097.3858,5840.0971 -18.97,-44.63 22.03,19.39 z m 7.97,-27.11 4.24,-34.96 18.86,23.85 -5.65,26.47 z m 28.11,-12.29 6.7,-31.35 14.48,20.47 -6.74,29.14 z m 26.19,-11.86 7.61,-32.84 15.35,21.26 -8.85,31.52 z m 28.05,-12.48 7.59,-27.01 19.96,18.47 -9.66,33.3 z m 32.82,-10 7.01,-24.14 13.66,43.27 z m 6.91,-34.5 h -0.02 c -1.03,0.01 -1.92,0.7 -2.21,1.68 l -8.5,29.28 -21.04,-19.48 -2.22,-0.52 -1.61,1.61 -7.61,27.11 -16.19,-22.42 -2.34,-0.92 -1.82,1.76 -7.82,33.8 -15.16,-21.43 -2.37,-0.93 c -0.9,0.18 -1.61,0.88 -1.81,1.79 l -6.99,32.78 -19.94,-25.2 c -0.59,-0.74 -1.55,-1.06 -2.46,-0.8 -0.9,0.25 -1.57,1.02 -1.67,1.96 l -4.53,37.33 -27.32,-24.05 -2.9,-0.14 c -0.88,0.63 -1.2,1.79 -0.77,2.79 l 26.37,62.07 c 0.42,0.97 1.44,1.52 2.47,1.4 1.04,-0.15 1.85,-0.98 1.98,-2.03 l 3.72,-30.71 18.04,15.88 2.26,0.47 1.56,-1.73 5.67,-26.6 15.05,19.03 2.33,0.83 1.76,-1.75 6.9,-29.81 14.54,20.54 2.29,0.95 1.86,-1.67 9.16,-32.65 18.51,25.63 2.29,0.93 1.83,-1.64 10.35,-35.64 25.41,23.51 2.83,0.25 c 0.89,-0.56 1.29,-1.66 0.96,-2.66 l -18.61,-58.97 c -0.31,-0.97 -1.21,-1.63 -2.23,-1.63"
             style="fill:#ffffff;fill-opacity:1;fill-rule:nonzero;stroke:none"
             id="path172" />
          <path
             d="m 4618.6958,6528.6871 c -5.79,-48.76 -29.99,-214.2 -8.54,-266.48 14.28,-34.83 39.6,-66.4 66.64,-93.33 18.35,7.43 53.09,127.72 71.44,135.15 11.42,64.71 4.87,141.13 -1.9,210.32 -37.67,6.5 -89.96,7.84 -127.64,14.34"
             style="fill:#f59377;fill-opacity:1;fill-rule:nonzero;stroke:none"
             id="path174" />
          <path
             d="m 5290.4558,6533.5671 c 6.64,-51.27 26.1,-228.44 -0.8,-278.33 -17.92,-33.23 -64.4,-78.96 -94.18,-103.08 -17.46,9.2 -12,154.88 -29.46,164.08 -16.51,68.37 -20.32,145.3 0.35,207.84 38.17,2.75 85.93,6.73 124.09,9.49"
             style="fill:#f59377;fill-opacity:1;fill-rule:nonzero;stroke:none"
             id="path176" />
          <path
             d="m 5144.7758,6159.1171 h -395.54 l -1,391.45 419.05,8.35 -22.51,-399.8"
             style="fill:#283e91;fill-opacity:1;fill-rule:nonzero;stroke:none"
             id="path178" />
          <path
             d="m 4610.1958,6157.0671 c 72.32,-14.48 182.23,-31.08 316.51,-29.16 208.62,2.98 318.73,48.41 330.72,12.06 13.55,-41.07 -104.53,-167.53 -242.19,-195.03 -58.82,-11.75 -134.7,15.29 -286.46,69.37 -43.92,15.65 -97.69,37.16 -114.41,91.48 -6.04,19.61 -5.62,38.21 -4.17,51.28"
             style="fill:#222d58;fill-opacity:1;fill-rule:nonzero;stroke:none"
             id="path180" />
          <path
             d="m 4610.1158,6521.3071 c -1.92,16.68 11.99,96.2 40.33,134.36 33.41,23.28 90.4,33.62 152.84,46.4 81.05,16.6 158.96,18.85 192.15,16.07 121.9,-10.23 218.1,-46.26 260.79,-75.31 26.54,-32.87 40.58,-83.64 43.61,-115.95 4.6,-49.06 -686.21,-36.04 -689.72,-5.57"
             style="fill:#283e91;fill-opacity:1;fill-rule:nonzero;stroke:none"
             id="path182" />
          <path
             d="m 4670.4458,6147.6271 c 1.11,-16.46 15.5,-29.9 32,-29.85 l 499.19,1.34 c 16.5,0.04 30.66,13.56 31.47,30.04 l 14.34,278.27 c 0.4,16.49 -12.77,29.96 -29.27,29.92 l -538.27,-1.36 c -16.51,-0.04 -29.42,-13.56 -28.7,-30.04 l 19.24,-278.32"
             style="fill:#b4c0e7;fill-opacity:1;fill-rule:nonzero;stroke:none"
             id="path184" />
          <path
             d="m 5037.2258,6785.4071 c -6.46,-38.16 -7.27,-75.75 9.69,-115.91 -40.35,-2.68 -134.07,-4.31 -174.41,-6.98 1.21,37.15 19.47,85.74 -1.11,129.92 57.29,-4.02 108.53,-3.01 165.83,-7.03"
             style="fill:#f59377;fill-opacity:1;fill-rule:nonzero;stroke:none"
             id="path186" />
          <path
             d="m 5092.7758,6897.1471 c 0,-86.62 -60.06,-156.84 -134.15,-156.84 -74.1,0 -134.15,70.22 -134.15,156.84 0,86.62 26.85,156.84 134.15,156.84 110.04,0 134.15,-70.22 134.15,-156.84"
             style="fill:#f9a78b;fill-opacity:1;fill-rule:nonzero;stroke:none"
             id="path188" />
          <path
             d="m 4993.7758,6718.1371 c -29.26,2.55 -95.61,4.72 -165.63,-11.27 0.61,-44.31 57.66,-80.1 127.99,-80.1 68.1,0 124.4,35.37 128.39,77.74 -27.53,7.08 -58.33,10.8 -90.75,13.63"
             style="fill:#f59377;fill-opacity:1;fill-rule:nonzero;stroke:none"
             id="path190" />
          <path
             d="m 4986.3258,6300.1871 c 0,-20.12 -16.31,-36.42 -36.42,-36.42 -20.12,0 -36.43,16.3 -36.43,36.42 0,20.12 16.31,36.42 36.43,36.42 20.11,0 36.42,-16.3 36.42,-36.42"
             style="fill:#ffffff;fill-opacity:1;fill-rule:nonzero;stroke:none"
             id="path192" />
          <path
             d="m 4816.9058,6059.7271 c -37.49,32.96 -95.03,79.73 -170.33,118.64 -55.23,28.55 -91.96,40.84 -136.16,34.92 -27.86,-11.68 -71.2,-64.9 -72.16,-101.25 -1.79,-68.31 105.41,-157.82 200.7,-197.01 138.31,-56.88 354.34,-138.6 380.04,-132.35 33.25,8.09 62.85,104.75 62.85,104.75 -116.84,74.59 -207.05,121.4 -264.94,172.3"
             style="fill:#222d58;fill-opacity:1;fill-rule:nonzero;stroke:none"
             id="path194" />
          <path
             d="m 4847.4958,6899.1071 c 5.82,-15.83 1.04,-32.15 -10.67,-36.45 -11.71,-4.3 -25.92,5.04 -31.73,20.86 -5.81,15.83 -1.03,32.14 10.67,36.44 11.71,4.31 25.92,-5.03 31.73,-20.85"
             style="fill:#f9a78b;fill-opacity:1;fill-rule:nonzero;stroke:none"
             id="path196" />
          <path
             d="m 5071.2658,6899.1071 c -5.81,-15.83 -1.03,-32.15 10.68,-36.45 11.71,-4.3 25.91,5.04 31.72,20.86 5.82,15.83 1.04,32.14 -10.67,36.44 -11.71,4.31 -25.92,-5.03 -31.73,-20.85"
             style="fill:#f9a78b;fill-opacity:1;fill-rule:nonzero;stroke:none"
             id="path198" />
          <path
             d="m 4822.8958,5892.0771 c 0,0 -26.19,19.59 -36.66,19.01 -15.27,-0.85 -36.04,-26.65 -48.1,-32.59 -27.79,-13.67 -85.67,-26.33 -113.28,-40.34 -38.99,-19.79 -45.19,-70.02 -45.19,-70.02 l 91.93,45.97 116.39,54.69 34.91,23.28"
             style="fill:#21242f;fill-opacity:1;fill-rule:nonzero;stroke:none"
             id="path200" />
          <path
             d="m 4905.6658,5832.7471 c -0.56,-4.18 -3.73,-14.65 -15.76,-26.93 -16.75,-17.11 -43.12,-16.85 -49.84,-21.08 -21.94,-13.82 -69.9,-46.15 -176.41,-75.38 -11.79,-3.23 -68.39,-8.74 -82.96,35.67 -14.04,42.77 31.22,71.03 81.97,87.43 48.68,15.73 60.98,14.77 93.31,31.69 14.53,7.61 33.16,28.69 41.89,29.1 8,0.36 37.15,2.42 41.91,-6.99"
             style="fill:#222d58;fill-opacity:1;fill-rule:nonzero;stroke:none"
             id="path202" />
          <path
             d="m 4856.6858,5853.3171 c -62.47,-12.75 -123.61,-32.02 -182.11,-57.38 -16.16,-7.02 -34.89,-19.12 -32.71,-36.6 1.44,-11.62 12.63,-20.14 24.16,-22.23 11.52,-2.1 23.32,0.83 34.59,4.03 61.01,17.32 119.27,43.01 177.29,68.61"
             style="fill:#283e91;fill-opacity:1;fill-rule:nonzero;stroke:none"
             id="path204" />
          <path
             d="m 4803.0658,5814.8671 22.02,-19.4 -18.96,44.63 z m -28.02,-12.99 18.87,-23.85 4.23,34.96 -17.44,15.36 z m -26.19,-12.06 14.48,-20.47 6.7,31.36 -14.43,18.25 z m -27.97,-12.56 15.36,-21.26 7.6,32.84 -14.1,19.94 z m -32.64,-9.44 19.97,-18.47 7.58,27.01 -17.88,24.76 z m -25.94,17.66 13.67,-43.26 7,24.14 z m 13.76,-53.62 c -1.02,0 -1.92,0.66 -2.22,1.63 l -18.62,58.97 c -0.31,1 0.08,2.1 0.97,2.66 l 2.83,-0.25 25.41,-23.51 10.34,35.64 1.83,1.64 2.29,-0.93 18.52,-25.63 9.16,32.65 1.85,1.67 2.3,-0.95 14.53,-20.54 6.9,29.81 1.76,1.75 2.34,-0.83 15.04,-19.02 5.69,26.59 1.54,1.73 2.26,-0.47 18.04,-15.88 3.72,30.71 c 0.13,1.05 0.94,1.88 1.98,2.03 1.05,0.12 2.06,-0.43 2.47,-1.4 l 26.38,-62.07 c 0.43,-1 0.11,-2.16 -0.77,-2.79 l -2.9,0.14 -27.32,24.05 -4.53,-37.33 c -0.11,-0.94 -0.78,-1.71 -1.68,-1.96 -0.9,-0.26 -1.87,0.06 -2.46,0.8 l -19.93,25.2 -7,-32.78 c -0.2,-0.91 -0.9,-1.61 -1.81,-1.79 l -2.37,0.93 -15.16,21.42 -7.82,-33.8 -1.81,-1.75 -2.35,0.92 -16.18,22.42 -7.62,-27.11 -1.61,-1.61 -2.21,0.52 -21.05,19.48 -8.5,-29.28 c -0.28,-0.98 -1.18,-1.67 -2.2,-1.68 h -0.03"
             style="fill:#ffffff;fill-opacity:1;fill-rule:nonzero;stroke:none"
             id="path206" />
          <path
             d="m 5394.9058,6212.1271 c -46.56,11.63 -74.61,5.11 -130.35,-20.95 -72.15,-33.75 -141.98,-86.12 -190.86,-126.86 -59.22,-49.35 -133.83,-105.9 -260.69,-161.77 0,0 18.12,-131.98 55.86,-125.69 58.55,9.76 251.88,81.29 390.18,138.17 95.28,39.19 205.15,132.2 203.36,200.5 -0.96,36.35 -39.64,84.91 -67.5,96.6"
             style="fill:#222d58;fill-opacity:1;fill-rule:nonzero;stroke:none"
             id="path208" />
          <path
             d="m 5018.9958,7080.8971 c -52.93,21.69 -110.56,13.39 -151.88,-20.95 -61.06,-50.74 -46.74,-137.91 -46.74,-137.91 13.58,0.97 18.61,-20.04 16.1,-34.33 -1.35,-7.66 20.14,-18.25 20.72,-12.17 3.13,33.13 1.19,125.64 89.38,115.7 14.32,-3.05 28.04,-10.84 40,-19.68 17.92,-13.28 34.17,-29.37 54.61,-38.29 6.69,-2.92 14.08,-4.82 21.48,-5.5 8.45,-27.59 6.38,-53.44 6.38,-53.44 0,0 18.68,5.91 19.78,11.64 1.13,5.88 49.46,146.05 -69.83,194.93"
             style="fill:#222d58;fill-opacity:1;fill-rule:nonzero;stroke:none"
             id="path210" />
          <path
             d="m 2719.9158,4197.7171 v 251.33 c 0,52.55 1.42,106.51 5.67,160.46 h -5.67 c -28.4,-58.21 -52.54,-105.08 -80.94,-156.19 l -168.98,-252.76 -1.42,-2.84 z m 0,-366.35 v 234.29 h -417.48 v 113.6 l 376.3,575.09 h 205.89 v -556.63 h 119.28 v -132.06 h -119.28 v -234.29 h -164.71"
             style="fill:#ffffff;fill-opacity:1;fill-rule:nonzero;stroke:none"
             id="path212" />
          <path
             d="m 2331.1858,6490.3171 c -4.89,-42.84 -29.11,-192.72 -11,-238.65 12.07,-30.59 33.46,-58.33 56.3,-81.99 15.5,6.52 60.37,114.63 75.88,121.15 -5.72,60.79 -11.42,121.57 -17.14,182.35 -31.82,5.72 -72.22,11.42 -104.04,17.14"
             style="fill:#f59377;fill-opacity:1;fill-rule:nonzero;stroke:none"
             id="path214" />
          <path
             d="m 2891.0158,6488.9871 c 5.61,-45.04 25.86,-199.61 3.14,-243.43 -15.14,-29.2 -54.4,-69.37 -79.55,-90.57 -14.75,8.08 -45.56,139.03 -60.31,147.11 11.91,59.88 23.82,119.75 35.72,179.63 32.24,2.42 68.77,4.84 101,7.26"
             style="fill:#f59377;fill-opacity:1;fill-rule:nonzero;stroke:none"
             id="path216" />
          <path
             d="m 2771.7758,6161.1071 h -334.1 c 0,0 -42.17,280.11 18.36,343.89 65.29,68.8 263.83,65.36 310.84,7.35 55.35,-68.31 4.9,-351.24 4.9,-351.24"
             style="fill:#99bee8;fill-opacity:1;fill-rule:nonzero;stroke:none"
             id="path218" />
          <path
             d="m 2293.8758,6140.0571 c 66.66,-13.34 167.96,-28.64 291.72,-26.87 192.29,2.75 293.77,44.61 304.81,11.12 12.49,-37.86 -96.34,-154.41 -223.21,-179.76 -54.21,-10.83 -124.15,14.09 -264.02,63.93 -40.49,14.43 -90.05,34.25 -105.45,84.33 -5.56,18.06 -5.18,35.2 -3.85,47.25"
             style="fill:#222d58;fill-opacity:1;fill-rule:nonzero;stroke:none"
             id="path220" />
          <path
             d="m 2328.7458,6479.2971 c -1.62,14.65 8.03,74.12 31.97,107.64 28.22,20.46 58.41,33.44 122.61,51.16 67.47,18.62 134.28,16.56 162.31,14.12 102.96,-8.99 175.64,-40.64 211.7,-66.16 22.42,-28.88 34.27,-73.48 36.83,-101.86 3.89,-43.11 -562.46,-31.67 -565.42,-4.9"
             style="fill:#99bee8;fill-opacity:1;fill-rule:nonzero;stroke:none"
             id="path222" />
          <path
             d="m 2349.2558,6133.7071 c 1.1,-16.47 15.5,-29.9 32,-29.85 l 455.39,1.22 c 16.5,0.04 30.66,13.56 31.46,30.04 l 13.06,251.78 c 0.39,16.49 -12.78,29.95 -29.28,29.92 l -491.41,-1.25 c -16.51,-0.03 -29.41,-13.55 -28.69,-30.04 l 17.47,-251.82"
             style="fill:#ffffff;fill-opacity:1;fill-rule:nonzero;stroke:none"
             id="path224" />
          <path
             d="m 2732.7758,6633.1371 h -255.83 v 197.86 h 255.83 v -197.86"
             style="fill:#25397c;fill-opacity:1;fill-rule:nonzero;stroke:none"
             id="path226" />
          <path
             d="m 2675.6258,6711.3071 c -4.7,-33.52 -16.76,-72.33 -4.41,-107.61 -29.41,-2.35 -71.15,5 -100.56,2.65 0.88,32.63 -0.88,72.33 -15.88,111.14 41.76,-3.53 79.1,-2.65 120.85,-6.18"
             style="fill:#f59377;fill-opacity:1;fill-rule:nonzero;stroke:none"
             id="path228" />
          <path
             d="m 2722.9458,6804.1071 c 0,-76.09 -48.44,-137.78 -108.19,-137.78 -59.75,0 -108.18,61.69 -108.18,137.78 0,76.1 48.43,137.79 108.18,137.79 59.75,0 108.19,-61.69 108.19,-137.79"
             style="fill:#f9a78b;fill-opacity:1;fill-rule:nonzero;stroke:none"
             id="path230" />
          <path
             d="m 2645.6358,6652.2171 c -25.71,2.24 -84,4.14 -145.52,-9.91 0.54,-38.92 50.66,-70.37 112.44,-70.37 59.84,0 108.74,29.51 112.24,66.74 -24.19,6.22 -50.68,11.05 -79.16,13.54"
             style="fill:#f59377;fill-opacity:1;fill-rule:nonzero;stroke:none"
             id="path232" />
          <path
             d="m 2643.9258,6934.3371 c -2.83,-16.7 -9.45,-32.76 -25.64,-49.25 -40.12,-40.89 -74.88,-47.82 -97.91,-76.75 -20.09,-25.25 -19.2,-100.12 32.18,-209.86 -46.07,-26.22 -87.89,1.46 -98.3,8.83 -40.96,28.98 -29.87,171.76 -0.03,258.37 17.81,51.74 38.48,111.75 97.91,138.49 6.15,2.77 62.4,27.07 115.55,1.76 52.75,-25.12 73.04,-83.67 95.33,-166.11 13.58,-50.22 27.73,-178.31 11.97,-210.46 -18.16,-37.03 -60.9,-39.92 -91.42,-31.84 47.32,45.71 43.54,185.88 37.86,227.18 -3.84,28.03 -18.9,83.8 -77.5,109.64"
             style="fill:#283e91;fill-opacity:1;fill-rule:nonzero;stroke:none"
             id="path234" />
          <path
             d="m 2640.5358,6271.9671 c 0,-18.54 -15.02,-33.57 -33.56,-33.57 -18.54,0 -33.57,15.03 -33.57,33.57 0,18.54 15.03,33.57 33.57,33.57 18.54,0 33.56,-15.03 33.56,-33.57"
             style="fill:#b4c0e7;fill-opacity:1;fill-rule:nonzero;stroke:none"
             id="path236" />
          <path
             d="m 2616.7158,5863.4871 c 0.18,-3.82 2.26,-13.53 12.19,-25.56 13.85,-16.75 37.72,-18.54 43.48,-22.88 18.79,-14.18 58.26,-40.73 152.39,-75.31 10.41,-3.82 62.63,-19.49 79.2,19.57 15.97,37.62 -22.81,66.64 -67.47,85.35 -42.83,17.95 -65.04,13.71 -92.99,31.49 -12.56,7.99 -21.35,22.01 -29.23,23.04 -7.19,0.95 -15.3,-0.07 -20.32,-8.21"
             style="fill:#f59377;fill-opacity:1;fill-rule:nonzero;stroke:none"
             id="path238" />
          <path
             d="m 2486.2158,6048.9271 c -34.03,29.93 -84.44,76.53 -155.83,105.25 -51.82,20.84 -91.37,26.92 -130.53,24.47 -25.3,-10.6 -51.36,-41.24 -52.22,-74.24 -1.63,-62.01 90.54,-151.26 177.04,-186.83 125.56,-51.64 324.23,-111.74 347.56,-106.07 30.19,7.35 50.59,68.53 50.59,68.53 -106.07,67.72 -184.05,122.68 -236.61,168.89"
             style="fill:#283e91;fill-opacity:1;fill-rule:nonzero;stroke:none"
             id="path240" />
          <path
             d="m 2566.7958,5842.8671 c -0.5,-3.79 -3.38,-13.29 -14.3,-24.44 -15.21,-15.53 -39.14,-15.3 -45.24,-19.14 -19.93,-12.55 -61.49,-35.68 -158.19,-62.21 -10.7,-2.94 -64.05,-14.15 -77.28,26.16 -12.74,38.83 28.34,64.49 74.42,79.38 44.19,14.28 65.96,8.18 95.31,23.55 13.19,6.9 23.13,20.12 31.06,20.49 7.25,0.34 15.25,-1.36 19.56,-9.89"
             style="fill:#f59377;fill-opacity:1;fill-rule:nonzero;stroke:none"
             id="path242" />
          <path
             d="m 3012.4358,6178.6471 c -39.16,2.45 -78.72,-3.63 -130.54,-24.47 -71.38,-28.72 -121.79,-75.32 -155.83,-105.25 -52.56,-46.21 -119.42,-106.91 -232.53,-172.96 0,0 8.19,-76.69 42.45,-70.99 53.15,8.87 226.06,60.96 351.62,112.6 86.5,35.57 178.68,124.82 177.05,186.83 -0.87,33 -26.93,63.64 -52.22,74.24"
             style="fill:#283e91;fill-opacity:1;fill-rule:nonzero;stroke:none"
             id="path244" />
          <path
             d="m 2349.0658,5737.0771 c 8.65,2.37 16.84,4.72 24.63,7.03 -20.15,12.94 -33.52,35.34 -33.52,60.87 0,14.55 4.38,28.05 11.83,39.41 -1.9,-0.57 -3.8,-1.13 -5.8,-1.77 -46.08,-14.89 -87.16,-40.55 -74.42,-79.38 13.23,-40.31 66.58,-29.1 77.28,-26.16"
             style="fill:#222d58;fill-opacity:1;fill-rule:nonzero;stroke:none"
             id="path246" />
          <path
             d="m 2865.1158,5829.9271 c -7.91,4.22 -15.46,8.15 -22.71,11.84 5.72,-23.26 0.02,-48.71 -17.54,-67.25 -10.01,-10.55 -22.47,-17.34 -35.69,-20.46 1.77,-0.9 3.54,-1.81 5.43,-2.71 43.68,-20.88 91.15,-30.52 108.61,6.43 18.13,38.36 -28.31,66.92 -38.1,72.15"
             style="fill:#222d58;fill-opacity:1;fill-rule:nonzero;stroke:none"
             id="path248" />
          <path
             d="m 3427.9158,7179.9871 c 0,-149.11 -120.88,-270 -270,-270 -149.12,0 -270,120.89 -270,270 0,149.12 120.88,270 270,270 149.12,0 270,-120.88 270,-270"
             style="fill:#4ccc8d;fill-opacity:1;fill-rule:nonzero;stroke:none"
             id="path250" />
          <path
             d="m 3147.8958,7344.8271 c -8.15,-36.21 -17.84,-71.89 -28.08,-107.37 -5.05,-17.77 -10.6,-35.36 -15.87,-53.05 l -16.82,-52.71 -17.84,16.14 c 12.85,6.53 25.96,12.5 38.92,18.77 13.02,6.16 25.95,12.51 39.04,18.51 l 39.32,17.93 c 13.06,6.06 26.27,11.82 39.5,17.54 l 31.45,13.58 -14.51,-30.22 c -7.42,-15.46 -14.6,-31.02 -22.37,-46.32 -7.68,-15.35 -15.14,-30.79 -23.17,-45.98 -7.82,-15.27 -15.85,-30.46 -24.1,-45.55 -8.21,-15.11 -16.63,-30.12 -25.47,-44.94 5.08,16.49 10.57,32.81 16.29,49.02 5.67,16.24 11.57,32.37 17.66,48.42 5.9,16.13 12.36,32.02 18.6,48 6.15,16.02 12.89,31.78 19.39,47.65 l 16.95,-16.64 c -12.88,-6.47 -25.78,-12.89 -38.81,-19 l -39,-18.62 c -13,-6.19 -26.18,-12.01 -39.26,-18.04 -13.14,-5.9 -26.13,-12.12 -39.39,-17.77 l -28.65,-12.19 10.81,28.33 19.72,51.7 c 6.91,17.11 13.54,34.32 20.67,51.37 14.13,34.12 28.8,68.06 45.02,101.44"
             style="fill:#ffffff;fill-opacity:1;fill-rule:nonzero;stroke:none"
             id="path252" />
          <path
             d="m 2941.7158,7034.3471 -46.86,-122.74 156.17,60.27"
             style="fill:#4ccc8d;fill-opacity:1;fill-rule:nonzero;stroke:none"
             id="path254" />
          <path
             d="m 3259.5058,4290.0171 c -1.42,-224.36 61.06,-340.79 157.62,-340.79 102.24,0 156.2,124.95 156.2,346.47 0,214.42 -51.13,340.79 -156.2,340.79 -93.72,0 -159.04,-115.02 -157.62,-346.47 z m 488.47,8.51 c 0,-296.76 -116.42,-482.78 -336.53,-482.78 -213,0 -326.6,193.12 -328.01,474.27 0,286.83 122.11,479.95 337.95,479.95 222.94,0 326.59,-198.8 326.59,-471.44"
             style="fill:#ffffff;fill-opacity:1;fill-rule:nonzero;stroke:none"
             id="path256" />
          <path
             d="m 4242.1358,4197.7171 v 251.33 c 0,52.55 1.43,106.51 5.69,160.46 h -5.69 c -28.4,-58.21 -52.54,-105.08 -80.94,-156.19 l -168.98,-252.76 -1.41,-2.84 z m 0,-366.35 v 234.29 h -417.48 v 113.6 l 376.31,575.09 h 205.9 v -556.63 h 119.28 v -132.06 h -119.28 v -234.29 h -164.73"
             style="fill:#ffffff;fill-opacity:1;fill-rule:nonzero;stroke:none"
             id="path258" />
          <path
             d="m 3136.9458,3367.6371 c 20.86,56.72 47.99,106.36 73.39,166.29 16.28,38.43 39,87.76 55.67,123.87 4.57,38.49 -17.43,61.08 -12.53,102.99 7.32,62.58 27.37,90.46 46.86,100.66 8.54,-31.11 -25.05,-112.72 13.72,-116.83 10.1,-1.08 22.2,57.52 28.69,55.41 17.01,-5.53 -27,-105.9 -32.66,-145.51 -3.39,-23.71 -19.19,-81.28 -31.61,-147.88 -26.3,-141.1 -16.86,-175.39 -51.49,-186.5 -14.43,-4.63 -41.33,-2.88 -90.04,47.5"
             style="fill:#f59377;fill-opacity:1;fill-rule:nonzero;stroke:none"
             id="path260" />
          <path
             d="m 3398.1358,3737.2171 c -3.21,-8.96 8.59,-21.77 26.89,-28.34 18.3,-6.58 34.95,-7.99 38.17,0.95 3.21,8.96 -6.97,17.99 -25.27,24.56 -18.3,6.57 -36.58,11.77 -39.79,2.83"
             style="fill:#f5f6f4;fill-opacity:1;fill-rule:nonzero;stroke:none"
             id="path262" />
          <path
             d="m 3012.2758,1274.9271 c -50.13,-109.007 -37.15,-159.859 -37.15,-159.859 0,0 53.3,-38.109 150.31,-44.539 110.81,-7.363 141.96,16.699 141.96,16.699 0,0 10,39.301 -28.76,50.098 -56.6,15.769 -129.2,27.14 -140.68,35.152 -15.39,10.719 -3.36,37.879 21.18,104.429 -35.62,-0.66 -71.24,-1.32 -106.86,-1.98"
             style="fill:#283e91;fill-opacity:1;fill-rule:nonzero;stroke:none"
             id="path264" />
          <path
             d="m 3012.2758,1274.9271 c -17.71,-38.51 -27.45,-69.61 -32.76,-93.922 19.82,-11.128 43.86,-17.699 69.84,-17.699 21.85,0 29.79,1.422 47.55,9.512 -8.78,16.019 1.68,48.379 22.23,104.089 -35.62,-0.66 -71.24,-1.32 -106.86,-1.98"
             style="fill:#f9a78b;fill-opacity:1;fill-rule:nonzero;stroke:none"
             id="path266" />
          <path
             d="m 2974.2058,1101.1461 c -4.18,2.32 0.46,27.371 0.46,27.371 0,0 47.78,-33.398 166.08,-44.07 35.43,-3.199 126.65,4.629 126.65,4.629 0,0 2.32,-15.297 -4.64,-18.547 -9.09,-4.242 -45.45,-11.801 -126.18,-9.281 -89.08,2.781 -144.53,29.98 -162.37,39.898"
             style="fill:#22242f;fill-opacity:1;fill-rule:nonzero;stroke:none"
             id="path268" />
          <path
             d="m 3200.2658,2276.2571 c -3.29,-4.62 -6.6,-9.23 -9.89,-13.85 30.39,-114.83 60.89,-281.62 51.45,-482.86 -10.74,-229.04 -83.85,-454.04 -131.7,-571.24 -33.4,-19.481 -107.16,-8.35 -137.78,6.96 0,94.99 70.13,389.64 81.49,477.21 10.73,82.84 -21.44,206.66 -33.65,253.3 60.03,110.17 120.06,220.32 180.08,330.48"
             style="fill:#1f304e;fill-opacity:1;fill-rule:nonzero;stroke:none"
             id="path270" />
          <path
             d="m 3315.7358,3648.8771 c -29.36,-5.65 -56.45,10.15 -56.45,10.15 l -126.44,-281.08 16.94,-91.44 127.56,138.85 c 0,0 39.49,223.73 38.39,223.52"
             style="fill:#99bee8;fill-opacity:1;fill-rule:nonzero;stroke:none"
             id="path272" />
          <path
             d="m 2630.9058,1132.2281 c -16.71,-21.801 -33.49,-62.199 -16.24,-95.801 27.14,-52.88997 160.98,-43.60897 107.86,-135.69897 -0.52,-0.902 -75.32,-2.391 -128.74,47.328 -52.4,48.762 -136.07,19.992 -134.54,82.69897 0.83,34.063 61.17,112.293 67.31,152.973 21.2,-8.16 83.14,-43.34 104.35,-51.5"
             style="fill:#283e91;fill-opacity:1;fill-rule:nonzero;stroke:none"
             id="path274" />
          <path
             d="m 3160.9858,3275.3871 c 5.58,17.24 21.57,66.66 -5.93,112.78 -28.69,48.14 -83.23,56.61 -100.93,59.37 -9.83,1.53 -88.2,13.73 -118.72,-29.68 -34.28,-48.74 17.36,-131.22 53.43,-169.19 17.13,-18.04 63.13,-66.47 109.82,-53.43 40.02,11.18 56.05,60.72 62.33,80.15"
             style="fill:#f9a78b;fill-opacity:1;fill-rule:nonzero;stroke:none"
             id="path276" />
          <path
             d="m 3024.1458,3431.9371 c 30.31,43.54 -29.53,92.25 -29.53,92.25 0,0 -27.15,-28.34 -64.25,-42.89 -49.28,-19.33 -91.32,-79.27 -95.14,-131.83 -4.62,-63.71 24.97,-128.92 78.83,-157.65 40.77,-21.75 100.15,-15.29 116.74,-14.17 11,10.3 16.08,29.23 17.1,52.45 1.79,40.97 -43.88,58.98 -53.43,104.88 -4.12,19.76 -2.91,51.35 29.68,96.96"
             style="fill:#1d3364;fill-opacity:1;fill-rule:nonzero;stroke:none"
             id="path278" />
          <path
             d="m 2526.5558,1183.7281 c -3.67,-24.289 -26.62,-61.93 -44.72,-95.601 25.72,-25.629 64.28,-41.961 107.43,-41.961 7.15,0 14.13,0.601 21,1.461 -9.12,30.992 5.75,65.171 20.64,84.601 -21.21,8.16 -83.15,43.34 -104.35,51.5"
             style="fill:#f9a78b;fill-opacity:1;fill-rule:nonzero;stroke:none"
             id="path280" />
          <path
             d="m 2933.1158,2434.5671 c -14.15,-41.93 -43.55,-61.39 -67.28,-144.45 -47.5,-166.23 -36.89,-338.75 -89.05,-476.93 -49.2,-130.32 -74.28,-127.83 -154.36,-296.83 -70,-147.74 -124.92,-305.87 -147.4,-387.379 43.64,-31.172 103.8,-55.312 161.44,-55.672 113.22,241.511 239.81,455.461 318.42,583.551 83.86,136.65 156.38,241.02 215.7,409.63 51.75,147.11 69.97,276.37 77.18,364.12 -100.27,1.99 -214.39,1.99 -314.65,3.96"
             style="fill:#1d3364;fill-opacity:1;fill-rule:nonzero;stroke:none"
             id="path282" />
          <path
             d="m 3023.3158,3292.8271 c -4.77,7.39 -16.41,8.31 -23.26,2.77 -6.84,-5.53 -8.78,-15.76 -5.92,-24.09 2.86,-8.33 9.76,-14.8 17.59,-18.84 8.38,-4.31 18.22,-6.15 27.39,-3.95 9.16,2.2 17.44,8.73 20.66,17.59"
             style="fill:#f9a78b;fill-opacity:1;fill-rule:nonzero;stroke:none"
             id="path284" />
          <path
             d="m 2459.4858,1038.5171 c 0,0 -12.36,-34.57 -5.57,-45.22997 4.87,-7.66 68.2,-44.539 123.17,-67.5 32.68,-13.649 125.95,-41.758 136.39,-38.27 6.32,2.102 14.61,22.262 14.61,22.262 0,0 -108.51,33.41 -142.65,48.707 -86.98,38.973 -125.95,80.03097 -125.95,80.03097"
             style="fill:#22242f;fill-opacity:1;fill-rule:nonzero;stroke:none"
             id="path286" />
          <path
             d="m 3271.3758,3224.8771 c 93.32,118.19 90.59,136.86 116.13,204.99 28.61,76.27 53.13,211.11 65.11,264.64 6.29,28.11 6.48,35.75 15.54,47.31 9.86,8.42 40.14,52.22 51.47,77.12 9.07,19.98 29.05,87.17 1.82,100.79 -36.06,18.03 -61.11,-46 -71.28,-86.71 -2.73,-10.89 -35.42,-20.43 -35.42,-20.43 0,0 -1.07,-49.17 -2.72,-55.84 -18.09,-73.07 -51.75,-114.41 -123.94,-287.39 -25.58,-61.29 -53.01,-46.29 -103.78,-141.58 29.03,-34.3 58.05,-68.6 87.07,-102.9"
             style="fill:#f9a78b;fill-opacity:1;fill-rule:nonzero;stroke:none"
             id="path288" />
          <path
             d="m 3398.1358,3738.0571 c 6.78,-24.84 45.15,-34.99 65.48,-28.23 -8.64,-16.44 -32.09,-198.77 -86.93,-327.37 -48.65,-114.1 -131.14,-204.47 -144.75,-215.68 49.38,-72.64 72.53,-124.13 93.91,-220.17 51.07,-229.32 -50.73,-493.89 -83.49,-595.37 -86.32,-9.94 -139.77,-6.96 -201.35,2.49 -51.41,7.88 -111.06,19.23 -130.54,38.71 42.58,161.1 21.74,304.64 20.67,388.45 -1.47,115.62 -6.11,212.12 -7.91,281 -0.76,28.82 17.31,77.3 48.19,112.97 31.07,35.89 54.86,32.61 92.31,51.28 20.97,10.45 117.95,107.77 200.08,217.29 27.09,36.12 130.32,267.18 134.33,294.63"
             style="fill:#99bee8;fill-opacity:1;fill-rule:nonzero;stroke:none"
             id="path290" />
          <path
             d="m 3275.7158,2869.2671 c -2.16,96.64 -27.1,221.95 -44.85,296.27 1.12,-0.7 2.2,-1.42 3.31,-2.12 47.81,-70.86 70.62,-122.27 91.67,-216.81 51.07,-229.32 -51.85,-496.71 -84.62,-598.19 -40.32,-4.65 -51.61,-5.3 -86.08,-4.24 56.24,130.71 125.57,301.26 120.57,525.09"
             style="fill:#6ca8de;fill-opacity:1;fill-rule:nonzero;stroke:none"
             id="path292" />
          <path
             d="m 3386.0458,3702.4371 c 10.9,-9.38 34.45,-24.49 70.34,-21.31 -0.35,-1.69 -0.7,-3.41 -1.06,-5.22 -2.92,-0.23 -5.78,-0.35 -8.54,-0.35 -30.67,0 -51.66,12.85 -62.7,21.94 0.67,1.67 1.33,3.34 1.96,4.94"
             style="fill:#f5f6f4;fill-opacity:1;fill-rule:nonzero;stroke:none"
             id="path294" />
          <path
             d="m 3245.1358,3627.5971 c 12.67,-7.96 34.91,-17.26 65.23,-12.58 -0.29,-1.71 -0.6,-3.5 -0.9,-5.29 -2.07,-0.31 -4.15,-0.61 -6.15,-0.78 -27.39,-2.29 -47.83,6.35 -60.25,14.03 l 2.07,4.62"
             style="fill:#f5f6f4;fill-opacity:1;fill-rule:nonzero;stroke:none"
             id="path296" />
          <path
             d="m 2903.6858,2376.3571 c 0,0 127,-77.05 330.2,-66.05 1.2,0.07 9.66,42.33 8.47,42.34 -198.12,2.53 -324.27,70.27 -324.27,70.27 l -14.4,-46.56"
             style="fill:#cd8e65;fill-opacity:1;fill-rule:nonzero;stroke:none"
             id="path298" />
          <path
             d="m 1724.2858,4877.8571 h -430 v 515 h 430 v -515"
             style="fill:#ffffff;fill-opacity:1;fill-rule:nonzero;stroke:none"
             id="path300" />
          <path
             d="m 2114.2858,5077.8571 h -400 v 315 h 400 v -315"
             style="fill:#ffffff;fill-opacity:1;fill-rule:nonzero;stroke:none"
             id="path302" />
          <path
             d="m 1961.7158,4999.3971 350,-655 17.64,9.42 -350,655"
             style="fill:#ffffff;fill-opacity:1;fill-rule:nonzero;stroke:none"
             id="path304" />
          <path
             d="m 1963.9458,4356.6971 c 29.65,16.08 46.19,24.89 75.34,63.66 19.03,25.31 75.28,66.98 119.46,105.72 -3.27,10.02 -4.46,26.15 15.54,53.65 11.61,15.97 30.2,31.2 41.25,32.5 14.26,1.69 38.11,-24.04 46.88,-37.5 16.97,-26.06 -35.36,-74.91 -41.88,-87.5 -27.49,-53.07 -100.86,-125.12 -179.37,-222.5 -29.17,-15.7 -78.65,-32.19 -117.6,-52.74 -24.38,-12.87 -43.75,-23.55 -62.82,-29.16 -2.24,51.97 -4.48,103.95 -6.73,155.92 35.9,1.12 74.4,-1.33 109.93,17.95"
             style="fill:#f9a78b;fill-opacity:1;fill-rule:nonzero;stroke:none"
             id="path306" />
          <path
             d="m 1648.7458,4614.6971 c 22.09,-3.72 20.66,-67.47 20.01,-109.81 -0.75,-48.7 -17.06,-107.45 -52.39,-125.98 -18.94,-9.93 -37.21,-5.52 -55.43,10.87 -86.04,77.41 -32.92,154.17 0.27,187.14 14.51,14.41 62.98,41.91 87.54,37.78"
             style="fill:#f9a78b;fill-opacity:1;fill-rule:nonzero;stroke:none"
             id="path308" />
          <path
             d="m 1333.9958,2647.1271 c -2.15,-14.49 10.51,-34.24 2.24,-56.1 -15.7,-41.5 -6.43,-56.57 -2.24,-59.44 35.9,-24.69 90.07,1.3 134.94,16.26 54.13,18.05 142.46,44.87 142.46,44.87 0,0 4.46,11.65 -3.36,28.61 -6.73,14.58 -59.22,6.37 -94.57,6.73 -21.6,0.21 -39.55,0.71 -57.2,12.33 -12.68,8.35 -10.2,22.57 -14.59,30.29 -29.16,-6.36 -78.52,-17.2 -107.68,-23.55"
             style="fill:#1d3364;fill-opacity:1;fill-rule:nonzero;stroke:none"
             id="path310" />
          <path
             d="m 1706.2358,2631.4671 c 7.85,-28.04 -23.82,-80.65 5.61,-108.81 25.8,-24.67 72.91,-1.12 127.88,8.98 71.99,13.22 94.5,11.33 113.3,32.53 16.78,18.93 30.68,39.11 19.96,52.71 -6.95,8.82 -31.05,17.97 -70.44,15.72 -41.75,-2.4 -54.97,-13.96 -71.71,-7.42 -18.47,7.24 -24.55,27.28 -31.5,38.82 -29.91,-11.59 -63.18,-20.93 -93.1,-32.53"
             style="fill:#1d3364;fill-opacity:1;fill-rule:nonzero;stroke:none"
             id="path312" />
          <path
             d="m 1229.5858,4019.0471 c -3.74,-38.13 4.49,-87.49 -0.74,-137.6 -4.53,-43.33 12.65,-83.41 23.18,-113.67 32.54,-93.5 39.63,-108.43 64.31,-155.55 18.46,-35.23 -0.66,-54.63 11.96,-95.71 10.01,-32.54 27.7,-61.83 51.63,-62.58 30.66,20.19 10.54,52.22 10.69,128.26 0.06,33.72 -7.4,55.06 -19.01,80.76 -8.04,17.82 -33.75,122.5 -40.31,188.58 -6.02,60.57 15.48,108.63 24.67,126.39 -40.87,12.46 -85.5,28.66 -126.38,41.12"
             style="fill:#f9a78b;fill-opacity:1;fill-rule:nonzero;stroke:none"
             id="path314" />
          <path
             d="m 1569.0958,4327.5271 c 4.49,21.32 -13.32,49.27 24.82,63.86 -7.24,11.44 -5.67,39.26 -55.48,56.91 -53.58,19 -99.41,3.1 -111.42,-1.49 3.63,-8.64 9.5,-25.9 7.48,-47.86 -2.71,-29.42 -28.74,-56.52 -34.78,-63.57 53.1,-0.74 116.29,-7.1 169.38,-7.85"
             style="fill:#f9a78b;fill-opacity:1;fill-rule:nonzero;stroke:none"
             id="path316" />
          <path
             d="m 1670.0058,4718.8071 c -38.14,51.59 -114.77,52.57 -154.05,39.91 -75.46,-24.32 -99.16,-97.92 -99.16,-97.92 0,0 -37.82,-13.62 -47.4,-44.9 -13.72,-44.82 0.9,-80.19 32.57,-120.11 16.89,-21.28 13.93,-81.59 34.79,-94.43 16.21,-9.97 56.28,1.94 83.57,12.48 1.42,15.4 1.66,51.66 -0.58,64.38 -2.69,15.23 26.13,52.47 32.53,59.82 15,17.24 37.74,22.47 53.84,27.3 33.65,10.09 64.51,34.35 78.85,63.03 4.98,9.95 17.31,46.76 -14.96,90.44"
             style="fill:#1d3364;fill-opacity:1;fill-rule:nonzero;stroke:none"
             id="path318" />
          <path
             d="m 1551.9858,4537.3171 c -1.13,8.51 -9.65,14.9 -18.23,15.06 -8.59,0.17 -16.69,-4.96 -21.69,-11.94 -4.99,-6.98 -7.23,-15.6 -8.11,-24.13 -0.85,-8.26 -0.5,-16.82 2.6,-24.53 3.08,-7.71 9.19,-14.48 17.11,-16.97 7.92,-2.49 17.55,0.07 22.15,6.98"
             style="fill:#f9a78b;fill-opacity:1;fill-rule:nonzero;stroke:none"
             id="path320" />
          <path
             d="m 1327.0358,2542.7971 c 0,0 4.99,-26.22 12.34,-29.16 11.22,-4.49 94.23,7.85 151.43,24.68 30.37,8.92 102.08,31.41 116.66,41.5 4.87,3.36 5.05,22.99 5.05,22.99 0,0 -62.81,-25.79 -128.44,-43.18 -89.21,-23.64 -157.04,-16.83 -157.04,-16.83"
             style="fill:#22242f;fill-opacity:1;fill-rule:nonzero;stroke:none"
             id="path322" />
          <path
             d="m 1701.5258,2537.6171 c 0,0 -1.47,-27.53 5.23,-32.15 21.69,-14.96 111.86,0.55 145.83,11.21 31.82,9.99 108.43,31.4 118.16,47.86 5.17,8.77 5.23,40.38 5.23,40.38 0,0 -11.82,-38.81 -134.61,-65.06 -97.96,-20.94 -139.84,-2.24 -139.84,-2.24"
             style="fill:#22242f;fill-opacity:1;fill-rule:nonzero;stroke:none"
             id="path324" />
          <path
             d="m 1317.0058,4011.3671 c -8.19,33.62 -12.74,65.26 -14.96,99.78 -1.59,34.64 -5.06,66.51 0.83,100.62 3.69,22.26 9.82,54.85 15.8,76.51 -6.44,-4.09 -22.31,-13.97 -29.26,-19.45 -26.55,-20.94 -45.62,-57.96 -61.32,-121.15 -4.33,-17.4 -14.5,-220.41 -4.69,-292.32 5,-36.67 70.83,-219.17 93.33,-256.67 7.51,-5.45 79.81,-2.29 68.33,35 -40,130 -60.95,294.13 -35,290 -4.85,14.49 -29.43,72.8 -33.06,87.68"
             style="fill:#f5f6f4;fill-opacity:1;fill-rule:nonzero;stroke:none"
             id="path326" />
          <path
             d="m 1553.1658,3384.3771 c -18.88,13.66 -27.92,30.73 -41.58,49.9 -16.13,21.58 -29.78,40.8 -39.91,65.69 -9.39,25.12 -16.02,42.84 -20.79,69.02 -2.66,15.17 -6.13,61.06 -7.48,76.37 -24.8,-0.45 -64.04,13.33 -86.67,13.33 -34.5,-87.28 -25.74,-206.02 -28.44,-260.33 -4.87,-98.42 21.56,-255.66 -11.29,-390.67 -29.93,-123.06 18.3,-407.45 21.63,-410.78 15.02,-7.32 77.2,-4.95 128.05,39.92 0,0 -19.95,247.8 13.31,360.89 38.84,132.04 67.96,346.99 73.17,386.66"
             style="fill:#1d3364;fill-opacity:1;fill-rule:nonzero;stroke:none"
             id="path328" />
          <path
             d="m 1798.3158,3049.8771 c 3.41,132.97 8.67,202.58 -19.07,315.21 -29.16,130.11 -27.33,208.12 -35.01,276.1 -90.43,0 -205.76,-0.65 -305,-2.5 0,-51.65 12.02,-115.57 19.17,-140.83 25,-88.33 94.24,-118.95 94.24,-118.95 0,0 50.49,-112.34 76.66,-287.15 14.8,-98.84 4.7,-135.64 23.93,-279.69 9.6,-71.89 24.83,-161.51 37.88,-225.13 32.16,-10.85 111.61,18.56 128.06,43.23 -14.23,173.54 -23.3,324.56 -20.86,419.71"
             style="fill:#283e91;fill-opacity:1;fill-rule:nonzero;stroke:none"
             id="path330" />
          <path
             d="m 2137.4158,4516.6071 c -31.25,-23.75 -158.65,-140.91 -174.01,-152.08 -18.34,-13.34 -236.88,-26.07 -259.7,-26.9 -20.64,-0.76 -61.69,-3.4 -106.55,-4.15 -15.95,-0.26 -14.38,16.25 -18.13,31.88 -13.33,-1.67 -48.92,-11.67 -88.96,-9.17 -26.66,1.67 -51.63,11.5 -66.66,19.17 -5,-21.88 -47.98,-46.88 -71.92,-64.65 -16.88,-12.54 -28.6,-19.48 -39.38,-26.21 -4.85,-22.77 -9.47,-45.55 -12.47,-68.54 -4.54,-33.94 -6.44,-68.21 -4.25,-102.31 1.81,-34.19 6.28,-68.2 13.35,-101.73 3.23,-15.65 7.2,-31.15 11.58,-46.56 l 0.51,-0.15 c 14.37,-35.18 28.39,-78.36 37.39,-128.62 18.4,-102.79 -19.81,-206.23 -12.31,-211.23 19.06,-16.07 103.33,-30 195,-25 79.29,4.33 184.16,12.5 220,25 -2.5,32.5 -20.02,135.22 -27.5,237.5 -8.25,112.65 -18.34,202.56 -6.52,278.09 169.02,35.24 283.57,97.26 309.85,115.24 31.67,21.67 168.18,184.17 175.68,213.54 -11.88,18.13 -50,38.55 -75,46.88"
             style="fill:#ffffff;fill-opacity:1;fill-rule:nonzero;stroke:none"
             id="path332" />
          <path
             d="m 2113.6558,4497.0671 c 18.12,-7.02 54.58,-26.45 80.63,-58.59 -1.25,-2.34 -3.67,-5.66 -5,-8.12 -26.64,33.96 -64.31,54.43 -81.31,60.75 1.93,2.04 3.82,4.03 5.68,5.96"
             style="fill:#f5f6f4;fill-opacity:1;fill-rule:nonzero;stroke:none"
             id="path334" />
          <path
             d="m 1556.6958,4329.8371 c 9.25,2.22 18.67,5.82 26.26,9.08 3.1,-1.66 6.97,-4.56 10.45,-5.44 -8.38,-3.91 -22.01,-7.82 -34.95,-10.93 -12.02,-2.88 -29.21,-4.35 -47.39,-4.35 -28.78,0 -59.96,3.68 -76.71,11.24 -12.96,5.86 -21.79,14.48 -27.49,21.85 1.97,1.62 3.96,3.24 5.77,4.86 5.12,-6.66 13.13,-14.59 24.81,-19.87 24.16,-10.92 86.56,-14.29 119.25,-6.44"
             style="fill:#f5f6f4;fill-opacity:1;fill-rule:nonzero;stroke:none"
             id="path336" />
          <path
             d="m 1852.4558,4947.5271 236.87,107.46 c 27.04,12.26 39.01,44.12 26.75,71.16 l -6.63,14.61 c -12.26,27.03 -44.12,39 -71.16,26.74 l -236.87,-107.46 c -27.03,-12.27 -39,-44.12 -26.74,-71.15 l 6.63,-14.62 c 12.26,-27.03 44.12,-39 71.15,-26.74"
             style="fill:#dddddd;fill-opacity:1;fill-rule:nonzero;stroke:none"
             id="path338" />
          <path
             d="m 5630.8258,1264.1571 -97.65,468.42 51.85,10.81 97.39,-473.82 c 0,0 -4.97,-10.76 -24,-13.24 -18.22,-2.39 -27.59,7.83 -27.59,7.83"
             style="fill:#99bee8;fill-opacity:1;fill-rule:nonzero;stroke:none"
             id="path346" />
          <path
             d="m 4998.8258,1266.2571 c 0,0 -14.12,-6.31 -24.82,-4.97 -13.25,1.66 -20.7,9.1 -20.7,9.1 l 67.41,456.24 52.23,-8.75 -74.12,-451.62"
             style="fill:#99bee8;fill-opacity:1;fill-rule:nonzero;stroke:none"
             id="path348" />
          <path
             d="m 4962.6458,1305.2871 c -3.9,-27.85 6.93,-51.22 14.25,-92.33 1.35,-7.65 12.34,-43.389 -9.69,-64.401 -40.43,-38.547 -70.24,20.692 -234.8,-25.64 -58.72,-16.528 -104.08,5.632 -104.3,6.832 -8.48,45.089 35.14,57.488 74.57,66.049 50.24,10.9 80.86,17.83 114.07,40.53 28.53,19.51 31.75,55.26 40.46,74.09 31.91,-5.7 73.53,0.56 105.44,-5.13"
             style="fill:#f9a78b;fill-opacity:1;fill-rule:nonzero;stroke:none"
             id="path350" />
          <path
             d="m 4831.7258,1258.2771 c 12.18,-7.75 26.2,-15.23 55.84,-19.11 43.05,-5.63 69.94,7.19 83.45,13.83 7.88,-13.46 26.62,-70.031 19.78,-96.511 -4.89,-18.918 -41.72,-40.027 -148.88,-38.078 -72.4,1.32 -125.32,-16.332 -214.07,-3.832 -9.81,29.48 4.35,48.73 14.63,57.902 32.17,28.669 75.63,16.867 137.49,48.749 19.27,9.92 43.04,28.1 51.76,37.05"
             style="fill:#1f304e;fill-opacity:1;fill-rule:nonzero;stroke:none"
             id="path352" />
          <path
             d="m 4803.6458,1140.3061 c -52.87,-3.957 -132.68,-19.367 -178.81,-1.867 -1.03,-6.422 0.91,-17.519 3.01,-23.863 88.75,-12.5 141.67,5.152 214.07,3.832 107.16,-1.949 143.99,19.16 148.88,38.078 1.63,6.351 1.78,14.441 0.98,23.23 -12.23,-16.98 -31.69,-28.808 -62.44,-34.109 -31.84,-5.469 -78.37,-1.738 -125.69,-5.301"
             style="fill:#283e91;fill-opacity:1;fill-rule:nonzero;stroke:none"
             id="path354" />
          <path
             d="m 5723.1858,2528.3371 c 126.92,16.72 187.42,-15.41 206.86,-42.75 50.61,-71.12 -73.73,-183.54 -164.13,-468.44 -69.2,-218.12 -22.18,-253.38 -85.48,-297.48 -91.17,-63.53 -211.03,4.39 -524.86,-11.97 -51.78,-2.7 -138.82,-7.8 -167.51,-11.1 -14.89,23.17 -52.36,171.76 -36.41,195.31 139.04,205.24 717.83,610.44 771.53,636.43"
             style="fill:#99bee8;fill-opacity:1;fill-rule:nonzero;stroke:none"
             id="path356" />
          <path
             d="m 4807.1058,1438.0571 c -3.01,-24.8 6.99,-45.37 14.16,-81.74 1.34,-6.77 11.67,-38.32 -7.55,-57.34 -35.25,-34.89 -62.69,17.22 -208.03,-26.62 -51.85,-15.63 -92.49,3.3 -92.72,4.36 -8.26,39.89 30.28,51.62 65.13,59.86 44.42,10.5 71.49,17.16 100.6,37.85 25.01,17.79 27.29,49.59 34.72,66.45 28.43,-4.54 65.26,1.71 93.69,-2.82"
             style="fill:#f9a78b;fill-opacity:1;fill-rule:nonzero;stroke:none"
             id="path358" />
          <path
             d="m 5449.3158,2893.6371 c -23.54,-15.31 -53.67,22.47 -47.45,-25.18 4.96,-38.07 -0.14,-109.33 6.74,-148.64 9.42,-53.87 22.23,-78.4 35.46,-88.77 35.04,-27.49 124.66,-3.73 157.29,59.27 28.89,55.78 -5.85,167.89 -9.7,175.38"
             style="fill:#f9a78b;fill-opacity:1;fill-rule:nonzero;stroke:none"
             id="path360" />
          <path
             d="m 5462.2958,2642.4471 c 23.39,-7.3 39.72,-27.48 41.03,-50.15 1.55,-26.5 -18.19,-43.64 -20.51,-45.59 16.56,-4.41 52.63,-11.58 95.75,0 35.83,9.62 60.32,27.84 72.95,38.75 -9.88,16.41 -21.77,41.65 -22.81,72.95 -1.93,58.76 36.01,89.76 22.81,107.15 -14.8,19.46 -79.4,2.95 -123.11,-29.64 -41.32,-30.81 -58.9,-72.21 -66.11,-93.47"
             style="fill:#f9a78b;fill-opacity:1;fill-rule:nonzero;stroke:none"
             id="path362" />
          <path
             d="m 5299.1758,2318.0571 c -31.41,-18.32 -58.77,-93.55 -63.25,-95.75 -48.79,-23.98 -105.7,-68.46 -179.52,-116.26 -23.7,-15.35 -58.22,10.71 -106,-1.71 -16.36,-4.25 -24.62,-10.38 -32.95,-14.33 -0.48,-1.83 -11.77,-27.79 5.6,-45.51 1.98,-2.02 16.57,-16.88 34.19,-11.96 11.28,3.14 9.49,18.16 11.12,20.99 16.22,-5.33 41.59,-15.17 60.69,-17.57 117.7,-14.81 213.36,49.55 251.32,78.64 6.27,67.82 12.53,135.63 18.8,203.46"
             style="fill:#f59377;fill-opacity:1;fill-rule:nonzero;stroke:none"
             id="path364" />
          <path
             d="m 5466.9658,2866.8071 c -87.01,-39.02 -127.24,31.45 -123.59,30.89 21.52,-3.31 46.39,52.71 61.8,71.72 57.06,70.41 165.79,63.45 215.17,39.73 56.88,-27.32 81.61,-71.03 86.07,-119.17 4.14,-44.69 -24.97,-127.66 -48.62,-135.32 -13.18,-4.27 -89.87,-6.48 -89.87,-6.48 0,0 9.06,167.95 -100.96,118.63"
             style="fill:#1d3364;fill-opacity:1;fill-rule:nonzero;stroke:none"
             id="path366" />
          <path
             d="m 4789.0358,1999.5871 c -27.41,-3.17 -65.07,-12.35 -88.15,-41.8 -34.7,-44.29 -26.55,-145.85 -20.52,-171.74 18.4,-78.92 18.6,-240.61 18.6,-373.59 33.44,-23.56 89.31,-28.38 124.27,-12.42 11.39,88.14 30.94,180.44 34.62,230.91 10.52,143.79 -33.1,227.3 48.21,286.57 41.02,29.91 66.45,55.81 60.79,72.95 -8.41,25.4 -96.33,19.68 -177.82,9.12"
             style="fill:#1d3364;fill-opacity:1;fill-rule:nonzero;stroke:none"
             id="path368" />
          <path
             d="m 4861.2258,1951.7071 -105.72,48.35 -165.83,283.8 75.23,5.12 196.32,-337.27"
             style="fill:#ffffff;fill-opacity:1;fill-rule:nonzero;stroke:none"
             id="path370" />
          <path
             d="m 4861.5158,1952.1871 364.15,22.21 8.55,15.39 -169.26,51.29 -244.48,-18.81 41.04,-70.08"
             style="fill:#ffffff;fill-opacity:1;fill-rule:nonzero;stroke:none"
             id="path372" />
          <path
             d="m 5593.8658,2779.9071 c 5.48,22.41 28.04,41.37 43.96,38.08 16.88,-3.49 24.07,-23.88 25.08,-36.48 1.25,-15.43 -2.47,-39.88 -19.75,-48.8 -21.24,-10.96 -49.87,11.76 -50.95,12.44"
             style="fill:#f9a78b;fill-opacity:1;fill-rule:nonzero;stroke:none"
             id="path374" />
          <path
             d="m 5601.7958,1970.9771 c 4.25,-23.95 8.1,-98.41 -24.76,-144.65 -29.03,-40.85 -71.55,-42.09 -113.73,-45.11 -144.63,-10.36 -321,17.85 -425.03,-16.44 -27.04,1.33 -59.6,-34.58 -50.21,-99.63 23.57,-163.27 -8.95,-293.46 -16.54,-375.52 -59.28,-25.84 -134.28,-3.81 -134.28,-3.81 0,0 -7.33,128.7 -22.03,294.84 -15.83,178.83 -21.21,265.49 20.57,327.81 37.54,55.96 161.33,58.91 277.04,72.78 216.49,25.94 385.43,15.09 488.97,-10.27"
             style="fill:#283e91;fill-opacity:1;fill-rule:nonzero;stroke:none"
             id="path376" />
          <path
             d="m 5665.0458,2595.0171 c -16.41,-12.33 -38.65,-28.61 -82.06,-37.62 -53.85,-11.17 -76.92,-3.66 -97.13,2.98 -14.92,-11.95 -45.86,-27.93 -77.25,-47.43 -32.9,-20.43 -54.41,-41.83 -91.45,-125.06 -73.71,-165.66 -76.33,-366.84 -73.71,-395.9 60.04,-0.76 124.58,-14.32 193.78,-38.76 126.89,-44.83 178.57,-32.67 178.57,-32.67 0,0 14.76,157.02 -13.68,227.2 -18.27,45.11 -14.58,87.18 -34.73,107.46 19,5.76 46.89,12.63 87.41,8.12 46.29,-5.15 68.94,-19.46 86.37,-30.47 21.53,56.28 32.05,95.37 41.85,163.83 6.04,42.1 -3.29,86.32 -34.19,133.35 -24.25,36.9 -64.22,54.27 -83.78,64.97"
             style="fill:#ffffff;fill-opacity:1;fill-rule:nonzero;stroke:none"
             id="path378" />
          <path
             d="m 5567.5958,2259.9171 c -16.72,-37.24 -8.88,-64.82 -11.07,-65.8 -93.47,-41.8 -191.38,-99.82 -285.72,-119.31 -44.82,-9.25 -74.54,30.73 -115.23,34.66 -80.71,7.8 -95.64,-32.24 -100.88,-71.81 57.3,29.56 66.8,-15.19 85.41,-20.59 47.11,-13.68 84.73,-13.42 96.5,-11.41 51.79,8.85 131.2,-23.13 409.58,63.84 45.06,56.32 50.19,83.65 83.83,173.32 -61.5,33.39 -104.15,27.5 -162.42,17.1"
             style="fill:#f9a78b;fill-opacity:1;fill-rule:nonzero;stroke:none"
             id="path380" />
          <path
             d="m 5725.1758,2078.9371 c -66.94,-12.51 -129.29,-22.29 -200.83,-37.52 -51.87,-11.03 -142.35,-18.76 -199.73,-76.13 -81.31,-81.32 -74.98,-182.75 -75.03,-200.83 18.02,-1.47 27.22,2.58 45.25,1.11 -1.98,45.02 11.67,117.62 65.09,171.03 34.67,34.65 81.33,45.63 173.25,66.2 73.6,16.48 135.4,23.9 177.65,27.59 4.78,16.19 9.56,32.37 14.35,48.55"
             style="fill:#99bee8;fill-opacity:1;fill-rule:nonzero;stroke:none"
             id="path382" />
          <path
             d="m 5495.6558,2037.0071 c -57.38,-11.03 -225.1,-35.31 -226.2,-43.04 -1.02,-7.12 4.79,-15.8 8.82,-18.75 22.26,-16.33 63.3,-20.13 98.21,1.11"
             style="fill:#99bee8;fill-opacity:1;fill-rule:nonzero;stroke:none"
             id="path384" />
          <path
             d="m 4693.7958,1393.4571 c 10.71,-7.06 23.07,-13.88 49.33,-17.72 38.14,-5.56 62.2,5.46 74.28,11.17 6.81,-12.05 22.7,-62.52 16.28,-85.93 -4.59,-16.75 -37.57,-35 -132.69,-31.86 -64.26,2.13 -111.49,-12.83 -190.11,-0.57 -8.32,26.31 4.5,43.21 13.75,51.21 28.95,25.04 67.36,13.99 122.72,41.47 17.23,8.56 38.58,24.39 46.44,32.23"
             style="fill:#1f304e;fill-opacity:1;fill-rule:nonzero;stroke:none"
             id="path386" />
          <path
             d="m 4667.3058,1289.0771 c -46.98,-2.82 -118.06,-15.45 -158.78,0.7 -1.01,-5.69 0.57,-15.57 2.36,-21.23 78.62,-12.26 125.85,2.7 190.11,0.57 95.12,-3.14 128.1,15.12 132.69,31.86 1.54,5.6 1.77,12.79 1.19,20.6 -11.09,-14.9 -28.52,-25.17 -55.9,-29.45 -28.34,-4.45 -69.61,-0.52 -111.67,-3.05"
             style="fill:#283e91;fill-opacity:1;fill-rule:nonzero;stroke:none"
             id="path388" />
          <path
             d="m 5362.4958,1514.5671 c 0,0 7.97,-9.58 21.42,-8.53 17.96,1.41 20.71,11.9 20.71,11.9 l -16.9,211.28 -42.12,-3.37 16.89,-211.28"
             style="fill:#99bee8;fill-opacity:1;fill-rule:nonzero;stroke:none"
             id="path390" />
        </g>
      </g>
    </g>
  </g>
</svg>
