<svg id="Layer_1" data-name="Layer 1" xmlns="http://www.w3.org/2000/svg" viewBox="0 0 512.09 85.04"><defs><style>.cls-1{fill:#2c4d5c;}.cls-2{fill:#fff;}.cls-3{fill:#b4d49e;}.cls-4{fill:#29a269;}</style></defs><title>Artboard 1</title><path class="cls-1" d="M115,38.41h9.33A18.65,18.65,0,0,1,143,57.06h-9.32a9.33,9.33,0,0,0-9.33-9.32H115a9.32,9.32,0,0,0-9.32,9.32v9.33A9.32,9.32,0,0,0,115,75.71h9.33a9.33,9.33,0,0,0,9.33-9.32H143A18.65,18.65,0,0,1,124.34,85H115A18.65,18.65,0,0,1,96.36,66.39V57.06A18.65,18.65,0,0,1,115,38.41Z"/><polygon class="cls-1" points="144.54 38.41 153.87 38.41 153.87 62.53 177.99 38.41 191.17 38.41 167.86 61.73 191.17 85.04 178.01 85.04 161.28 68.31 153.87 75.71 153.87 85.04 144.54 85.04 144.54 38.41"/><polygon class="cls-1" points="192.73 38.41 239.35 38.42 239.35 47.74 202.05 47.74 202.05 75.71 239.35 75.71 239.35 85.04 192.73 85.04 192.73 38.41"/><path class="cls-1" d="M264.22,57.06a4.66,4.66,0,0,0-4.39,3.11H225.1a4.68,4.68,0,1,0,0,3.11h34.74a4.66,4.66,0,1,0,4.39-6.22Z"/><circle class="cls-2" cx="220.7" cy="61.73" r="2.13" transform="translate(52.17 217.02) rotate(-58.28)"/><path class="cls-2" d="M264.22,63.85a2.13,2.13,0,1,0-2.12-2.12A2.12,2.12,0,0,0,264.22,63.85Z"/><path class="cls-1" d="M317.07,38.42h-28V85h46.63v-28A18.65,18.65,0,0,0,317.07,38.42Zm9.32,37.29h-28v-28h18.65a9.33,9.33,0,0,1,9.32,9.33Z"/><path class="cls-1" d="M69.94,57.06a4.66,4.66,0,0,0-4.39,3.11H27.71a4.67,4.67,0,1,0,0,3.11H65.55a4.66,4.66,0,1,0,4.39-6.22Z"/><path class="cls-2" d="M23.31,63.85a2.13,2.13,0,1,1,2.13-2.12A2.12,2.12,0,0,1,23.31,63.85Z"/><path class="cls-2" d="M69.94,63.85a2.13,2.13,0,1,0-2.12-2.12A2.12,2.12,0,0,0,69.94,63.85Z"/><path class="cls-1" d="M48.18,85v-28A18.65,18.65,0,0,1,66.83,38.41h9.33A18.65,18.65,0,0,1,94.81,57.06V85H85.48v-28a9.32,9.32,0,0,0-9.32-9.32H66.83a9.32,9.32,0,0,0-9.32,9.32V85Z"/><path class="cls-1" d="M28,38.42H0V85H46.63v-28A18.65,18.65,0,0,0,28,38.42ZM37.3,75.71h-28v-28H28a9.33,9.33,0,0,1,9.32,9.33Z"/><polygon class="cls-1" points="250.23 38.41 257.64 46.99 250.23 53.72 250.23 53.72 250.23 85.04 240.91 85.04 240.91 38.41 250.23 38.41"/><polygon class="cls-1" points="278.21 85.04 270.8 76.46 278.21 69.73 278.21 69.73 278.21 38.41 287.54 38.41 287.54 85.04 278.21 85.04"/><rect class="cls-3" x="345.04" y="75.71" width="9.33" height="9.33"/><rect class="cls-4" x="469.57" width="42.52" height="21.26"/><rect class="cls-4" x="469.57" y="63.78" width="42.52" height="21.26"/><path class="cls-4" d="M490.83,31.89a10.63,10.63,0,0,0-10.25,7.8H416.46a10.63,10.63,0,1,0,0,5.66h64.12a10.63,10.63,0,1,0,10.25-13.46Z"/><path class="cls-2" d="M406.21,47.85a5.33,5.33,0,1,1,5.33-5.33A5.33,5.33,0,0,1,406.21,47.85Z"/><path class="cls-2" d="M490.83,47.85a5.33,5.33,0,1,0-5.33-5.33A5.33,5.33,0,0,0,490.83,47.85Z"/><path class="cls-4" d="M363.69,85H385V28.35A7.09,7.09,0,0,1,392,21.26h28.35a7.08,7.08,0,0,1,7.08,7.09V85h21.26V21.26A21.26,21.26,0,0,0,427.47,0H385a21.26,21.26,0,0,0-21.26,21.26Z"/></svg>