<svg width="159" height="26" viewBox="0 0 159 26" fill="none" xmlns="http://www.w3.org/2000/svg">
<g id="white logo_&#236;&#136;&#152;&#236;&#160;&#149;">
<g id="Group 399">
<g id="logo_white">
<path id="Vector" d="M134.75 7.66086H137.108L135.916 4.47021L134.75 7.66086Z" fill="white"/>
<path id="Vector_2" d="M140.607 0.946289H134.453C131.146 0.946289 128.409 3.72076 128.409 7.13336V7.43856C128.409 10.8234 131.119 13.6256 134.453 13.6256H140.607C143.914 13.6256 146.651 10.8512 146.651 7.43856V7.13336C146.651 3.7485 143.941 0.946289 140.607 0.946289ZM138.086 10.3518L137.462 8.63158H134.399L133.776 10.3518H132.502L135.212 3.44331H136.703L139.441 10.3518H138.086ZM141.637 10.3518H140.417V3.44331H141.637V10.3518Z" fill="white"/>
<path id="Vector_3" d="M0 24.5357V2.83936H3.71359V11.135L3.06303 13.4101H4.01176C4.71653 11.2737 6.31581 9.41486 9.78544 9.41486C13.2551 9.41486 16.3181 12.8275 16.3181 17.1279C16.3181 21.4283 13.9869 24.8409 9.78544 24.8409C5.58393 24.8409 4.71653 22.982 4.01176 20.8734H3.06303L3.71359 23.1207V24.5357H0ZM8.18616 21.5393C10.8697 21.5393 12.5774 20.2076 12.5774 17.1279C12.5774 14.0482 10.8697 12.7165 8.18616 12.7165C5.50261 12.7165 3.71359 14.0482 3.71359 17.1279C3.71359 20.2076 5.52972 21.5393 8.18616 21.5393Z" fill="white"/>
<path id="Vector_4" d="M34.9146 24.5857H31.2281V23.1707L31.8787 20.9234H30.93C30.2252 23.032 28.4362 24.8909 25.1563 24.8909C21.8764 24.8909 18.2441 21.4783 18.2441 17.1779C18.2441 12.8774 20.7922 9.46484 25.1563 9.46484C29.5204 9.46484 30.2252 11.3237 30.93 13.4601H31.8787L31.2281 11.185V9.77003H34.9146V24.5857ZM26.5387 12.7942C23.8552 12.7942 21.9577 14.015 21.9577 17.2056C21.9577 20.3963 23.8552 21.617 26.5387 21.617C29.2223 21.617 31.201 20.3963 31.201 17.2056C31.201 14.015 29.1681 12.7942 26.5387 12.7942Z" fill="white"/>
<path id="Vector_5" d="M44.4834 9.46484C48.0072 9.46484 51.5853 11.4347 51.8835 15.7074H48.1699C47.8717 13.793 46.4622 12.7942 44.5105 12.7942C42.5588 12.7942 40.5259 14.6254 40.5259 17.2056C40.5259 19.7859 41.8541 21.617 44.5105 21.617C47.1669 21.617 47.8988 20.6182 48.1699 18.7038H51.8835C51.5853 22.9488 48.0072 24.9464 44.4834 24.9464C40.9596 24.9464 36.7852 21.9222 36.7852 17.2334C36.7852 12.5445 39.8482 9.52032 44.4834 9.52032V9.46484Z" fill="white"/>
<path id="Vector_6" d="M78.4479 9.46484C82.785 9.46484 85.7396 12.1838 85.7396 16.7062V17.9547H74.5717C74.6259 20.1188 75.8728 21.7835 78.8816 21.7835C81.8904 21.7835 82.1615 20.9512 82.541 19.3974H86.2546C85.848 21.5893 83.7066 24.8909 78.8545 24.8909C74.0025 24.8909 71.0479 21.2286 71.0479 17.0114C71.0479 12.7942 74.1109 9.49258 78.4479 9.49258V9.46484ZM82.2157 15.6519C82.2157 14.015 81.1315 12.6 78.4479 12.6C75.7644 12.6 74.5717 14.015 74.5717 15.6519H82.2157Z" fill="white"/>
<path id="Vector_7" d="M92.4904 18.6484V24.558H88.7769V9.74229H92.4904V11.8509L91.8399 14.126H92.7886C93.3578 11.4625 95.174 9.46484 98.2912 9.46484C101.408 9.46484 104.011 11.7677 104.011 16.1791V24.5857H100.324V16.734C100.324 13.8763 99.3755 12.7665 97.0714 12.7665C94.7674 12.7665 92.5175 14.5699 92.5175 18.6761L92.4904 18.6484Z" fill="white"/>
<path id="Vector_8" d="M122.635 24.5357H118.921V23.1207L119.626 20.8734H118.65C117.945 22.982 116.373 24.8409 112.876 24.8409C109.38 24.8409 106.344 21.4283 106.344 17.1279C106.344 12.8275 108.675 9.41486 112.876 9.41486C117.078 9.41486 117.945 11.2737 118.65 13.4101H119.626L118.921 11.135V2.83936H122.635V24.5357ZM114.449 12.7442C111.765 12.7442 110.057 14.076 110.057 17.1556C110.057 20.2353 111.765 21.567 114.449 21.567C117.132 21.567 118.921 20.2353 118.921 17.1556C118.921 14.076 117.132 12.7442 114.449 12.7442Z" fill="white"/>
<path id="Vector_9" d="M64.7319 9.82552L57.9824 15.7074V9.46484H54.2417V24.6412H57.9824V20.313L60.6659 18.0102L65.7077 24.6412H70.1803L63.3224 15.7351L70.1803 9.82552H64.7319Z" fill="white"/>
</g>
<g id="WebUI">
<path id="Vector_10" d="M158.755 17.126V24.9463H157.718V17.126H158.755Z" fill="white"/>
<path id="Vector_11" d="M154.984 17.126H156.016V22.4165C156.016 23.0037 155.885 23.4925 155.624 23.8828C155.362 24.2731 155.015 24.5667 154.582 24.7637C154.152 24.957 153.685 25.0537 153.18 25.0537C152.65 25.0537 152.17 24.957 151.74 24.7637C151.314 24.5667 150.976 24.2731 150.725 23.8828C150.478 23.4925 150.354 23.0037 150.354 22.4165V17.126H151.38V22.4165C151.38 22.8247 151.456 23.1613 151.606 23.4263C151.756 23.6912 151.966 23.8882 152.234 24.0171C152.507 24.146 152.822 24.2104 153.18 24.2104C153.541 24.2104 153.856 24.146 154.125 24.0171C154.397 23.8882 154.608 23.6912 154.759 23.4263C154.909 23.1613 154.984 22.8247 154.984 22.4165V17.126Z" fill="white"/>
<path id="Vector_12" d="M144.178 16.6963H145.177V23.8184L145.091 24.9463H144.178V16.6963ZM149.103 21.9922V22.105C149.103 22.5275 149.053 22.9196 148.953 23.2812C148.852 23.6393 148.706 23.9508 148.512 24.2158C148.319 24.4808 148.083 24.6867 147.803 24.8335C147.524 24.9803 147.203 25.0537 146.842 25.0537C146.473 25.0537 146.149 24.991 145.87 24.8657C145.594 24.7368 145.361 24.5524 145.171 24.3125C144.982 24.0726 144.829 23.7826 144.715 23.4424C144.604 23.1022 144.527 22.7191 144.484 22.293V21.7988C144.527 21.3691 144.604 20.9842 144.715 20.644C144.829 20.3039 144.982 20.0138 145.171 19.7739C145.361 19.5304 145.594 19.346 145.87 19.2207C146.145 19.0918 146.466 19.0273 146.831 19.0273C147.196 19.0273 147.52 19.099 147.803 19.2422C148.086 19.3818 148.322 19.5824 148.512 19.8438C148.706 20.1051 148.852 20.4185 148.953 20.7837C149.053 21.1453 149.103 21.5482 149.103 21.9922ZM148.104 22.105V21.9922C148.104 21.7021 148.077 21.43 148.023 21.1758C147.97 20.918 147.884 20.6924 147.766 20.499C147.647 20.3021 147.492 20.1481 147.298 20.0371C147.105 19.9225 146.867 19.8652 146.584 19.8652C146.333 19.8652 146.115 19.9082 145.929 19.9941C145.746 20.0801 145.59 20.1965 145.461 20.3433C145.333 20.4865 145.227 20.6512 145.145 20.8374C145.066 21.02 145.007 21.2098 144.967 21.4067V22.7012C145.025 22.9518 145.118 23.1935 145.247 23.4263C145.379 23.6554 145.555 23.8434 145.773 23.9902C145.995 24.137 146.269 24.2104 146.595 24.2104C146.863 24.2104 147.092 24.1567 147.282 24.0493C147.476 23.9383 147.631 23.7861 147.75 23.5928C147.871 23.3994 147.961 23.1756 148.018 22.9214C148.075 22.6672 148.104 22.395 148.104 22.105Z" fill="white"/>
<path id="Vector_13" d="M140.762 25.0537C140.357 25.0537 139.99 24.9857 139.661 24.8496C139.335 24.71 139.054 24.5148 138.817 24.2642C138.585 24.0135 138.406 23.7163 138.28 23.3726C138.155 23.0288 138.092 22.6528 138.092 22.2446V22.019C138.092 21.5464 138.162 21.1257 138.302 20.7568C138.441 20.3844 138.631 20.0693 138.871 19.8115C139.111 19.5537 139.383 19.3586 139.688 19.2261C139.992 19.0936 140.307 19.0273 140.633 19.0273C141.048 19.0273 141.406 19.099 141.707 19.2422C142.011 19.3854 142.26 19.5859 142.454 19.8438C142.647 20.098 142.79 20.3988 142.883 20.7461C142.976 21.0898 143.023 21.4658 143.023 21.874V22.3198H138.683V21.5088H142.029V21.4336C142.015 21.1758 141.961 20.9251 141.868 20.6816C141.779 20.4382 141.635 20.2376 141.438 20.0801C141.242 19.9225 140.973 19.8438 140.633 19.8438C140.407 19.8438 140.2 19.8921 140.01 19.9888C139.82 20.0819 139.657 20.2215 139.521 20.4077C139.385 20.5939 139.279 20.8213 139.204 21.0898C139.129 21.3584 139.091 21.6681 139.091 22.019V22.2446C139.091 22.5203 139.129 22.7799 139.204 23.0234C139.283 23.2633 139.396 23.4746 139.542 23.6572C139.693 23.8398 139.874 23.9831 140.085 24.0869C140.3 24.1908 140.543 24.2427 140.815 24.2427C141.166 24.2427 141.464 24.1711 141.707 24.0278C141.951 23.8846 142.164 23.693 142.346 23.4531L142.948 23.9312C142.822 24.1209 142.663 24.3018 142.47 24.4736C142.276 24.6455 142.038 24.7852 141.755 24.8926C141.476 25 141.145 25.0537 140.762 25.0537Z" fill="white"/>
<path id="Vector_14" d="M130.965 22.583L132.517 17.126H133.269L132.834 19.2476L131.164 24.9463H130.417L130.965 22.583ZM129.359 17.126L130.594 22.4756L130.965 24.9463H130.224L128.328 17.126H129.359ZM135.278 22.4702L136.486 17.126H137.523L135.632 24.9463H134.891L135.278 22.4702ZM133.382 17.126L134.891 22.583L135.439 24.9463H134.692L133.081 19.2476L132.641 17.126H133.382Z" fill="white"/>
</g>
</g>
</g>
</svg>
