<?xml version="1.0" encoding="UTF-8" standalone="no"?>
<!DOCTYPE svg PUBLIC "-//W3C//DTD SVG 1.1//EN" "http://www.w3.org/Graphics/SVG/1.1/DTD/svg11.dtd">
<svg width="100%" height="100%" viewBox="0 0 541 89" version="1.1" xmlns="http://www.w3.org/2000/svg" xmlns:xlink="http://www.w3.org/1999/xlink" xml:space="preserve" xmlns:serif="http://www.serif.com/" style="fill-rule:evenodd;clip-rule:evenodd;stroke-linejoin:round;stroke-miterlimit:2;">
    <g transform="matrix(1,0,0,1,497.057,12.7067)">
        <path d="M0,11.457L8.734,11.457L4.314,0L0,11.457Z" style="fill:rgb(255,157,0);fill-rule:nonzero;"/>
    </g>
    <g transform="matrix(1,0,0,1,-303.662,-666.505)">
        <path d="M826.141,700.428L821.686,700.428L821.686,675.499L826.141,675.499L826.141,700.428ZM813.059,700.428L810.761,694.24L799.445,694.24L797.147,700.428L792.409,700.428L802.416,675.499L807.897,675.499L818.045,700.428L813.059,700.428ZM822.362,666.505L799.639,666.505C787.39,666.505 777.368,676.526 777.368,688.775L777.368,689.839C777.368,702.088 787.39,712.11 799.639,712.11L822.362,712.11C834.611,712.11 844.632,702.088 844.632,689.839L844.632,688.775C844.632,676.526 834.611,666.505 822.362,666.505" style="fill:rgb(255,157,0);fill-rule:nonzero;"/>
    </g>
    <g transform="matrix(1,0,0,1,30.234,21.1091)">
        <path d="M0,55.464C9.9,55.464 16.181,50.673 16.181,39.602C16.181,28.531 9.9,23.74 0,23.74C-9.794,23.74 -16.501,28.531 -16.501,39.602C-16.501,50.673 -9.794,55.464 0,55.464M-30.234,66.322L-30.234,-11.923L-16.501,-11.923L-16.501,17.991L-18.949,26.189L-15.436,26.189C-12.881,18.524 -6.92,11.817 5.855,11.817C21.291,11.817 29.914,24.166 29.914,39.602C29.914,55.038 21.291,67.387 5.855,67.387C-6.92,67.387 -12.881,60.68 -15.436,53.122L-18.949,53.122L-16.501,61.213L-16.501,66.322L-30.234,66.322Z" style="fill:rgb(214,237,245);fill-rule:nonzero;"/>
    </g>
    <g transform="matrix(1,0,0,1,97.9404,76.5731)">
        <path d="M0,-31.724C-9.9,-31.724 -16.927,-27.359 -16.927,-15.862C-16.927,-4.365 -9.9,0 0,0C9.794,0 17.246,-4.365 17.246,-15.862C17.246,-27.359 9.794,-31.724 0,-31.724M30.872,10.858L17.246,10.858L17.246,5.749L19.694,-2.342L16.181,-2.342C13.626,5.216 7.026,11.923 -5.11,11.923C-21.291,11.923 -30.659,-0.426 -30.659,-15.862C-30.659,-31.298 -21.291,-43.647 -5.11,-43.647C7.026,-43.647 13.626,-36.94 16.181,-29.275L19.694,-29.275L17.246,-37.473L17.246,-42.583L30.872,-42.583L30.872,10.858Z" style="fill:rgb(214,237,245);fill-rule:nonzero;"/>
    </g>
    <g transform="matrix(1,0,0,1,164.051,88.496)">
        <path d="M0,-55.57C12.988,-55.57 26.188,-48.437 27.253,-33.108L13.52,-33.108C12.455,-40.027 7.239,-43.647 0,-43.647C-9.794,-43.647 -14.691,-37.047 -14.691,-27.785C-14.691,-18.417 -9.794,-11.923 0,-11.923C7.239,-11.923 12.455,-15.542 13.52,-22.462L27.253,-22.462C26.188,-7.132 12.988,0 0,0C-17.139,0 -28.424,-10.858 -28.424,-27.785C-28.424,-44.605 -17.139,-55.57 0,-55.57" style="fill:rgb(214,237,245);fill-rule:nonzero;"/>
    </g>
    <g transform="matrix(1,0,0,1,303.298,66.2473)">
        <path d="M0,-11.072C0,-16.927 -4.045,-22.037 -13.946,-22.037C-23.74,-22.037 -28.211,-16.927 -28.211,-11.072L0,-11.072ZM-13.946,-33.321C2.023,-33.321 12.988,-23.527 12.988,-7.239L12.988,-2.768L-28.211,-2.768C-27.998,5.003 -23.42,11.071 -12.349,11.071C-5.216,11.071 -0.213,8.09 1.171,2.448L14.904,2.448C13.414,10.326 5.536,22.249 -12.349,22.249C-32.256,22.249 -41.199,9.048 -41.199,-6.175C-41.199,-23.208 -29.914,-33.321 -13.946,-33.321" style="fill:rgb(214,237,245);fill-rule:nonzero;"/>
    </g>
    <g transform="matrix(1,0,0,1,341.197,54.2174)">
        <path d="M0,11.923L0,33.214L-13.733,33.214L-13.733,-20.227L0,-20.227L0,-12.668L-2.448,-4.471L1.065,-4.471C3.194,-14.052 9.9,-21.291 21.398,-21.291C34.385,-21.291 42.476,-12.988 42.476,2.874L42.476,33.214L28.85,33.214L28.85,4.897C28.85,-5.429 25.337,-9.368 16.82,-9.368C6.813,-9.368 0,-2.874 0,11.923" style="fill:rgb(214,237,245);fill-rule:nonzero;"/>
    </g>
    <g transform="matrix(1,0,0,1,422.211,52.8331)">
        <path d="M0,-7.984C-9.9,-7.984 -16.181,-3.193 -16.181,7.878C-16.181,18.949 -9.9,23.74 0,23.74C9.9,23.74 16.501,18.949 16.501,7.878C16.501,-3.193 9.9,-7.984 0,-7.984M30.233,34.598L16.501,34.598L16.501,29.489L19.056,21.398L15.436,21.398C12.881,28.956 7.026,35.663 -5.855,35.663C-21.291,35.663 -29.914,23.314 -29.914,7.878C-29.914,-7.558 -21.291,-19.907 -5.855,-19.907C7.026,-19.907 12.881,-13.2 15.436,-5.535L19.056,-5.535L16.501,-13.733L16.501,-43.647L30.233,-43.647L30.233,34.598Z" style="fill:rgb(214,237,245);fill-rule:nonzero;"/>
    </g>
    <g transform="matrix(1,0,0,1,238.784,86.1696)">
        <path d="M0,-52.179L-24.911,-30.994L-24.911,-53.441L-38.644,-53.441L-38.644,1.262L-24.911,1.262L-24.911,-14.387L-15.01,-22.691L3.62,1.262L20.12,1.262L-5.216,-30.888L20.12,-52.179L0,-52.179Z" style="fill:rgb(214,237,245);fill-rule:nonzero;"/>
    </g>
</svg>
