<svg width="24" height="24" viewBox="0 0 24 24" fill="none" xmlns="http://www.w3.org/2000/svg">
<path d="M2.93855 2.32715H9.95845C10.2637 2.32715 10.5689 2.63236 10.5689 2.93757V9.95747C10.5689 10.2627 10.2637 10.5679 9.95845 10.5679H2.93855C2.63334 10.5679 2.32812 10.2627 2.32812 9.95747V2.93757C2.32813 2.63236 2.63334 2.32715 2.93855 2.32715Z" fill="currentColor"/>
<path d="M13.3155 2.32715H20.3354C20.6406 2.32715 20.9458 2.63236 20.9458 2.93757V9.95747C20.9458 10.2627 20.6406 10.5679 20.3354 10.5679H13.3155C13.0103 10.5679 12.7051 10.2627 12.7051 9.95747V2.93757C12.7051 2.63236 13.0103 2.32715 13.3155 2.32715Z" fill="currentColor"/>
<path d="M2.93855 12.7046H9.95845C10.2637 12.7046 10.5689 13.0098 10.5689 13.315V20.3349C10.5689 20.6401 10.2637 20.9453 9.95845 20.9453H2.93855C2.63334 20.9453 2.32812 20.6401 2.32812 20.3349V13.315C2.32813 13.0098 2.63334 12.7046 2.93855 12.7046Z" fill="currentColor"/>
<path d="M13.3155 12.7046H20.3354C20.6406 12.7046 20.9458 13.0098 20.9458 13.315V20.3349C20.9458 20.6401 20.6406 20.9453 20.3354 20.9453H13.3155C13.0103 20.9453 12.7051 20.6401 12.7051 20.3349V13.315C12.7051 13.0098 13.0103 12.7046 13.3155 12.7046Z" fill="currentColor"/>
</svg>
