<svg width="24" height="24" viewBox="0 0 24 24" fill="none" xmlns="http://www.w3.org/2000/svg">
<path d="M8.20078 5.99951H6.19967C6.08939 5.99951 6 6.0889 6 6.19918V17.7998C6 17.9101 6.08939 17.9995 6.19967 17.9995H8.20078C8.31105 17.9995 8.40045 17.9101 8.40045 17.7998V6.19918C8.40045 6.0889 8.31105 5.99951 8.20078 5.99951Z" fill="currentColor"/>
<path d="M13.0016 5.99951H11.0004C10.8902 5.99951 10.8008 6.0889 10.8008 6.19918V17.7998C10.8008 17.9101 10.8902 17.9995 11.0004 17.9995H13.0016C13.1118 17.9995 13.2012 17.9101 13.2012 17.7998V6.19918C13.2012 6.0889 13.1118 5.99951 13.0016 5.99951Z" fill="currentColor"/>
<path d="M17.8004 5.99951H15.7993C15.689 5.99951 15.5996 6.0889 15.5996 6.19918V17.7998C15.5996 17.9101 15.689 17.9995 15.7993 17.9995H17.8004C17.9107 17.9995 18.0001 17.9101 18.0001 17.7998V6.19918C18.0001 6.0889 17.9107 5.99951 17.8004 5.99951Z" fill="currentColor"/>
<path d="M21.2002 2H2.79978C2.35694 2 2 2.35694 2 2.79978V21.2002C2 21.6431 2.35694 22 2.79978 22H21.2002C21.6431 22 22 21.6419 22 21.2002V2.79978C22 2.35694 21.6419 2 21.2002 2ZM20.2008 20.2008H3.80033V3.80033H20.2008V20.2008Z" fill="currentColor"/>
</svg>
