<svg width="24" height="24" viewBox="0 0 24 24" fill="none" xmlns="http://www.w3.org/2000/svg">
<path d="M10.1814 21.1076L7.82701 21.1091L7.82769 6.09215H18.9666V11.4614C18.9666 11.5792 19.063 11.6757 19.1809 11.6757H20.6809C20.7987 11.6757 20.8951 11.5792 20.8951 11.4614V5.02072C20.8951 4.54661 20.5121 4.16357 20.038 4.16357H6.75626C6.28215 4.16357 5.89912 4.54661 5.89912 5.02072L5.89844 22.1806C5.89844 22.6547 6.28147 23.0377 6.75558 23.0377L10.1814 23.0361C10.2993 23.0361 10.3957 22.9397 10.3957 22.8219V21.3219C10.3957 21.204 10.2993 21.1076 10.1814 21.1076Z" fill="currentColor"/>
<path fill-rule="evenodd" clip-rule="evenodd" d="M3.84644 2.98096H3.85826V2.24791H4.66345V2.23828H16.472C16.6135 2.23828 16.7293 2.13069 16.7293 1.99919V0.564651C16.7293 0.433152 16.6135 0.325562 16.472 0.325562H4.66345V0.319336H2.78683C2.31272 0.319336 1.92969 0.702372 1.92969 1.17648V2.98096H1.93372L1.93372 19.4907C1.93372 19.6853 2.04131 19.8446 2.17281 19.8446H3.60735C3.73885 19.8446 3.84644 19.6853 3.84644 19.4907L3.84644 2.98096Z" fill="currentColor"/>
<path fill-rule="evenodd" clip-rule="evenodd" d="M13.9043 11.5665C14.2173 11.3956 14.5987 11.4092 14.8987 11.6021L22.3965 16.4221C22.6756 16.6015 22.8443 16.9105 22.8443 17.2423C22.8443 17.574 22.6756 17.883 22.3965 18.0624L14.8987 22.8824C14.5987 23.0753 14.2173 23.089 13.9043 22.9181C13.5912 22.7472 13.3965 22.419 13.3965 22.0623V12.4223C13.3965 12.0656 13.5912 11.7374 13.9043 11.5665ZM15.3465 14.2081V20.2764L20.0663 17.2423L15.3465 14.2081Z" fill="currentColor"/>
</svg>
