<svg width="24" height="24" viewBox="0 0 24 24" fill="none" xmlns="http://www.w3.org/2000/svg">
<path fill-rule="evenodd" clip-rule="evenodd" d="M4.26395 4.53923C3.9111 4.81731 3.89961 4.97984 3.89961 5.0001C3.89961 5.02035 3.9111 5.18289 4.26395 5.46096C4.60665 5.73104 5.15832 6.01363 5.92025 6.2676C7.4347 6.77242 9.58414 7.1001 11.9996 7.1001C14.4151 7.1001 16.5645 6.77242 18.079 6.2676C18.8409 6.01363 19.3926 5.73104 19.7353 5.46096C20.0881 5.18289 20.0996 5.02035 20.0996 5.0001C20.0996 4.97984 20.0881 4.81731 19.7353 4.53923C19.3926 4.26915 18.8409 3.98657 18.079 3.73259C16.5645 3.22778 14.4151 2.9001 11.9996 2.9001C9.58414 2.9001 7.4347 3.22778 5.92025 3.73259C5.15832 3.98657 4.60665 4.26915 4.26395 4.53923ZM3.1498 3.12549C2.5918 3.56525 2.09961 4.19193 2.09961 5.0001V12.0001V19.0001C2.09961 19.7826 2.56647 20.4035 3.12044 20.8493C3.68273 21.3018 4.45156 21.6754 5.35104 21.9752C7.15595 22.5769 9.5468 22.9001 11.9996 22.9001C14.4524 22.9001 16.8433 22.5769 18.6482 21.9752C19.5477 21.6754 20.3165 21.3018 20.8788 20.8493C21.4328 20.4035 21.8996 19.7826 21.8996 19.0001V12.0001V5.0001C21.8996 4.19193 21.4074 3.56525 20.8494 3.12549C20.2813 2.67774 19.5149 2.31388 18.6482 2.02496C16.9053 1.44399 14.5547 1.1001 11.9996 1.1001C9.44451 1.1001 7.09395 1.44399 5.35104 2.02496C4.48429 2.31388 3.71794 2.67774 3.1498 3.12549ZM20.0996 12.0001V7.36106C19.6679 7.59501 19.1767 7.79905 18.6482 7.97523C16.9053 8.5562 14.5547 8.9001 11.9996 8.9001C9.44451 8.9001 7.09395 8.5562 5.35104 7.97523C4.82251 7.79905 4.3313 7.59501 3.89961 7.36106V12.0001C3.89961 12.0132 3.90686 12.1717 4.24894 12.447C4.58272 12.7156 5.13191 13.0048 5.92025 13.2676C7.491 13.7912 9.67852 14.1001 11.9996 14.1001C14.3207 14.1001 16.5082 13.7912 18.079 13.2676C18.8673 13.0048 19.4165 12.7156 19.7503 12.447C20.0924 12.1717 20.0996 12.0132 20.0996 12.0001ZM3.89961 14.3603C4.32645 14.5921 4.8156 14.7968 5.35104 14.9752C7.15595 15.5769 9.5468 15.9001 11.9996 15.9001C14.4524 15.9001 16.8433 15.5769 18.6482 14.9752C19.1836 14.7968 19.6728 14.5921 20.0996 14.3603V19.0001C20.0996 19.0132 20.0924 19.1717 19.7503 19.447C19.4165 19.7156 18.8673 20.0048 18.079 20.2676C16.5082 20.7912 14.3207 21.1001 11.9996 21.1001C9.67852 21.1001 7.491 20.7912 5.92025 20.2676C5.13191 20.0048 4.58272 19.7156 4.24894 19.447C3.90686 19.1717 3.89961 19.0132 3.89961 19.0001V14.3603Z" fill="currentColor"/>
</svg>
