<svg width="17" height="17" viewBox="0 0 17 17" fill="none" xmlns="http://www.w3.org/2000/svg">
<g clip-path="url(#clip0_324_8371)">
<g clip-path="url(#clip1_324_8371)">
<path fill-rule="evenodd" clip-rule="evenodd" d="M11.3824 9.0774C11.5784 8.96455 11.8007 8.90515 12.0269 8.90515C12.2531 8.90515 12.4753 8.96455 12.6713 9.0774C12.6718 9.07767 12.6722 9.07794 12.6727 9.0782L15.006 10.4115C15.2022 10.5248 15.3651 10.6876 15.4785 10.8837C15.5918 11.0799 15.6516 11.3023 15.6519 11.5288V14.1961C15.6516 14.4226 15.5918 14.6458 15.4785 14.8419C15.3651 15.038 15.2022 15.2008 15.006 15.3141L15.0036 15.3155L12.6727 16.6474C12.6722 16.6477 12.6718 16.6479 12.6713 16.6482C12.4753 16.7611 12.2531 16.8205 12.0269 16.8205C11.8007 16.8205 11.5784 16.7611 11.3824 16.6482C11.382 16.6479 11.3815 16.6477 11.381 16.6474L9.0501 15.3155L9.04769 15.3141C8.85153 15.2008 8.68859 15.038 8.57524 14.8419C8.46188 14.6458 8.40209 14.4233 8.40186 14.1968L8.40186 11.5295C8.40209 11.303 8.46188 11.0798 8.57524 10.8837C8.68859 10.6876 8.85153 10.5248 9.04769 10.4115L9.0501 10.4101L11.3824 9.0774ZM12.0269 10.1552C12.0195 10.1552 12.0124 10.1571 12.006 10.1607L12.0036 10.1621L9.67221 11.4943C9.66609 11.498 9.66101 11.5031 9.65745 11.5093C9.65381 11.5156 9.65189 11.5227 9.65186 11.53V14.1956C9.65189 14.2029 9.65381 14.21 9.65745 14.2163C9.66101 14.2225 9.6661 14.2276 9.67222 14.2313C9.67206 14.2312 9.67237 14.2314 9.67222 14.2313L12.0036 15.5635L12.006 15.5649C12.0124 15.5685 12.0195 15.5705 12.0269 15.5705C12.0342 15.5705 12.0414 15.5685 12.0477 15.5649L12.0501 15.5635L14.381 14.2315C14.3809 14.2316 14.3812 14.2314 14.381 14.2315C14.3871 14.2279 14.3927 14.2225 14.3963 14.2163C14.3999 14.21 14.4018 14.2029 14.4019 14.1957C14.4019 14.1956 14.4019 14.1957 14.4019 14.1957L14.4019 11.5301C14.4019 11.5301 14.4019 11.5302 14.4019 11.5301C14.4018 11.5229 14.3999 11.5156 14.3963 11.5093C14.3927 11.5031 14.3876 11.498 14.3815 11.4944C14.3813 11.4943 14.3817 11.4944 14.3815 11.4944L12.0477 10.1607C12.0414 10.1571 12.0342 10.1552 12.0269 10.1552Z" fill="currentColor"/>
<path fill-rule="evenodd" clip-rule="evenodd" d="M15.4689 10.8847C15.6409 11.184 15.5378 11.566 15.2385 11.738L12.3385 13.4047C12.1457 13.5155 11.9085 13.5155 11.7156 13.4047L8.81563 11.738C8.51636 11.566 8.41318 11.184 8.58517 10.8847C8.75717 10.5854 9.13921 10.4823 9.43849 10.6543L12.0271 12.142L14.6156 10.6543C14.9149 10.4823 15.2969 10.5854 15.4689 10.8847Z" fill="currentColor"/>
<path fill-rule="evenodd" clip-rule="evenodd" d="M12.0269 12.2378C12.372 12.2378 12.6519 12.5176 12.6519 12.8628V16.1961C12.6519 16.5413 12.372 16.8211 12.0269 16.8211C11.6817 16.8211 11.4019 16.5413 11.4019 16.1961V12.8628C11.4019 12.5176 11.6817 12.2378 12.0269 12.2378Z" fill="currentColor"/>
</g>
<path d="M3.25206 4.86279H2.25966C2.20498 4.86279 2.16064 4.92239 2.16064 4.9959V12.7297C2.16064 12.8032 2.20498 12.8628 2.25966 12.8628H3.25206C3.30674 12.8628 3.35107 12.8032 3.35107 12.7297V4.9959C3.35107 4.92239 3.30674 4.86279 3.25206 4.86279Z" fill="currentColor"/>
<path d="M6.12315 4.86279H5.13076C5.07607 4.86279 5.03174 4.92239 5.03174 4.9959V12.7297C5.03174 12.8032 5.07607 12.8628 5.13076 12.8628H6.12315C6.17784 12.8628 6.22217 12.8032 6.22217 12.7297V4.9959C6.22217 4.92239 6.17784 4.86279 6.12315 4.86279Z" fill="currentColor"/>
<path d="M6.15655 4.86279H5.09782C5.03948 4.86279 4.99219 4.92239 4.99219 4.9959V12.7297C4.99219 12.8032 5.03948 12.8628 5.09782 12.8628H6.15655C6.21489 12.8628 6.26219 12.8032 6.26219 12.7297V4.9959C6.26219 4.92239 6.21489 4.86279 6.15655 4.86279Z" fill="currentColor"/>
<path d="M12.5569 4.86279H11.4982C11.4399 4.86279 11.3926 4.92239 11.3926 4.9959V7.72968C11.3926 7.8032 11.4399 7.86279 11.4982 7.86279H12.5569C12.6153 7.86279 12.6626 7.8032 12.6626 7.72968V4.9959C12.6626 4.92239 12.6153 4.86279 12.5569 4.86279Z" fill="currentColor"/>
<path fill-rule="evenodd" clip-rule="evenodd" d="M2.69432 2.19629H14.9613C15.2558 2.19629 15.4945 2.43425 15.4945 2.72947V8.31494H14.2302V3.46254H3.43661V14.2616H7.77832V15.5296H2.69432C2.3991 15.5296 2.16113 15.2917 2.16113 14.9964V2.72947C2.16113 2.43425 2.3991 2.19629 2.69432 2.19629Z" fill="currentColor"/>
<path d="M15.389 5.36279H14.3302C14.2719 5.36279 14.2246 5.42239 14.2246 5.4959V8.22968C14.2246 8.3032 14.2719 8.36279 14.3302 8.36279H15.389C15.4473 8.36279 15.4946 8.3032 15.4946 8.22968V5.4959C15.4946 5.42239 15.4473 5.36279 15.389 5.36279Z" fill="currentColor"/>
<path d="M7.90723 15.4241L7.90723 14.3654C7.90723 14.3071 7.84763 14.2598 7.77412 14.2598L5.04034 14.2598C4.96682 14.2598 4.90723 14.3071 4.90723 14.3654L4.90723 15.4241C4.90723 15.4825 4.96682 15.5298 5.04034 15.5298L7.77412 15.5298C7.84763 15.5298 7.90723 15.4825 7.90723 15.4241Z" fill="currentColor"/>
<path d="M9.35675 4.86279H8.29802C8.23968 4.86279 8.19238 4.92239 8.19238 4.9959V8.72968C8.19238 8.8032 8.23968 8.86279 8.29802 8.86279H9.35675C9.41509 8.86279 9.46238 8.8032 9.46238 8.72968V4.9959C9.46238 4.92239 9.41509 4.86279 9.35675 4.86279Z" fill="currentColor"/>
</g>
<defs>
<clipPath id="clip0_324_8371">
<rect width="16" height="16" fill="white" transform="translate(0.827637 0.862793)"/>
</clipPath>
<clipPath id="clip1_324_8371">
<rect width="8" height="8" fill="white" transform="translate(8.02686 8.86279)"/>
</clipPath>
</defs>
</svg>
