<svg width="22" height="18" viewBox="0 0 22 18" fill="none" xmlns="http://www.w3.org/2000/svg">
<path d="M9.96428 7.59857V9.87268H7.70089C7.59107 9.87268 7.5 9.95572 7.5 10.0602V11.1852C7.5 11.287 7.59107 11.3727 7.70089 11.3727H9.96428V13.6468C9.96428 13.7513 10.05 13.837 10.1518 13.837H11.2768C11.3812 13.837 11.4643 13.7513 11.4643 13.6468V11.3727H13.7277C13.8375 11.3727 13.9286 11.287 13.9286 11.1852V10.0602C13.9286 9.95572 13.8375 9.87268 13.7277 9.87268H11.4643V7.59857C11.4643 7.49411 11.3812 7.40839 11.2768 7.40839H10.1518C10.05 7.40839 9.96428 7.49411 9.96428 7.59857ZM20.5714 3.06429H10.9554L7.81339 0.0589285C7.77341 0.0215029 7.72083 0.000469544 7.66607 0H0.857143C0.383036 0 0 0.383036 0 0.857143V16.7143C0 17.1884 0.383036 17.5714 0.857143 17.5714H20.5714C21.0455 17.5714 21.4286 17.1884 21.4286 16.7143V3.92143C21.4286 3.44732 21.0455 3.06429 20.5714 3.06429ZM19.5 15.6429H1.92857V1.92857H6.97768L10.1812 4.99286H19.5V15.6429Z" fill="currentColor"/>
</svg>
