<svg width="17" height="17" viewBox="0 0 17 17" fill="none" xmlns="http://www.w3.org/2000/svg">
<path fill-rule="evenodd" clip-rule="evenodd" d="M11.124 7.1712H15.7151C15.8562 7.1712 15.9704 7.05691 15.9704 6.91584V2.32298C15.9704 2.18191 15.8562 2.06763 15.7151 2.06763H11.124C10.9829 2.06763 10.8687 2.18191 10.8687 2.32298V4.06452H8.91801C8.58063 4.06452 8.31843 4.33919 8.31843 4.66452V8.08701H6.78831V6.34276C6.78831 6.20169 6.67402 6.0874 6.53295 6.0874H1.94188C1.80081 6.0874 1.68652 6.20169 1.68652 6.34276V10.9356C1.68652 11.0767 1.80081 11.191 1.94188 11.191H6.53295C6.67402 11.191 6.78831 11.0767 6.78831 10.9356V9.18765H8.31843V12.6101C8.31843 12.9355 8.58063 13.2101 8.91801 13.2101H10.8687V14.9566C10.8687 15.0977 10.9829 15.212 11.124 15.212H15.7151C15.8562 15.212 15.9704 15.0977 15.9704 14.9566V10.3638C15.9704 10.2227 15.8562 10.1084 15.7151 10.1084H11.124C10.9829 10.1084 10.8687 10.2227 10.8687 10.3638V12.1101H9.41843V8.68765C9.41843 8.6707 9.41772 8.65392 9.41635 8.63733C9.41772 8.62074 9.41843 8.60396 9.41843 8.58701V5.16452H10.8687V6.91584C10.8687 7.05691 10.9829 7.1712 11.124 7.1712ZM12.0793 3.28003H14.7579V5.96039H12.0793V3.28003ZM2.89722 7.2998H5.57579V9.98016H2.89722V7.2998ZM14.7579 11.3208H12.0793V14.0012H14.7579V11.3208Z" fill="currentColor"/>
</svg>
