<svg width="14" height="14" viewBox="0 0 14 14" fill="none" xmlns="http://www.w3.org/2000/svg">
<path fill-rule="evenodd" clip-rule="evenodd" d="M5.24935 2.3335C5.24935 2.23155 5.3062 2.08077 5.44308 1.94389C5.57996 1.80701 5.73073 1.75016 5.83268 1.75016H8.16602C8.26796 1.75016 8.41874 1.80701 8.55562 1.94389C8.6925 2.08077 8.74935 2.23155 8.74935 2.3335V2.91683H5.24935V2.3335ZM4.08268 2.91683V2.3335C4.08268 1.85211 4.3175 1.41955 4.61812 1.11893C4.91874 0.818315 5.3513 0.583496 5.83268 0.583496H8.16602C8.6474 0.583496 9.07996 0.818315 9.38058 1.11893C9.6812 1.41955 9.91602 1.85211 9.91602 2.3335V2.91683H10.4993H11.666H12.3327C12.6088 2.91683 12.8327 3.14069 12.8327 3.41683V3.5835C12.8327 3.85964 12.6088 4.0835 12.3327 4.0835H11.666V11.6668C11.666 12.1482 11.4312 12.5808 11.1306 12.8814C10.83 13.182 10.3974 13.4168 9.91602 13.4168H4.08268C3.6013 13.4168 3.16874 13.182 2.86812 12.8814C2.5675 12.5808 2.33268 12.1482 2.33268 11.6668V4.0835H1.66602C1.38987 4.0835 1.16602 3.85964 1.16602 3.5835V3.41683C1.16602 3.14069 1.38987 2.91683 1.66602 2.91683H2.33268H3.49935H4.08268ZM9.33268 4.0835H4.66602H3.49935V11.6668C3.49935 11.7688 3.5562 11.9196 3.69308 12.0564C3.82996 12.1933 3.98073 12.2502 4.08268 12.2502H9.91602C10.018 12.2502 10.1687 12.1933 10.3056 12.0564C10.4425 11.9196 10.4993 11.7688 10.4993 11.6668V4.0835H9.33268Z" fill="currentColor"/>
<path d="M11.0827 3.5V11.6667C11.0827 12.25 10.4993 12.8333 9.91602 12.8333H4.08268C3.49935 12.8333 2.91602 12.25 2.91602 11.6667V3.5" fill="currentColor"/>
<path d="M4.87407 6.603L5.18354 6.83925C5.6055 6.31265 6.26176 5.97461 6.99868 5.97461C8.27115 5.97461 9.30109 6.97907 9.30273 8.22193C9.30438 9.46586 8.27225 10.4746 6.99868 10.4746C6.00387 10.4746 5.15611 9.85854 4.83346 8.9955C4.82523 8.973 4.8373 8.94782 4.86035 8.94032L5.17147 8.83586C5.18232 8.83223 5.19419 8.83289 5.20455 8.83769C5.2149 8.8425 5.22292 8.85107 5.22689 8.86157C5.23677 8.88836 5.24774 8.91515 5.25926 8.9414C5.35419 9.16104 5.49027 9.35818 5.66367 9.52747C5.83566 9.6957 6.0393 9.82994 6.26341 9.92282C6.49551 10.0187 6.74298 10.0675 6.99759 10.0675C7.25274 10.0675 7.49966 10.0187 7.73177 9.92282C7.95609 9.83034 8.15981 9.69605 8.33151 9.52747C8.50397 9.35957 8.64132 9.16051 8.73591 8.9414C8.83413 8.71425 8.88406 8.47318 8.88406 8.22407C8.88406 7.97497 8.83413 7.7339 8.73591 7.50675C8.64098 7.28711 8.5049 7.08997 8.33151 6.92068C8.15812 6.7514 7.95619 6.61854 7.73177 6.52532C7.49966 6.42943 7.25219 6.38068 6.99759 6.38068C6.74244 6.38068 6.49551 6.42943 6.26341 6.52532C6.03908 6.61781 5.83537 6.7521 5.66367 6.92068C5.60934 6.97372 5.55831 7.02997 5.51112 7.0889L5.84145 7.34068C5.84798 7.34562 5.85296 7.35225 5.8558 7.35983C5.85865 7.3674 5.85924 7.37561 5.85753 7.3835C5.85581 7.39139 5.85184 7.39865 5.84608 7.40443C5.84033 7.41022 5.83302 7.41431 5.82499 7.41622L4.86145 7.64657C4.83401 7.653 4.80712 7.63264 4.80712 7.60532L4.80273 6.63622C4.80328 6.60086 4.84553 6.58104 4.87407 6.603Z" fill="white" stroke="white" stroke-width="0.5"/>
</svg>
