<svg width="12" height="13" viewBox="0 0 12 13" fill="none" xmlns="http://www.w3.org/2000/svg">
<path d="M9.95388 9.1022C9.52069 9.1022 9.12093 9.2542 8.80781 9.50804L5.65841 7.22958C5.71114 6.94013 5.71114 6.64353 5.65841 6.35407L8.80781 4.07562C9.12093 4.32946 9.52069 4.48146 9.95388 4.48146C10.9601 4.48146 11.7779 3.6637 11.7779 2.65748C11.7779 1.65125 10.9601 0.833496 9.95388 0.833496C8.94765 0.833496 8.1299 1.65125 8.1299 2.65748C8.1299 2.83379 8.15422 3.00251 8.20134 3.16363L5.21001 5.32961C4.76618 4.74137 4.06091 4.35986 3.26596 4.35986C1.92229 4.35986 0.833984 5.44816 0.833984 6.79183C0.833984 8.13549 1.92229 9.2238 3.26596 9.2238C4.06091 9.2238 4.76618 8.84229 5.21001 8.25405L8.20134 10.42C8.15422 10.5811 8.1299 10.7514 8.1299 10.9262C8.1299 11.9324 8.94765 12.7502 9.95388 12.7502C10.9601 12.7502 11.7779 11.9324 11.7779 10.9262C11.7779 9.91995 10.9601 9.1022 9.95388 9.1022Z" fill="currentColor"/>
</svg>
