<svg width="24" height="24" viewBox="0 0 24 24" fill="none" xmlns="http://www.w3.org/2000/svg">
<path d="M19.7639 16.6396H11.9259C11.7133 16.6396 11.541 16.812 11.541 17.0245V19.0089C11.541 19.2215 11.7133 19.3938 11.9259 19.3938H19.7639C19.9765 19.3938 20.1488 19.2215 20.1488 19.0089V17.0245C20.1488 16.812 19.9765 16.6396 19.7639 16.6396Z" fill="currentColor"/>
<path d="M11.5231 12.122C11.5231 12.122 11.526 12.1161 11.526 12.1132H11.5187C11.5187 12.0035 11.485 11.8937 11.3928 11.8176C11.3928 11.8176 3.52112 5.23958 3.33088 5.08446C3.1421 4.92934 3.04698 4.81666 2.80844 4.87958C2.57576 4.94105 2.586 5.23812 2.586 5.39471C2.586 5.55129 2.58747 7.88982 2.58747 7.88982C2.58747 7.98933 2.63137 8.08299 2.70747 8.14738L7.44014 12.122L2.70747 16.0966C2.63137 16.161 2.58747 16.2547 2.58747 16.3542C2.58747 16.3542 2.586 18.6927 2.586 18.8493C2.586 19.0059 2.57576 19.303 2.80844 19.3644C3.04698 19.4273 3.1421 19.3147 3.33088 19.1595C3.51966 19.0044 11.3928 12.4264 11.3928 12.4264C11.485 12.3488 11.5187 12.2391 11.5187 12.1308H11.526C11.526 12.1308 11.5231 12.1249 11.5231 12.122Z" fill="currentColor"/>
</svg>
