<svg width="24" height="24" viewBox="0 0 24 24" fill="none" xmlns="http://www.w3.org/2000/svg">
<path d="M21.0504 12.8503C21.0595 9.6413 19.3992 6.81833 16.8899 5.20326C16.7783 5.13238 16.6305 5.21231 16.6305 5.3435V6.82285C16.6305 6.92389 16.6742 7.01889 16.7526 7.08223C16.9321 7.23001 17.104 7.38684 17.2684 7.55423C17.9515 8.24037 18.4913 9.0381 18.8653 9.92631C19.2529 10.8432 19.4504 11.8204 19.4504 12.8277C19.4504 13.835 19.2544 14.8122 18.8653 15.7291C18.4913 16.6173 17.9515 17.415 17.2684 18.1012C16.5852 18.7873 15.7875 19.3242 14.9008 19.6997C13.9839 20.0887 13.0098 20.2848 12.0009 20.2848C10.9921 20.2848 10.0194 20.0872 9.10104 19.6997C8.21584 19.3257 7.41811 18.7858 6.73348 18.1012C6.05036 17.415 5.51049 16.6173 5.13651 15.7291C4.74895 14.8107 4.5499 13.8245 4.5514 12.8277C4.5514 11.8204 4.74895 10.8432 5.13651 9.92631C5.51049 9.03961 6.05337 8.23434 6.73348 7.55423C6.89936 7.38835 7.07278 7.23303 7.24921 7.08223C7.32763 7.01889 7.37136 6.92238 7.37136 6.82285V5.3435C7.37136 5.2108 7.22358 5.12937 7.11199 5.20326C4.61021 6.81531 2.95142 9.62622 2.95142 12.8262C2.95142 17.7966 6.95214 21.832 11.9074 21.8832C16.9426 21.9345 21.0353 17.8916 21.0474 12.8503H21.0504Z" fill="currentColor" stroke="currentColor" stroke-width="0.7" stroke-miterlimit="10"/>
<path d="M12.6253 1.88867H11.3797C11.2465 1.88867 11.1384 1.9967 11.1384 2.12995V11.1599C11.1384 11.2931 11.2465 11.4011 11.3797 11.4011H12.6253C12.7586 11.4011 12.8666 11.2931 12.8666 11.1599V2.12995C12.8666 1.9967 12.7586 1.88867 12.6253 1.88867Z" fill="currentColor" stroke="currentColor" stroke-width="0.7" stroke-miterlimit="10"/>
</svg>
