<svg width="15" height="15" viewBox="0 0 15 15" fill="none" xmlns="http://www.w3.org/2000/svg">
<path d="M5.1569 2.63525H5.04232C5.10534 2.63525 5.1569 2.58369 5.1569 2.52067V2.63525H9.51107V2.52067C9.51107 2.58369 9.56263 2.63525 9.62565 2.63525H9.51107V3.6665H10.5423V2.52067C10.5423 2.01507 10.1313 1.604 9.62565 1.604H5.04232C4.53672 1.604 4.12565 2.01507 4.12565 2.52067V3.6665H5.1569V2.63525ZM12.3757 3.6665H2.29232C2.0388 3.6665 1.83398 3.87132 1.83398 4.12484V4.58317C1.83398 4.64619 1.88555 4.69775 1.94857 4.69775H2.81367L3.16745 12.1886C3.19036 12.6771 3.59427 13.0623 4.08268 13.0623H10.5853C11.0751 13.0623 11.4776 12.6785 11.5005 12.1886L11.8543 4.69775H12.7194C12.7824 4.69775 12.834 4.64619 12.834 4.58317V4.12484C12.834 3.87132 12.6292 3.6665 12.3757 3.6665Z" fill="currentColor"/>
</svg>
