<svg width="12" height="12" viewBox="0 0 12 12" fill="none" xmlns="http://www.w3.org/2000/svg">
<g clip-path="url(#clip0_200_69)">
<path d="M10.181 8.51655C9.84578 8.18106 9.45408 7.90723 9.02386 7.70763C9.63056 7.21611 10.0176 6.46611 10.0176 5.62504C10.0176 4.14111 8.78011 2.9237 7.29618 2.94646C5.83502 2.96923 4.65779 4.15986 4.65779 5.62504C4.65779 6.46611 5.04618 7.21611 5.65154 7.70763C5.22124 7.90709 4.82951 8.18093 4.4944 8.51655C3.76315 9.24914 3.34797 10.2161 3.32118 11.2474C3.32083 11.2617 3.32333 11.2759 3.32856 11.2892C3.33378 11.3025 3.34162 11.3146 3.3516 11.3249C3.36159 11.3351 3.37352 11.3432 3.3867 11.3488C3.39987 11.3543 3.41403 11.3572 3.42833 11.3572H4.17833C4.23592 11.3572 4.28413 11.3116 4.28547 11.2541C4.31092 10.4773 4.62565 9.75004 5.17877 9.19825C5.46182 8.9137 5.79849 8.68812 6.1693 8.53455C6.54011 8.38098 6.93769 8.30249 7.33904 8.30361C8.15467 8.30361 8.92208 8.62102 9.49931 9.19825C10.0511 9.75004 10.3658 10.4773 10.3926 11.2541C10.394 11.3116 10.4422 11.3572 10.4998 11.3572H11.2498C11.2641 11.3572 11.2782 11.3543 11.2914 11.3488C11.3046 11.3432 11.3165 11.3351 11.3265 11.3249C11.3365 11.3146 11.3443 11.3025 11.3495 11.2892C11.3547 11.2759 11.3573 11.2617 11.3569 11.2474C11.3301 10.2161 10.9149 9.24914 10.181 8.51655ZM7.33904 7.33932C6.881 7.33932 6.44975 7.1612 6.12699 6.83709C5.965 6.67638 5.83705 6.4847 5.75076 6.27346C5.66448 6.06223 5.62162 5.83578 5.62475 5.60763C5.62877 5.16834 5.80422 4.74379 6.11092 4.42905C6.43234 4.09959 6.86226 3.91611 7.32163 3.91075C7.77565 3.90673 8.21627 4.08352 8.54038 4.40093C8.87252 4.72638 9.05467 5.16164 9.05467 5.62504C9.05467 6.08307 8.87654 6.51298 8.55243 6.83709C8.39342 6.99686 8.20431 7.12351 7.99603 7.20972C7.78776 7.29593 7.56445 7.33998 7.33904 7.33932ZM3.98413 5.97861C3.97208 5.86209 3.96538 5.74423 3.96538 5.62504C3.96538 5.41209 3.98547 5.2045 4.02297 5.00227C4.03234 4.95405 4.0069 4.9045 3.9627 4.88441C3.78056 4.80271 3.61315 4.69021 3.4685 4.54825C3.29807 4.38299 3.16395 4.18402 3.07471 3.96403C2.98547 3.74404 2.94306 3.50787 2.9502 3.27057C2.96225 2.84066 3.13502 2.43218 3.43636 2.12414C3.76717 1.7853 4.21181 1.60048 4.68458 1.60584C5.11181 1.60986 5.52431 1.77459 5.83636 2.06655C5.94217 2.16566 6.03324 2.27548 6.10958 2.39334C6.13636 2.43486 6.18859 2.45227 6.23413 2.4362C6.46984 2.3545 6.71895 2.29691 6.97475 2.27012C7.04975 2.26209 7.09261 2.18173 7.05913 2.11477C6.62386 1.25361 5.73458 0.658964 4.706 0.642892C3.22074 0.620125 1.98324 1.83754 1.98324 3.32012C1.98324 4.1612 2.37029 4.9112 2.97699 5.40271C2.55109 5.59959 2.15868 5.87146 1.8185 6.21164C1.08458 6.94423 0.669397 7.9112 0.642612 8.94379C0.642254 8.95808 0.644761 8.9723 0.649985 8.98561C0.65521 8.99892 0.663045 9.01105 0.67303 9.02129C0.683015 9.03152 0.694948 9.03965 0.708124 9.0452C0.721301 9.05075 0.735456 9.05361 0.749754 9.05361H1.50109C1.55868 9.05361 1.6069 9.00807 1.60824 8.95048C1.63368 8.1737 1.94842 7.44646 2.50154 6.89468C2.89529 6.50093 3.37743 6.22771 3.90377 6.09513C3.956 6.08173 3.99083 6.03218 3.98413 5.97861Z" fill="currentColor"/>
</g>
<defs>
<clipPath id="clip0_200_69">
<rect width="12" height="12" fill="white"/>
</clipPath>
</defs>
</svg>
