<svg xmlns="http://www.w3.org/2000/svg" width="24" height="24" viewBox="0 0 24 24" fill="none">
  <g clip-path="url(#clip0_1162_36410)">
    <path fill-rule="evenodd" clip-rule="evenodd" d="M12.0001 0.5C9.15137 0.501478 6.39601 1.51046 4.22675 3.34652C2.05749 5.18259 0.615781 7.72601 0.159422 10.522C-0.296936 13.318 0.261805 16.1842 1.73575 18.6082C3.20969 21.0321 5.50272 22.8558 8.20481 23.753C8.80093 23.8636 9.02547 23.4941 9.02547 23.18C9.02547 22.8658 9.01355 21.955 9.00957 20.9592C5.67127 21.6804 4.96586 19.5505 4.96586 19.5505C4.4214 18.1674 3.63451 17.8039 3.63451 17.8039C2.54559 17.065 3.71599 17.0788 3.71599 17.0788C4.92215 17.1637 5.55603 18.3097 5.55603 18.3097C6.62508 20.1333 8.36377 19.6058 9.04733 19.2976C9.15463 18.5251 9.46661 17.9995 9.81038 17.7012C7.14371 17.4008 4.34192 16.3774 4.34192 11.8054C4.32539 10.6197 4.7679 9.47305 5.57789 8.60268C5.45469 8.30236 5.04336 7.08923 5.69512 5.44143C5.69512 5.44143 6.70258 5.12136 8.99568 6.66444C10.9625 6.12962 13.0377 6.12962 15.0046 6.66444C17.2957 5.12136 18.3012 5.44143 18.3012 5.44143C18.9549 7.08528 18.5436 8.29841 18.4204 8.60268C19.233 9.47319 19.6764 10.6218 19.6584 11.8094C19.6584 16.3912 16.8506 17.4008 14.18 17.6952C14.6092 18.0667 14.9927 18.7918 14.9927 19.9061C14.9927 21.5026 14.9788 22.7868 14.9788 23.18C14.9788 23.4981 15.1954 23.8695 15.8034 23.753C18.5058 22.8557 20.7991 21.0317 22.273 18.6073C23.7469 16.183 24.3054 13.3163 23.8485 10.5201C23.3916 7.7238 21.9492 5.18035 19.7792 3.34461C17.6092 1.50886 14.8532 0.500541 12.0041 0.5H12.0001Z" fill="#929292"/>
    <path d="M4.54456 17.6321C4.51873 17.6914 4.42335 17.7092 4.34585 17.6677C4.26835 17.6262 4.21073 17.5491 4.23855 17.4879C4.26637 17.4266 4.35976 17.4108 4.43726 17.4523C4.51476 17.4938 4.57436 17.5729 4.54456 17.6321Z" fill="#929292"/>
    <path d="M5.03123 18.1711C4.99008 18.1918 4.943 18.1975 4.89805 18.1874C4.8531 18.1773 4.81308 18.152 4.78483 18.1158C4.70734 18.0328 4.69143 17.9182 4.75104 17.8669C4.81066 17.8155 4.91797 17.8392 4.99546 17.9222C5.07296 18.0052 5.09084 18.1198 5.03123 18.1711Z" fill="#929292"/>
    <path d="M5.50437 18.8568C5.43085 18.9082 5.30565 18.8568 5.2361 18.754C5.21687 18.7356 5.20158 18.7135 5.19113 18.6891C5.18068 18.6646 5.17529 18.6383 5.17529 18.6118C5.17529 18.5852 5.18068 18.5589 5.19113 18.5345C5.20158 18.5101 5.21687 18.488 5.2361 18.4695C5.30963 18.4201 5.43482 18.4695 5.50437 18.5703C5.57391 18.6711 5.5759 18.8054 5.50437 18.8568Z" fill="#929292"/>
    <path d="M6.14612 19.5207C6.08054 19.5939 5.94741 19.5741 5.83812 19.4753C5.72883 19.3765 5.70299 19.2422 5.76857 19.171C5.83414 19.0999 5.96727 19.1197 6.08054 19.2165C6.1938 19.3133 6.21566 19.4496 6.14612 19.5207Z" fill="#929292"/>
    <path d="M7.04617 19.9079C7.01637 20.0008 6.88124 20.0423 6.74612 20.0027C6.611 19.9632 6.52158 19.8526 6.54741 19.7577C6.57325 19.6629 6.71036 19.6194 6.84747 19.6629C6.98457 19.7064 7.07201 19.8111 7.04617 19.9079Z" fill="#929292"/>
    <path d="M8.02783 19.9752C8.02783 20.072 7.91656 20.155 7.77349 20.1569C7.63042 20.1589 7.51318 20.0799 7.51318 19.9831C7.51318 19.8863 7.62445 19.8033 7.76752 19.8013C7.91059 19.7993 8.02783 19.8764 8.02783 19.9752Z" fill="#929292"/>
    <path d="M8.9419 19.8229C8.95978 19.9197 8.86042 20.0205 8.71735 20.0442C8.57428 20.0679 8.4491 20.0106 8.43121 19.9158C8.41333 19.8209 8.51666 19.7182 8.65576 19.6925C8.79485 19.6668 8.92401 19.7261 8.9419 19.8229Z" fill="#929292"/>
  </g>
  <defs>
    <clipPath id="clip0_1162_36410">
      <rect width="24" height="24" fill="white"/>
    </clipPath>
  </defs>
</svg>
