<svg xmlns="http://www.w3.org/2000/svg" width="24" height="24" viewBox="0 0 24 24" fill="none">
  <g clip-path="url(#clip0_1162_36409)">
    <path fill-rule="evenodd" clip-rule="evenodd" d="M24 12C24 18.6274 18.6274 24 12 24C5.37258 24 0 18.6274 0 12C0 5.37258 5.37258 0 12 0C18.6274 0 24 5.37258 24 12ZM5.3297 9.39328H8.31642V19H5.3297V9.39328ZM6.82314 4.61792C7.77773 4.61792 8.55351 5.3937 8.55351 6.34989C8.55351 7.30512 7.77773 8.0809 6.82314 8.0809C5.86631 8.0809 5.09277 7.30512 5.09277 6.34989C5.09277 5.3937 5.86631 4.61792 6.82314 4.61792ZM13.053 9.3933H10.1891V19.0001H13.1736V14.2482C13.1736 12.9956 13.4107 11.781 14.9645 11.781C16.4967 11.781 16.516 13.2139 16.516 14.3283V19.0001H19.5005V13.7312C19.5005 11.1445 18.9424 9.15541 15.9189 9.15541C14.4668 9.15541 13.4925 9.95136 13.0939 10.707H13.053V9.3933Z" fill="#929292"/>
  </g>
  <defs>
    <clipPath id="clip0_1162_36409">
      <rect width="24" height="24" fill="white"/>
    </clipPath>
  </defs>
</svg>
