<svg xmlns="http://www.w3.org/2000/svg" width="14" height="12" viewBox="0 0 14 12" fill="none">
  <g clip-path="url(#clip0_1419_3284)">
    <path d="M13.5039 3.23768C13.363 3.05801 13.1501 2.95233 12.9255 2.95233H12.1842C12.1842 2.53109 11.8525 2.18988 11.4429 2.18988H10.7016V1.42895C10.7016 1.00772 10.3698 0.666504 9.96027 0.666504H1.07481C0.665251 0.666504 0.333496 1.00772 0.333496 1.42895V10.5707C0.333496 10.992 0.665251 11.3332 1.07481 11.3332H11.4444C11.7923 11.3332 12.0917 11.0856 12.1681 10.7368L13.6492 3.87934C13.6977 3.65438 13.6448 3.41734 13.5039 3.23768ZM1.07481 1.42895H9.96321V2.19139H9.2219C8.81234 2.19139 8.48059 2.5326 8.48059 2.95384H4.03712C3.68922 2.95384 3.38976 3.20144 3.31342 3.5502C3.31342 3.5502 1.81465 10.5179 1.81465 10.5722H1.07481V1.42895Z" fill="black"/>
  </g>
  <defs>
    <clipPath id="clip0_1419_3284">
      <rect width="13.3333" height="10.6667" fill="white" transform="translate(0.333496 0.666504)"/>
    </clipPath>
  </defs>
</svg>
