<svg xmlns="http://www.w3.org/2000/svg" width="24" height="24" viewBox="0 0 24 24" fill="none">
  <path d="M20.9077 21.75L13.4556 14.2979C12.8606 14.8045 12.1762 15.1966 11.4026 15.4743C10.629 15.752 9.85164 15.8908 9.07041 15.8908C7.16421 15.8908 5.55093 15.231 4.23057 13.9114C2.91019 12.5917 2.25 10.9793 2.25 9.07414C2.25 7.16897 2.90982 5.55532 4.22947 4.23319C5.54911 2.91106 7.16152 2.25 9.06669 2.25C10.9719 2.25 12.5855 2.91018 13.9076 4.23054C15.2298 5.5509 15.8908 7.1642 15.8908 9.07043C15.8908 9.89741 15.7444 10.6977 15.4514 11.4713C15.1584 12.2449 14.7739 12.9063 14.2979 13.4556L21.75 20.9077L20.9077 21.75ZM9.07041 14.7007C10.6496 14.7007 11.9828 14.1571 13.07 13.07C14.1571 11.9828 14.7007 10.6496 14.7007 9.07043C14.7007 7.49121 14.1571 6.15802 13.07 5.07087C11.9828 3.98372 10.6496 3.44014 9.07041 3.44014C7.4912 3.44014 6.15802 3.98372 5.07087 5.07087C3.98373 6.15802 3.44017 7.49121 3.44017 9.07043C3.44017 10.6496 3.98373 11.9828 5.07087 13.07C6.15802 14.1571 7.4912 14.7007 9.07041 14.7007Z" fill="black"/>
</svg>
