<svg xmlns="http://www.w3.org/2000/svg" width="24" height="24" viewBox="0 0 24 24" fill="none">
  <g clip-path="url(#clip0_1162_36408)">
    <path fill-rule="evenodd" clip-rule="evenodd" d="M12 24C18.6274 24 24 18.6274 24 12C24 5.37258 18.6274 0 12 0C5.37258 0 0 5.37258 0 12C0 18.6274 5.37258 24 12 24ZM19.2031 7.21172C19.6844 7.69609 19.8406 8.79922 19.8406 8.79922C19.8406 8.79922 20 10.0961 20 11.3898V12.6023C20 13.8992 19.8406 15.193 19.8406 15.193C19.8406 15.193 19.6844 16.2961 19.2031 16.7805C18.654 17.3549 18.0466 17.4143 17.7031 17.4478C17.6654 17.4515 17.6309 17.4549 17.6 17.4586C15.3625 17.618 12 17.6242 12 17.6242C12 17.6242 7.84063 17.5867 6.55938 17.4648C6.49706 17.4528 6.42116 17.4436 6.33508 17.4331C5.92907 17.3836 5.29653 17.3065 4.79375 16.7805C4.31563 16.2961 4.15938 15.193 4.15938 15.193C4.15938 15.193 4 13.8961 4 12.6023V11.3898C4 10.0961 4.1625 8.79922 4.1625 8.79922C4.1625 8.79922 4.31563 7.69609 4.79688 7.21172C5.34597 6.63728 5.95343 6.57792 6.29687 6.54436C6.33457 6.54068 6.36909 6.5373 6.4 6.53359C8.6375 6.37109 11.9969 6.37109 11.9969 6.37109H12.0031C12.0031 6.37109 15.3625 6.37109 17.6 6.53359C17.6309 6.5373 17.6654 6.54068 17.7031 6.54436C18.0466 6.57792 18.654 6.63728 19.2031 7.21172ZM10.3469 9.57734V14.0742L14.6687 11.8336L10.3469 9.57734Z" fill="#929292"/>
  </g>
  <defs>
    <clipPath id="clip0_1162_36408">
      <rect width="24" height="24" fill="white"/>
    </clipPath>
  </defs>
</svg>
