<?xml version="1.0" ?><svg id="Layer_1" style="enable-background:new 0 0 200 200;" version="1.1" viewBox="0 0 200 200" xml:space="preserve" xmlns="http://www.w3.org/2000/svg" xmlns:xlink="http://www.w3.org/1999/xlink"><style type="text/css">
	.st0{fill:url(#SVGID_1_);}
	.st1{fill:url(#SVGID_2_);}
	.st2{fill:url(#SVGID_3_);}
</style><g><linearGradient gradientUnits="userSpaceOnUse" id="SVGID_1_" x1="120.8321" x2="-26.5076" y1="218.8361" y2="71.4964"><stop offset="0" style="stop-color:#007FE2"/><stop offset="1" style="stop-color:#39D3B8"/></linearGradient><path class="st0" d="M65.067,150.666l-12.405,12.405c-1.356,1.356-1.356,3.554,0,4.91c0.678,0.678,1.567,1.017,2.455,1.017   c0.888,0,1.778-0.339,2.455-1.017l12.405-12.405c1.356-1.356,1.356-3.554,0-4.91C68.623,149.31,66.423,149.31,65.067,150.666z"/><linearGradient gradientUnits="userSpaceOnUse" id="SVGID_2_" x1="184.8769" x2="37.5372" y1="154.7913" y2="7.4516"><stop offset="0" style="stop-color:#007FE2"/><stop offset="1" style="stop-color:#39D3B8"/></linearGradient><path class="st1" d="M173.135,26.865c-1.621-1.621-3.91-2.237-6.125-1.643l-11.619,3.105c-20.481,5.48-40.218,15.984-57.077,30.376   c-1.459,1.245-1.632,3.437-0.387,4.895c1.247,1.461,3.438,1.631,4.895,0.387c16.076-13.724,34.875-23.735,54.363-28.949   l10.618-2.837l-2.839,10.615c-7.144,26.717-23.205,51.82-45.225,70.688c-0.05,0.043-0.087,0.096-0.135,0.141   c-0.088,0.085-0.173,0.17-0.251,0.263c-0.072,0.085-0.137,0.173-0.2,0.264c-0.065,0.093-0.125,0.188-0.18,0.287   c-0.055,0.098-0.102,0.198-0.147,0.3c-0.045,0.104-0.086,0.208-0.121,0.317c-0.034,0.107-0.062,0.214-0.086,0.323   c-0.024,0.109-0.044,0.218-0.058,0.33c-0.014,0.12-0.019,0.239-0.021,0.359c-0.001,0.067-0.014,0.13-0.012,0.198l1.219,29.062   c0.087,1.996-1.055,4.147-2.787,5.235l-23.706,14.995l-2.447-25.468c-0.184-1.909-1.866-3.306-3.789-3.124   c-1.908,0.184-3.308,1.88-3.124,3.789l2.987,31.089c0.116,1.2,0.846,2.256,1.929,2.786c0.483,0.237,1.006,0.354,1.527,0.354   c0.647,0,1.292-0.18,1.856-0.538l28.471-18.008c3.853-2.423,6.216-6.902,6.021-11.405l-1.15-27.412   c22.407-19.639,38.774-45.5,46.135-73.029l3.106-11.616C175.371,30.776,174.757,28.486,173.135,26.865z"/><linearGradient gradientUnits="userSpaceOnUse" id="SVGID_3_" x1="143.6455" x2="-3.6942" y1="196.0228" y2="48.683"><stop offset="0" style="stop-color:#007FE2"/><stop offset="1" style="stop-color:#39D3B8"/></linearGradient><path class="st2" d="M54.638,80.248l28.977,1.341c1.912,0.075,3.54-1.392,3.63-3.308c0.088-1.916-1.393-3.541-3.308-3.629   L54.941,73.31c-4.511-0.186-8.96,2.175-11.397,6.013L25.53,107.8c-0.673,1.064-0.702,2.409-0.1,3.516   c0.602,1.106,1.771,1.8,3.03,1.813c1.27,0.013,12.629,1.109,28.936,2.791c0.378,0.039,0.734,0.209,1.003,0.477l1.176,1.176   l-26.207,26.205c-1.356,1.356-1.356,3.554,0,4.91c0.678,0.678,1.567,1.017,2.455,1.017s1.778-0.339,2.455-1.017l26.207-26.205   l4.157,4.156c0.678,0.678,1.567,1.017,2.455,1.017c0.888,0,1.778-0.339,2.455-1.017c1.356-1.356,1.356-3.554,0-4.91l-10.243-10.242   c-1.393-1.394-3.24-2.272-5.2-2.475c-8.209-0.847-17.619-1.8-23.638-2.356L49.409,83.04C50.505,81.315,52.69,80.184,54.638,80.248z   "/></g></svg>