<svg viewBox="0 0 299 142" xmlns="http://www.w3.org/2000/svg" fill-rule="evenodd" clip-rule="evenodd" stroke-linejoin="round" stroke-miterlimit="1.414"><path d="M10.666 60.735c-7.392 0-11.088-4.283-11.088-12.848a47.55 47.55 0 0 1 2.464-15.136c1.643-4.928 4.195-9.123 7.656-12.584 3.461-3.46 7.421-5.192 11.88-5.192 2.992 0 6.307.411 9.944 1.232l1.76.352 4.664-19.888h6.6L29.85 59.855h-6.336l1.672-7.832c-.528.763-1.393 1.716-2.596 2.86s-2.332 2.097-3.388 2.86c-2.875 1.995-5.72 2.992-8.536 2.992zm21.472-38.72c-3.872-.88-7.377-1.32-10.516-1.32-3.139 0-5.91 1.525-8.316 4.576-2.405 3.051-4.165 6.6-5.28 10.648-1.115 4.048-1.672 8.008-1.672 11.88 0 4.811 2.112 7.216 6.336 7.216 1.76 0 3.813-.865 6.16-2.596 2.347-1.73 4.283-3.476 5.808-5.236l2.2-2.552 5.28-22.616zm38.192 5.368c0-4.4-1.995-6.6-5.984-6.6-1.7 0-3.68.821-5.94 2.464-2.259 1.643-4.092 3.285-5.5 4.928l-2.024 2.464-6.776 29.216h-6.512l10.12-44h6.424l-1.584 7.656a23.854 23.854 0 0 1 4.752-4.664c3.58-2.58 6.776-3.872 9.592-3.872 3.285 0 5.661.91 7.128 2.728 1.35 1.643 2.171 3.344 2.464 5.104.528-.587 1.276-1.32 2.244-2.2.968-.88 2.743-2.039 5.324-3.476 2.581-1.437 4.957-2.156 7.128-2.156 3.403 0 5.97.997 7.7 2.992 1.731 1.995 2.596 4.46 2.596 7.392 0 2.933-.587 7.04-1.76 12.32l-5.104 22.176h-6.6l5.104-21.912c1.115-4.459 1.672-7.949 1.672-10.472 0-4.459-1.936-6.688-5.808-6.688-1.643 0-3.476.66-5.5 1.98-2.024 1.32-3.652 2.655-4.884 4.004l-1.848 1.936c-.176 2.757-.675 5.75-1.496 8.976l-5.104 22.176h-6.6l5.104-21.912c1.115-4.459 1.672-7.979 1.672-10.56zm31.856 32.472l14.608-63.184h6.512l-14.52 63.184h-6.6zm40.04-44.88c2.757 0 5.896.411 9.416 1.232l1.584.44-1.672 5.104c-3.813-.704-6.98-1.056-9.504-1.056-3.52 0-6.54 1.291-9.064 3.872-4.752 4.752-7.128 11.94-7.128 21.56 0 2.933.704 5.148 2.112 6.644 1.408 1.496 3.725 2.244 6.952 2.244 2.288 0 4.987-.323 8.096-.968l1.76-.352-.44 5.192c-4.048 1.232-8.11 1.848-12.188 1.848-4.077 0-7.275-1.159-9.592-3.476s-3.476-5.617-3.476-9.9c0-12.555 3.403-21.795 10.208-27.72 3.58-3.109 7.891-4.664 12.936-4.664z" fill="#6a6969" fill-rule="nonzero"/><path d="M38.922 112.83c1.404-5.85 2.106-9.907 2.106-12.169 0-2.262-.331-3.939-.994-5.03-.663-1.093-1.736-1.639-3.218-1.639-2.574 0-5.811 1.755-9.711 5.265l-1.872 1.755-9.01 39.312H.547L14 81.824h14.976l-.585 5.616c2.964-2.964 6.435-5.07 10.413-6.318 1.638-.468 3.588-.702 5.85-.702 2.262 0 4.407.702 6.435 2.106 2.028 1.404 3.315 2.808 3.86 4.212l.82 1.99a73.355 73.355 0 0 1 2.808-2.34c1.17-.937 3.374-2.166 6.611-3.687 3.237-1.52 6.181-2.28 8.833-2.28 9.36 0 14.04 5.498 14.04 16.496 0 3.51-.741 8.424-2.223 14.742l-6.552 28.665H63.609l6.552-27.495c1.404-5.85 2.106-9.867 2.106-12.05 0-2.185-.312-3.862-.936-5.032-.624-1.17-1.657-1.755-3.1-1.755s-3.12.565-5.031 1.696c-1.911 1.131-3.491 2.282-4.74 3.452l-1.871 1.638c-.546 4.68-1.131 8.307-1.755 10.881l-6.552 28.665H32.604l6.318-27.495zm59.553-31.006h15.912l4.563 17.901 12.168-17.9h15.912l-23.049 30.42 9.36 28.08H117.43l-4.563-17.2-11.934 17.2H84.67l22.932-29.25-9.126-29.25zm83.889-1.404c9.516 0 14.274 5.5 14.274 16.497 0 2.808-.819 7.722-2.457 14.742l-6.552 28.665h-15.678l6.318-27.495c1.404-5.85 2.106-9.926 2.106-12.227 0-2.3-.292-3.978-.877-5.03-.585-1.054-1.658-1.58-3.218-1.58-2.73 0-6.045 1.755-9.945 5.265l-1.872 1.755-9.009 39.312h-15.678l13.455-58.5h14.976l-.702 5.733c1.794-1.794 4.154-3.432 7.08-4.914 2.924-1.482 5.517-2.223 7.78-2.223zm37.616 46.215c1.6 1.17 3.607 1.755 6.025 1.755 5.382 0 10.881-.39 16.497-1.17l3.042-.35-1.755 11.582c-7.254 2.184-14.43 3.276-21.528 3.276-7.098 0-12.265-1.599-15.502-4.797-3.237-3.198-4.856-7.878-4.856-14.04 0-6.162.624-11.66 1.872-16.497 1.248-4.836 3.101-9.204 5.558-13.104 2.457-3.9 5.811-7 10.062-9.302 4.251-2.3 9.106-3.45 14.566-3.45 13.65 0 20.476 5.81 20.476 17.432 0 7.41-2.497 12.52-7.489 15.327-4.992 2.808-13.299 4.212-24.92 4.212h-4.096c-.234.936-.35 2.398-.35 4.387 0 1.99.8 3.57 2.398 4.74zm4.504-20.709c5.382 0 9.146-.585 11.291-1.755 2.145-1.17 3.217-3.159 3.217-5.967 0-3.354-1.95-5.03-5.85-5.03-6.942 0-11.427 4.25-13.455 12.752h4.797zm50.545 19.188c0 2.184 1.13 3.276 3.393 3.276l7.956-.585-1.287 11.232c-4.134 1.794-8.404 2.691-12.811 2.691s-7.761-1.19-10.062-3.569c-2.301-2.379-3.452-5.265-3.452-8.658s.585-7.507 1.755-12.343l5.148-21.996h-6.318l3.51-13.338h5.967l3.393-14.976h15.678l-3.393 14.976h12.285l-3.276 13.338h-12.168l-5.382 23.4c-.624 2.652-.936 4.836-.936 6.552z" fill="#189fdd" fill-rule="nonzero"/></svg>