<?xml version="1.0" encoding="utf-8"?>
<!-- Generator: Adobe Illustrator 27.0.0, SVG Export Plug-In . SVG Version: 6.00 Build 0)  -->
<svg version="1.1" id="Layer_1" xmlns="http://www.w3.org/2000/svg" xmlns:xlink="http://www.w3.org/1999/xlink" x="0px" y="0px"
	 viewBox="0 0 210.89 99.27" style="enable-background:new 0 0 210.89 99.27;" xml:space="preserve">
<g>
	<g>
		<g id="XMLID_00000143585578006439761790000016020653535785828490_">
			<g id="XMLID_00000116215944073642820650000002113006568756181668_">
				<path id="XMLID_00000017510518561814287490000012908700500667993253_" d="M49.53,46.96h-11.7l-3.58-8.63H14.76l-3.26,8.63H0
					L17.57,3.37l12.59,0L49.53,46.96z M24.03,13.78l-6.39,16.94h13.42L24.03,13.78z"/>
				<path id="XMLID_00000181086007935998803910000007063914053684402321_" d="M92.02,3.37l9.46,0v43.59H90.61V19.73L78.85,33.4
					h-1.66L65.43,19.73v27.23H54.56V3.37l9.46,0l14,16.17L92.02,3.37z"/>
				<path id="XMLID_00000008133869129729332740000014936511717932640159_" d="M129.01,3.37c15.91,0,24.09,9.9,24.09,21.86
					c0,12.53-7.92,21.73-25.31,21.73h-18.02V3.37L129.01,3.37z M120.63,38.97h7.09c10.93,0,14.19-7.41,14.19-13.81
					c0-7.48-4.03-13.8-14.32-13.8h-6.96V38.97z"/>
			</g>
			<g id="XMLID_00000003817476575132835620000006116668573494877318_">
				<polygon id="XMLID_00000069382304845307660050000006027933600606733747_" points="197.19,13.7 174.72,13.7 161.01,0 210.89,0 
					210.89,49.88 197.19,36.18 				"/>
				<polygon id="XMLID_00000018199561572888358070000009463412947906339471_" points="174.7,36.19 174.7,16.45 160.59,30.55 
					160.59,50.3 180.34,50.3 194.44,36.19 				"/>
			</g>
		</g>
	</g>
	<g>
		<path d="M24.52,86.19l7.54,13.08h-5.01L19.5,86.19h-15v13.08H0.15V68.75h24.54c3.31,0,5.97,2.66,5.97,5.97v5.49
			c0,3.31-2.66,5.97-5.97,5.97H24.52z M4.51,73.11v8.72h20.18c0.87,0,1.61-0.74,1.61-1.61v-5.49c0-0.87-0.74-1.61-1.61-1.61H4.51z"
			/>
		<path d="M60.96,68.75c3.31,0,5.97,2.66,5.97,5.97v18.57c0,3.31-2.66,5.97-5.97,5.97H42.39c-3.31,0-5.97-2.66-5.97-5.97V74.72
			c0-3.31,2.66-5.97,5.97-5.97H60.96z M62.57,74.72c0-0.87-0.74-1.61-1.61-1.61H42.39c-0.87,0-1.61,0.74-1.61,1.61v18.57
			c0,0.87,0.74,1.61,1.61,1.61h18.57c0.87,0,1.61-0.74,1.61-1.61V74.72z"/>
		<path d="M77.61,93.29c0,0.87,0.74,1.61,1.61,1.61h24.54v4.36H79.22c-3.31,0-5.97-2.66-5.97-5.97V74.72c0-3.31,2.66-5.97,5.97-5.97
			h24.54v4.36H79.22c-0.87,0-1.61,0.74-1.61,1.61V93.29z"/>
		<path d="M120.25,77.47c3.31,0,6.02,2.66,6.02,5.97v15.82h-4.36V83.44c0-0.92-0.74-1.61-1.66-1.61h-7.06v17.44h-4.36v-21.8h4.36
			v4.36c0-2.4,1.96-4.36,4.36-4.36H120.25z M133.32,77.47c3.31,0,6.02,2.66,6.02,5.97v15.82h-4.36V83.44c0-0.92-0.74-1.61-1.66-1.61
			h-7.28c0-2.4,1.96-4.36,4.36-4.36H133.32z"/>
	</g>
</g>
</svg>
