<svg id="_x31__x2C_5" enable-background="new 0 0 24 24" height="512" viewBox="0 0 24 24" width="512" xmlns="http://www.w3.org/2000/svg"><path d="m23.25 5.75v11h-22.5v-11c0-.55.45-1 1-1h20.5c.55 0 1 .45 1 1z" fill="#eceff1"/><path d="m15.121 22.679c-1.064-1.064-1.096-2.095-1.096-2.146-.002-.223-.182-.403-.405-.403h-3.256c-.223 0-.405.184-.405.407 0 .044-.014 1.075-1.08 2.141-.116.116-.151.29-.088.441.062.151.21.25.374.25h5.67c.164 0 .312-.098.374-.25s.028-.324-.088-.44z" fill="#90a4ae"/><path d="m23.25 16.75v2.5c0 .55-.45 1-1 1h-20.5c-.55 0-1-.45-1-1v-2.5z" fill="#607d8b"/><path d="m14.975 9h-5.95c-.704 0-1.275-.672-1.275-1.5v-2c0-.828.571-1.5 1.275-1.5h5.95c.704 0 1.275.672 1.275 1.5v2c0 .828-.571 1.5-1.275 1.5z" fill="#2196f3"/><path d="m15.25 9.5h-6.5c-.965 0-1.75-.785-1.75-1.75v-3c0-.965.785-1.75 1.75-1.75h6.5c.965 0 1.75.785 1.75 1.75v3c0 .965-.785 1.75-1.75 1.75zm-6.5-5c-.138 0-.25.112-.25.25v3c0 .138.112.25.25.25h6.5c.138 0 .25-.112.25-.25v-3c0-.138-.112-.25-.25-.25z"/><path d="m13.25 2.5c-.164 0-.33-.054-.468-.164l-.782-.625-.781.625c-.324.259-.796.205-1.054-.117-.259-.323-.207-.796.117-1.055l1.25-1c.274-.219.663-.219.938 0l1.25 1c.323.259.375.731.117 1.055-.149.184-.367.281-.587.281z"/><path d="m12 13c-.166 0-.332-.055-.469-.164l-1.25-1c-.323-.259-.375-.731-.117-1.055.258-.322.729-.376 1.054-.117l.782.625.781-.625c.325-.258.796-.204 1.054.117.259.323.207.796-.117 1.055l-1.25 1c-.136.109-.302.164-.468.164z"/><path d="m22.25 21h-20.5c-.965 0-1.75-.785-1.75-1.75v-13.5c0-.965.785-1.75 1.75-1.75h3c.414 0 .75.336.75.75s-.336.75-.75.75h-3c-.136 0-.25.114-.25.25v13.5c0 .136.114.25.25.25h20.5c.136 0 .25-.114.25-.25v-13.5c0-.136-.114-.25-.25-.25h-3c-.414 0-.75-.336-.75-.75s.336-.75.75-.75h3c.965 0 1.75.785 1.75 1.75v13.5c0 .965-.785 1.75-1.75 1.75z"/><path d="m23.25 17.5h-22.5c-.414 0-.75-.336-.75-.75s.336-.75.75-.75h22.5c.414 0 .75.336.75.75s-.336.75-.75.75z"/><path d="m15.25 24h-6.5c-.303 0-.577-.183-.693-.463s-.052-.602.163-.817c1.041-1.041 1.265-2.553 1.267-2.567.055-.411.43-.704.841-.646.411.054.7.431.646.841-.008.059-.147 1.066-.744 2.152h3.523c-.591-1.08-.738-2.088-.746-2.147-.057-.41.229-.788.64-.846.412-.06.789.229.846.639.007.045.232 1.469 1.184 2.487.195.136.323.361.323.617 0 .414-.336.75-.75.75z"/></svg>