<svg xmlns="http://www.w3.org/2000/svg" xmlns:xlink="http://www.w3.org/1999/xlink" xmlns:lucid="lucid" width="1081.07" height="591"><g transform="translate(0 0)" lucid:page-tab-id="0_0"><g filter="url(#a)"><path d="M638.4 410c0 44.18-35.82 80-80 80s-80-35.82-80-80 35.82-80 80-80 80 35.82 80 80z" stroke="#000" stroke-width="2" fill="#fff"/><use xlink:href="#b" transform="matrix(1,0,0,1,483.39999999999986,334.99999999999994) translate(19.724999999999994 78.60000000000001)"/></g><g filter="url(#a)"><path d="M198.4 410c0 44.18-35.82 80-80 80s-80-35.82-80-80 35.82-80 80-80 80 35.82 80 80z" stroke="#000" stroke-width="2" fill="#fff"/><use xlink:href="#c" transform="matrix(1,0,0,1,43.399999999999835,334.99999999999994) translate(27.125 78.60000000000001)"/><use xlink:href="#d" transform="matrix(1,0,0,1,43.399999999999835,334.99999999999994) translate(73.025 78.60000000000001)"/><use xlink:href="#e" transform="matrix(1,0,0,1,43.399999999999835,334.99999999999994) translate(88.025 78.60000000000001)"/></g><g filter="url(#a)"><path d="M318.4 176c0 44.18-35.82 80-80 80s-80-35.82-80-80 35.82-80 80-80 80 35.82 80 80z" stroke="#000" stroke-width="2" fill="#fff"/><use xlink:href="#f" transform="matrix(1,0,0,1,163.39999999999984,101) translate(30.625 78.60000000000001)"/><use xlink:href="#g" transform="matrix(1,0,0,1,163.39999999999984,101) translate(75.575 78.60000000000001)"/></g><path d="M501.13 352.77l-9.47-8.97-8.56-7.45-7.88-6.3-7.4-5.4-7.08-4.75-6.9-4.22-6.9-3.82-7.1-3.56-7.65-3.42-8.86-3.54-12.8-4.48-37.08-12.2-8.85-3.54-7.63-3.42-7.1-3.56-6.9-3.82-6.9-4.22-7.1-4.74-7.4-5.42-7.87-6.3-4.64-4.03" stroke="#000" stroke-width="2" fill="none"/><path d="M502.57 352.74l-1.4 1.42-.72-.66 1.37-1.46zM311.66 241.7l-6.3 6.8-7.32-13.07z"/><path d="M313.33 241.37l-8.16 8.83-9.5-16.97zm-7.76 5.45l4.43-4.78-9.58-4.42z"/><path d="M145.97 333.85l12.9-33.5 7.03-15.4 7.18-13.68 8.38-14.02" stroke="#000" stroke-width="2" fill="none"/><path d="M146.9 334.2l-.34.93-1.9-.68.38-.96zM185.75 259.15l-7.78-5.03 11.63-9.47z"/><path d="M186.37 260.74l-10.1-6.53 15.1-12.26zm-6.7-6.7l5.47 3.52 2.7-10.2z"/><path d="M199.4 410h259.76" stroke="#000" stroke-width="2" fill="none"/><path d="M199.4 411h-1.03l.03-1v-.68l-.02-.32h1.02zM474.16 410l-14.26 4.64v-9.28z"/><path d="M477.4 410l-18.5 6v-12zm-16.5 3.26l10.03-3.26-10.03-3.26z"/><path d="M529.04 334.5l-1.26-3.8-.87-3.34-.57-2.96-.36-2.65-.17-2.4-.02-2.18.1-2 .2-1.87.3-1.74.4-1.63.47-1.55.55-1.47.63-1.4.7-1.34.78-1.3.88-1.27.96-1.24 1.07-1.2 1.18-1.18 1.3-1.15 1.45-1.12 1.6-1.1 1.8-1.07 2-1.04 2.26-1 2.5-.94 2.84-.86 3.17-.75 3.56-.62 3.92-.43 4.3-.2 4.6.04 4.85.35 4.96.66 4.9.97 4.75 1.24 4.42 1.46 4.04 1.6 3.62 1.7 3.2 1.75 2.77 1.75 2.4 1.74 2.1 1.7 1.8 1.67 1.55 1.62 1.34 1.58 1.14 1.54 1 1.5.83 1.5.7 1.44.6 1.44.5 1.43.4 1.4.32 1.44.2 1.44.14 1.45.04 1.5-.05 1.5-.15 1.6-.26 1.62-.37 1.7-.52 1.8-.32.9" stroke="#000" stroke-width="2" fill="none"/><path d="M530.2 335.15l-1.7.63-.2.08-.24-1.14 1.95-.42zM623.83 335.72l-11.45 9.7 3.57-14.58z"/><path d="M625.52 335.6l-14.84 12.56 4.62-18.9zm-11.44 7.06l8.05-6.8-5.54-3.45z"/><path d="M518.4 497.2h240V572h-240z" stroke="#000" stroke-opacity="0" stroke-width="2" fill="#fff" fill-opacity="0"/><use xlink:href="#h" transform="matrix(1,0,0,1,523.3999999999999,502.20000000000005) translate(0 14.500000000000002)"/><use xlink:href="#i" transform="matrix(1,0,0,1,523.3999999999999,502.20000000000005) translate(54.95 14.500000000000002)"/><use xlink:href="#j" transform="matrix(1,0,0,1,523.3999999999999,502.20000000000005) translate(0 36.1)"/><use xlink:href="#k" transform="matrix(1,0,0,1,523.3999999999999,502.20000000000005) translate(49 36.1)"/><use xlink:href="#l" transform="matrix(1,0,0,1,523.3999999999999,502.20000000000005) translate(0 57.7)"/><use xlink:href="#m" transform="matrix(1,0,0,1,523.3999999999999,502.20000000000005) translate(44 57.7)"/><path d="M158.4 10h400v80h-400z" stroke="#000" stroke-opacity="0" stroke-width="2" fill="#fff" fill-opacity="0"/><use xlink:href="#h" transform="matrix(1,0,0,1,163.39999999999986,15) translate(0 17.5)"/><use xlink:href="#n" transform="matrix(1,0,0,1,163.39999999999986,15) translate(54.95 17.5)"/><use xlink:href="#j" transform="matrix(1,0,0,1,163.39999999999986,15) translate(0 39.1)"/><use xlink:href="#o" transform="matrix(1,0,0,1,163.39999999999986,15) translate(49 39.1)"/><use xlink:href="#l" transform="matrix(1,0,0,1,163.39999999999986,15) translate(0 60.7)"/><use xlink:href="#m" transform="matrix(1,0,0,1,163.39999999999986,15) translate(44 60.7)"/><path d="M225.07 410H458.4v53.73H225.07z" stroke="#000" stroke-opacity="0" stroke-width="2" fill="#fff" fill-opacity="0"/><use xlink:href="#p" transform="matrix(1,0,0,1,230.0666666666666,415) translate(0 16.6)"/><use xlink:href="#q" transform="matrix(1,0,0,1,230.0666666666666,415) translate(58 16.6)"/><use xlink:href="#r" transform="matrix(1,0,0,1,230.0666666666666,415) translate(0 38.196484375)"/><path d="M18.4 488.2h340V581h-340z" stroke="#000" stroke-opacity="0" stroke-width="2" fill="#fff" fill-opacity="0"/><use xlink:href="#h" transform="matrix(1,0,0,1,23.399999999999864,493.20000000000005) translate(0 23.5)"/><use xlink:href="#s" transform="matrix(1,0,0,1,23.399999999999864,493.20000000000005) translate(54.95 23.5)"/><use xlink:href="#t" transform="matrix(1,0,0,1,23.399999999999864,493.20000000000005) translate(152.1658203125 23.5)"/><use xlink:href="#j" transform="matrix(1,0,0,1,23.399999999999864,493.20000000000005) translate(0 45.1)"/><use xlink:href="#u" transform="matrix(1,0,0,1,23.399999999999864,493.20000000000005) translate(49 45.1)"/><use xlink:href="#v" transform="matrix(1,0,0,1,23.399999999999864,493.20000000000005) translate(172.8193359375 45.1)"/><use xlink:href="#w" transform="matrix(1,0,0,1,23.399999999999864,493.20000000000005) translate(204.7193359375 45.1)"/><use xlink:href="#x" transform="matrix(1,0,0,1,23.399999999999864,493.20000000000005) translate(254.66933593750002 45.1)"/><use xlink:href="#y" transform="matrix(1,0,0,1,23.399999999999864,493.20000000000005) translate(0 66.7)"/><use xlink:href="#z" transform="matrix(1,0,0,1,23.399999999999864,493.20000000000005) translate(44 66.7)"/><use xlink:href="#A" transform="matrix(1,0,0,1,23.399999999999864,493.20000000000005) translate(96.95 66.7)"/><use xlink:href="#v" transform="matrix(1,0,0,1,23.399999999999864,493.20000000000005) translate(149.9 66.7)"/><use xlink:href="#B" transform="matrix(1,0,0,1,23.399999999999864,493.20000000000005) translate(181.8 66.7)"/><use xlink:href="#C" transform="matrix(1,0,0,1,23.399999999999864,493.20000000000005) translate(230.8 66.7)"/><g filter="url(#a)"><path d="M1058.4 410c0 44.18-35.82 80-80 80s-80-35.82-80-80 35.82-80 80-80 80 35.82 80 80z" stroke="#000" stroke-width="2" fill="#fff"/><use xlink:href="#D" transform="matrix(1,0,0,1,903.3999999999999,334.99999999999994) translate(10.674999999999997 78.60000000000001)"/><use xlink:href="#d" transform="matrix(1,0,0,1,903.3999999999999,334.99999999999994) translate(89.47500000000001 78.60000000000001)"/><use xlink:href="#e" transform="matrix(1,0,0,1,903.3999999999999,334.99999999999994) translate(104.47500000000001 78.60000000000001)"/></g><path d="M319.4 176l333.8-1.16 56.37 3.48 40.44 4.2 31.12 4.57 24.92 4.73 20.5 4.8 17.2 4.8 14.68 4.75 12.68 4.7 11.06 4.65 9.75 4.6 8.67 4.5 7.75 4.48 6.97 4.43 6.3 4.38 5.73 4.36 5.24 4.34 4.8 4.32 4.42 4.32 4.06 4.34 3.77 4.36 3.5 4.4 3.22 4.45 3 4.5 2.78 4.6 2.57 4.68 2.4 4.8 2.18 4.93 2 5.1 1.84 5.25 1.38 4.55" stroke="#000" stroke-width="2" fill="none"/><path d="M319.4 177h-1.03l.03-1v-.68l-.02-.32h1.02zM977.7 325.84l-7.58-12.94 9.06-2z"/><path d="M978.4 329l-9.84-16.78 11.75-2.58zm-6.72-15.42l5.33 9.1 1.05-10.5z"/><path d="M639.4 410h239.76" stroke="#000" stroke-width="2" fill="none"/><path d="M639.4 411h-1.03l.03-1v-.68l-.02-.32h1.02zM894.16 410l-14.26 4.64v-9.28z"/><path d="M897.4 410l-18.5 6v-12zm-16.5 3.26l10.03-3.26-10.03-3.26z"/><path d="M538.4 143.73h200v28.4h-200z" stroke="#000" stroke-opacity="0" stroke-width="2" fill="#fff" fill-opacity="0"/><g><use xlink:href="#p" transform="matrix(1,0,0,1,543.3999999999999,148.73333333335654) translate(11.9912109375 14.4)"/><use xlink:href="#E" transform="matrix(1,0,0,1,543.3999999999999,148.73333333335654) translate(69.9912109375 14.4)"/></g><path d="M661.07 414h200v28.4h-200z" stroke="#000" stroke-opacity="0" stroke-width="2" fill="#fff" fill-opacity="0"/><g><use xlink:href="#p" transform="matrix(1,0,0,1,666.0666666666665,418.9999999999999) translate(11.9912109375 14.4)"/><use xlink:href="#E" transform="matrix(1,0,0,1,666.0666666666665,418.9999999999999) translate(69.9912109375 14.4)"/></g><path d="M193.96 380.83l13.02-7.78 17.57-9.52 23.85-11.66 32.2-14.1 42.4-16.52 52.94-18.1 60.86-18.02 63.6-16 60.82-12.63 54.48-8.96 46.86-5.7 39.48-3.15 33-1.25 27.58.12 23.14 1.08 19.53 1.72 16.6 2.18 14.25 2.47 12.3 2.68 10.7 2.8 9.37 2.87 8.27 2.92 7.32 2.94 6.55 2.95 5.86 2.94 5.3 2.94 4.8 2.93 4.34 2.93 3.97 2.92 3.64 2.9 3.35 2.93 3.07 2.9 2.84 2.94 2.63 2.95 2.43 2.97 2.25 3 2.1 3.03 1.93 3.08 1.8 3.14 1.64 3.2 1.53 3.28 1.36 3.3" stroke="#000" stroke-width="2" fill="none"/><path d="M194.48 381.68l-1.04.63-.7-1.9.7-.43zM949.53 330.9l-8.3-12.5 8.94-2.5z"/><path d="M950.4 334l-10.76-16.2 11.58-3.23zm-7.57-15l5.83 8.78.45-10.54z"/><path d="M625.4 210h200v28.4h-200z" stroke="#000" stroke-opacity="0" stroke-width="2" fill="#fff" fill-opacity="0"/><g><use xlink:href="#p" transform="matrix(1,0,0,1,630.3999999999999,215) translate(11.9912109375 14.4)"/><use xlink:href="#E" transform="matrix(1,0,0,1,630.3999999999999,215) translate(69.9912109375 14.4)"/></g><path d="M625.07 276.27H858.4V330H625.07z" stroke="#000" stroke-opacity="0" stroke-width="2" fill="#fff" fill-opacity="0"/><g><use xlink:href="#p" transform="matrix(1,0,0,1,630.0666666666666,281.26666666664346) translate(0 16.6)"/><use xlink:href="#q" transform="matrix(1,0,0,1,630.0666666666666,281.26666666664346) translate(58 16.6)"/><use xlink:href="#r" transform="matrix(1,0,0,1,630.0666666666666,281.26666666664346) translate(0 38.196484375)"/></g><path d="M30.4 280.6h240v26h-240z" stroke="#000" stroke-opacity="0" stroke-width="2" fill="#fff" fill-opacity="0"/><g><use xlink:href="#p" transform="matrix(1,0,0,1,35.399999999999835,285.5999999999999) translate(4.98681640625 14.4)"/><use xlink:href="#F" transform="matrix(1,0,0,1,35.399999999999835,285.5999999999999) translate(62.98681640625 14.4)"/></g><path d="M318.4 230h240v26h-240z" stroke="#000" stroke-opacity="0" stroke-width="2" fill="#fff" fill-opacity="0"/><g><use xlink:href="#p" transform="matrix(1,0,0,1,323.39999999999986,235) translate(4.98681640625 14.4)"/><use xlink:href="#F" transform="matrix(1,0,0,1,323.39999999999986,235) translate(62.98681640625 14.4)"/></g><path d="M279.68 245.67l18.44 16.66 13.57 11.25 10.57 8.06 8.65 6.02 7.33 4.66 6.43 3.72 5.83 3.05 5.44 2.55 5.27 2.2 5.33 2 5.77 1.87 7.3 2.03 30.32 7.55 6.48 2.1 6.15 2.3 6.24 2.62 6.62 3.12 7.28 3.8 8.26 4.8 9.7 6.17 11.83 8.24 4.26 3.25" stroke="#000" stroke-width="2" fill="none"/><path d="M280.35 244.93L279 246.4l-1-.9 1.8-1.07zM488.64 362.85l-14.13-5.04 5.67-7.33z"/><path d="M491.2 364.83l-18.32-6.54 7.34-9.53zm-15.06-7.5l9.94 3.55-5.96-8.7z"/><path d="M274.4 340.67h233.33v53.73H274.4z" stroke="#000" stroke-opacity="0" stroke-width="2" fill="#fff" fill-opacity="0"/><g><use xlink:href="#p" transform="matrix(1,0,0,1,279.3999999999999,345.6666666666667) translate(0 16.6)"/><use xlink:href="#q" transform="matrix(1,0,0,1,279.3999999999999,345.6666666666667) translate(58 16.6)"/><use xlink:href="#r" transform="matrix(1,0,0,1,279.3999999999999,345.6666666666667) translate(0 38.196484375)"/></g><defs><path d="M67-125c0 53 21 87 73 88 37 1 54-22 65-47l45 17C233-25 199 4 140 4 58 4 20-42 15-125 8-235 124-281 211-232c18 10 29 29 36 50l-46 12c-8-25-30-41-62-41-52 0-71 34-72 86" id="G"/><path d="M110-194c64 0 96 36 96 99 0 64-35 99-97 99-61 0-95-36-95-99 0-62 34-99 96-99zm-1 164c35 0 45-28 45-65 0-40-10-65-43-65-34 0-45 26-45 65 0 36 10 65 43 65" id="H"/><path d="M135-194c87-1 58 113 63 194h-50c-7-57 23-157-34-157-59 0-34 97-39 157H25l-1-190h47c2 12-1 28 3 38 12-26 28-41 61-42" id="I"/><path d="M115-3C79 11 28 4 28-45v-112H4v-33h27l15-45h31v45h36v33H77v99c-1 23 16 31 38 25v30" id="J"/><path d="M25-224v-37h50v37H25zM25 0v-190h50V0H25" id="K"/><path d="M85 4C-2 5 27-109 22-190h50c7 57-23 150 33 157 60-5 35-97 40-157h50l1 190h-47c-2-12 1-28-3-38-12 25-28 42-61 42" id="L"/><path d="M133-34C117-15 103 5 69 4 32 3 11-16 11-54c-1-60 55-63 116-61 1-26-3-47-28-47-18 1-26 9-28 27l-52-2c7-38 36-58 82-57s74 22 75 68l1 82c-1 14 12 18 25 15v27c-30 8-71 5-69-32zm-48 3c29 0 43-24 42-57-32 0-66-3-65 30 0 17 8 27 23 27" id="M"/><g id="b"><use transform="matrix(0.05,0,0,0.05,0,0)" xlink:href="#G"/><use transform="matrix(0.05,0,0,0.05,12.950000000000001,0)" xlink:href="#H"/><use transform="matrix(0.05,0,0,0.05,23.900000000000002,0)" xlink:href="#I"/><use transform="matrix(0.05,0,0,0.05,34.85,0)" xlink:href="#J"/><use transform="matrix(0.05,0,0,0.05,40.800000000000004,0)" xlink:href="#K"/><use transform="matrix(0.05,0,0,0.05,45.800000000000004,0)" xlink:href="#I"/><use transform="matrix(0.05,0,0,0.05,56.75,0)" xlink:href="#L"/><use transform="matrix(0.05,0,0,0.05,67.7,0)" xlink:href="#M"/><use transform="matrix(0.05,0,0,0.05,77.7,0)" xlink:href="#J"/><use transform="matrix(0.05,0,0,0.05,83.65,0)" xlink:href="#K"/><use transform="matrix(0.05,0,0,0.05,88.65,0)" xlink:href="#H"/><use transform="matrix(0.05,0,0,0.05,99.60000000000001,0)" xlink:href="#I"/></g><filter id="a" filterUnits="objectBoundingBox" x="-.06" y="-.04" width="1.13" height="1.13"><feOffset result="offOut" in="SourceAlpha" dy="4"/><feGaussianBlur result="blurOut" in="offOut" stdDeviation="5"/><feColorMatrix result="colorOut" in="blurOut" values="0 0 0 0 0 0 0 0 0 0 0 0 0 0 0 0 0 0 0.5019607843137255 0"/><feBlend in="SourceGraphic" in2="colorOut"/></filter><path d="M169-182c-1-43-94-46-97-3 18 66 151 10 154 114 3 95-165 93-204 36-6-8-10-19-12-30l50-8c3 46 112 56 116 5-17-69-150-10-154-114-4-87 153-88 188-35 5 8 8 18 10 28" id="N"/><path d="M135-150c-39-12-60 13-60 57V0H25l-1-190h47c2 13-1 29 3 40 6-28 27-53 61-41v41" id="O"/><g id="c"><use transform="matrix(0.05,0,0,0.05,0,0)" xlink:href="#N"/><use transform="matrix(0.05,0,0,0.05,12,0)" xlink:href="#J"/><use transform="matrix(0.05,0,0,0.05,17.95,0)" xlink:href="#M"/><use transform="matrix(0.05,0,0,0.05,27.950000000000003,0)" xlink:href="#O"/><use transform="matrix(0.05,0,0,0.05,34.95,0)" xlink:href="#J"/></g><use transform="matrix(0.05,0,0,0.05,0,0)" xlink:href="#M" id="d"/><path d="M240-174c0 40-23 61-54 70L253 0h-59l-57-94H76V0H24v-248c93 4 217-23 216 74zM76-134c48-2 112 12 112-38 0-48-66-32-112-35v73" id="P"/><g id="e"><use transform="matrix(0.05,0,0,0.05,0,0)" xlink:href="#P"/><use transform="matrix(0.05,0,0,0.05,12.950000000000001,0)" xlink:href="#L"/><use transform="matrix(0.05,0,0,0.05,23.900000000000002,0)" xlink:href="#I"/></g><path d="M238-95c0 69-44 99-111 99C63 4 22-25 22-93v-155h51v151c-1 38 19 59 55 60 90 1 49-130 58-211h52v153" id="Q"/><path d="M137-138c1-29-70-34-71-4 15 46 118 7 119 86 1 83-164 76-172 9l43-7c4 19 20 25 44 25 33 8 57-30 24-41C81-84 22-81 20-136c-2-80 154-74 161-7" id="R"/><path d="M185-48c-13 30-37 53-82 52C43 2 14-33 14-96s30-98 90-98c62 0 83 45 84 108H66c0 31 8 55 39 56 18 0 30-7 34-22zm-45-69c5-46-57-63-70-21-2 6-4 13-4 21h74" id="S"/><g id="f"><use transform="matrix(0.05,0,0,0.05,0,0)" xlink:href="#Q"/><use transform="matrix(0.05,0,0,0.05,12.950000000000001,0)" xlink:href="#R"/><use transform="matrix(0.05,0,0,0.05,22.950000000000003,0)" xlink:href="#S"/><use transform="matrix(0.05,0,0,0.05,32.95,0)" xlink:href="#O"/></g><path d="M24 0v-248h52V0H24" id="T"/><path d="M135-194c53 0 70 44 70 98 0 56-19 98-73 100-31 1-45-17-59-34 3 33 2 69 2 105H25l-1-265h48c2 10 0 23 3 31 11-24 29-35 60-35zM114-30c33 0 39-31 40-66 0-38-9-64-40-64-56 0-55 130 0 130" id="U"/><g id="g"><use transform="matrix(0.05,0,0,0.05,0,0)" xlink:href="#T"/><use transform="matrix(0.05,0,0,0.05,5,0)" xlink:href="#I"/><use transform="matrix(0.05,0,0,0.05,15.950000000000001,0)" xlink:href="#U"/><use transform="matrix(0.05,0,0,0.05,26.900000000000002,0)" xlink:href="#L"/><use transform="matrix(0.05,0,0,0.05,37.85,0)" xlink:href="#J"/></g><path d="M210-169c-67 3-38 105-44 169h-31v-121c0-29-5-50-35-48C34-165 62-65 56 0H25l-1-190h30c1 10-1 24 2 32 10-44 99-50 107 0 11-21 27-35 58-36 85-2 47 119 55 194h-31v-121c0-29-5-49-35-48" id="V"/><path d="M100-194c62-1 85 37 85 99 1 63-27 99-86 99S16-35 15-95c0-66 28-99 85-99zM99-20c44 1 53-31 53-75 0-43-8-75-51-75s-53 32-53 75 10 74 51 75" id="W"/><path d="M85-194c31 0 48 13 60 33l-1-100h32l1 261h-30c-2-10 0-23-3-31C134-8 116 4 85 4 32 4 16-35 15-94c0-66 23-100 70-100zm9 24c-40 0-46 34-46 75 0 40 6 74 45 74 42 0 51-32 51-76 0-42-9-74-50-73" id="X"/><path d="M100-194c63 0 86 42 84 106H49c0 40 14 67 53 68 26 1 43-12 49-29l28 8c-11 28-37 45-77 45C44 4 14-33 15-96c1-61 26-98 85-98zm52 81c6-60-76-77-97-28-3 7-6 17-6 28h103" id="Y"/><path d="M33-154v-36h34v36H33zM33 0v-36h34V0H33" id="Z"/><g id="h"><use transform="matrix(0.05,0,0,0.05,0,0)" xlink:href="#V"/><use transform="matrix(0.05,0,0,0.05,14.950000000000001,0)" xlink:href="#W"/><use transform="matrix(0.05,0,0,0.05,24.950000000000003,0)" xlink:href="#X"/><use transform="matrix(0.05,0,0,0.05,34.95,0)" xlink:href="#Y"/><use transform="matrix(0.05,0,0,0.05,44.95,0)" xlink:href="#Z"/></g><path d="M908-845H766l-40-639h224zm-449 0H318l-41-639h224" id="aa"/><path d="M631 20c-350 0-501-215-501-562 0-355 162-560 502-560 250 0 399 118 446 323l-192 14c-23-124-109-196-262-196-242 0-305 171-305 415 1 245 61 427 304 427 151 0 248-77 267-215l190 12C1039-107 883 20 631 20" id="ab"/><path d="M615-1102c343 0 484 203 482 560-1 347-147 562-488 562-336 0-475-219-479-562-4-349 156-560 485-560zm-8 989c240 0 301-180 301-429 0-245-55-427-290-427-236 0-299 181-299 427 0 243 61 429 288 429" id="ac"/><path d="M706-1102c241 0 344 136 343 381V0H868v-695c1-168-57-273-220-268-190 6-283 138-283 336V0H185c-3-360 6-732-6-1082h170c4 54 7 126 8 185h3c63-121 164-204 346-205" id="ad"/><path d="M682 16c-209 0-323-80-324-285v-671H190v-142h170l58-282h120v282h432v142H538v652c2 114 60 155 182 155 106 0 209-16 297-34v137C921-4 806 16 682 16" id="ae"/><path d="M745-142h380V0H143v-142h422v-798H246v-142h499v940zM545-1292v-192h200v192H545" id="af"/><path d="M528 20c-247 0-343-132-343-381v-721h180v686c-4 177 45 284 224 277 194-8 279-136 279-336v-627h181c3 360-6 732 6 1082H885c-4-54-7-126-8-185h-3C809-64 714 20 528 20" id="ag"/><path d="M617-1102c355 0 481 238 477 599H322c5 222 84 388 301 388 144 0 244-59 284-166l158 45C1002-72 854 20 623 20c-342 0-490-220-490-568 0-346 151-554 484-554zm291 461c-18-192-90-328-289-328-194 0-287 128-295 328h584" id="ah"/><g id="i"><use transform="matrix(0.0087890625,0,0,0.0087890625,0,0)" xlink:href="#aa"/><use transform="matrix(0.0087890625,0,0,0.0087890625,10.8017578125,0)" xlink:href="#ab"/><use transform="matrix(0.0087890625,0,0,0.0087890625,21.603515625,0)" xlink:href="#ac"/><use transform="matrix(0.0087890625,0,0,0.0087890625,32.4052734375,0)" xlink:href="#ad"/><use transform="matrix(0.0087890625,0,0,0.0087890625,43.20703125,0)" xlink:href="#ae"/><use transform="matrix(0.0087890625,0,0,0.0087890625,54.0087890625,0)" xlink:href="#af"/><use transform="matrix(0.0087890625,0,0,0.0087890625,64.810546875,0)" xlink:href="#ad"/><use transform="matrix(0.0087890625,0,0,0.0087890625,75.6123046875,0)" xlink:href="#ag"/><use transform="matrix(0.0087890625,0,0,0.0087890625,86.4140625,0)" xlink:href="#ah"/><use transform="matrix(0.0087890625,0,0,0.0087890625,97.2158203125,0)" xlink:href="#aa"/></g><path d="M96-169c-40 0-48 33-48 73s9 75 48 75c24 0 41-14 43-38l32 2c-6 37-31 61-74 61-59 0-76-41-82-99-10-93 101-131 147-64 4 7 5 14 7 22l-32 3c-4-21-16-35-41-35" id="ai"/><g id="j"><use transform="matrix(0.05,0,0,0.05,0,0)" xlink:href="#ai"/><use transform="matrix(0.05,0,0,0.05,9,0)" xlink:href="#W"/><use transform="matrix(0.05,0,0,0.05,19,0)" xlink:href="#X"/><use transform="matrix(0.05,0,0,0.05,29,0)" xlink:href="#Y"/><use transform="matrix(0.05,0,0,0.05,39,0)" xlink:href="#Z"/></g><g id="k"><use transform="matrix(0.0087890625,0,0,0.0087890625,0,0)" xlink:href="#aa"/><use transform="matrix(0.0087890625,0,0,0.0087890625,10.8017578125,0)" xlink:href="#aa"/></g><path d="M115-194c55 1 70 41 70 98S169 2 115 4C84 4 66-9 55-30l1 105H24l-1-265h31l2 30c10-21 28-34 59-34zm-8 174c40 0 45-34 45-75s-6-73-45-74c-42 0-51 32-51 76 0 43 10 73 51 73" id="aj"/><path d="M59-47c-2 24 18 29 38 22v24C64 9 27 4 27-40v-127H5v-23h24l9-43h21v43h35v23H59v120" id="ak"/><path d="M135-143c-3-34-86-38-87 0 15 53 115 12 119 90S17 21 10-45l28-5c4 36 97 45 98 0-10-56-113-15-118-90-4-57 82-63 122-42 12 7 21 19 24 35" id="al"/><g id="l"><use transform="matrix(0.05,0,0,0.05,0,0)" xlink:href="#W"/><use transform="matrix(0.05,0,0,0.05,10,0)" xlink:href="#aj"/><use transform="matrix(0.05,0,0,0.05,20,0)" xlink:href="#ak"/><use transform="matrix(0.05,0,0,0.05,25,0)" xlink:href="#al"/><use transform="matrix(0.05,0,0,0.05,34,0)" xlink:href="#Z"/></g><path d="M912-211c-10-84-18-177-18-274v-864h172V0H836L316-1130c7 79 16 167 16 254V0H162v-1349h222" id="am"/><g id="m"><use transform="matrix(0.0087890625,0,0,0.0087890625,0,0)" xlink:href="#am"/><use transform="matrix(0.0087890625,0,0,0.0087890625,10.8017578125,0)" xlink:href="#ac"/><use transform="matrix(0.0087890625,0,0,0.0087890625,21.603515625,0)" xlink:href="#ad"/><use transform="matrix(0.0087890625,0,0,0.0087890625,32.4052734375,0)" xlink:href="#ah"/></g><path d="M698-1104c312 3 392 244 392 558 0 315-82 566-392 566-169 0-277-65-331-184h-5c8 188 2 394 4 589H185V-858c0-76-1-156-6-224h175c6 52 9 120 10 178h4c58-122 150-202 330-200zm-49 991c225 0 255-203 255-433 0-225-32-419-253-419-236 0-285 192-285 441 0 237 53 411 283 411" id="an"/><g id="n"><use transform="matrix(0.0087890625,0,0,0.0087890625,0,0)" xlink:href="#aa"/><use transform="matrix(0.0087890625,0,0,0.0087890625,10.8017578125,0)" xlink:href="#af"/><use transform="matrix(0.0087890625,0,0,0.0087890625,21.603515625,0)" xlink:href="#ad"/><use transform="matrix(0.0087890625,0,0,0.0087890625,32.4052734375,0)" xlink:href="#an"/><use transform="matrix(0.0087890625,0,0,0.0087890625,43.20703125,0)" xlink:href="#ag"/><use transform="matrix(0.0087890625,0,0,0.0087890625,54.0087890625,0)" xlink:href="#ae"/><use transform="matrix(0.0087890625,0,0,0.0087890625,64.810546875,0)" xlink:href="#aa"/></g><path d="M116-571v-205l995-418v154L253-674l858 367v153" id="ao"/><path d="M873-819c-18-114-119-146-250-146-163 0-245 50-245 151 0 151 170 148 294 185 182 54 388 94 388 320 0 240-189 325-439 329-245 4-410-69-454-268l159-31c24 133 136 168 295 165 144-2 270-31 270-171 0-164-195-160-331-202-167-52-350-87-350-299 0-218 173-315 413-313 220 2 373 77 412 260" id="ap"/><path d="M839-1102c70 0 148 7 206 17v167c-112-18-268-36-363 15-129 69-208 203-208 395V0H294c-10-367 32-789-52-1082h171c21 75 41 161 48 250h5c67-152 152-270 373-270" id="aq"/><path d="M334-464v-160h560v160H334" id="ar"/><path d="M715 0H502L69-1082h202c94 253 197 500 285 758 19 57 36 126 52 183 96-335 234-626 350-941h201" id="as"/><path d="M865-914c-3-187-2-380-2-570h180v1261c0 76 1 155 6 223H877c-8-49-9-116-10-174h-5C801-44 708 26 530 26c-135 0-234-46-297-139s-95-232-95-419c0-377 131-566 392-566 176 0 271 63 335 184zm-286-51c-222 0-255 197-255 427 0 229 31 425 253 425 237 0 286-195 286-441 0-238-52-411-284-411" id="at"/><path d="M1048-32c-2 300-135 456-433 456-222-1-358-88-400-267l184-25c22 99 100 157 222 156 184-2 248-125 248-315 0-64 3-133-2-194C807-100 706-13 524-12c-306 0-381-228-381-537 0-318 85-550 400-550 164 0 271 83 325 202h3c1-60 3-134 12-185h171c-13 339-4 702-6 1050zM585-145c210-8 284-178 284-406 0-192-52-331-177-392-33-16-69-22-104-22-223 2-259 184-259 414 0 229 31 415 256 406" id="au"/><path d="M116-154v-153l858-367-858-366v-154l995 418v205" id="av"/><g id="o"><use transform="matrix(0.0087890625,0,0,0.0087890625,0,0)" xlink:href="#aa"/><use transform="matrix(0.0087890625,0,0,0.0087890625,10.8017578125,0)" xlink:href="#ao"/><use transform="matrix(0.0087890625,0,0,0.0087890625,21.603515625,0)" xlink:href="#ag"/><use transform="matrix(0.0087890625,0,0,0.0087890625,32.4052734375,0)" xlink:href="#ap"/><use transform="matrix(0.0087890625,0,0,0.0087890625,43.20703125,0)" xlink:href="#ah"/><use transform="matrix(0.0087890625,0,0,0.0087890625,54.0087890625,0)" xlink:href="#aq"/><use transform="matrix(0.0087890625,0,0,0.0087890625,64.810546875,0)" xlink:href="#ar"/><use transform="matrix(0.0087890625,0,0,0.0087890625,75.6123046875,0)" xlink:href="#an"/><use transform="matrix(0.0087890625,0,0,0.0087890625,86.4140625,0)" xlink:href="#aq"/><use transform="matrix(0.0087890625,0,0,0.0087890625,97.2158203125,0)" xlink:href="#ac"/><use transform="matrix(0.0087890625,0,0,0.0087890625,108.017578125,0)" xlink:href="#af"/><use transform="matrix(0.0087890625,0,0,0.0087890625,118.8193359375,0)" xlink:href="#as"/><use transform="matrix(0.0087890625,0,0,0.0087890625,129.62109375,0)" xlink:href="#at"/><use transform="matrix(0.0087890625,0,0,0.0087890625,140.4228515625,0)" xlink:href="#ah"/><use transform="matrix(0.0087890625,0,0,0.0087890625,151.224609375,0)" xlink:href="#at"/><use transform="matrix(0.0087890625,0,0,0.0087890625,162.0263671875,0)" xlink:href="#ar"/><use transform="matrix(0.0087890625,0,0,0.0087890625,172.828125,0)" xlink:href="#af"/><use transform="matrix(0.0087890625,0,0,0.0087890625,183.6298828125,0)" xlink:href="#ad"/><use transform="matrix(0.0087890625,0,0,0.0087890625,194.431640625,0)" xlink:href="#an"/><use transform="matrix(0.0087890625,0,0,0.0087890625,205.2333984375,0)" xlink:href="#ag"/><use transform="matrix(0.0087890625,0,0,0.0087890625,216.03515625,0)" xlink:href="#ae"/><use transform="matrix(0.0087890625,0,0,0.0087890625,226.8369140625,0)" xlink:href="#ar"/><use transform="matrix(0.0087890625,0,0,0.0087890625,237.638671875,0)" xlink:href="#ap"/><use transform="matrix(0.0087890625,0,0,0.0087890625,248.4404296875,0)" xlink:href="#ae"/><use transform="matrix(0.0087890625,0,0,0.0087890625,259.2421875,0)" xlink:href="#aq"/><use transform="matrix(0.0087890625,0,0,0.0087890625,270.0439453125,0)" xlink:href="#af"/><use transform="matrix(0.0087890625,0,0,0.0087890625,280.845703125,0)" xlink:href="#ad"/><use transform="matrix(0.0087890625,0,0,0.0087890625,291.6474609375,0)" xlink:href="#au"/><use transform="matrix(0.0087890625,0,0,0.0087890625,302.44921875,0)" xlink:href="#av"/><use transform="matrix(0.0087890625,0,0,0.0087890625,313.2509765625,0)" xlink:href="#aa"/></g><path d="M141-36C126-15 110 5 73 4 37 3 15-17 15-53c-1-64 63-63 125-63 3-35-9-54-41-54-24 1-41 7-42 31l-33-3c5-37 33-52 76-52 45 0 72 20 72 64v82c-1 20 7 32 28 27v20c-31 9-61-2-59-35zM48-53c0 20 12 33 32 33 41-3 63-29 60-74-43 2-92-5-92 41" id="aw"/><path d="M84 4C-5 8 30-112 23-190h32v120c0 31 7 50 39 49 72-2 45-101 50-169h31l1 190h-30c-1-10 1-25-2-33-11 22-28 36-60 37" id="ax"/><g id="p"><use transform="matrix(0.05,0,0,0.05,0,0)" xlink:href="#al"/><use transform="matrix(0.05,0,0,0.05,9,0)" xlink:href="#ak"/><use transform="matrix(0.05,0,0,0.05,14,0)" xlink:href="#aw"/><use transform="matrix(0.05,0,0,0.05,24,0)" xlink:href="#ak"/><use transform="matrix(0.05,0,0,0.05,29,0)" xlink:href="#ax"/><use transform="matrix(0.05,0,0,0.05,39,0)" xlink:href="#al"/><use transform="matrix(0.05,0,0,0.05,48,0)" xlink:href="#Z"/></g><path d="M259 363l169-662h265L382 363H259" id="ay"/><g id="q"><use transform="matrix(0.0087890625,0,0,0.0087890625,0,0)" xlink:href="#aa"/><use transform="matrix(0.0087890625,0,0,0.0087890625,10.8017578125,0)" xlink:href="#ab"/><use transform="matrix(0.0087890625,0,0,0.0087890625,21.603515625,0)" xlink:href="#ac"/><use transform="matrix(0.0087890625,0,0,0.0087890625,32.4052734375,0)" xlink:href="#ad"/><use transform="matrix(0.0087890625,0,0,0.0087890625,43.20703125,0)" xlink:href="#ae"/><use transform="matrix(0.0087890625,0,0,0.0087890625,54.0087890625,0)" xlink:href="#af"/><use transform="matrix(0.0087890625,0,0,0.0087890625,64.810546875,0)" xlink:href="#ad"/><use transform="matrix(0.0087890625,0,0,0.0087890625,75.6123046875,0)" xlink:href="#ag"/><use transform="matrix(0.0087890625,0,0,0.0087890625,86.4140625,0)" xlink:href="#ah"/><use transform="matrix(0.0087890625,0,0,0.0087890625,97.2158203125,0)" xlink:href="#at"/><use transform="matrix(0.0087890625,0,0,0.0087890625,108.017578125,0)" xlink:href="#aa"/><use transform="matrix(0.0087890625,0,0,0.0087890625,118.8193359375,0)" xlink:href="#ay"/></g><path d="M365-904c58-129 161-200 334-200 130 0 228 46 293 138s98 233 98 420c0 189-34 331-102 425S824 20 698 20c-170 0-275-64-336-184 0 55-3 116-9 164H179c5-68 6-147 6-223v-1261h180c-2 193 4 394-4 580h4zm283 791c221 0 256-197 256-427 0-229-34-425-254-425-236 0-285 195-285 441 0 237 53 411 283 411" id="az"/><path d="M736-142h380V0H134v-142h422v-1200H267v-142h469v1342" id="aA"/><path d="M839-1335c-182-6-269 67-259 253h491v142H580V0H400v-940H138v-142h262c-15-293 132-408 418-402 94 2 200 7 281 21v145c-75-10-177-14-260-17" id="aB"/><path d="M648-963c-190 6-283 138-283 336V0H185v-1484h181c-2 197 6 404-9 587h3c62-120 159-205 339-205 242 0 351 135 350 381V0H868v-695c1-168-57-273-220-268" id="aC"/><g id="r"><use transform="matrix(0.0087890625,0,0,0.0087890625,0,0)" xlink:href="#aa"/><use transform="matrix(0.0087890625,0,0,0.0087890625,10.8017578125,0)" xlink:href="#az"/><use transform="matrix(0.0087890625,0,0,0.0087890625,21.603515625,0)" xlink:href="#ag"/><use transform="matrix(0.0087890625,0,0,0.0087890625,32.4052734375,0)" xlink:href="#af"/><use transform="matrix(0.0087890625,0,0,0.0087890625,43.20703125,0)" xlink:href="#aA"/><use transform="matrix(0.0087890625,0,0,0.0087890625,54.0087890625,0)" xlink:href="#at"/><use transform="matrix(0.0087890625,0,0,0.0087890625,64.810546875,0)" xlink:href="#ar"/><use transform="matrix(0.0087890625,0,0,0.0087890625,75.6123046875,0)" xlink:href="#aB"/><use transform="matrix(0.0087890625,0,0,0.0087890625,86.4140625,0)" xlink:href="#af"/><use transform="matrix(0.0087890625,0,0,0.0087890625,97.2158203125,0)" xlink:href="#ad"/><use transform="matrix(0.0087890625,0,0,0.0087890625,108.017578125,0)" xlink:href="#af"/><use transform="matrix(0.0087890625,0,0,0.0087890625,118.8193359375,0)" xlink:href="#ap"/><use transform="matrix(0.0087890625,0,0,0.0087890625,129.62109375,0)" xlink:href="#aC"/><use transform="matrix(0.0087890625,0,0,0.0087890625,140.4228515625,0)" xlink:href="#ah"/><use transform="matrix(0.0087890625,0,0,0.0087890625,151.224609375,0)" xlink:href="#at"/><use transform="matrix(0.0087890625,0,0,0.0087890625,162.0263671875,0)" xlink:href="#aa"/></g><path d="M530 26c-303-6-392-228-392-558 0-187 33-329 98-424s162-142 293-142c178 0 273 69 334 184 1-56 3-122 12-169h175c-6 88-6 180-6 282V425H863c1-202-4-411 4-607h-2C805-59 713 29 530 26zm47-139c234 0 286-193 286-441 0-238-55-411-284-411-223 0-255 198-255 427 0 227 33 425 253 425" id="aD"/><path d="M168 279c222 39 310-114 368-290L66-1082h192c120 299 249 590 362 896 115-301 235-597 351-896h190L705 0c-65 164-130 320-275 396-67 36-177 35-262 18V279" id="aE"/><g id="s"><use transform="matrix(0.0087890625,0,0,0.0087890625,0,0)" xlink:href="#aa"/><use transform="matrix(0.0087890625,0,0,0.0087890625,10.8017578125,0)" xlink:href="#aD"/><use transform="matrix(0.0087890625,0,0,0.0087890625,21.603515625,0)" xlink:href="#ag"/><use transform="matrix(0.0087890625,0,0,0.0087890625,32.4052734375,0)" xlink:href="#ah"/><use transform="matrix(0.0087890625,0,0,0.0087890625,43.20703125,0)" xlink:href="#aq"/><use transform="matrix(0.0087890625,0,0,0.0087890625,54.0087890625,0)" xlink:href="#aE"/><use transform="matrix(0.0087890625,0,0,0.0087890625,64.810546875,0)" xlink:href="#aa"/><use transform="matrix(0.0087890625,0,0,0.0087890625,75.6123046875,0)" xlink:href="#ay"/></g><path d="M1000-272c3 95 12 159 101 161 21 0 41-3 59-7V-6c-44 10-86 16-139 16-141 2-191-84-197-217h-6C748-76 648 20 446 20c-207 0-318-120-318-322 0-266 194-348 454-354l236-4c12-191-40-305-222-305-140 0-220 47-232 172l-188-17c33-204 181-292 423-292 255 0 401 118 401 364v466zm-683-27c0 109 63 184 175 182 166-3 259-96 306-217 24-65 20-120 20-200-232 7-501-28-501 235" id="aF"/><g id="t"><use transform="matrix(0.0087890625,0,0,0.0087890625,0,0)" xlink:href="#aa"/><use transform="matrix(0.0087890625,0,0,0.0087890625,10.8017578125,0)" xlink:href="#az"/><use transform="matrix(0.0087890625,0,0,0.0087890625,21.603515625,0)" xlink:href="#aF"/><use transform="matrix(0.0087890625,0,0,0.0087890625,32.4052734375,0)" xlink:href="#ae"/><use transform="matrix(0.0087890625,0,0,0.0087890625,43.20703125,0)" xlink:href="#ab"/><use transform="matrix(0.0087890625,0,0,0.0087890625,54.0087890625,0)" xlink:href="#aC"/><use transform="matrix(0.0087890625,0,0,0.0087890625,64.810546875,0)" xlink:href="#aa"/></g><g id="u"><use transform="matrix(0.0087890625,0,0,0.0087890625,0,0)" xlink:href="#aa"/><use transform="matrix(0.0087890625,0,0,0.0087890625,10.8017578125,0)" xlink:href="#ao"/><use transform="matrix(0.0087890625,0,0,0.0087890625,21.603515625,0)" xlink:href="#ap"/><use transform="matrix(0.0087890625,0,0,0.0087890625,32.4052734375,0)" xlink:href="#ad"/><use transform="matrix(0.0087890625,0,0,0.0087890625,43.20703125,0)" xlink:href="#af"/><use transform="matrix(0.0087890625,0,0,0.0087890625,54.0087890625,0)" xlink:href="#an"/><use transform="matrix(0.0087890625,0,0,0.0087890625,64.810546875,0)" xlink:href="#an"/><use transform="matrix(0.0087890625,0,0,0.0087890625,75.6123046875,0)" xlink:href="#ah"/><use transform="matrix(0.0087890625,0,0,0.0087890625,86.4140625,0)" xlink:href="#ae"/><use transform="matrix(0.0087890625,0,0,0.0087890625,97.2158203125,0)" xlink:href="#av"/><use transform="matrix(0.0087890625,0,0,0.0087890625,108.017578125,0)" xlink:href="#aa"/></g><path d="M87 75C49 33 22-17 22-94c0-76 28-126 65-167h31c-38 41-64 92-64 168S80 34 118 75H87" id="aG"/><path d="M101-234c-31-9-42 10-38 44h38v23H63V0H32v-167H5v-23h27c-7-52 17-82 69-68v24" id="aH"/><path d="M114-163C36-179 61-72 57 0H25l-1-190h30c1 12-1 29 2 39 6-27 23-49 58-41v29" id="aI"/><g id="v"><use transform="matrix(0.05,0,0,0.05,0,0)" xlink:href="#aG"/><use transform="matrix(0.05,0,0,0.05,5.95,0)" xlink:href="#aH"/><use transform="matrix(0.05,0,0,0.05,10.95,0)" xlink:href="#W"/><use transform="matrix(0.05,0,0,0.05,20.95,0)" xlink:href="#aI"/></g><path d="M145-31C134-9 116 4 85 4 32 4 16-35 15-94c0-59 17-99 70-100 32-1 48 14 60 33 0-11-1-24 2-32h30l-1 268h-32zM93-21c41 0 51-33 51-76s-8-73-50-73c-40 0-46 35-46 75s5 74 45 74" id="aJ"/><path d="M179-190L93 31C79 59 56 82 12 73V49c39 6 53-20 64-50L1-190h34L92-34l54-156h33" id="aK"/><g id="w"><use transform="matrix(0.05,0,0,0.05,0,0)" xlink:href="#aJ"/><use transform="matrix(0.05,0,0,0.05,10,0)" xlink:href="#ax"/><use transform="matrix(0.05,0,0,0.05,20,0)" xlink:href="#Y"/><use transform="matrix(0.05,0,0,0.05,30,0)" xlink:href="#aI"/><use transform="matrix(0.05,0,0,0.05,35.95,0)" xlink:href="#aK"/></g><path d="M33-261c38 41 65 92 65 168S71 34 33 75H2C39 34 66-17 66-93S39-220 2-261h31" id="aL"/><g id="x"><use transform="matrix(0.05,0,0,0.05,0,0)" xlink:href="#V"/><use transform="matrix(0.05,0,0,0.05,14.950000000000001,0)" xlink:href="#W"/><use transform="matrix(0.05,0,0,0.05,24.950000000000003,0)" xlink:href="#X"/><use transform="matrix(0.05,0,0,0.05,34.95,0)" xlink:href="#Y"/><use transform="matrix(0.05,0,0,0.05,44.95,0)" xlink:href="#aL"/></g><g id="y"><use transform="matrix(0.05,0,0,0.05,0,0)" xlink:href="#W"/><use transform="matrix(0.05,0,0,0.05,10,0)" xlink:href="#aj"/><use transform="matrix(0.05,0,0,0.05,20,0)" xlink:href="#ak"/><use transform="matrix(0.05,0,0,0.05,25,0)" xlink:href="#al"/><use transform="matrix(0.05,0,0,0.05,34,0)" xlink:href="#Z"/></g><path d="M153-248C145-148 188 4 80 4 36 3 13-21 6-62l32-5c4 25 16 42 43 43 27 0 39-20 39-49v-147H72v-28h81" id="aM"/><path d="M185-189c-5-48-123-54-124 2 14 75 158 14 163 119 3 78-121 87-175 55-17-10-28-26-33-46l33-7c5 56 141 63 141-1 0-78-155-14-162-118-5-82 145-84 179-34 5 7 8 16 11 25" id="aN"/><path d="M140-251c81 0 123 46 123 126C263-46 219 4 140 4 59 4 17-45 17-125s42-126 123-126zm0 227c63 0 89-41 89-101s-29-99-89-99c-61 0-89 39-89 99S79-25 140-24" id="aO"/><path d="M190 0L58-211 59 0H30v-248h39L202-35l-2-213h31V0h-41" id="aP"/><g id="z"><use transform="matrix(0.05,0,0,0.05,0,0)" xlink:href="#aM"/><use transform="matrix(0.05,0,0,0.05,9,0)" xlink:href="#aN"/><use transform="matrix(0.05,0,0,0.05,21,0)" xlink:href="#aO"/><use transform="matrix(0.05,0,0,0.05,35,0)" xlink:href="#aP"/></g><path d="M115-194c53 0 69 39 70 98 0 66-23 100-70 100C84 3 66-7 56-30L54 0H23l1-261h32v101c10-23 28-34 59-34zm-8 174c40 0 45-34 45-75 0-40-5-75-45-74-42 0-51 32-51 76 0 43 10 73 51 73" id="aQ"/><path d="M24-231v-30h32v30H24zM-9 49c24 4 33-6 33-30v-209h32V24c2 40-23 58-65 49V49" id="aR"/><g id="A"><use transform="matrix(0.05,0,0,0.05,0,0)" xlink:href="#W"/><use transform="matrix(0.05,0,0,0.05,10,0)" xlink:href="#aQ"/><use transform="matrix(0.05,0,0,0.05,20,0)" xlink:href="#aR"/><use transform="matrix(0.05,0,0,0.05,23.95,0)" xlink:href="#Y"/><use transform="matrix(0.05,0,0,0.05,33.95,0)" xlink:href="#ai"/><use transform="matrix(0.05,0,0,0.05,42.95,0)" xlink:href="#ak"/></g><path d="M106-169C34-169 62-67 57 0H25v-261h32l-1 103c12-21 28-36 61-36 89 0 53 116 60 194h-32v-121c2-32-8-49-39-48" id="aS"/><g id="B"><use transform="matrix(0.05,0,0,0.05,0,0)" xlink:href="#aQ"/><use transform="matrix(0.05,0,0,0.05,10,0)" xlink:href="#aw"/><use transform="matrix(0.05,0,0,0.05,20,0)" xlink:href="#ak"/><use transform="matrix(0.05,0,0,0.05,25,0)" xlink:href="#ai"/><use transform="matrix(0.05,0,0,0.05,34,0)" xlink:href="#aS"/></g><g id="C"><use transform="matrix(0.05,0,0,0.05,0,0)" xlink:href="#V"/><use transform="matrix(0.05,0,0,0.05,14.950000000000001,0)" xlink:href="#W"/><use transform="matrix(0.05,0,0,0.05,24.950000000000003,0)" xlink:href="#X"/><use transform="matrix(0.05,0,0,0.05,34.95,0)" xlink:href="#Y"/><use transform="matrix(0.05,0,0,0.05,44.95,0)" xlink:href="#aL"/></g><path d="M76-208v77h127v40H76V0H24v-248h183v40H76" id="aT"/><path d="M114-157C55-157 80-60 75 0H25v-261h50l-1 109c12-26 28-41 61-42 86-1 58 113 63 194h-50c-7-57 23-157-34-157" id="aU"/><path d="M88-194c31-1 46 15 58 34l-1-101h50l1 261h-48c-2-10 0-23-3-31C134-8 116 4 84 4 32 4 16-41 15-95c0-56 19-97 73-99zm17 164c33 0 40-30 41-66 1-37-9-64-41-64s-38 30-39 65c0 43 13 65 39 65" id="aV"/><g id="D"><use transform="matrix(0.05,0,0,0.05,0,0)" xlink:href="#aT"/><use transform="matrix(0.05,0,0,0.05,10.950000000000001,0)" xlink:href="#K"/><use transform="matrix(0.05,0,0,0.05,15.950000000000001,0)" xlink:href="#I"/><use transform="matrix(0.05,0,0,0.05,26.900000000000002,0)" xlink:href="#K"/><use transform="matrix(0.05,0,0,0.05,31.900000000000002,0)" xlink:href="#R"/><use transform="matrix(0.05,0,0,0.05,41.900000000000006,0)" xlink:href="#aU"/><use transform="matrix(0.05,0,0,0.05,52.85,0)" xlink:href="#S"/><use transform="matrix(0.05,0,0,0.05,62.85,0)" xlink:href="#aV"/></g><g id="E"><use transform="matrix(0.0087890625,0,0,0.0087890625,0,0)" xlink:href="#aa"/><use transform="matrix(0.0087890625,0,0,0.0087890625,10.8017578125,0)" xlink:href="#aB"/><use transform="matrix(0.0087890625,0,0,0.0087890625,21.603515625,0)" xlink:href="#af"/><use transform="matrix(0.0087890625,0,0,0.0087890625,32.4052734375,0)" xlink:href="#ad"/><use transform="matrix(0.0087890625,0,0,0.0087890625,43.20703125,0)" xlink:href="#af"/><use transform="matrix(0.0087890625,0,0,0.0087890625,54.0087890625,0)" xlink:href="#ap"/><use transform="matrix(0.0087890625,0,0,0.0087890625,64.810546875,0)" xlink:href="#aC"/><use transform="matrix(0.0087890625,0,0,0.0087890625,75.6123046875,0)" xlink:href="#ah"/><use transform="matrix(0.0087890625,0,0,0.0087890625,86.4140625,0)" xlink:href="#at"/><use transform="matrix(0.0087890625,0,0,0.0087890625,97.2158203125,0)" xlink:href="#aa"/></g><path d="M1018 0H814c-67-224-138-444-200-673C552-442 476-224 407 0H204L21-1082h178c43 310 105 601 126 933 54-225 128-425 193-638h193c63 212 134 415 185 638 22-336 90-622 136-933h176" id="aW"/><g id="F"><use transform="matrix(0.0087890625,0,0,0.0087890625,0,0)" xlink:href="#aa"/><use transform="matrix(0.0087890625,0,0,0.0087890625,10.8017578125,0)" xlink:href="#aW"/><use transform="matrix(0.0087890625,0,0,0.0087890625,21.603515625,0)" xlink:href="#aF"/><use transform="matrix(0.0087890625,0,0,0.0087890625,32.4052734375,0)" xlink:href="#af"/><use transform="matrix(0.0087890625,0,0,0.0087890625,43.20703125,0)" xlink:href="#ae"/><use transform="matrix(0.0087890625,0,0,0.0087890625,54.0087890625,0)" xlink:href="#af"/><use transform="matrix(0.0087890625,0,0,0.0087890625,64.810546875,0)" xlink:href="#ad"/><use transform="matrix(0.0087890625,0,0,0.0087890625,75.6123046875,0)" xlink:href="#au"/><use transform="matrix(0.0087890625,0,0,0.0087890625,86.4140625,0)" xlink:href="#ar"/><use transform="matrix(0.0087890625,0,0,0.0087890625,97.2158203125,0)" xlink:href="#af"/><use transform="matrix(0.0087890625,0,0,0.0087890625,108.017578125,0)" xlink:href="#ad"/><use transform="matrix(0.0087890625,0,0,0.0087890625,118.8193359375,0)" xlink:href="#an"/><use transform="matrix(0.0087890625,0,0,0.0087890625,129.62109375,0)" xlink:href="#ag"/><use transform="matrix(0.0087890625,0,0,0.0087890625,140.4228515625,0)" xlink:href="#ae"/><use transform="matrix(0.0087890625,0,0,0.0087890625,151.224609375,0)" xlink:href="#aa"/></g></defs></g></svg>