<svg xmlns="http://www.w3.org/2000/svg" width="180" height="29" viewBox="0 0 180 29" fill="none">
  <path d="M165.389 7.9179H168.295L166.823 4.16406L165.389 7.9179Z" fill="#FF9D00"/>
  <path d="M172.59 0H165.029C160.954 0 157.619 3.28433 157.619 7.29751V7.64629C157.619 11.6595 160.954 14.9438 165.029 14.9438H172.59C176.665 14.9438 180 11.6595 180 7.64629V7.29751C180 3.28433 176.665 0 172.59 0ZM169.494 11.1162L168.729 9.08835H164.964L164.199 11.1162H162.622L165.952 2.94784H167.776L171.153 11.1162H169.493H169.494ZM173.848 11.1162H172.365V2.94784H173.848V11.1162Z" fill="#FF9D00"/>
  <path d="M0 28.6499V3.01025H4.57001V12.8129L3.75499 15.4992H4.92417C5.77437 12.9873 7.75743 10.7896 12.0085 10.7896C17.1449 10.7896 20.0134 14.8363 20.0134 19.8947C20.0134 24.9531 17.1438 28.9998 12.0085 28.9998C7.75743 28.9998 5.77437 26.8021 4.92417 24.326H3.75499L4.57001 26.9776V28.6521H0V28.6499ZM10.0595 25.0917C13.3536 25.0917 15.4434 23.5222 15.4434 19.8936C15.4434 16.2649 13.3536 14.6954 10.0595 14.6954C6.76534 14.6954 4.56887 16.2649 4.56887 19.8936C4.56887 23.5222 6.80053 25.0917 10.0595 25.0917Z" fill="black"/>
  <path d="M42.8598 28.6502H38.3261V26.9756L39.1411 24.324H37.972C37.1218 26.8012 34.9253 28.9978 30.8877 28.9978C25.5038 28.9978 22.3867 24.9511 22.3867 19.8927C22.3867 14.8343 25.5038 10.7876 30.8877 10.7876C34.9253 10.7876 37.1218 12.9853 37.972 15.4972H39.1411L38.3261 12.811V11.1364H42.8598V28.6479V28.6502ZM32.5869 14.6968C29.2928 14.6968 26.9545 16.1266 26.9545 19.895C26.9545 23.6633 29.2928 25.0931 32.5869 25.0931C35.8811 25.0931 38.325 23.6633 38.325 19.895C38.325 16.1266 35.8459 14.6968 32.5869 14.6968Z" fill="black"/>
  <path d="M54.5858 10.7896C58.9072 10.7896 63.299 13.127 63.6543 18.1497H59.0854C58.7313 15.8826 56.9956 14.6965 54.5869 14.6965C51.328 14.6965 49.6991 16.8596 49.6991 19.8947C49.6991 22.9297 51.328 25.0928 54.5869 25.0928C56.9956 25.0928 58.7313 23.9067 59.0854 21.6397H63.6543C63.3001 26.6634 58.9083 28.9998 54.5858 28.9998C48.8829 28.9998 45.1279 25.4416 45.1279 19.8947C45.1279 14.3478 48.8829 10.7896 54.5858 10.7896Z" fill="black"/>
  <path d="M96.278 10.7896C101.591 10.7896 105.24 13.999 105.24 19.3357V20.8013H91.532C91.6024 23.3478 93.1257 25.3365 96.8103 25.3365C99.1839 25.3365 100.848 24.3595 101.309 22.5105H105.878C105.382 25.0917 102.761 28.9987 96.8092 28.9987C90.1858 28.9987 87.2095 24.6736 87.2095 19.6845C87.2095 14.1029 90.9645 10.7896 96.278 10.7896ZM100.918 18.0804C100.918 16.1621 99.5721 14.4875 96.278 14.4875C92.9838 14.4875 91.532 16.1621 91.532 18.0804H100.918Z" fill="black"/>
  <path d="M113.528 21.6736V28.6502H108.959V11.1387H113.528V13.6159L112.713 16.3022H113.883C114.591 13.1632 116.822 10.791 120.648 10.791C124.969 10.791 127.662 13.5119 127.662 18.7101V28.6514H123.128V19.3718C123.128 15.988 121.959 14.698 119.126 14.698C115.796 14.698 113.529 16.8264 113.529 21.6747L113.528 21.6736Z" fill="black"/>
  <path d="M150.544 28.6499H145.976V26.9753L146.826 24.3237H145.621C144.771 26.8009 142.823 28.9976 138.537 28.9976C133.401 28.9976 130.532 24.9508 130.532 19.8924C130.532 14.8341 133.402 10.7873 138.537 10.7873C142.823 10.7873 144.771 12.9851 145.621 15.497H146.826L145.976 12.8107V3.01025H150.544V28.6499ZM140.485 14.6966C137.191 14.6966 135.101 16.2661 135.101 19.8947C135.101 23.5233 137.191 25.0928 140.485 25.0928C143.779 25.0928 145.976 23.5233 145.976 19.8947C145.976 16.2661 143.779 14.6966 140.485 14.6966Z" fill="black"/>
  <path d="M79.4519 11.1387L71.1633 18.0807V10.7251H66.5933V28.6503H71.1633V23.5226L74.4574 20.8017L80.6563 28.6503H86.1469L77.7163 18.1154L86.1469 11.1387H79.4519Z" fill="black"/>
</svg>
